<svg xmlns="http://www.w3.org/2000/svg" viewBox="0 0 514.3 305.87"><defs><style>.cls-1{fill:#fff;}</style></defs><title>cwlogo_white_5</title><g id="Layer_2" data-name="Layer 2"><g id="Layer_1-2" data-name="Layer 1"><path class="cls-1" d="M95.27,49c1.9-.58,3.63-1.35,5.28-1.93.82-.27,1.73-.68,2.59-1s1.71-.76,2.53-1.19a27,27,0,0,0,4.59-3.06c1.4-1.19,2.84-2.47,4.12-3.75a17.88,17.88,0,0,0,1.76-2,6.6,6.6,0,0,0,.62-1,2.58,2.58,0,0,0,.17-.49c.06-.21.12-.42.16-.61a2.16,2.16,0,0,0-.14-1.72,2.43,2.43,0,0,0-1-.77,6.75,6.75,0,0,0-.86-.27,4.8,4.8,0,0,0-.87-.12,4.43,4.43,0,0,0-1.77.22,3.42,3.42,0,0,0-1.49,1.14,5.91,5.91,0,0,0-1,2.16h0l-.91-.51a4.52,4.52,0,0,0,1.46-.92c.11-.1.2-.22.41-.39a1.39,1.39,0,0,1,.8-.28A2.12,2.12,0,0,1,113,33a3,3,0,0,1,.82.9A3,3,0,0,1,114.2,35a3.68,3.68,0,0,1-.4,2.23,13.45,13.45,0,0,1-2.73,3.05c-.5.45-1,.89-1.52,1.31l-.79.61-.41.3-.21.14-.1.07-.06,0s-.06,0,0,0l-.06.05c-2,1.24-4.13,2.34-6.26,3.39-1.06.52-2.13,1-3.2,1.53l-1.62.73-.81.36-.41.18C95.46,49.06,95.45,49,95.27,49Zm-.17.06a1.42,1.42,0,0,1,.44-.31l.39-.21.78-.41,1.56-.85,3.09-1.74c2-1.14,4.08-2.34,6-3.65l-.11.09.47-.36.38-.3.72-.63c.48-.43,1-.87,1.4-1.33a12.83,12.83,0,0,0,2.32-2.81,2.23,2.23,0,0,0,.16-1.37,1.68,1.68,0,0,0-.22-.56,1.18,1.18,0,0,0-.17-.2,2.19,2.19,0,0,0-.22-.2.77.77,0,0,0-.29-.15l0,0s.07,0,.06,0a1.64,1.64,0,0,0-.3.24,4.53,4.53,0,0,1-2,1l-.83.17-.08-.69h0a6,6,0,0,1,.43-3.12,5.08,5.08,0,0,1,2.07-2.37,6.39,6.39,0,0,1,6-.18,4.41,4.41,0,0,1,2.27,2.34,4.85,4.85,0,0,1,0,3.28c-.08.25-.17.48-.25.71a4.3,4.3,0,0,1-.36.75,8.74,8.74,0,0,1-.93,1.26,21.59,21.59,0,0,1-2.12,2.06c-1.48,1.26-3,2.4-4.53,3.53a28.13,28.13,0,0,1-5.05,2.83c-.88.39-1.78.72-2.68,1a27.21,27.21,0,0,1-2.77.85C98.7,48.26,96.8,48.58,95.1,49.09Z"/><path class="cls-1" d="M14.72,114.71l3.18-7.11a36.21,36.21,0,0,1,1.77-3.45l1.88-3.42c1.25-2.28,2.49-4.56,3.77-6.82l3.9-6.75c2.56-4.52,4.81-9.19,7-13.9a149.29,149.29,0,0,0,6-14.27c.87-2.45,1.74-4.87,2.37-7.3a40.92,40.92,0,0,0,1.15-7.38,38.3,38.3,0,0,0-.09-7.42,20.1,20.1,0,0,0-.8-3.57,21.17,21.17,0,0,0-1.48-3.38A6.82,6.82,0,0,0,41,27.48a7.69,7.69,0,0,0-3.31-1.06,13.8,13.8,0,0,0-7.13,1.63,9.88,9.88,0,0,0-2.91,2.25,7.14,7.14,0,0,0-1,1.52,7.72,7.72,0,0,0-.68,1.71,3.33,3.33,0,0,0,.85,3.26,4.19,4.19,0,0,0,3.31,1.27v.47a4.3,4.3,0,0,1-1.68-.5,3.72,3.72,0,0,1-1.37-1.16,3.41,3.41,0,0,1-.38-3.64A4.07,4.07,0,0,1,28,31.83,10.31,10.31,0,0,1,29.57,31a7.39,7.39,0,0,1,3.6-.54,7.63,7.63,0,0,1,3.44,1.3A9.77,9.77,0,0,1,38,32.88a10.27,10.27,0,0,1,1.18,1.34,16.67,16.67,0,0,1,2.55,6.44,25.3,25.3,0,0,1,.42,6.78,45.69,45.69,0,0,1-1,6.64,100.55,100.55,0,0,1-4,12.7C35.59,70.92,33.87,75,32,79S28.17,87,26.24,90.93,22,98.68,20.11,102.65,16.41,110.68,14.72,114.71Zm0,0c.78-2.12,1.63-4.12,2.49-6.16s1.68-4.08,2.58-6.1c1.75-4.08,4-7.91,5.79-11.9s3.84-7.92,5.55-12S34.5,70.5,36,66.35a102.23,102.23,0,0,0,3.71-12.58,44.1,44.1,0,0,0,.91-6.42A24.16,24.16,0,0,0,40.08,41a15.11,15.11,0,0,0-2.34-5.72,14.48,14.48,0,0,0-1-1.13,7.93,7.93,0,0,0-1.13-1A5.88,5.88,0,0,0,33,32.09a6.67,6.67,0,0,0-2.87.26,9.87,9.87,0,0,0-1.37.63,2.87,2.87,0,0,0-1,.88,2.69,2.69,0,0,0,0,2.59,3,3,0,0,0,1,1.12,3.1,3.1,0,0,0,1.45.49l2.21.16-2.21.31a4.74,4.74,0,0,1-3.83-1.25,4.09,4.09,0,0,1-1.16-1.79,4.48,4.48,0,0,1-.1-2.15,8.93,8.93,0,0,1,.65-2,8.62,8.62,0,0,1,1.05-1.81,11.22,11.22,0,0,1,3.11-2.76,15.73,15.73,0,0,1,7.94-2.41,9.5,9.5,0,0,1,4.35,1.09,9.39,9.39,0,0,1,3.35,3.09,24.12,24.12,0,0,1,1.93,3.73,20.65,20.65,0,0,1,1.13,4.06,31,31,0,0,1,.19,8.16,40.24,40.24,0,0,1-1.51,7.93c-.77,2.58-1.75,5-2.7,7.43A148.73,148.73,0,0,1,37.8,74.06c-2.39,4.63-4.92,9.2-7.62,13.67l-4.12,6.61c-1.35,2.22-2.66,4.45-4,6.68l-2,3.32a35.39,35.39,0,0,0-1.94,3.41C16.88,110.09,15.77,112.43,14.7,114.75Z"/><path class="cls-1" d="M31.22,28.52A13.09,13.09,0,0,0,28.41,30a9.13,9.13,0,0,0-2.14,2.4,6,6,0,0,1,1.89-2.71,4.78,4.78,0,0,1,3.06-1.25Z"/><path class="cls-1" d="M41.8,34.63a25.93,25.93,0,0,0-1.93-2.78,21.83,21.83,0,0,0-2.24-2.44,7.62,7.62,0,0,0-2.83-1.49,13.63,13.63,0,0,0-3.31-.46A7.06,7.06,0,0,1,35,27.2a6.55,6.55,0,0,1,3.22,1.55,14.61,14.61,0,0,1,2.23,2.71,13.15,13.15,0,0,1,1.49,3.12Z"/><path class="cls-1" d="M42.46,32.21A19.59,19.59,0,0,0,40.9,30a15.36,15.36,0,0,0-1.83-1.94,7.16,7.16,0,0,0-5-1.47v-.07a6.46,6.46,0,0,1,2.77-.08,5.85,5.85,0,0,1,2.56,1.19,10.43,10.43,0,0,1,1.83,2.11,10,10,0,0,1,1.25,2.46Z"/><path class="cls-1" d="M44.11,40.75a74.75,74.75,0,0,1-.66,9.91,67.3,67.3,0,0,1-2.18,9.7,84.4,84.4,0,0,1-3.45,9.31c-1.31,3-2.63,6.06-4.12,9,1.08-3.12,2.23-6.21,3.35-9.31s2.34-6.14,3.29-9.29a87,87,0,0,0,2.36-9.55c.66-3.22.87-6.5,1.3-9.78Z"/><path class="cls-1" d="M166.51,34.27a53.33,53.33,0,0,1,6-2.16c2-.6,4.11-1.05,6.19-1.47s4.2-.72,6.29-1,4.19-.62,6.28-1a73.54,73.54,0,0,0,12.28-2.86,31.9,31.9,0,0,0,5.67-2.56,16,16,0,0,0,4.53-4,21.72,21.72,0,0,0,2.88-5.1,18.46,18.46,0,0,0,.87-2.7,12.92,12.92,0,0,0,.29-2.75,6.74,6.74,0,0,0-1.89-4.86,8.81,8.81,0,0,0-5.08-2.51,6.86,6.86,0,0,0-3,.07,5.49,5.49,0,0,0-2.56,1.45,9.93,9.93,0,0,0-1.6,2.47,9.19,9.19,0,0,1-1,1.44A7,7,0,0,1,201.23,8a7.84,7.84,0,0,1-3.55,1.28,6.45,6.45,0,0,1-3.82-.87,4.19,4.19,0,0,1-2.13-3.38,3.67,3.67,0,0,1,.44-1.89,4,4,0,0,1,.49-.76,3.18,3.18,0,0,1,.3-.33c.09-.11.22-.21.54-.12.16.3.13.42.07.53a2.35,2.35,0,0,0-.11.35,2.76,2.76,0,0,0-.11.69,3.1,3.1,0,0,0,.2,1.25A3,3,0,0,0,195,6.38,5.45,5.45,0,0,0,199.9,6a6.87,6.87,0,0,0,2-1.91,11.19,11.19,0,0,1,2.4-2.48A9.54,9.54,0,0,1,210.88.11a11.12,11.12,0,0,1,6.28,2.31,8.46,8.46,0,0,1,2.3,2.69,10.12,10.12,0,0,1,1,3.42,12.11,12.11,0,0,1-.14,3.51,14.06,14.06,0,0,1-1,3.31,16.25,16.25,0,0,1-4.07,5.4,30.51,30.51,0,0,1-11.41,6.18,74,74,0,0,1-12.53,2.45c-2.11.26-4.21.52-6.33.73s-4.21.38-6.3.74A54.6,54.6,0,0,0,166.51,34.27Z"/><path class="cls-1" d="M182,30.11c1.18-.28,2.32-.7,3.51-1s2.38-.5,3.57-.76c2.37-.47,4.75-1,7.11-1.49a26.15,26.15,0,0,0,12.55-6.37,15.56,15.56,0,0,0,3.87-5.72A13.24,13.24,0,0,0,213.24,8a4.77,4.77,0,0,0-1.55-2.66A6.69,6.69,0,0,0,208.75,4a7.93,7.93,0,0,0-3.35-.11c-1.05.25-1.87,1.26-2.82,2,.68-1,1.24-2.17,2.54-2.78A5.47,5.47,0,0,1,207,2.7a11.21,11.21,0,0,1,1.92.06,7.17,7.17,0,0,1,3.67,1.48,5.79,5.79,0,0,1,2.06,3.5,14.7,14.7,0,0,1-.76,7.55,17,17,0,0,1-4.29,6.18,25.11,25.11,0,0,1-6.2,4.08A26.47,26.47,0,0,1,200,26.89a32.67,32.67,0,0,1-3.59.83C191.61,28.69,186.75,29,182,30.11Z"/><path class="cls-1" d="M216.34,7.78a7,7,0,0,0-1.24-2.89,7.47,7.47,0,0,0-2.33-2,10.51,10.51,0,0,0-3-1,12.13,12.13,0,0,0-3.19-.1A8.87,8.87,0,0,1,213,2.4a6.62,6.62,0,0,1,2.43,2.24A5.63,5.63,0,0,1,216.34,7.78Z"/><path class="cls-1" d="M215.63,13.18A13.91,13.91,0,0,1,214,17.51a16.85,16.85,0,0,1-2.83,3.69A17.12,17.12,0,0,1,207.52,24a14.79,14.79,0,0,1-2.06,1l-2.17.79,2.07-1a21.46,21.46,0,0,0,2-1.16,20.64,20.64,0,0,0,3.5-2.88A22.1,22.1,0,0,0,215.63,13.18Z"/><path class="cls-1" d="M23.07,268.67c-3.53-2.82-7-5.72-10.3-8.78s-6.37-6.37-9.42-9.79A13,13,0,0,1,.1,243.73a7.4,7.4,0,0,1,2.61-7.06,6.65,6.65,0,0,1,3.69-1.31A8.71,8.71,0,0,1,10,236a6.33,6.33,0,0,1,3,2,4.07,4.07,0,0,1,.4,3.47,4.08,4.08,0,0,0-1-3,6.39,6.39,0,0,0-2.84-1.22c-2.06-.42-4.26-.17-5.62,1.06a5.9,5.9,0,0,0-1.62,5.14,9.23,9.23,0,0,0,.78,2.86,15.46,15.46,0,0,0,1.54,2.73,110.36,110.36,0,0,0,8.62,10.21c1.55,1.63,3.14,3.21,4.77,4.76S21.38,267.16,23.07,268.67Z"/><path class="cls-1" d="M13.47,241.48a2.06,2.06,0,0,0-3,.24,3,3,0,0,0-.64,1.3,6.33,6.33,0,0,0-.33,1.66,8,8,0,0,0,0,.85c0,.3,0,.64.06.89a15.22,15.22,0,0,0,.37,1.83A30.39,30.39,0,0,0,11.13,252a19.28,19.28,0,0,0,1.81,3.41c.37.56.73,1.14,1.12,1.69s.8,1.1,1.18,1.66c1.55,2.23,3.07,4.5,4.61,6.79a62.21,62.21,0,0,1-6-5.76c-1-1-1.86-2-2.72-3.12A18.87,18.87,0,0,1,8.87,253a23.29,23.29,0,0,1-1.47-4,15.18,15.18,0,0,1-.49-2.18,9.54,9.54,0,0,1-.08-1.15,8.24,8.24,0,0,1,.06-1.2,7,7,0,0,1,.74-2.28,4.39,4.39,0,0,1,1.74-2,3.48,3.48,0,0,1,1.24-.41,3.08,3.08,0,0,1,1.28,0A2.06,2.06,0,0,1,13.47,241.48Z"/><path class="cls-1" d="M6.15,239.36a2.92,2.92,0,0,1,1.7-1.17,4.3,4.3,0,0,1,2.11.08,6.57,6.57,0,0,1,1.92.83,4.11,4.11,0,0,1,1.41,1.52,19.84,19.84,0,0,0-3.5-1.77,4.61,4.61,0,0,0-1.87-.26A3.46,3.46,0,0,0,6.15,239.36Z"/><path class="cls-1" d="M4.33,239.56a4.45,4.45,0,0,1,3.8-2.25,4.71,4.71,0,0,1,4,1.86,6.43,6.43,0,0,0-4-1.15A6.64,6.64,0,0,0,4.33,239.56Z"/><path class="cls-1" d="M5.06,242.57c.43,1.67.58,3.3,1,4.92a37,37,0,0,0,1.41,4.81,16.13,16.13,0,0,1-2-4.65A10.79,10.79,0,0,1,5.06,242.57Z"/><path class="cls-1" d="M4.11,240.49A10.67,10.67,0,0,0,4.26,246c.47,1.78,1.27,3.47,1.9,5.26h0a16.24,16.24,0,0,1-2.49-5.12,9.54,9.54,0,0,1-.3-2.87A6.08,6.08,0,0,1,4.11,240.49Z"/><path class="cls-1" d="M199.24,298.19a88.07,88.07,0,0,1-16.7-4.28l-16.12-6.06c-5.37-2-10.73-4.06-16.13-6-2.71-1-5.4-1.95-8.12-2.71s-5.5-1.48-8.29-2a61.28,61.28,0,0,0-8.41-1.11,25.65,25.65,0,0,0-8.24.54,20.45,20.45,0,0,0-7.27,3.7,15.72,15.72,0,0,0-2.87,2.83,10.79,10.79,0,0,0-1,1.67,18.54,18.54,0,0,0-.83,1.85,5.66,5.66,0,0,0-.23,3.57,5.89,5.89,0,0,0,2.07,2.9,6.47,6.47,0,0,0,3.29,1.51,4.38,4.38,0,0,0,3.21-1.06l.86-.61c.27-.2.53-.39.78-.59.52-.4.84-.86,1.67-1.5a6.22,6.22,0,0,1,2.5-1A5.74,5.74,0,0,1,122,290a6.11,6.11,0,0,1,2.3,1.31,5,5,0,0,1,1.5,2.28,4.68,4.68,0,0,1,0,2.75,2.2,2.2,0,0,1-.75,1.09,1.89,1.89,0,0,1-1.33.46,9,9,0,0,1,0-1.25,5.43,5.43,0,0,1,.09-.88,2.55,2.55,0,0,0-.12-1.48,3.35,3.35,0,0,0-2.34-1.8,4,4,0,0,0-1.53,0,3.52,3.52,0,0,0-1.35.56c-.24.18-.85.91-1.46,1.43-.3.27-.63.52-.93.75l-.91.65a9.27,9.27,0,0,1-2.29,1.21,6.57,6.57,0,0,1-2.84.3,9.33,9.33,0,0,1-4.73-2.12,8.64,8.64,0,0,1-3-4.35,7.41,7.41,0,0,1-.23-2.73,8.24,8.24,0,0,1,.7-2.5,17.55,17.55,0,0,1,1.11-2.07,13.35,13.35,0,0,1,1.41-1.92,22,22,0,0,1,3.43-3,22.39,22.39,0,0,1,8-3.94,27.32,27.32,0,0,1,8.85-.46,63.83,63.83,0,0,1,8.61,1.27c2.83.61,5.62,1.37,8.38,2.2s5.47,1.86,8.17,2.86c5.38,2,10.71,4.13,16.06,6.23s10.65,4.3,16,6.48A98.9,98.9,0,0,0,199.24,298.19Z"/><path class="cls-1" d="M119,289.24a3.93,3.93,0,0,1-2.18,1.82,4.28,4.28,0,0,1-1.52.3,3.41,3.41,0,0,1-1.76-.44,4.19,4.19,0,0,1-1.38-1.23,5.46,5.46,0,0,1-.73-1.57,4.72,4.72,0,0,1,.49-3.56,8.79,8.79,0,0,1,2-2.36,11.25,11.25,0,0,1,2.48-1.55,18.87,18.87,0,0,1,5.25-1.44,36.56,36.56,0,0,1,5.2-.36c1.7,0,3.41,0,5.13.1a90.78,90.78,0,0,1,10.15,1.12,88.32,88.32,0,0,1,9.92,2.23c3.27.91,6.44,2.1,9.58,3.32,6.29,2.41,12.53,4.95,18.85,7.29-6.42-2.05-12.76-4.34-19.11-6.58-3.18-1.11-6.35-2.19-9.6-3a89.53,89.53,0,0,0-9.85-1.88,83.29,83.29,0,0,0-10-.74,66.53,66.53,0,0,0-9.91.67,18.16,18.16,0,0,0-4.65,1.33,7.8,7.8,0,0,0-3.47,2.93,2.68,2.68,0,0,0-.36,2,2.86,2.86,0,0,0,1,1.78,3.16,3.16,0,0,0,2.1.52A5.62,5.62,0,0,0,119,289.24Z"/><path class="cls-1" d="M109.27,286.07a7.77,7.77,0,0,0,0,2.36,5.13,5.13,0,0,0,.72,2.13,4.48,4.48,0,0,0,1.56,1.56,4.59,4.59,0,0,0,2.23.57,3.43,3.43,0,0,1-2.48-.06,4.12,4.12,0,0,1-1.91-1.71,4.78,4.78,0,0,1-.65-2.44A5,5,0,0,1,109.27,286.07Z"/><path class="cls-1" d="M108.25,283.66a6.61,6.61,0,0,0-.51,6.13,6.81,6.81,0,0,0,1.86,2.46,8.07,8.07,0,0,0,2.84,1.52,5,5,0,0,1-3.34-.85,6,6,0,0,1-2.22-2.77,6.15,6.15,0,0,1-.31-3.52A5.53,5.53,0,0,1,108.25,283.66Z"/><path class="cls-1" d="M113.38,281.35a19.19,19.19,0,0,1,3.62-2.17,22.68,22.68,0,0,1,4-1.32,20.69,20.69,0,0,1,4.21-.5c1.41,0,2.81-.06,4.22,0s2.81.15,4.21.28,2.8.26,4.18.5a40.74,40.74,0,0,1,8.13,2.21,51.38,51.38,0,0,0-8.19-1.79c-2.76-.35-5.56-.57-8.35-.66a39.8,39.8,0,0,0-8.32.39A21.39,21.39,0,0,0,113.38,281.35Z"/><path class="cls-1" d="M113.33,279.47a26,26,0,0,1,6-2.42,25.23,25.23,0,0,1,6.47-.77c1.08,0,2.17.07,3.25.11a31.89,31.89,0,0,1,3.24.25c2.15.3,4.3.55,6.41,1l0,.09c-2.14-.3-4.29-.44-6.43-.67a31.62,31.62,0,0,0-3.22-.2c-1.08,0-2.15-.11-3.23-.11a27.9,27.9,0,0,0-6.38.62A31,31,0,0,0,113.33,279.47Z"/><path class="cls-1" d="M111.3,284.66a9.25,9.25,0,0,0-.27,1.94,5,5,0,0,0,.22,1.86,3.47,3.47,0,0,0,1,1.57,3.81,3.81,0,0,0,1.7.86,2.94,2.94,0,0,1-2-.55,3.22,3.22,0,0,1-1.18-1.72,4.13,4.13,0,0,1-.12-2.06A5,5,0,0,1,111.3,284.66Z"/><path class="cls-1" d="M52.24,305.87c-1.9-3.91-3.88-7.79-5.72-11.74s-3.43-8-4.83-12.15a127.76,127.76,0,0,1-3.61-12.61c-.48-2.14-.95-4.27-1.33-6.41a57.72,57.72,0,0,1-.94-6.57,29.14,29.14,0,0,1,0-3.37c.06-1.09.14-2.2.29-3.32a25.06,25.06,0,0,1,1.73-6.51,26.35,26.35,0,0,1,3.37-5.81,21.42,21.42,0,0,1,5-4.54c3.68-2.54,8.52-3.83,13-2.45a10.31,10.31,0,0,1,1.62.68,12.4,12.4,0,0,1,1.48.92,4.73,4.73,0,0,1,1.3,1.4,3.79,3.79,0,0,1,.53,1.91,4.27,4.27,0,0,1-.43,1.9,4.33,4.33,0,0,1-1.22,1.49,4.28,4.28,0,0,1-1.73.83,3,3,0,0,1-1,0,1.6,1.6,0,0,1-.53-.14c-.15-.12-.28-.33-.15-.77.37-.32.49-.41.58-.41a1.17,1.17,0,0,0,.26,0,1.71,1.71,0,0,0,.58-.07,3,3,0,0,0,1.85-1.66,2.84,2.84,0,0,0,.19-1.21,2.53,2.53,0,0,0-1.28-1.92,11.7,11.7,0,0,0-1.27-.71,7.72,7.72,0,0,0-1.35-.48,12,12,0,0,0-5.81-.1,15.32,15.32,0,0,0-5.43,2.46,22.19,22.19,0,0,0-7.72,9.32,21.75,21.75,0,0,0-1.78,6c-.15,1.05-.25,2.11-.32,3.19a28.12,28.12,0,0,0,0,3.18,59.15,59.15,0,0,0,.75,6.41c.33,2.14.72,4.28,1.14,6.4a124.38,124.38,0,0,0,3.18,12.61c1.26,4.15,2.79,8.21,4.43,12.23S50.5,301.88,52.24,305.87Z"/><path class="cls-1" d="M49.25,298.71,47.51,294l-1.65-4.72L45,286.94l-.65-2.42-1.3-4.85a96.94,96.94,0,0,1-1.8-9.88c-.48-3.34-.82-6.62-1-10a34.12,34.12,0,0,1,1-10.25,28.29,28.29,0,0,1,4.37-9.39,17.06,17.06,0,0,1,3.58-3.95,13.08,13.08,0,0,1,4.83-2.38,10,10,0,0,1,5.33.25,3.78,3.78,0,0,1,2.17,1.65,1.7,1.7,0,0,1,.23,1.37,1.76,1.76,0,0,1-.82,1,1.59,1.59,0,0,0,.51-1,1.26,1.26,0,0,0-.4-1,3,3,0,0,0-2-1,9.55,9.55,0,0,0-4.55.44A12.66,12.66,0,0,0,50.74,238a16.3,16.3,0,0,0-2.85,3.64,35.63,35.63,0,0,0-4,8.64,33.11,33.11,0,0,0-1.55,9.48c0,3.26.19,6.63.49,9.9a96.67,96.67,0,0,0,1.28,9.84l1,4.86.53,2.44.69,2.39,1.4,4.79Z"/><path class="cls-1" d="M44.26,239.6A14.42,14.42,0,0,1,52.77,233a11.18,11.18,0,0,1,5.51-.12,6.26,6.26,0,0,1,2.58,1,3.35,3.35,0,0,1,1.26,2.39,3.31,3.31,0,0,0-1.41-2.18,6.52,6.52,0,0,0-2.51-.82,11.88,11.88,0,0,0-5.27.29,12.74,12.74,0,0,0-2.46,1,17.8,17.8,0,0,0-2.28,1.39A20.67,20.67,0,0,0,44.26,239.6Z"/><path class="cls-1" d="M41.07,242.49a17.36,17.36,0,0,1,3.29-5.13,17.66,17.66,0,0,1,4.85-3.73,13.75,13.75,0,0,1,5.87-1.74,13.6,13.6,0,0,1,3.06.23A8,8,0,0,1,61,233.18a8.15,8.15,0,0,0-2.88-.87,14.45,14.45,0,0,0-3-.11,12.32,12.32,0,0,0-3,.57,19.52,19.52,0,0,0-11.08,9.72Z"/><path class="cls-1" d="M115.91,33.09a3,3,0,0,0-1.9-1.9,2.47,2.47,0,0,0-1.32,0,3.46,3.46,0,0,0-1.21.57l-.43-.65a4.3,4.3,0,0,1,1.52-.49,3,3,0,0,1,1.56.2A3.15,3.15,0,0,1,115.91,33.09Z"/><path class="cls-1" d="M69,161.74l.38,1c.14.39.29.7.36,1a1.44,1.44,0,0,1,.06.4c0,.15,0,.24,0,.57-.08,1.08-.19,2.16-.25,3.25-.12,2.17-.21,4.34-.19,6.51a84.64,84.64,0,0,0,1,12.94,62.91,62.91,0,0,0,3.23,12.5,55,55,0,0,0,5.89,11.43,66.52,66.52,0,0,0,18.37,18,78.24,78.24,0,0,0,36.57,12.45,67.89,67.89,0,0,0,13.06-.19,64.63,64.63,0,0,0,6.47-1.07,60.6,60.6,0,0,0,6.31-1.83A53.42,53.42,0,0,0,172,232.92a52.75,52.75,0,0,0,17.69-19.19,49.58,49.58,0,0,0,5.82-25.41h0l.8.09a54.57,54.57,0,0,1-9.29,19.4,51.15,51.15,0,0,1-16.33,14,80.38,80.38,0,0,1-20.21,7.5,47.71,47.71,0,0,1-21.56.53c-7.16-1.62-13.53-5.61-18.93-10.37a73.87,73.87,0,0,1-7.55-7.77,61.35,61.35,0,0,1-6.28-8.88,53.58,53.58,0,0,1-4.4-10,71.7,71.7,0,0,1-2.51-10.63,88.31,88.31,0,0,1-1-10.87c-.1-3.61-.16-7.22-.12-10.84h0l2.14,2.09c-3.67,0-7.37.06-11.09,0-1.86,0-3.72-.11-5.58-.26-.93-.07-1.85-.16-2.78-.26l-1.38-.18A3.57,3.57,0,0,1,69,161.74Zm-2.5-.8,1.35-.09a11.93,11.93,0,0,1,1.69,0l1.36.06c.91,0,1.83.05,2.74.05,1.83,0,3.66-.07,5.49-.18,3.65-.21,7.31-.56,11-.85l.7-.05v.73h0c0,7.13-.23,14.29.77,21.27.11.88.24,1.75.42,2.61s.3,1.73.52,2.58c.36,1.72.77,3.43,1.27,5.11a53.47,53.47,0,0,0,4,9.74A60.22,60.22,0,0,0,111,218.38c5.26,4.69,11.4,8.57,18.27,10.16a46.39,46.39,0,0,0,21-.4,79.24,79.24,0,0,0,20-7.27,50.26,50.26,0,0,0,16.1-13.64,53.64,53.64,0,0,0,9.24-19l.73-2.77.07,2.86h0a49.2,49.2,0,0,1-1.45,13.25A54.72,54.72,0,0,1,190.27,214a53.38,53.38,0,0,1-17.79,19.58c-14.92,9.8-34,12.93-51.63,8.94A77.48,77.48,0,0,1,96,232a68.44,68.44,0,0,1-19.36-18.86A63.58,63.58,0,0,1,66.78,188a90.06,90.06,0,0,1-1.21-13.49c0-2.26,0-4.51.11-6.76,0-1.13.14-2.25.21-3.37,0-.23,0-.69.11-1.09s.13-.84.22-1.25S66.43,161.29,66.53,160.94Z"/><path class="cls-1" d="M205,54.81c0,.25,0,.45,0,.67l-.14.74a11.07,11.07,0,0,1-.46,1.45,10.22,10.22,0,0,1-1.53,2.61,15.1,15.1,0,0,1-4.69,3.79A26.42,26.42,0,0,1,186.54,67c-8.08.27-16.06-1.54-23.72-3.88-1.92-.59-3.81-1.25-5.7-1.79s-3.83-1-5.76-1.42A72.76,72.76,0,0,0,139.6,58.5a69.42,69.42,0,0,0-11.8.53,37.32,37.32,0,0,0-11.21,3.15A67.81,67.81,0,0,0,97.44,75.71a70.85,70.85,0,0,0-7.7,8.89,84.37,84.37,0,0,0-6.31,10,105,105,0,0,0-5,10.71,116.11,116.11,0,0,0-3.73,11.22c-1.08,3.79-1.89,7.66-2.62,11.54l-.26,1.46-.12.73-.06.37c-.19.09-.16.22-.19.34l-.54,2.92c-.33,1.95-.64,3.91-.85,5.88l-1.2-1.48h0c7.13.73,14.45-.06,21.8-.56l-1.17,1.19h0c.54-14.65,3.2-29.44,9-43.05a76.77,76.77,0,0,1,11.31-19.06,49.51,49.51,0,0,1,8-7.76,38.1,38.1,0,0,1,9.74-5.51,34.07,34.07,0,0,1,11-2.22,46.38,46.38,0,0,1,11,1,83.3,83.3,0,0,1,10.6,3,62.26,62.26,0,0,1,10.15,4.29,30.38,30.38,0,0,1,8.68,6.86,22.58,22.58,0,0,1,5.06,9.85,13.82,13.82,0,0,1,0,5.62,12.2,12.2,0,0,1-2.51,5,15.48,15.48,0,0,1-4.28,3.54c-1.58.94-3.25,1.68-4.81,2.61l0-.1h0c.73,1.08,2.08,1.39,3.29,1.66a19.69,19.69,0,0,0,3.84.28,35.8,35.8,0,0,0,3.86-.29c1.28-.14,2.56-.31,3.83-.56a26,26,0,0,0,7.24-2.45,12.4,12.4,0,0,0,5.32-5.19,12.26,12.26,0,0,0,1.13-7.28,16.12,16.12,0,0,0-2.69-7,22.73,22.73,0,0,0-5.58-5.25,29.35,29.35,0,0,0-6.91-3.61h0a27.83,27.83,0,0,0,9.28,1.17,23.51,23.51,0,0,0,4.56-.57,8.38,8.38,0,0,0,3.89-1.76,5,5,0,0,0,1.26-1.61,8.19,8.19,0,0,0,.71-2A21.73,21.73,0,0,0,206,64a37.88,37.88,0,0,0-.3-4.63c-.08-.78-.18-1.55-.31-2.32l-.2-1.16-.11-.58c0-.09,0-.21-.05-.27A1.09,1.09,0,0,0,205,54.81Zm0-.18a1.86,1.86,0,0,1,.2.31l.12.3.22.55c.13.38.25.76.37,1.14.23.76.44,1.52.63,2.3a35.51,35.51,0,0,1,.72,4.73,17.45,17.45,0,0,1-.23,4.88,8,8,0,0,1-2.38,4.54,9.48,9.48,0,0,1-4.69,1.9,21.1,21.1,0,0,1-4.83,0,38.71,38.71,0,0,1-4.7-.78,41.87,41.87,0,0,1-4.56-1.2h0A41,41,0,0,1,193,76.58a22,22,0,0,1,6.16,5,15.3,15.3,0,0,1,2,3.49A14,14,0,0,1,202.28,89a13.07,13.07,0,0,1-1.43,7.93,14.44,14.44,0,0,1-5.75,5.59,25.48,25.48,0,0,1-7.54,2.56,33.17,33.17,0,0,1-7.89.64,20.37,20.37,0,0,1-3.95-.52,7.19,7.19,0,0,1-1.88-.73,3.45,3.45,0,0,1-1.43-1.4h0l0-.06.07,0c1.51-1,3.12-1.92,4.64-2.89a14.92,14.92,0,0,0,4-3.57,12.1,12.1,0,0,0,2.12-10,21.07,21.07,0,0,0-4.85-9.41,29.61,29.61,0,0,0-8.42-6.6,60.5,60.5,0,0,0-10-4.18,80.78,80.78,0,0,0-10.52-2.7,45.47,45.47,0,0,0-10.72-.73,32.78,32.78,0,0,0-10.34,2.37,36.36,36.36,0,0,0-9.12,5.44,47.65,47.65,0,0,0-7.49,7.6,78.51,78.51,0,0,0-10.83,18.54,105.48,105.48,0,0,0-6.27,20.66q-1,5.31-1.64,10.7c-.41,3.6-.65,7.21-.93,10.82h0L92,140.1l-1.11.09c-7.29.55-14.71,1.43-22.25.73h0l-1.36-.11.15-1.37c.21-2,.41-4,.66-6l.4-3c0-.13.08-.24-.07-.4l.06-.37.13-.75.26-1.49c.75-4,1.59-7.94,2.7-11.83s2.37-7.76,3.85-11.55a105.63,105.63,0,0,1,5.21-11,86.83,86.83,0,0,1,6.63-10.27A67.31,67.31,0,0,1,95.4,73.6a77,77,0,0,1,9.5-7.7,60.57,60.57,0,0,1,10.71-6,39.11,39.11,0,0,1,11.92-3.08,71.61,71.61,0,0,1,12.16-.26,74.58,74.58,0,0,1,12,1.72c2,.47,3.92,1,5.84,1.59s3.82,1.31,5.7,1.93c7.52,2.51,15.33,4.48,23.28,4.41A25.67,25.67,0,0,0,198,63.65a14.46,14.46,0,0,0,4.66-3.58,10.06,10.06,0,0,0,1.55-2.5,11.56,11.56,0,0,0,.48-1.4l.15-.73A8.06,8.06,0,0,1,205,54.63Z"/><path class="cls-1" d="M271.53,107.43l-4.95-13.34c-.84-2.22-1.64-4.46-2.5-6.65a45.7,45.7,0,0,1-2.31-6.83,14,14,0,0,1,.13-7.3,9.24,9.24,0,0,1,4.36-5.87,6.64,6.64,0,0,1,7.16.8,8,8,0,0,1,2.83,6.49v0l-.09,0A14.65,14.65,0,0,0,276,62.24a10.91,10.91,0,0,0-4.11-4.33,13.94,13.94,0,0,0-5.67-1.73,15.68,15.68,0,0,0-11,3.43,12.35,12.35,0,0,0-3.67,4.49A18.59,18.59,0,0,0,249.84,70a.08.08,0,0,0,0,0l.3,7.11L248.4,70.3a24.59,24.59,0,0,0-6.63-11.08,14.22,14.22,0,0,0-11.85-4.12,15.32,15.32,0,0,0-6.09,2.11,11,11,0,0,0-4.32,4.61,10.76,10.76,0,0,0-1,3.05,17.47,17.47,0,0,0-.15,3.24,19.8,19.8,0,0,0,1.47,6.41l0,0h-.12A8.87,8.87,0,0,1,224,70.84a9.4,9.4,0,0,1,5.72-.5,11.91,11.91,0,0,1,5.06,2.74,24.9,24.9,0,0,1,3.76,4.26,52.67,52.67,0,0,1,3,4.77c.9,1.62,1.8,3.25,2.63,4.94,1.65,3.35,3.07,6.8,4.41,10.27,2.62,6.94,5.3,13.8,8,20.71l4,10.35,2,5.18,1,2.58a8.86,8.86,0,0,1,.69,2.71v.06l-1.14-.79a10.56,10.56,0,0,0,2.66.31l2.66,0,5.33.07,10.64,0h0l-.74,1.07a30.61,30.61,0,0,1-1.67-4l-1.5-4-3-8.06Zm1.45-.54,6.19,16,3.1,8,1.54,4a30.63,30.63,0,0,1,1.39,4.08l.25,1.09-1,0H273.77l-5.33.06-2.66,0a9.72,9.72,0,0,0-2.66.31l-.42.12-.71-.91,0,0a8.57,8.57,0,0,1-1.25-2.49l-.93-2.62-1.85-5.23-3.7-10.47c-2.47-7-5-14-7.35-21-1.23-3.48-2.52-6.93-4-10.27a78.51,78.51,0,0,0-5.21-9.7,24.14,24.14,0,0,0-3.48-4.19,11,11,0,0,0-4.61-2.69c-.44-.08-.88-.18-1.33-.24l-1.35,0a12,12,0,0,0-2.65.56,9.73,9.73,0,0,0-4.32,3.26l-.07.09-.05-.1,0,0A20.2,20.2,0,0,1,218,68.15a15.1,15.1,0,0,1,.05-3.36,11.58,11.58,0,0,1,.37-1.65l.24-.81.34-.78a12.47,12.47,0,0,1,1.76-2.92,14.34,14.34,0,0,1,2.54-2.38,15.56,15.56,0,0,1,6.47-2.88,13.6,13.6,0,0,1,7.22.62,14.8,14.8,0,0,1,5.93,4.07,25.21,25.21,0,0,1,2.18,2.72c.65.94,1.28,1.86,1.86,2.87A25.4,25.4,0,0,1,249.49,70l-.79.15v0a13.89,13.89,0,0,1,5-12.25,16.15,16.15,0,0,1,12.76-3.68,14.76,14.76,0,0,1,6.33,2.39,12.15,12.15,0,0,1,4.27,5.22,14.5,14.5,0,0,1,1.12,6.63,14.12,14.12,0,0,1-1.92,6.4l-.13.2,0-.23h0a8.15,8.15,0,0,0-3.11-6,6,6,0,0,0-6.43-.61,8.44,8.44,0,0,0-3.85,5.44,13.18,13.18,0,0,0,0,6.83A43.22,43.22,0,0,0,265.15,87c.92,2.21,1.75,4.42,2.63,6.63Z"/><path class="cls-1" d="M453.94,64.81a7.49,7.49,0,0,0-2.08-2.94,13.74,13.74,0,0,0-2.73-2.23,10.3,10.3,0,0,0-3.27-1.2,12.93,12.93,0,0,0-3.53-.25,9.22,9.22,0,0,0-6,2.85c-.41.42-.82.89-1.24,1.37a16.75,16.75,0,0,0-1.12,1.4,21.42,21.42,0,0,0-1.8,3.12h0l-1.85,4-.56-4.35a11.32,11.32,0,0,0-5-8.09,10.78,10.78,0,0,0-4.62-1.68,14.08,14.08,0,0,0-5.07.38,10,10,0,0,0-4.47,2.28,8.72,8.72,0,0,0-2.53,4.35,10.9,10.9,0,0,0,.1,5.23,10.56,10.56,0,0,0,2.62,4.59l0,0-.31,0A8.4,8.4,0,0,1,414.42,70a7.69,7.69,0,0,1,2.7-.75,6,6,0,0,1,2.83.54,8.49,8.49,0,0,1,3.82,4.12,14.12,14.12,0,0,1,1.32,5.42c.18,3.77-1,7.34-2,10.69S421,96.77,420,100.14l-6.34,20.23c-2.1,6.75-4.27,13.48-6.43,20.21a0,0,0,0,1,0,0L405.31,138l6.3,1.19h0l-.89.61c1.76-5.25,3.68-10.44,5.52-15.66l5.57-15.64,11.22-31.25,0-.06,0,0a14.77,14.77,0,0,1,3.58-4.52,12.22,12.22,0,0,1,2.44-1.6,11.43,11.43,0,0,1,2.75-1,7.49,7.49,0,0,1,3-.07,6.08,6.08,0,0,1,2.76,1.12,7.35,7.35,0,0,1,2,2.13,11.82,11.82,0,0,1,.69,1.26,6.25,6.25,0,0,0,1,1.27l0,0-1.49-.52a6.9,6.9,0,0,0,2.26-2,12.25,12.25,0,0,0,1.51-2.6A8.71,8.71,0,0,0,453.94,64.81Zm.9-.25a10.21,10.21,0,0,1-.39,6.46,13.51,13.51,0,0,1-1.54,2.88,12.43,12.43,0,0,1-2.23,2.35l-.74.57V76a4.42,4.42,0,0,0-.8-2.45,5.91,5.91,0,0,0-1.89-1.8,6.54,6.54,0,0,0-2.49-.82,7.16,7.16,0,0,0-2.65.12,11.76,11.76,0,0,0-4.71,2.45,13.92,13.92,0,0,0-3.24,4.22l0,0L423.37,109l-5.4,15.7-2.7,7.85-1.35,3.93c-.45,1.31-.89,2.62-1.42,3.9l-.24.58-.65,0h0l-6.33.46-2.06.15.65-2.13v0c2.21-6.71,4.39-13.43,6.71-20.11l6.85-20.06c1.16-3.34,2.25-6.7,3.46-10s2.43-6.57,2.44-9.91a12.93,12.93,0,0,0-.9-4.85,7.21,7.21,0,0,0-3-3.69,5.07,5.07,0,0,0-2.27-.59,7,7,0,0,0-2.4.52,9,9,0,0,0-3.91,3.17l-.17.23-.15-.2,0,0a12.92,12.92,0,0,1-2.68-4.76,12.06,12.06,0,0,1-.55-5.48,9,9,0,0,1,2.47-5.07,11.48,11.48,0,0,1,4.92-2.9,16,16,0,0,1,5.65-.73,12.35,12.35,0,0,1,9.8,5.78,14.56,14.56,0,0,1,2.1,5.5L429.81,66h0A22.5,22.5,0,0,1,432,62.44a18.08,18.08,0,0,1,1.33-1.57c.44-.47.9-1,1.39-1.44a11.89,11.89,0,0,1,3.45-2.34,11.24,11.24,0,0,1,4.06-.94,14.68,14.68,0,0,1,4.05.45A12.1,12.1,0,0,1,450,58.19,11.35,11.35,0,0,1,454.84,64.56Z"/><path class="cls-1" d="M355.28,109.14l-8.56-26.45c-.72-2.15-1.8-4.33-1.87-6.83a7.57,7.57,0,0,1,3.2-6.42,7.46,7.46,0,0,1,7.14-.68,6.44,6.44,0,0,1,2.84,2.4,5.18,5.18,0,0,1,.9,3.56h0l-.62-.16c.34-1,.75-1.95,1-2.95a15.76,15.76,0,0,0,.59-3,13.49,13.49,0,0,0-.12-3,11,11,0,0,0-.9-2.86,12.64,12.64,0,0,0-9.35-6.75,14.12,14.12,0,0,0-3-.14,14.78,14.78,0,0,0-2.95.41,12.07,12.07,0,0,0-5.08,2.7,14.37,14.37,0,0,0-3.32,4.75,21.44,21.44,0,0,0-1.12,2.71,15,15,0,0,0-.56,2.91v0l-.74,8.9-1.69-8.74a19.42,19.42,0,0,0-6-11,14.1,14.1,0,0,0-5.58-2.88,16.61,16.61,0,0,0-6.4-.32,14,14,0,0,0-6,2.16,10.12,10.12,0,0,0-3.72,5.12,17.83,17.83,0,0,0-.69,6.52,17,17,0,0,0,1.86,6.35v0h-.26a16.58,16.58,0,0,1,3.18-4.74,7.93,7.93,0,0,1,2.54-1.58,9.47,9.47,0,0,1,3-.57,8.92,8.92,0,0,1,5.82,1.59,12.73,12.73,0,0,1,3.79,4.62c1.8,3.49,2.63,7.22,3.7,10.68l3.27,10.62,1.79,5.2c.3.89.59,1.78.87,2.7.13.47.27.93.39,1.43.06.24.11.53.17.79s0,.34.06.51a3.16,3.16,0,0,1,0,.84l-2.75,10.87-2.83,10.74-1.41,5.37-.71,2.68a2.71,2.71,0,0,1-1.88,2.37s0,0,0,0l-.85-1.11h7.15l-.88.66c.84-3.07,1.78-6.1,2.66-9.15l2.7-9.14v0l.9-3,1.09,3,6.62,18.28v0l-1.08-.77,24.22.23h0L364.76,140l-4.71-15.45Zm1.13-.37,5.22,15.29,5.28,15.26.49,1.42-1.58.06h0l-24.21,1.11-1.42.06-.87-1.69a0,0,0,0,0,0,0l-4.22-19.12h0a0,0,0,0,1,0,0l-2.22,9.28-1.11,4.64a34.8,34.8,0,0,1-1.27,4.6l-.28.67-.6,0h0l-7.12.13-1.39,0,.35-1.39v0c1.92-7.15,4-14.26,6-21.39l3-10.65s0-.24,0-.41-.07-.42-.12-.64c-.09-.43-.21-.87-.32-1.31-.24-.87-.5-1.76-.77-2.64-.54-1.77-1.13-3.49-1.66-5.32L324.52,86c-1-3.59-1.67-7.23-3.23-10.52a11.31,11.31,0,0,0-3.22-4.22,7.61,7.61,0,0,0-5-1.51,8.1,8.1,0,0,0-2.64.41,9.31,9.31,0,0,0-2.36,1.28,12.41,12.41,0,0,0-3.45,4.16l-.13.26-.13-.25,0,0a16.38,16.38,0,0,1-2.22-6.43,18.81,18.81,0,0,1,.47-6.84,11.15,11.15,0,0,1,3.88-5.78A15.23,15.23,0,0,1,313,53.89a18.13,18.13,0,0,1,7,.08,15.79,15.79,0,0,1,6.43,3A18.59,18.59,0,0,1,331,62.4a24.06,24.06,0,0,1,1.53,3.2,21.71,21.71,0,0,1,1,3.43l-2.42.15v0a18.19,18.19,0,0,1,.37-3.44,14.77,14.77,0,0,1,1-3.35,16.26,16.26,0,0,1,4.25-5.54,14.56,14.56,0,0,1,6.32-3,16.81,16.81,0,0,1,3.43-.33,16,16,0,0,1,3.43.33,15.07,15.07,0,0,1,6.2,2.87,13.25,13.25,0,0,1,4.18,5.36,13,13,0,0,1,.88,3.29,14.68,14.68,0,0,1,0,3.38,16.12,16.12,0,0,1-.78,3.24,9.4,9.4,0,0,1-1.52,3l-.85,1,.23-1.18h0a9.59,9.59,0,0,0-1.11-3,5.33,5.33,0,0,0-2.39-2,6.39,6.39,0,0,0-6.12.59,6.52,6.52,0,0,0-2.74,5.53c0,2.19,1.06,4.29,1.83,6.51Z"/><path class="cls-1" d="M306.77,200.94c-2.59-6.42-5.28-12.91-7.89-19.49q-2-4.94-3.84-9.88l-3.69-9.77.78.54a19.45,19.45,0,0,1-5.33.22c-1.78,0-3.56-.14-5.33-.21l-5.34-.24a45.12,45.12,0,0,0-5.33,0l.54-.78c.85-.08,1.27,0,1.47.16s.18.4.28.6l.45,1.24.9,2.47,1.81,5,3.62,9.91c2.36,6.62,4.77,13.23,7.08,19.87s4.64,13.28,6.93,19.94l3.35,10c.54,1.68,1.17,3.31,1.78,5l1.78,4.95-.5,0c2-6.57,3.85-13.18,5.78-19.76l5.74-19.78,11.48-39.55.95,1.28a30.58,30.58,0,0,0-3.58.05,17.75,17.75,0,0,1-3.57,0l1-.77c.62,1.05.14,1.83-.05,2.67l-.71,2.5-1.45,5c-1,3.33-2,6.69-3,9.95l-3.13,9.67C308.71,194.75,307.72,197.89,306.77,200.94Zm-.09-1.94c.77-3.36,1.51-6.62,2.21-9.89l2.06-9.55c.67-3.14,1.4-6.18,2.15-9.26l1.14-4.6.59-2.3c.24-.76.19-1.59,1.25-2.13l1-.78a19.35,19.35,0,0,1,3.57,0,32.92,32.92,0,0,0,3.58.09l1.36-.06-.41,1.34L313,201.19l-6.1,19.67c-2,6.56-4.11,13.1-6.08,19.68l-.2.68-.3-.65c-1.46-3.2-3-6.4-4.33-9.66l-4-9.76q-4-9.78-7.82-19.6c-2.61-6.53-5.11-13.11-7.66-19.66L272.72,172l-1.88-4.92-.94-2.47-.46-1.23c-.06-.21-.21-.39-.18-.64s.31-.58,1-1.08l.54-.77a47.37,47.37,0,0,0,5.33,0l5.34-.23c1.78-.08,3.55-.18,5.33-.21a19.45,19.45,0,0,1,5.33.22l.65.17.14.37,3.61,9.47q1.75,4.68,3.45,9.35C302.23,186.26,304.41,192.6,306.68,199Z"/><path class="cls-1" d="M386.16,198.65l-6.47-18.25-3.2-9.2c-1.07-3.11-2.09-6-3.15-9l1.16.85a4.89,4.89,0,0,1-3,.63c-1,0-2,0-3,0-2,0-4-.09-6.06-.16s-4-.14-6.05-.17c-1,0-2-.07-3,0-.51,0-1,.06-1.52.1-.25,0-.51.21-.76.22l-.75,0,1.88-2.65,25.54,76.9h-.5l13.08-38,6.54-19c2.19-6.32,4.32-12.67,6.56-19l.93,1.33c-1.06,0-2.12.09-3.18.1a12.06,12.06,0,0,1-1.59,0,4.39,4.39,0,0,1-1.58-.43l.72-.51c.81.48.53.6.5.8l-.19.58-.39,1.15-.77,2.32-1.57,4.63c-1.09,3.08-2.19,6.19-3.35,9.2Zm0-2c.9-3.11,1.77-6.11,2.59-9.13l2.47-8.79c.8-2.91,1.67-5.72,2.55-8.56l1.37-4.24.7-2.13.35-1.06.18-.54c.09-.17-.07-.41.87-.3l.72-.52a4.46,4.46,0,0,1,1.6-.36,12.05,12.05,0,0,1,1.59,0c1.06.05,2.12.19,3.18.22l1.38,0-.46,1.31c-2.24,6.3-4.58,12.57-6.87,18.86l-6.91,18.86L377.68,238l-.25.67-.25-.67L348.4,162.29l-1-2.64H351c.25,0,.5.21.75.23.51,0,1,.1,1.52.13,1,0,2,0,3,0,2,0,4,0,6.06-.07s4-.07,6.07-.06c1,0,2,0,3,0a4.85,4.85,0,0,1,3,.68l1.15.81v0c.87,3,1.8,6.06,2.67,8.92l2.63,8.71Z"/><path class="cls-1" d="M70.62,155.41a8.32,8.32,0,0,1-1.46.6,8.83,8.83,0,0,1-1.51.32,13.36,13.36,0,0,1-1.57.1,8.14,8.14,0,0,1-2.7-.42,5.84,5.84,0,0,1-2.06-1.22,5.07,5.07,0,0,1-1.31-1.9,6.77,6.77,0,0,1,.07-5,5.09,5.09,0,0,1,1.45-1.85,6,6,0,0,1,2.1-1.09,8.54,8.54,0,0,1,2.5-.36,13.44,13.44,0,0,1,4.44.88v3a11.9,11.9,0,0,0-1.69-.88,4.93,4.93,0,0,0-2-.36,4.56,4.56,0,0,0-1.88.4,3.5,3.5,0,0,0-1.4,1.14,3,3,0,0,0-.07,3.32,3.3,3.3,0,0,0,1.29,1.16,4.06,4.06,0,0,0,1.87.43,5.85,5.85,0,0,0,1.58-.21,6.5,6.5,0,0,0,1.26-.45,11.37,11.37,0,0,0,1.05-.59Z"/><path class="cls-1" d="M95.3,156.28H91.84v-4.49H86.62v4.49H83.15V144.77h3.47V149h5.22v-4.23H95.3Z"/><path class="cls-1" d="M121,156.28h-3.56l-.93-2.34h-5l-1,2.34H107l5.09-11.51H116Zm-5.29-4.34-1.69-4.2-1.7,4.2Z"/><path class="cls-1" d="M143.89,156.28h-3.72l-.91-2.05a8.47,8.47,0,0,0-.9-1.64,2,2,0,0,0-.77-.66,2.71,2.71,0,0,0-1-.14h-.39v4.49h-3.47V144.77h5.9a4.29,4.29,0,0,1,2.35.58,3.58,3.58,0,0,1,1.31,1.41,3.62,3.62,0,0,1,.4,1.58,3,3,0,0,1-.33,1.47,2.66,2.66,0,0,1-.71.88,6.7,6.7,0,0,1-.84.52,3.34,3.34,0,0,1,.92.77,10.35,10.35,0,0,1,1,1.8Zm-4.71-7.87a1.19,1.19,0,0,0-.53-1.11A3.4,3.4,0,0,0,137,147h-.73v2.77H137a3.67,3.67,0,0,0,1.74-.28A1.13,1.13,0,0,0,139.18,148.41Z"/><path class="cls-1" d="M164.41,156.28h-8.74V144.77h3.47v8.75h5.27Z"/><path class="cls-1" d="M185.3,156.28h-8.67V144.77h8.53v2.31H180.1v2.11h4.83v2.31H180.1V154h5.2Z"/><path class="cls-1" d="M205.87,152.93a3.17,3.17,0,0,1-.55,1.87,3.54,3.54,0,0,1-1.54,1.21,5.78,5.78,0,0,1-2.27.42c-.24,0-.53,0-.87-.05a9.36,9.36,0,0,1-1.38-.25,11.24,11.24,0,0,1-1.79-.62v-2.82a12.86,12.86,0,0,0,1.71.9,4.56,4.56,0,0,0,1.81.35,1.58,1.58,0,0,0,1.15-.29.89.89,0,0,0,.26-.55,1,1,0,0,0-.45-.79,6.7,6.7,0,0,0-1.3-.66,9.87,9.87,0,0,1-1.66-.86,4,4,0,0,1-1.17-1.18,3,3,0,0,1-.45-1.67,3.12,3.12,0,0,1,.46-1.68,3.18,3.18,0,0,1,1.39-1.2,5.28,5.28,0,0,1,2.29-.45,8.23,8.23,0,0,1,1.78.19,6.78,6.78,0,0,1,1.35.42,5.78,5.78,0,0,1,.73.37v2.69a9.47,9.47,0,0,0-1.57-.9,4.35,4.35,0,0,0-1.86-.4,1.43,1.43,0,0,0-.94.25.78.78,0,0,0-.29.61.75.75,0,0,0,.29.59,5.14,5.14,0,0,0,1,.61,19.73,19.73,0,0,1,2.13,1.12,4.22,4.22,0,0,1,1.25,1.15A2.76,2.76,0,0,1,205.87,152.93Z"/><path class="cls-1" d="M48.15,168.06a15.46,15.46,0,0,0,6.94-2.77A20.84,20.84,0,0,0,60.16,160h0l.43-.53h.72q9.06-.15,18.12-.19l18.11-.12,36.24,0,36.24.22,18.12.12c6,.17,12.07-.46,18.11,1.49-6,1.95-12.07,1.32-18.11,1.49l-18.12.12-36.24.21H97.54l-18.11-.13q-9.06,0-18.12-.18l1.15-.54h0a22.93,22.93,0,0,1-6.59,4.71,16.22,16.22,0,0,1-7.72,1.54Z"/><path class="cls-1" d="M50.11,170.68a15.78,15.78,0,0,0,7.26-2.26,21.65,21.65,0,0,0,5.71-5h0l.07-.09h.12l72.47,0,36.24,0H190.1c6,0,12.08-.06,18.11.25-6,.31-12.07.22-18.11.24H172l-36.24,0-72.47,0,.19-.09h0a22,22,0,0,1-6,5,16,16,0,0,1-7.39,2Z"/><path class="cls-1" d="M203.67,140a52.44,52.44,0,0,1-9.81,1.33c-3.27.17-6.54.11-9.81.16l-19.63.15c-13.08.13-26.17.1-39.25.16s-26.17-.06-39.25-.17l-19.63-.17-4.91-.05-2.45,0a6.84,6.84,0,0,0-2,.2c-2.66.64-5,2.62-7.45,5a9.8,9.8,0,0,1,2.14-4.72,9.07,9.07,0,0,1,4.58-3,9.82,9.82,0,0,1,2.81-.34l2.45,0,4.91,0,19.62-.17c13.08-.12,26.16-.13,39.25-.17s26.16,0,39.24.16l19.62.15c3.27.05,6.54,0,9.81.16a50.84,50.84,0,0,1,9.81,1.33Z"/><path class="cls-1" d="M201.71,137.41c-6.54.25-13.08.24-19.62.24H57a8.1,8.1,0,0,0-2.36.25,9.84,9.84,0,0,0-4.14,2.34,16.43,16.43,0,0,0-3,3.81A13.68,13.68,0,0,1,50.24,140a9.75,9.75,0,0,1,4.25-2.55,8.45,8.45,0,0,1,2.5-.27h125.1c6.54,0,13.08,0,19.62.24Z"/><path class="cls-1" d="M254.26,164.51c7.69-.25,15.39-.24,23.08-.24H424.5a16.69,16.69,0,0,0,2.84-.13c3.78-.54,7-3.11,9.13-6.27a14.33,14.33,0,0,1-3.73,4.4,11.76,11.76,0,0,1-5.33,2.34,16.79,16.79,0,0,1-2.91.14H277.34c-7.7,0-15.39,0-23.08-.24Z"/><path class="cls-1" d="M276.74,144.91l-5,11.65h-2l-3-6.78-3.07,6.78h-2l-4.88-11.65h3.59l2.39,6.38,2.74-6.38H268l2.69,6.38,2.5-6.38Z"/><path class="cls-1" d="M300.84,150.65a6.11,6.11,0,0,1-.74,3,5.42,5.42,0,0,1-2.22,2.15,7.41,7.41,0,0,1-3.57.79,7.17,7.17,0,0,1-3.61-.83,5.37,5.37,0,0,1-2.2-2.18,6.2,6.2,0,0,1,0-5.8,5.27,5.27,0,0,1,2.19-2.17,7.34,7.34,0,0,1,3.62-.83,7.87,7.87,0,0,1,2.84.48,5.56,5.56,0,0,1,2.05,1.28,5.31,5.31,0,0,1,1.22,1.88A6.17,6.17,0,0,1,300.84,150.65Zm-3.54,0a3.44,3.44,0,0,0-.19-1.18,2.48,2.48,0,0,0-.58-.93,2.55,2.55,0,0,0-.94-.61,3.4,3.4,0,0,0-1.28-.22,3,3,0,0,0-2.2.81,3,3,0,0,0,2.2,5.09,3.29,3.29,0,0,0,1.62-.38,2.49,2.49,0,0,0,1-1A3.21,3.21,0,0,0,297.3,150.65Z"/><path class="cls-1" d="M321.94,156.42H313.2V144.91h3.47v8.75h5.27Z"/><path class="cls-1" d="M342.9,156.42h-8.75V144.91h3.47v8.75h5.28Z"/><path class="cls-1" d="M366.45,150.65a6.11,6.11,0,0,1-.74,3,5.39,5.39,0,0,1-2.21,2.15,7.46,7.46,0,0,1-3.58.79,7.19,7.19,0,0,1-3.61-.83,5.37,5.37,0,0,1-2.2-2.18,6.2,6.2,0,0,1,0-5.8,5.32,5.32,0,0,1,2.19-2.17,7.37,7.37,0,0,1,3.62-.83,7.87,7.87,0,0,1,2.84.48,5.68,5.68,0,0,1,2.06,1.28,5.6,5.6,0,0,1,1.22,1.88A6.37,6.37,0,0,1,366.45,150.65Zm-3.53,0a3.44,3.44,0,0,0-.2-1.18,2.34,2.34,0,0,0-.57-.93,2.64,2.64,0,0,0-.94-.61,3.45,3.45,0,0,0-1.29-.22,3,3,0,1,0,0,5.9,3.3,3.3,0,0,0,1.63-.38,2.62,2.62,0,0,0,1-1A3.33,3.33,0,0,0,362.92,150.65Z"/><path class="cls-1" d="M389.11,155.55a8,8,0,0,1-1.46.6,8.83,8.83,0,0,1-1.51.32,13.26,13.26,0,0,1-1.57.09,8,8,0,0,1-2.69-.41,5.81,5.81,0,0,1-2.07-1.23A5.07,5.07,0,0,1,378.5,153a6.3,6.3,0,0,1-.44-2.38,6.22,6.22,0,0,1,.52-2.6A5,5,0,0,1,380,146.2a6,6,0,0,1,2.11-1.09,8.52,8.52,0,0,1,2.49-.36,13.57,13.57,0,0,1,4.44.87v3.06a11,11,0,0,0-1.69-.88,4.9,4.9,0,0,0-2-.36,4.56,4.56,0,0,0-1.88.4,3.57,3.57,0,0,0-1.4,1.14,3,3,0,0,0-.07,3.32,3.26,3.26,0,0,0,1.3,1.16,4,4,0,0,0,1.86.42,5.75,5.75,0,0,0,1.58-.2,8.17,8.17,0,0,0,1.26-.45,11.37,11.37,0,0,0,1.05-.59Z"/><path class="cls-1" d="M413.8,156.42h-3.47v-4.5h-5.22v4.5h-3.47V144.91h3.47v4.23h5.22v-4.23h3.47Z"/><path class="cls-1" d="M253.23,161.33a33,33,0,0,1,11.45-1.69c3.82-.06,7.63-.16,11.45-.19,7.63-.13,15.26-.07,22.9-.09,15.26.08,30.53.22,45.79.18s30.53-.06,45.8,0l11.44.07,11.45.15,5.72.08,2.87,0a14.65,14.65,0,0,0,2.61-.08,13.27,13.27,0,0,0,4.79-1.68,25.32,25.32,0,0,0,4.42-3.41,11.35,11.35,0,0,1-8.76,7.92,17.71,17.71,0,0,1-3.09.19l-2.86,0-5.72.08-11.45.16-11.45.06c-15.26.1-30.52,0-45.79,0s-30.52.11-45.78.19c-7.63,0-15.27,0-22.9-.09-3.81,0-7.63-.13-11.44-.19a33.21,33.21,0,0,1-11.45-1.7Z"/><path class="cls-1" d="M435.38,133.3a19.45,19.45,0,0,0-7.85,2.72,23,23,0,0,0-6,5.4h0l-.43.45h-.66c-6.88.1-13.76.15-20.64.19l-20.64.12-41.27,0L296.56,142l-20.64-.12c-6.88-.17-13.76.46-20.64-1.49,6.88-1.95,13.76-1.32,20.64-1.49l20.64-.12,41.28-.21h41.27l20.64.13q10.32,0,20.64.18l-1.09.47h0a25.17,25.17,0,0,1,7.54-4.74,20.19,20.19,0,0,1,8.54-1.44Z"/><path class="cls-1" d="M433.15,130.68a20,20,0,0,0-8.14,2.18,24.21,24.21,0,0,0-6.67,5.13h0l-.08.08h-.11l-82.55,0-41.27,0H273.69c-6.88,0-13.76.06-20.64-.25,6.88-.31,13.76-.22,20.64-.24h20.64l41.27,0,82.55,0-.18.08h0a24.4,24.4,0,0,1,6.91-5,19.93,19.93,0,0,1,8.26-2Z"/><path class="cls-1" d="M419.11,49.09c-1.72-.51-3.61-.84-5.58-1.36A52.61,52.61,0,0,1,408,46a27.61,27.61,0,0,1-5.16-2.71c-1.62-1.09-3.13-2.18-4.67-3.42A20.12,20.12,0,0,1,396,37.79a9.56,9.56,0,0,1-1-1.32,10.82,10.82,0,0,1-.77-1.51,6.09,6.09,0,0,1-.48-3.84,5.21,5.21,0,0,1,1-2,5.67,5.67,0,0,1,1.65-1.35,6.24,6.24,0,0,1,1.8-.69,6.78,6.78,0,0,1,1.95-.17,6.53,6.53,0,0,1,3.6,1.35,5.76,5.76,0,0,1,2.12,3.13,5.14,5.14,0,0,1-.27,3.41h0l-.36.76-.55-.24a6,6,0,0,1-1.82-1.25c-.13-.13-.25-.27-.3-.31s0,0-.11,0a.92.92,0,0,0-.55.19,2.24,2.24,0,0,0-.57,2.85,13.15,13.15,0,0,0,2.43,2.88c.46.46.94.9,1.43,1.33l.74.63.38.3.45.32-.06,0c1.95,1.3,4,2.48,6.07,3.6,1,.56,2.09,1.11,3.14,1.65l1.58.79.8.39.4.19A1.36,1.36,0,0,1,419.11,49.09Zm-.17-.06c-.19,0-.2,0-.37-.05l-.41-.16-.83-.33-1.64-.69c-1.09-.46-2.18-.92-3.26-1.43-2.14-1-4.25-2.11-6.31-3.34l-.12-.09.05.05L406,43l-.11-.08-.21-.14-.42-.3-.81-.61c-.53-.42-1-.86-1.55-1.3a13.85,13.85,0,0,1-2.84-3.14,4,4,0,0,1-.46-2.46,3.6,3.6,0,0,1,.42-1.3,3.84,3.84,0,0,1,.43-.59,4.16,4.16,0,0,1,.53-.43,2.47,2.47,0,0,1,1.55-.47,1.85,1.85,0,0,1,.5.1,1.66,1.66,0,0,1,.49.28,4,4,0,0,1,.41.45,7.24,7.24,0,0,0,1.24,1.14l-.91.51h0a4.38,4.38,0,0,0-1.81-4.35,4.76,4.76,0,0,0-4.86-.14,2.74,2.74,0,0,0-1.41,1.78,4.25,4.25,0,0,0,.29,2.29l.24.62c.08.19.17.35.26.53a8.09,8.09,0,0,0,.71,1,19.16,19.16,0,0,0,1.86,2c1.34,1.26,2.81,2.5,4.25,3.65A26.93,26.93,0,0,0,408.49,45c1.65.81,3.49,1.48,5.17,2.12S417,48.45,418.94,49Z"/><path class="cls-1" d="M499.5,114.75l-3.28-7.08a35.47,35.47,0,0,0-1.81-3.46l-1.9-3.4c-1.28-2.26-2.49-4.56-3.89-6.75l-4.16-6.59c-2.7-4.45-5.36-8.94-7.81-13.53a142.5,142.5,0,0,1-7-14c-1-2.41-2-4.84-2.77-7.41a34.24,34.24,0,0,1-1.5-7.95,24.05,24.05,0,0,1,0-4.07,26.65,26.65,0,0,1,.61-4,21.65,21.65,0,0,1,1.26-3.93,23.76,23.76,0,0,1,1.88-3.64,8.83,8.83,0,0,1,3.16-2.94,9.42,9.42,0,0,1,4.12-1.07,15.69,15.69,0,0,1,7.78,2.21,10.89,10.89,0,0,1,3.11,2.63,8.5,8.5,0,0,1,1.08,1.75,8.63,8.63,0,0,1,.67,1.93,4.44,4.44,0,0,1-.08,2.11,4.1,4.1,0,0,1-1.12,1.78,4.74,4.74,0,0,1-3.8,1.28l-2-.25,2-.22a3.78,3.78,0,0,0,1.45-.49,3.06,3.06,0,0,0,1-1.1,2.69,2.69,0,0,0,0-2.65,2.8,2.8,0,0,0-1-.89,9.46,9.46,0,0,0-1.38-.64,6.83,6.83,0,0,0-2.91-.25,5.94,5.94,0,0,0-2.65,1.09,8.1,8.1,0,0,0-1.13,1,11.63,11.63,0,0,0-1,1.14A15.1,15.1,0,0,0,474,41a24.29,24.29,0,0,0-.53,6.37,44.31,44.31,0,0,0,.89,6.44A104.36,104.36,0,0,0,478,66.43c1.43,4.16,3,8.26,4.76,12.32s3.63,8,5.46,12,4.12,7.8,6,11.8S497.89,110.59,499.5,114.75Zm0,0c-.87-2-1.72-4-2.63-6s-1.92-4-3-5.91S491.77,98.9,490.7,97s-2.21-3.83-3.13-5.85c-1.9-4-3.94-7.92-5.7-12s-3.5-8.13-5-12.29A104.39,104.39,0,0,1,473,54.11a45.91,45.91,0,0,1-1-6.66,25.54,25.54,0,0,1,.45-6.81A16.7,16.7,0,0,1,475,34.19a11.13,11.13,0,0,1,1.19-1.34,10.55,10.55,0,0,1,1.39-1.16A7.61,7.61,0,0,1,481,30.38a7.47,7.47,0,0,1,3.63.53,10,10,0,0,1,1.58.86,4.21,4.21,0,0,1,1.36,1.42,3.07,3.07,0,0,1,.34,2,3.81,3.81,0,0,1-.74,1.72,4.59,4.59,0,0,1-3.09,1.64v-.47a4.15,4.15,0,0,0,3.27-1.3,3.28,3.28,0,0,0,.79-3.21,8.39,8.39,0,0,0-4.66-5.24,13.65,13.65,0,0,0-7-1.44,7.66,7.66,0,0,0-3.08,1,6.43,6.43,0,0,0-2.15,2.3,23.39,23.39,0,0,0-1.44,3.3,22.1,22.1,0,0,0-.92,3.45,31.51,31.51,0,0,0-.53,7.36,33.65,33.65,0,0,0,1.15,7.39c.66,2.43,1.55,4.85,2.43,7.29a146,146,0,0,0,6.26,14.14q3.36,7,7.17,13.76l3.94,6.72c1.33,2.24,2.46,4.6,3.67,6.9l1.75,3.5a35.62,35.62,0,0,1,1.63,3.5C497.35,109.91,498.4,112.29,499.48,114.71Z"/><path class="cls-1" d="M483,28.48a4.83,4.83,0,0,1,3.06,1.25,6.19,6.19,0,0,1,1.89,2.71A9.5,9.5,0,0,0,485.8,30,13.41,13.41,0,0,0,483,28.52Z"/><path class="cls-1" d="M472.29,34.58a13.15,13.15,0,0,1,1.49-3.12A14.61,14.61,0,0,1,476,28.75a6.55,6.55,0,0,1,3.22-1.55,7.06,7.06,0,0,1,3.48.26,13.63,13.63,0,0,0-3.31.46,7.58,7.58,0,0,0-2.82,1.49,21.91,21.91,0,0,0-2.25,2.44,25.93,25.93,0,0,0-1.93,2.78Z"/><path class="cls-1" d="M471.7,32.19A10,10,0,0,1,473,29.73a10.43,10.43,0,0,1,1.83-2.11,5.9,5.9,0,0,1,2.56-1.19,6.51,6.51,0,0,1,2.78.08l0,.07a7.16,7.16,0,0,0-5,1.47A16.11,16.11,0,0,0,473.3,30a19.59,19.59,0,0,0-1.56,2.22Z"/><path class="cls-1" d="M470.2,40.75c.44,3.28.65,6.56,1.31,9.78a87,87,0,0,0,2.35,9.55c.95,3.15,2.14,6.18,3.29,9.29s2.28,6.19,3.35,9.31c-1.49-3-2.81-6-4.12-9a84.4,84.4,0,0,1-3.45-9.31,67.27,67.27,0,0,1-2.17-9.7,73.11,73.11,0,0,1-.67-9.91Z"/><path class="cls-1" d="M347.69,34.27a54,54,0,0,0-12.21-3.4c-2.09-.36-4.18-.56-6.3-.73s-4.22-.46-6.33-.71A75.46,75.46,0,0,1,310.29,27a31.78,31.78,0,0,1-11.49-6.16,16.18,16.18,0,0,1-4.15-5.41,14,14,0,0,1-1-3.35,12.23,12.23,0,0,1-.17-3.58,10.34,10.34,0,0,1,1-3.52,8.93,8.93,0,0,1,2.36-2.8A10.48,10.48,0,0,1,303.32,0a16.53,16.53,0,0,1,3.31.5,14.18,14.18,0,0,1,3.18,1.2,11.24,11.24,0,0,1,2.64,2.24,8.49,8.49,0,0,0,2,1.79,6.4,6.4,0,0,0,2.38.84,3.85,3.85,0,0,0,2.34-.22,2.83,2.83,0,0,0,1.5-1.56,3.1,3.1,0,0,0,.19-1.25,3.3,3.3,0,0,0-.11-.69c0-.12-.08-.23-.12-.35s-.09-.23.07-.53c.32-.09.45,0,.54.11s.21.22.3.34a4,4,0,0,1,.5.76,3.76,3.76,0,0,1,.45,1.9,4.14,4.14,0,0,1-2.16,3.35,5.89,5.89,0,0,1-3.79.71,8.27,8.27,0,0,1-3.43-1.32,7.44,7.44,0,0,1-1.4-1.23,13.48,13.48,0,0,1-1-1.37A9.22,9.22,0,0,0,308.85,3a8.21,8.21,0,0,0-2.53-1.31,8.67,8.67,0,0,0-2.92-.46,7.57,7.57,0,0,0-2.88.74,7.64,7.64,0,0,0-2.4,1.66,6.94,6.94,0,0,0-1.95,5.07,13.53,13.53,0,0,0,.32,2.81,19.5,19.5,0,0,0,.9,2.74,21.45,21.45,0,0,0,3,5.11,17.2,17.2,0,0,0,4.59,4,31.57,31.57,0,0,0,5.68,2.55A74,74,0,0,0,323,28.76c2.09.33,4.18.66,6.28.94s4.21.52,6.29.95,4.16.87,6.19,1.46A56.78,56.78,0,0,1,347.69,34.27Z"/><path class="cls-1" d="M332.18,30.11c-4.72-1.13-9.59-1.42-14.36-2.39a32.67,32.67,0,0,1-3.59-.83,25.8,25.8,0,0,1-3.46-1.34,25,25,0,0,1-6.21-4.08,17.08,17.08,0,0,1-4.29-6.18,14.7,14.7,0,0,1-.76-7.55,5.84,5.84,0,0,1,2.06-3.5,7.17,7.17,0,0,1,3.67-1.48,11.21,11.21,0,0,1,1.92-.06,5.57,5.57,0,0,1,1.93.44,6.72,6.72,0,0,1,2.53,2.78c-.95-.76-1.77-1.77-2.82-2a7.93,7.93,0,0,0-3.35.11,6.69,6.69,0,0,0-2.94,1.35A4.77,4.77,0,0,0,301,8a13.35,13.35,0,0,0,.61,6.77,15.59,15.59,0,0,0,3.88,5.72A26.08,26.08,0,0,0,318,26.88c2.36.53,4.74,1,7.12,1.49,1.18.26,2.37.47,3.56.76S331,29.83,332.18,30.11Z"/><path class="cls-1" d="M297.86,7.78a5.63,5.63,0,0,1,.89-3.14,6.7,6.7,0,0,1,2.43-2.24,8.87,8.87,0,0,1,6.41-.65,12.13,12.13,0,0,0-3.19.1,10.51,10.51,0,0,0-3,1,7.58,7.58,0,0,0-2.33,2A7,7,0,0,0,297.86,7.78Z"/><path class="cls-1" d="M298.57,13.18a22.1,22.1,0,0,0,4.81,7.65,21,21,0,0,0,3.5,2.88,20.35,20.35,0,0,0,2,1.16l2.06,1-2.17-.79a14.79,14.79,0,0,1-2.06-1A17.63,17.63,0,0,1,303,21.2a17.16,17.16,0,0,1-2.83-3.69A14.16,14.16,0,0,1,298.57,13.18Z"/><path class="cls-1" d="M491.14,268.67a126.52,126.52,0,0,0,10-9.09c1.57-1.6,3.11-3.25,4.58-4.94a54.67,54.67,0,0,0,4.16-5.27,12.11,12.11,0,0,0,2.07-5.87,6.19,6.19,0,0,0-1.81-5.11,7.65,7.65,0,0,0-8.38.15,4,4,0,0,0-1,2.94,4.05,4.05,0,0,1,.44-3.43,6.31,6.31,0,0,1,3-2,8.75,8.75,0,0,1,3.61-.62,6.85,6.85,0,0,1,3.66,1.27,6.64,6.64,0,0,1,2.35,3.19,8.72,8.72,0,0,1,.45,3.84,11.3,11.3,0,0,1-1,3.61,17.62,17.62,0,0,1-2,3.05c-1.49,1.84-3,3.45-4.62,5.08s-3.24,3.19-4.93,4.7-3.41,3-5.16,4.4S493,267.35,491.14,268.67Z"/><path class="cls-1" d="M500.74,241.48a2,2,0,0,1,1.57-1.68,3.12,3.12,0,0,1,1.29,0,3.55,3.55,0,0,1,1.24.41,4.43,4.43,0,0,1,1.73,2,6.79,6.79,0,0,1,.74,2.28,7,7,0,0,1,.06,1.2,9.54,9.54,0,0,1-.08,1.15,16.68,16.68,0,0,1-.48,2.18,23.34,23.34,0,0,1-1.48,4,18.41,18.41,0,0,1-2.31,3.66c-.86,1.09-1.76,2.12-2.72,3.12a62.21,62.21,0,0,1-5.95,5.76c1.55-2.29,3.06-4.56,4.61-6.79.39-.56.78-1.11,1.18-1.66s.76-1.13,1.12-1.69a20,20,0,0,0,1.82-3.41,30.36,30.36,0,0,0,1.2-3.71,12.12,12.12,0,0,0,.37-1.83c0-.25.05-.59.07-.89a8,8,0,0,0,0-.85,6.72,6.72,0,0,0-.32-1.66,3.11,3.11,0,0,0-.65-1.3A2.05,2.05,0,0,0,500.74,241.48Z"/><path class="cls-1" d="M508.05,239.36a3.42,3.42,0,0,0-1.77-.77,4.64,4.64,0,0,0-1.87.26,19.84,19.84,0,0,0-3.5,1.77,4.19,4.19,0,0,1,1.41-1.52,6.81,6.81,0,0,1,1.92-.83,4.34,4.34,0,0,1,2.12-.08A2.93,2.93,0,0,1,508.05,239.36Z"/><path class="cls-1" d="M509.87,239.56A6.62,6.62,0,0,0,506,238a6.45,6.45,0,0,0-4,1.15,4.71,4.71,0,0,1,4-1.86A4.45,4.45,0,0,1,509.87,239.56Z"/><path class="cls-1" d="M509.14,242.57a10.54,10.54,0,0,1-.31,5.08,16.38,16.38,0,0,1-2,4.65,38.62,38.62,0,0,0,1.4-4.81C508.56,245.87,508.71,244.24,509.14,242.57Z"/><path class="cls-1" d="M510.09,240.49a6.08,6.08,0,0,1,.75,2.75,9.23,9.23,0,0,1-.3,2.87,16.24,16.24,0,0,1-2.49,5.12h0c.63-1.79,1.43-3.48,1.9-5.26A10.46,10.46,0,0,0,510.09,240.49Z"/><path class="cls-1" d="M315,298.19c2.8-.62,5.57-1.4,8.31-2.22a85.23,85.23,0,0,0,8.1-2.82c5.29-2.2,10.57-4.49,15.94-6.53s10.68-4.22,16.07-6.23c2.69-1,5.38-2,8.18-2.85s5.57-1.56,8.41-2.16a65.81,65.81,0,0,1,8.64-1.22,27.78,27.78,0,0,1,8.87.53,22.5,22.5,0,0,1,8,4,17.42,17.42,0,0,1,3.26,3.17,11.83,11.83,0,0,1,1.25,2,18,18,0,0,1,.95,2.08,7.76,7.76,0,0,1,.33,4.87,8,8,0,0,1-2.75,4.07,8.67,8.67,0,0,1-4.42,2.07,6.15,6.15,0,0,1-2.62-.24,9.26,9.26,0,0,1-2.2-1.13l-.91-.62c-.31-.22-.63-.46-.93-.71-.61-.48-1.21-1.16-1.53-1.38a3.86,3.86,0,0,0-1.49-.55,4.33,4.33,0,0,0-1.61,0,3.4,3.4,0,0,0-2.35,2,2.51,2.51,0,0,0-.07,1.49,3.72,3.72,0,0,1,.1.87,8,8,0,0,1,0,1.26,2,2,0,0,1-1.32-.46,2.33,2.33,0,0,1-.76-1.09,4.67,4.67,0,0,1-.07-2.77,5,5,0,0,1,1.48-2.35,6.16,6.16,0,0,1,2.33-1.39,6,6,0,0,1,2.75-.21,7.55,7.55,0,0,1,1.31.31,6.14,6.14,0,0,1,1.33.64c.91.68,1.21,1.09,1.73,1.46.24.19.5.36.78.55l.85.59a4,4,0,0,0,2.92.91,6,6,0,0,0,3-1.46,5.13,5.13,0,0,0,1.8-2.62,5.78,5.78,0,0,0-.08-3.21,16.05,16.05,0,0,0-.67-1.85,11.1,11.1,0,0,0-.87-1.72,12,12,0,0,0-2.72-3,20.33,20.33,0,0,0-7.25-3.76,26,26,0,0,0-8.26-.61,63.27,63.27,0,0,0-8.43,1.06q-4.2.81-8.32,2c-2.74.76-5.43,1.75-8.13,2.7-5.4,1.93-10.77,4-16.14,6l-16.1,6.11A98.23,98.23,0,0,1,315,298.19Z"/><path class="cls-1" d="M395.16,289.24a6.6,6.6,0,0,0,2.42.14c.17,0,.35-.07.54-.11a3.27,3.27,0,0,0,.46-.13,1.79,1.79,0,0,0,.95-1,2.75,2.75,0,0,0,.24-.75,1.89,1.89,0,0,0-.27-1.3c-1.33-2.2-4.34-3.42-7.45-4.09a61.87,61.87,0,0,0-9.81-1.08,66.57,66.57,0,0,0-10,.53,89.63,89.63,0,0,0-9.86,1.86c-3.25.79-6.43,1.86-9.61,3-6.37,2.2-12.69,4.52-19.08,6.64,3.16-1.15,6.27-2.46,9.4-3.69l9.42-3.66c3.14-1.21,6.32-2.39,9.6-3.3a92.85,92.85,0,0,1,9.92-2.2,70.52,70.52,0,0,1,10.16-.91c1.71,0,3.41,0,5.1.1a32.88,32.88,0,0,1,5.12.57,19.35,19.35,0,0,1,5,1.57,9.19,9.19,0,0,1,4,3.6,3.8,3.8,0,0,1,.4,2.92,4,4,0,0,1-1.67,2.35,2.93,2.93,0,0,1-1.42.42,5.51,5.51,0,0,1-1.36-.13A4.49,4.49,0,0,1,395.16,289.24Z"/><path class="cls-1" d="M404.93,286.07a5,5,0,0,1,.52,2.41,4.68,4.68,0,0,1-.65,2.44,4.12,4.12,0,0,1-1.91,1.71,3.43,3.43,0,0,1-2.48.06,4.56,4.56,0,0,0,2.23-.57,4.51,4.51,0,0,0,1.57-1.56,5.27,5.27,0,0,0,.71-2.13A7.77,7.77,0,0,0,404.93,286.07Z"/><path class="cls-1" d="M406,283.66a5.53,5.53,0,0,1,1.68,3,6.15,6.15,0,0,1-.31,3.52,6,6,0,0,1-2.21,2.77,5,5,0,0,1-3.35.85,8.07,8.07,0,0,0,2.84-1.52,6.83,6.83,0,0,0,1.87-2.46A6.65,6.65,0,0,0,406,283.66Z"/><path class="cls-1" d="M400.82,281.35a21.39,21.39,0,0,0-7.72-3.09,39.8,39.8,0,0,0-8.32-.39c-2.78.09-5.59.31-8.35.66a51.26,51.26,0,0,0-8.18,1.79,40.46,40.46,0,0,1,8.12-2.21c1.39-.24,2.79-.37,4.19-.5s2.8-.24,4.2-.28,2.82,0,4.22,0a20.61,20.61,0,0,1,4.21.5,22.52,22.52,0,0,1,4,1.32A19.11,19.11,0,0,1,400.82,281.35Z"/><path class="cls-1" d="M400.87,279.47a31,31,0,0,0-6.11-2.07,27.85,27.85,0,0,0-6.38-.62c-1.08,0-2.15.08-3.23.11a31.62,31.62,0,0,0-3.22.2c-2.14.23-4.29.37-6.43.67l0-.09c2.11-.48,4.27-.73,6.41-1a31.89,31.89,0,0,1,3.24-.25c1.09,0,2.17-.13,3.25-.11a25.23,25.23,0,0,1,6.47.77A26,26,0,0,1,400.87,279.47Z"/><path class="cls-1" d="M402.9,284.66a4.88,4.88,0,0,1,.65,1.9,4.25,4.25,0,0,1-.11,2.06,3.29,3.29,0,0,1-1.19,1.72,2.94,2.94,0,0,1-1.95.55A3.81,3.81,0,0,0,402,290a3.58,3.58,0,0,0,1-1.57,5,5,0,0,0,.21-1.86A8.64,8.64,0,0,0,402.9,284.66Z"/><path class="cls-1" d="M462,305.87l5-12c1.6-4,3.08-8.11,4.29-12.26a124.16,124.16,0,0,0,3-12.6l1.13-6.39a61.52,61.52,0,0,0,.89-6.34,29.8,29.8,0,0,0,.07-3.14c0-1.08-.09-2.13-.2-3.18a23.49,23.49,0,0,0-1.43-6.09,24.78,24.78,0,0,0-3-5.52,18.35,18.35,0,0,0-4.52-4.31,15.74,15.74,0,0,0-5.7-2.44,12.06,12.06,0,0,0-6.06.24,8.49,8.49,0,0,0-1.39.58,11.51,11.51,0,0,0-1.28.79,2.8,2.8,0,0,0-1.26,2.16,2.94,2.94,0,0,0,.24,1.26,2.91,2.91,0,0,0,.8,1,3,3,0,0,0,1.16.62,1.94,1.94,0,0,0,.58,0,1.19,1.19,0,0,0,.26,0c.09,0,.21.09.58.41a.66.66,0,0,1-.14.77,2.11,2.11,0,0,1-.53.15,3.08,3.08,0,0,1-1.05,0,4.32,4.32,0,0,1-1.77-.8,4.36,4.36,0,0,1-1.77-3.45,4.28,4.28,0,0,1,.51-2,5.26,5.26,0,0,1,1.31-1.52,13.49,13.49,0,0,1,1.49-1,11.86,11.86,0,0,1,1.66-.77c4.65-1.56,9.69-.26,13.54,2.29a19.3,19.3,0,0,1,5,4.77,23,23,0,0,1,1.77,3,29.89,29.89,0,0,1,1.34,3.12,27,27,0,0,1,1.39,6.6c.11,1.11.15,2.22.17,3.32a28.58,28.58,0,0,1-.11,3.33,60.15,60.15,0,0,1-1.07,6.49l-1.33,6.4a125.55,125.55,0,0,1-3.45,12.6c-1.35,4.14-3,8.19-4.69,12.17S463.79,301.92,462,305.87Z"/><path class="cls-1" d="M465,298.71l1.51-4.76,1.4-4.79.69-2.39.53-2.44,1.05-4.86a96.7,96.7,0,0,0,1.29-9.84c.29-3.27.49-6.64.48-9.9a33.11,33.11,0,0,0-1.55-9.48,35.63,35.63,0,0,0-4-8.64,16,16,0,0,0-2.85-3.64,12.54,12.54,0,0,0-3.85-2.43,9.55,9.55,0,0,0-4.55-.44,3,3,0,0,0-2,1,1.25,1.25,0,0,0-.39,1,1.62,1.62,0,0,0,.5,1,1.76,1.76,0,0,1-.82-1,1.7,1.7,0,0,1,.23-1.37,3.78,3.78,0,0,1,2.17-1.65,10,10,0,0,1,5.33-.25,13.13,13.13,0,0,1,4.84,2.38,17,17,0,0,1,3.57,3.95,28.29,28.29,0,0,1,4.37,9.39,34.12,34.12,0,0,1,1,10.25c-.2,3.4-.54,6.68-1,10a96.94,96.94,0,0,1-1.8,9.88l-1.3,4.85-.65,2.42-.82,2.37L466.7,294Z"/><path class="cls-1" d="M469.94,239.6a20.37,20.37,0,0,0-3.93-3.67,17.14,17.14,0,0,0-2.28-1.39,12.24,12.24,0,0,0-2.46-1,11.88,11.88,0,0,0-5.27-.29,6.52,6.52,0,0,0-2.51.82,3.35,3.35,0,0,0-1.41,2.18,3.35,3.35,0,0,1,1.26-2.39,6.31,6.31,0,0,1,2.58-1,11.18,11.18,0,0,1,5.51.12,14.42,14.42,0,0,1,8.51,6.64Z"/><path class="cls-1" d="M473.13,242.49a19.52,19.52,0,0,0-11.08-9.72,12.34,12.34,0,0,0-2.94-.57,14.54,14.54,0,0,0-3,.11,8.15,8.15,0,0,0-2.88.87,8.05,8.05,0,0,1,2.85-1.06,12.75,12.75,0,0,1,8.93,1.51,17.85,17.85,0,0,1,4.86,3.73A17.53,17.53,0,0,1,473.13,242.49Z"/><path class="cls-1" d="M398.3,33.09a3.08,3.08,0,0,1,1.8-2.16,2.74,2.74,0,0,1,1.5-.14,3.91,3.91,0,0,1,1.42.51l-.42.64a3.31,3.31,0,0,0-1.12-.58,2.31,2.31,0,0,0-1.25-.07A2.9,2.9,0,0,0,398.3,33.09Z"/></g></g></svg>