<svg xmlns="http://www.w3.org/2000/svg" viewBox="0 0 545.98 299.55"><defs><style>.cls-1{fill:#fff;}</style></defs><title>cwlogo_white_4</title><g id="Layer_2" data-name="Layer 2"><g id="Layer_1-2" data-name="Layer 1"><path class="cls-1" d="M86.93,175.74l.38,1c.14.39.29.7.36,1a1.44,1.44,0,0,1,.06.4c0,.15,0,.24,0,.57-.08,1.08-.19,2.16-.25,3.25-.12,2.17-.21,4.34-.19,6.51a85.92,85.92,0,0,0,1,12.94,62.91,62.91,0,0,0,3.23,12.5,55,55,0,0,0,5.89,11.43,66.52,66.52,0,0,0,18.37,18,78.24,78.24,0,0,0,36.57,12.45,67.87,67.87,0,0,0,13.06-.19,64.63,64.63,0,0,0,6.47-1.07,60.6,60.6,0,0,0,6.31-1.83,53.42,53.42,0,0,0,11.81-5.77,52.66,52.66,0,0,0,17.69-19.19,49.58,49.58,0,0,0,5.82-25.41h0l.8.09A54.72,54.72,0,0,1,205,221.8a51.3,51.3,0,0,1-16.34,14,80.23,80.23,0,0,1-20.21,7.5,47.71,47.71,0,0,1-21.56.53c-7.16-1.62-13.53-5.61-18.93-10.37a73.87,73.87,0,0,1-7.55-7.77,61.35,61.35,0,0,1-6.28-8.88,54.25,54.25,0,0,1-4.4-10,71.7,71.7,0,0,1-2.51-10.63,88.31,88.31,0,0,1-1-10.87c-.1-3.61-.16-7.22-.11-10.84h0l2.13,2.09c-3.67,0-7.37.06-11.09,0-1.86,0-3.72-.11-5.58-.26-.93-.07-1.85-.16-2.78-.26l-1.38-.18A2.66,2.66,0,0,1,86.93,175.74Zm-2.49-.8,1.34-.09a11.93,11.93,0,0,1,1.69,0l1.36.06c.92,0,1.83.05,2.74.05,1.83,0,3.66-.07,5.49-.18,3.65-.21,7.31-.56,11-.85l.7-.05v.73h0c0,7.13-.23,14.29.77,21.27q.16,1.32.42,2.61c.15.87.3,1.73.52,2.58.36,1.72.77,3.43,1.27,5.11a53.47,53.47,0,0,0,4,9.74,60.22,60.22,0,0,0,13.21,16.45c5.26,4.69,11.4,8.57,18.27,10.16a46.39,46.39,0,0,0,21-.4,79.24,79.24,0,0,0,20-7.27,50.26,50.26,0,0,0,16.1-13.64,53.64,53.64,0,0,0,9.24-19l.73-2.77.07,2.86h0a49.2,49.2,0,0,1-1.45,13.25A54.72,54.72,0,0,1,208.17,228a53.38,53.38,0,0,1-17.79,19.58c-14.92,9.8-34,12.93-51.63,8.94A77.48,77.48,0,0,1,113.93,246a68.38,68.38,0,0,1-19.35-18.85A63.49,63.49,0,0,1,84.68,202a88.75,88.75,0,0,1-1.2-13.49c0-2.26,0-4.51.11-6.76,0-1.13.14-2.25.2-3.37,0-.23.06-.69.11-1.09s.13-.84.22-1.25S84.33,175.29,84.44,174.94Z"/><path class="cls-1" d="M222.93,68.81a4.92,4.92,0,0,1,0,.67l-.14.74a11.07,11.07,0,0,1-.46,1.45,10.49,10.49,0,0,1-1.52,2.61,15.14,15.14,0,0,1-4.7,3.79A26.42,26.42,0,0,1,204.44,81c-8.08.27-16.06-1.54-23.72-3.88-1.92-.59-3.81-1.25-5.7-1.79s-3.83-1-5.76-1.42A72.76,72.76,0,0,0,157.5,72.5a70.47,70.47,0,0,0-11.8.53,37.32,37.32,0,0,0-11.21,3.15,67.81,67.81,0,0,0-19.15,13.53,70.85,70.85,0,0,0-7.7,8.89,84.37,84.37,0,0,0-6.31,10,105,105,0,0,0-5,10.71,116.11,116.11,0,0,0-3.73,11.22c-1.08,3.79-1.89,7.66-2.62,11.54l-.26,1.46-.12.73-.06.37c-.19.09-.16.22-.19.34l-.54,2.92c-.33,1.95-.64,3.91-.85,5.88l-1.2-1.48h0c7.14.73,14.45-.06,21.8-.56l-1.17,1.19h0c.54-14.65,3.21-29.44,9-43.05a76.77,76.77,0,0,1,11.31-19.06,49.51,49.51,0,0,1,8-7.76,38.1,38.1,0,0,1,9.74-5.51,34.08,34.08,0,0,1,11-2.22,46.34,46.34,0,0,1,11,1,83.3,83.3,0,0,1,10.6,3,62.73,62.73,0,0,1,10.16,4.29A30.65,30.65,0,0,1,197,90.44a22.47,22.47,0,0,1,5.06,9.85,13.82,13.82,0,0,1,0,5.62,12.08,12.08,0,0,1-2.51,5,15.58,15.58,0,0,1-4.27,3.54c-1.58.94-3.26,1.68-4.82,2.61l0-.1h0c.73,1.08,2.08,1.39,3.3,1.66a19.53,19.53,0,0,0,3.83.28,35.8,35.8,0,0,0,3.86-.29c1.28-.14,2.56-.31,3.83-.56a26,26,0,0,0,7.24-2.45A11.7,11.7,0,0,0,219,103.15a16.28,16.28,0,0,0-2.68-7,23,23,0,0,0-5.59-5.25,29.35,29.35,0,0,0-6.91-3.61h0a27.83,27.83,0,0,0,9.28,1.17,23.51,23.51,0,0,0,4.56-.57,8.38,8.38,0,0,0,3.89-1.76,5,5,0,0,0,1.26-1.6,8.41,8.41,0,0,0,.71-2,21.73,21.73,0,0,0,.39-4.52,36,36,0,0,0-.3-4.63c-.08-.78-.18-1.55-.31-2.32l-.2-1.16-.11-.58c0-.08,0-.21,0-.27A1.09,1.09,0,0,0,222.93,68.81Zm0-.18a1.39,1.39,0,0,1,.2.31l.12.3.22.56c.13.37.25.75.37,1.13.23.76.44,1.52.63,2.3a35.51,35.51,0,0,1,.72,4.73,17.45,17.45,0,0,1-.23,4.88,8,8,0,0,1-2.38,4.54,9.48,9.48,0,0,1-4.68,1.9,21.18,21.18,0,0,1-4.84,0,39,39,0,0,1-4.7-.78,39.71,39.71,0,0,1-4.56-1.2h0a41,41,0,0,1,7.14,3.26,22,22,0,0,1,6.16,5,15.3,15.3,0,0,1,2,3.49,13.69,13.69,0,0,1,1.05,3.93,13,13,0,0,1-1.43,7.92,14.44,14.44,0,0,1-5.75,5.59,25.19,25.19,0,0,1-7.54,2.56,33.13,33.13,0,0,1-7.89.64,20.37,20.37,0,0,1-3.95-.52,7.53,7.53,0,0,1-1.88-.72,3.53,3.53,0,0,1-1.43-1.41h0l0-.06.07,0c1.51-1,3.12-1.92,4.64-2.89a14.92,14.92,0,0,0,4-3.57,12.1,12.1,0,0,0,2.12-10,21.07,21.07,0,0,0-4.85-9.41,29.61,29.61,0,0,0-8.42-6.6,60.5,60.5,0,0,0-10-4.18,80.37,80.37,0,0,0-10.52-2.7,45.42,45.42,0,0,0-10.71-.73,32.77,32.77,0,0,0-10.35,2.37,36.36,36.36,0,0,0-9.12,5.44,48.08,48.08,0,0,0-7.49,7.6,78.14,78.14,0,0,0-10.82,18.54,104.83,104.83,0,0,0-6.28,20.66q-1,5.31-1.64,10.7c-.4,3.6-.65,7.21-.93,10.82h0l-.06,1.11-1.11.09c-7.29.55-14.7,1.43-22.25.73h0l-1.35-.11.14-1.37c.21-2,.42-4,.66-6l.4-3c0-.13.08-.24-.07-.4l.06-.37.13-.74.26-1.5c.75-4,1.59-7.94,2.7-11.83s2.37-7.76,3.85-11.55a104.53,104.53,0,0,1,5.21-11,87.4,87.4,0,0,1,6.63-10.28,67.31,67.31,0,0,1,8.16-9.13,77,77,0,0,1,9.5-7.7,60.57,60.57,0,0,1,10.71-6,39.11,39.11,0,0,1,11.92-3.08,71.63,71.63,0,0,1,12.16-.26,74.58,74.58,0,0,1,12,1.72c2,.47,3.92,1,5.85,1.59s3.81,1.31,5.69,1.93c7.52,2.51,15.33,4.48,23.29,4.41a25.65,25.65,0,0,0,11.45-2.59,14.46,14.46,0,0,0,4.66-3.58,10.06,10.06,0,0,0,1.55-2.5,11.56,11.56,0,0,0,.48-1.4l.15-.73A8.06,8.06,0,0,1,222.91,68.63Z"/><path class="cls-1" d="M289.43,121.43l-4.95-13.34c-.83-2.22-1.64-4.46-2.5-6.65a45.7,45.7,0,0,1-2.31-6.83,14.12,14.12,0,0,1,.13-7.3,9.24,9.24,0,0,1,4.36-5.87,6.64,6.64,0,0,1,7.16.8,8,8,0,0,1,2.83,6.49v0l-.09,0a14.62,14.62,0,0,0-.21-12.49,10.57,10.57,0,0,0-1.78-2.48,10.38,10.38,0,0,0-2.33-1.85,13.78,13.78,0,0,0-5.67-1.72,15.62,15.62,0,0,0-10.95,3.42,12.35,12.35,0,0,0-3.67,4.49A18.85,18.85,0,0,0,267.74,84a.08.08,0,0,0,0,0l.3,7.11-1.72-6.83a24.7,24.7,0,0,0-6.64-11.08,14.22,14.22,0,0,0-11.85-4.12,15.32,15.32,0,0,0-6.09,2.11,11,11,0,0,0-4.32,4.61,10.76,10.76,0,0,0-1,3.05,18.38,18.38,0,0,0-.15,3.24,20.07,20.07,0,0,0,1.47,6.41l0,0h-.12a8.91,8.91,0,0,1,4.22-3.72,9.41,9.41,0,0,1,5.72-.5,11.85,11.85,0,0,1,5.06,2.74,24.9,24.9,0,0,1,3.76,4.26,50.53,50.53,0,0,1,3,4.77c.91,1.62,1.8,3.25,2.63,4.94,1.65,3.35,3.07,6.8,4.41,10.27,2.62,6.94,5.3,13.8,8,20.71l4,10.35,2,5.18,1,2.58a8.58,8.58,0,0,1,.69,2.71v.06l-1.13-.79a10.45,10.45,0,0,0,2.66.31l2.66,0,5.32.07,10.64,0h.05l-.74,1.07a30.61,30.61,0,0,1-1.67-4l-1.5-4-3-8.06Zm1.45-.54,6.19,16,3.1,8,1.55,4a32.09,32.09,0,0,1,1.38,4.08l.25,1.09-1,0H291.67l-5.32.06-2.66,0a9.63,9.63,0,0,0-2.66.31l-.43.12-.71-.91,0,0a8.57,8.57,0,0,1-1.25-2.49l-.93-2.62-1.85-5.23-3.7-10.47c-2.47-7-5-14-7.35-21-1.23-3.48-2.52-6.93-4-10.27A76.38,76.38,0,0,0,255.52,92a23.84,23.84,0,0,0-3.48-4.2,11.1,11.1,0,0,0-4.61-2.69c-.44-.08-.88-.18-1.33-.24l-1.35,0a12,12,0,0,0-2.65.56,9.73,9.73,0,0,0-4.32,3.26l-.07.09-.05-.1,0,0a19.93,19.93,0,0,1-1.78-6.43,14.53,14.53,0,0,1,0-3.36,11.58,11.58,0,0,1,.37-1.65l.24-.81.34-.78a12.47,12.47,0,0,1,1.76-2.92,14.34,14.34,0,0,1,2.54-2.38,15.56,15.56,0,0,1,6.47-2.88,13.6,13.6,0,0,1,7.22.62,14.8,14.8,0,0,1,5.93,4.07A26.6,26.6,0,0,1,263,74.78c.64.94,1.27,1.86,1.85,2.87A25.4,25.4,0,0,1,267.39,84l-.78.15v0a13.89,13.89,0,0,1,5-12.25,16.16,16.16,0,0,1,12.76-3.68,14.76,14.76,0,0,1,6.33,2.39A12.15,12.15,0,0,1,295,75.75a14.5,14.5,0,0,1,1.12,6.63,14.12,14.12,0,0,1-1.92,6.4L294,89l0-.22v0a8.18,8.18,0,0,0-3.1-6,6,6,0,0,0-6.44-.61,8.44,8.44,0,0,0-3.85,5.44,13.18,13.18,0,0,0,0,6.83,44.31,44.31,0,0,0,2.38,6.61c.92,2.21,1.75,4.42,2.63,6.63Z"/><path class="cls-1" d="M471.84,78.81a7.39,7.39,0,0,0-2.08-2.94A13.74,13.74,0,0,0,467,73.64a10.21,10.21,0,0,0-3.27-1.2,12.86,12.86,0,0,0-3.52-.25,9.17,9.17,0,0,0-6,2.85c-.42.42-.83.89-1.25,1.37a16.75,16.75,0,0,0-1.12,1.4A20.49,20.49,0,0,0,450,80.93h0l-1.85,4-.56-4.34a11.33,11.33,0,0,0-4.95-8.1,10.78,10.78,0,0,0-4.62-1.68,14.08,14.08,0,0,0-5.07.38,10,10,0,0,0-4.47,2.28A8.79,8.79,0,0,0,426,77.85a10.9,10.9,0,0,0,.1,5.23,10.61,10.61,0,0,0,2.62,4.59l0,0-.31,0A8.45,8.45,0,0,1,432.32,84a7.75,7.75,0,0,1,2.7-.75,6,6,0,0,1,2.83.54,8.49,8.49,0,0,1,3.82,4.12A14.12,14.12,0,0,1,443,93.33c.18,3.77-1,7.34-2,10.69s-2.1,6.75-3.15,10.12l-6.34,20.23c-2.1,6.75-4.27,13.48-6.43,20.21a0,0,0,0,1,0,0L423.21,152l6.3,1.19h0l-.89.61c1.76-5.25,3.69-10.44,5.52-15.66l5.57-15.64L451,91.24l0-.06,0,0a14.77,14.77,0,0,1,3.58-4.52A12.22,12.22,0,0,1,457,85a11.59,11.59,0,0,1,2.75-1,7.49,7.49,0,0,1,3-.07,6.08,6.08,0,0,1,2.76,1.12,7.35,7.35,0,0,1,2,2.13,11.82,11.82,0,0,1,.69,1.26,6.25,6.25,0,0,0,.95,1.27l0,0-1.49-.52a6.79,6.79,0,0,0,2.26-2,11.84,11.84,0,0,0,1.51-2.6A8.71,8.71,0,0,0,471.84,78.81Zm.9-.25a10.21,10.21,0,0,1-.39,6.46,13.51,13.51,0,0,1-1.54,2.88,12.43,12.43,0,0,1-2.23,2.35l-.73.57V90a4.42,4.42,0,0,0-.8-2.45,5.88,5.88,0,0,0-1.88-1.8,6.64,6.64,0,0,0-2.5-.82A7.16,7.16,0,0,0,460,85a11.65,11.65,0,0,0-4.7,2.45,13.72,13.72,0,0,0-3.25,4.23l0-.05L441.28,123l-5.41,15.7-2.7,7.85-1.35,3.93c-.45,1.31-.89,2.62-1.42,3.9l-.24.58-.65,0h0l-6.33.46-2.06.15.65-2.13v0c2.21-6.71,4.39-13.43,6.71-20.11l6.85-20.06c1.16-3.34,2.25-6.7,3.46-10s2.43-6.57,2.44-9.91a12.93,12.93,0,0,0-.9-4.85,7.21,7.21,0,0,0-3-3.69,5.07,5.07,0,0,0-2.27-.59,7,7,0,0,0-2.4.52,9,9,0,0,0-3.91,3.17l-.17.23-.15-.19,0,0a13.06,13.06,0,0,1-2.68-4.76,11.92,11.92,0,0,1-.54-5.48,9,9,0,0,1,2.46-5.07,11.48,11.48,0,0,1,4.92-2.9,16,16,0,0,1,5.65-.73,12.35,12.35,0,0,1,9.8,5.78,14.56,14.56,0,0,1,2.1,5.5L447.71,80h0a22.5,22.5,0,0,1,2.16-3.51,18.21,18.21,0,0,1,1.33-1.56c.44-.48.9-1,1.39-1.45a11.89,11.89,0,0,1,3.45-2.34,11.24,11.24,0,0,1,4.06-.94,14.68,14.68,0,0,1,4.05.45,12,12,0,0,1,3.76,1.59A11.35,11.35,0,0,1,472.74,78.56Z"/><path class="cls-1" d="M373.18,123.14l-8.55-26.45c-.73-2.15-1.81-4.33-1.88-6.83a7.57,7.57,0,0,1,3.2-6.42,7.46,7.46,0,0,1,7.14-.68,6.44,6.44,0,0,1,2.84,2.4,5.18,5.18,0,0,1,.9,3.56h0l-.62-.16c.34-1,.75-1.95,1-2.95a15.76,15.76,0,0,0,.59-3,14.09,14.09,0,0,0-.11-3,11.49,11.49,0,0,0-.91-2.86,12.64,12.64,0,0,0-9.35-6.75,16.13,16.13,0,0,0-5.93.27,12.07,12.07,0,0,0-5.08,2.7,14.37,14.37,0,0,0-3.32,4.75A21.44,21.44,0,0,0,352,80.36a15,15,0,0,0-.56,2.91v0l-.73,8.89L349,83.45a19.36,19.36,0,0,0-6-11,14,14,0,0,0-5.58-2.89,16.61,16.61,0,0,0-6.4-.32,14,14,0,0,0-6,2.16,10.12,10.12,0,0,0-3.72,5.12,17.83,17.83,0,0,0-.69,6.52,17.41,17.41,0,0,0,1.86,6.35l0,0h-.27a16.58,16.58,0,0,1,3.18-4.74A7.93,7.93,0,0,1,328,83.14a9.47,9.47,0,0,1,3-.57,8.92,8.92,0,0,1,5.82,1.59,12.68,12.68,0,0,1,3.79,4.63c1.8,3.48,2.63,7.21,3.7,10.68l3.27,10.61,1.79,5.2c.3.89.59,1.78.87,2.7.13.47.27.93.39,1.43.06.24.11.53.17.79s0,.34.06.51a2.77,2.77,0,0,1,0,.84L348,132.42l-2.83,10.74-1.41,5.37-.71,2.68a2.69,2.69,0,0,1-1.88,2.37s0,0,0,0l-.85-1.11h7.15l-.88.66c.84-3.07,1.78-6.1,2.67-9.15l2.69-9.14v0l.9-3,1.09,3,6.62,18.28v0l-1.08-.77,24.22.23h0L382.66,154,378,138.57Zm1.13-.37,5.22,15.29,5.28,15.26.49,1.42-1.58.06h0l-24.21,1.11-1.42.06-.87-1.68v0L353,135.13h0l0,0-2.22,9.28-1.11,4.64a34.8,34.8,0,0,1-1.27,4.6l-.27.67h-.65l-7.12.13-1.38,0,.34-1.39v0c1.92-7.15,4-14.26,6-21.39l3-10.65s0-.24,0-.41-.07-.42-.12-.63c-.09-.44-.21-.88-.32-1.31-.24-.88-.5-1.77-.77-2.65-.54-1.77-1.13-3.49-1.66-5.32L342.42,100c-1-3.59-1.67-7.23-3.23-10.51A11.26,11.26,0,0,0,336,85.24a7.61,7.61,0,0,0-5-1.51,8.42,8.42,0,0,0-2.64.41A9.31,9.31,0,0,0,326,85.42a12.53,12.53,0,0,0-3.45,4.16l-.13.26-.13-.24,0,0A16.38,16.38,0,0,1,320,83.13a18.6,18.6,0,0,1,.48-6.84,11.13,11.13,0,0,1,3.87-5.78,15.23,15.23,0,0,1,6.47-2.62,18.13,18.13,0,0,1,7,.08,15.92,15.92,0,0,1,6.43,3,18.29,18.29,0,0,1,4.58,5.41,24.06,24.06,0,0,1,1.53,3.2A22.83,22.83,0,0,1,351.45,83l-2.43.15v0a18.19,18.19,0,0,1,.37-3.44,14.77,14.77,0,0,1,1-3.35,16.26,16.26,0,0,1,4.25-5.54,14.56,14.56,0,0,1,6.32-3,16.81,16.81,0,0,1,3.43-.33,16,16,0,0,1,3.43.33,15.14,15.14,0,0,1,6.2,2.87,13.25,13.25,0,0,1,4.18,5.36,13,13,0,0,1,.88,3.29,14.68,14.68,0,0,1,0,3.38,16.12,16.12,0,0,1-.78,3.24,9.4,9.4,0,0,1-1.52,3l-.85,1,.23-1.17h0a9.82,9.82,0,0,0-1.1-3,5.44,5.44,0,0,0-2.39-2,6.41,6.41,0,0,0-6.13.59,6.52,6.52,0,0,0-2.74,5.53c.05,2.19,1.06,4.29,1.83,6.51Z"/><path class="cls-1" d="M324.67,214.94c-2.59-6.42-5.28-12.91-7.89-19.49-1.3-3.29-2.59-6.59-3.84-9.88l-3.69-9.77.78.54a19.45,19.45,0,0,1-5.33.22c-1.78,0-3.55-.14-5.33-.21l-5.34-.24a47.37,47.37,0,0,0-5.33,0l.54-.78c.85-.08,1.27,0,1.47.16s.18.4.28.6l.45,1.24.9,2.47,1.81,5,3.62,9.91c2.36,6.62,4.77,13.23,7.08,19.87s4.65,13.28,6.93,19.94l3.35,10c.54,1.68,1.17,3.31,1.78,5l1.78,4.95-.5,0c2-6.57,3.85-13.18,5.78-19.76l5.74-19.78,11.48-39.55.95,1.28a30.38,30.38,0,0,0-3.57.05,18.61,18.61,0,0,1-3.58,0l1-.78c.62,1.05.14,1.83-.05,2.67l-.71,2.5-1.45,5c-1,3.33-2,6.69-3,9.95l-3.12,9.67C326.61,208.75,325.62,211.9,324.67,214.94Zm-.09-1.94c.78-3.36,1.51-6.62,2.21-9.89l2.06-9.55c.67-3.14,1.41-6.18,2.15-9.26l1.15-4.6.58-2.3c.24-.76.19-1.58,1.25-2.13l1-.78a19.35,19.35,0,0,1,3.57,0,30.63,30.63,0,0,0,3.58.09l1.36-.06-.41,1.34-12.22,39.33-6.1,19.67c-2,6.56-4.11,13.1-6.08,19.68l-.2.68-.3-.65c-1.46-3.2-3-6.4-4.33-9.66l-4-9.76q-4-9.78-7.82-19.6c-2.61-6.53-5.11-13.11-7.66-19.66L290.62,186l-1.88-4.93-.93-2.47-.47-1.23c-.06-.21-.21-.39-.18-.64s.31-.58,1-1.08l.54-.77a47.37,47.37,0,0,0,5.33,0l5.34-.23c1.78-.07,3.55-.18,5.33-.21a19.54,19.54,0,0,1,5.34.22l.64.17.14.37,3.61,9.47q1.76,4.68,3.45,9.35C320.13,200.26,322.31,206.6,324.58,213Z"/><path class="cls-1" d="M404.06,212.65l-6.47-18.25-3.2-9.2c-1.07-3.11-2.08-6-3.15-9l1.16.85a4.89,4.89,0,0,1-3,.63c-1,0-2,0-3,0-2,0-4-.09-6.06-.16s-4-.14-6-.17c-1,0-2-.07-3,0-.51,0-1,.06-1.52.1-.25,0-.5.21-.76.22l-.75,0L370,175l25.54,76.9h-.5l13.08-38,6.54-19c2.19-6.32,4.32-12.67,6.56-19l.93,1.33c-1.06,0-2.12.09-3.18.1a12.06,12.06,0,0,1-1.59,0,4.39,4.39,0,0,1-1.58-.43l.72-.51c.81.48.53.6.5.8l-.19.58-.38,1.16-.78,2.31-1.57,4.64c-1.09,3.07-2.19,6.18-3.35,9.19Zm0-2c.9-3.11,1.77-6.11,2.6-9.13l2.46-8.79c.8-2.91,1.67-5.72,2.55-8.56l1.37-4.24.7-2.13.36-1.06.17-.54c.09-.17-.06-.41.87-.3l.72-.52a4.46,4.46,0,0,1,1.6-.36,12.05,12.05,0,0,1,1.59,0c1.06.05,2.12.19,3.18.22l1.39,0-.47,1.31c-2.24,6.3-4.58,12.57-6.87,18.86l-6.91,18.86L395.58,252l-.25.67-.25-.67L366.3,176.29l-1-2.64h3.65c.25,0,.5.21.75.23.51,0,1,.1,1.52.13,1,0,2,0,3,0,2,0,4,0,6.06-.07s4.05-.07,6.07-.06c1,0,2,0,3,0a4.85,4.85,0,0,1,3,.68l1.15.81v0c.87,3,1.8,6.06,2.67,8.92l2.63,8.71Z"/><path class="cls-1" d="M88.52,169.41a8.32,8.32,0,0,1-1.46.6,8.83,8.83,0,0,1-1.51.32,13.22,13.22,0,0,1-1.57.1,8,8,0,0,1-2.69-.42,5.79,5.79,0,0,1-2.07-1.22,5.07,5.07,0,0,1-1.31-1.9,6.29,6.29,0,0,1-.44-2.37,6.11,6.11,0,0,1,.52-2.61,5,5,0,0,1,1.44-1.85,6.09,6.09,0,0,1,2.1-1.09,8.54,8.54,0,0,1,2.5-.36,13.35,13.35,0,0,1,4.44.88v3a11.9,11.9,0,0,0-1.69-.88,4.93,4.93,0,0,0-2-.36,4.56,4.56,0,0,0-1.88.4,3.5,3.5,0,0,0-1.4,1.14,3,3,0,0,0-.07,3.32,3.3,3.3,0,0,0,1.29,1.16,4.06,4.06,0,0,0,1.87.43,5.8,5.8,0,0,0,1.58-.21,6.5,6.5,0,0,0,1.26-.45,11.37,11.37,0,0,0,1-.59Z"/><path class="cls-1" d="M113.21,170.28h-3.47v-4.49h-5.22v4.49h-3.47V158.77h3.47V163h5.22v-4.23h3.47Z"/><path class="cls-1" d="M138.93,170.28h-3.56l-.93-2.34h-5l-1,2.34h-3.55L130,158.77h3.83Zm-5.29-4.34-1.69-4.2-1.7,4.2Z"/><path class="cls-1" d="M161.79,170.28h-3.72l-.91-2.05a8,8,0,0,0-.9-1.63,1.91,1.91,0,0,0-.77-.67,2.71,2.71,0,0,0-1-.14h-.39v4.49h-3.47V158.77h5.9a4.37,4.37,0,0,1,2.35.58,3.58,3.58,0,0,1,1.31,1.41,3.62,3.62,0,0,1,.4,1.58,3,3,0,0,1-.33,1.47,2.66,2.66,0,0,1-.71.88,6.7,6.7,0,0,1-.84.52,3.52,3.52,0,0,1,.92.77,9.7,9.7,0,0,1,1,1.8Zm-4.71-7.87a1.19,1.19,0,0,0-.53-1.11,3.4,3.4,0,0,0-1.7-.32h-.73v2.77h.75a3.67,3.67,0,0,0,1.74-.28A1.13,1.13,0,0,0,157.08,162.41Z"/><path class="cls-1" d="M182.31,170.28h-8.74V158.77H177v8.75h5.27Z"/><path class="cls-1" d="M203.2,170.28h-8.67V158.77h8.53v2.31H198v2.11h4.83v2.31H198V168h5.2Z"/><path class="cls-1" d="M223.77,166.93a3.17,3.17,0,0,1-.55,1.87,3.54,3.54,0,0,1-1.54,1.21,5.78,5.78,0,0,1-2.27.42c-.24,0-.53,0-.87-.05a9.36,9.36,0,0,1-1.38-.25,11.24,11.24,0,0,1-1.79-.62v-2.82a12.86,12.86,0,0,0,1.71.9,4.6,4.6,0,0,0,1.81.35,1.58,1.58,0,0,0,1.15-.29.89.89,0,0,0,.26-.55,1,1,0,0,0-.45-.79,6.7,6.7,0,0,0-1.3-.66,9.87,9.87,0,0,1-1.66-.86,4,4,0,0,1-1.17-1.18,3,3,0,0,1-.45-1.67,3.12,3.12,0,0,1,.46-1.68,3.18,3.18,0,0,1,1.39-1.2,5.28,5.28,0,0,1,2.29-.45,8.23,8.23,0,0,1,1.78.19,7.51,7.51,0,0,1,1.35.42,5.13,5.13,0,0,1,.73.37v2.69a9.47,9.47,0,0,0-1.57-.9,4.35,4.35,0,0,0-1.86-.4,1.38,1.38,0,0,0-.93.25.76.76,0,0,0-.29.61.72.72,0,0,0,.29.59,5,5,0,0,0,1,.61,19.73,19.73,0,0,1,2.13,1.12,4.1,4.1,0,0,1,1.25,1.15A2.76,2.76,0,0,1,223.77,166.93Z"/><path class="cls-1" d="M66.05,182.06A15.46,15.46,0,0,0,73,179.29,20.84,20.84,0,0,0,78.06,174h0l.43-.53h.72c6-.1,12.08-.15,18.12-.19l18.12-.12,36.23,0,36.24.22,18.12.12c6,.17,12.08-.46,18.11,1.49-6,1.95-12.07,1.32-18.11,1.49l-18.12.12-36.24.21H115.45l-18.12-.13q-9.06,0-18.12-.18l1.15-.54h0a22.93,22.93,0,0,1-6.59,4.71,16.22,16.22,0,0,1-7.72,1.54Z"/><path class="cls-1" d="M68,184.68a15.85,15.85,0,0,0,7.27-2.26,21.6,21.6,0,0,0,5.7-5h0l.07-.09h.12l72.47,0,36.24,0H208c6,0,12.08-.06,18.12.25-6,.31-12.08.22-18.12.24H189.88l-36.24,0-72.47,0,.19-.09h0a22.14,22.14,0,0,1-6,5,16,16,0,0,1-7.4,2Z"/><path class="cls-1" d="M221.57,154a52.44,52.44,0,0,1-9.81,1.33c-3.27.17-6.54.11-9.81.16l-19.63.15c-13.08.13-26.17.1-39.25.16s-26.17-.06-39.25-.17l-19.63-.17-4.9-.05-2.46,0a7.18,7.18,0,0,0-2,.2c-2.66.64-5,2.62-7.45,5a9.8,9.8,0,0,1,2.14-4.72,9.07,9.07,0,0,1,4.58-3,9.82,9.82,0,0,1,2.81-.34l2.45,0,4.91,0,19.62-.17c13.08-.11,26.17-.13,39.25-.17s26.16,0,39.24.16l19.62.15c3.27.05,6.54,0,9.81.16a51.63,51.63,0,0,1,9.81,1.33Z"/><path class="cls-1" d="M219.61,151.41c-6.54.25-13.08.24-19.62.24H74.88a7.78,7.78,0,0,0-2.36.26,9.71,9.71,0,0,0-4.14,2.33,16.7,16.7,0,0,0-3,3.81A13.68,13.68,0,0,1,68.14,154a9.61,9.61,0,0,1,4.26-2.54,8.36,8.36,0,0,1,2.49-.28H200c6.54,0,13.08,0,19.62.24Z"/><path class="cls-1" d="M272.16,178.51c7.69-.25,15.39-.24,23.08-.24H442.4a16.69,16.69,0,0,0,2.84-.13c3.78-.54,7-3.11,9.13-6.27a14.33,14.33,0,0,1-3.73,4.4,11.77,11.77,0,0,1-5.32,2.34,17,17,0,0,1-2.92.14H295.24c-7.69,0-15.39,0-23.08-.24Z"/><path class="cls-1" d="M294.64,158.91l-5,11.65h-2l-3-6.78-3.07,6.78h-2l-4.88-11.65h3.59l2.39,6.38,2.74-6.38h2.48l2.69,6.38,2.5-6.38Z"/><path class="cls-1" d="M318.74,164.65a6.11,6.11,0,0,1-.74,3,5.42,5.42,0,0,1-2.22,2.15,7.39,7.39,0,0,1-3.57.79,7.17,7.17,0,0,1-3.61-.83,5.37,5.37,0,0,1-2.2-2.18,6.2,6.2,0,0,1,0-5.8,5.27,5.27,0,0,1,2.19-2.17,7.34,7.34,0,0,1,3.62-.83,7.87,7.87,0,0,1,2.84.48,5.56,5.56,0,0,1,2.05,1.28,5.31,5.31,0,0,1,1.22,1.88A6.17,6.17,0,0,1,318.74,164.65Zm-3.54,0a3.44,3.44,0,0,0-.19-1.18,2.54,2.54,0,0,0-.57-.93,2.68,2.68,0,0,0-.95-.61,3.4,3.4,0,0,0-1.28-.22,2.93,2.93,0,0,0-2.19.81,3,3,0,0,0,2.19,5.09,3.26,3.26,0,0,0,1.62-.38,2.49,2.49,0,0,0,1-1A3.21,3.21,0,0,0,315.2,164.65Z"/><path class="cls-1" d="M339.84,170.42H331.1V158.91h3.47v8.75h5.27Z"/><path class="cls-1" d="M360.8,170.42h-8.74V158.91h3.47v8.75h5.27Z"/><path class="cls-1" d="M384.35,164.65a6,6,0,0,1-.74,3,5.39,5.39,0,0,1-2.21,2.15,7.43,7.43,0,0,1-3.58.79,7.19,7.19,0,0,1-3.61-.83,5.37,5.37,0,0,1-2.2-2.18,6.28,6.28,0,0,1,0-5.8,5.32,5.32,0,0,1,2.19-2.17,7.37,7.37,0,0,1,3.62-.83,7.87,7.87,0,0,1,2.84.48,5.36,5.36,0,0,1,3.28,3.16A6.37,6.37,0,0,1,384.35,164.65Zm-3.53,0a3.69,3.69,0,0,0-.19-1.18,2.57,2.57,0,0,0-.58-.93,2.64,2.64,0,0,0-.94-.61,3.42,3.42,0,0,0-1.29-.22,3,3,0,1,0,0,5.9,3.3,3.3,0,0,0,1.63-.38,2.55,2.55,0,0,0,1-1A3.33,3.33,0,0,0,380.82,164.65Z"/><path class="cls-1" d="M407,169.55a8,8,0,0,1-1.46.6,8.92,8.92,0,0,1-1.5.32,13.56,13.56,0,0,1-1.58.09,8,8,0,0,1-2.69-.41,5.88,5.88,0,0,1-2.07-1.22,5.19,5.19,0,0,1-1.31-1.9,6.3,6.3,0,0,1-.44-2.38,6.22,6.22,0,0,1,.52-2.6,5,5,0,0,1,1.44-1.85,6,6,0,0,1,2.11-1.09,8.52,8.52,0,0,1,2.49-.36,13.57,13.57,0,0,1,4.44.87v3.06a11,11,0,0,0-1.69-.88,4.9,4.9,0,0,0-2-.36,4.51,4.51,0,0,0-1.87.4A3.53,3.53,0,0,0,400,163a3,3,0,0,0-.06,3.32,3.3,3.3,0,0,0,1.29,1.16,4,4,0,0,0,1.86.42,5.75,5.75,0,0,0,1.58-.2,8.17,8.17,0,0,0,1.26-.45,11.37,11.37,0,0,0,1.05-.59Z"/><path class="cls-1" d="M431.7,170.42h-3.47v-4.49H423v4.49h-3.47V158.91H423v4.23h5.22v-4.23h3.47Z"/><path class="cls-1" d="M271.13,175.33a33,33,0,0,1,11.45-1.69c3.82-.06,7.63-.16,11.45-.19,7.63-.13,15.26-.07,22.9-.09,15.26.08,30.53.22,45.79.18s30.53-.06,45.8,0l11.44.07,11.45.15,5.73.08,2.86,0a14.61,14.61,0,0,0,2.61-.08,13.27,13.27,0,0,0,4.79-1.68,25.32,25.32,0,0,0,4.42-3.41,11.36,11.36,0,0,1-8.75,7.92,17.88,17.88,0,0,1-3.1.19l-2.86,0-5.72.08-11.45.16-11.45.06c-15.26.1-30.52,0-45.78,0s-30.53.11-45.79.19c-7.63,0-15.26,0-22.9-.09-3.81,0-7.63-.13-11.44-.19a33.21,33.21,0,0,1-11.45-1.7Z"/><path class="cls-1" d="M453.28,147.3a19.45,19.45,0,0,0-7.85,2.72,23,23,0,0,0-6.05,5.4h0l-.43.45h-.66c-6.88.1-13.76.15-20.64.19L397,156.2l-41.27,0L314.46,156l-20.64-.12c-6.88-.17-13.76.46-20.64-1.49,6.88-1.95,13.76-1.32,20.64-1.49l20.64-.12,41.28-.21H397l20.64.13q10.32,0,20.64.18l-1.09.47h0a25.17,25.17,0,0,1,7.54-4.74,20.19,20.19,0,0,1,8.54-1.44Z"/><path class="cls-1" d="M451.05,144.68a19.87,19.87,0,0,0-8.14,2.19,24,24,0,0,0-6.67,5.12h0l-.08.08h-.1l-82.56,0-41.27,0H291.59c-6.88,0-13.76.06-20.64-.25,6.88-.31,13.76-.22,20.64-.24h20.64l41.27,0,82.56,0-.19.08h0a24.4,24.4,0,0,1,6.91-5,19.93,19.93,0,0,1,8.26-2Z"/><path class="cls-1" d="M206.52,240.08a80,80,0,0,0,13.4,18.86,86.74,86.74,0,0,0,18.16,14.32,125.74,125.74,0,0,0,21,9.89,223.35,223.35,0,0,0,22.19,6.76A285.42,285.42,0,0,0,326.89,298a224.06,224.06,0,0,0,23.17.95c3.87,0,7.73-.24,11.59-.39,3.85-.33,7.71-.55,11.54-1.08s7.66-1.06,11.48-1.66c1.9-.33,3.79-.74,5.68-1.11l2.84-.57,2.82-.68a200,200,0,0,0,22.21-6.61,221.88,221.88,0,0,0,41.59-20.27,210.44,210.44,0,0,0,36.45-28.45,157.88,157.88,0,0,0,28.13-36.5,121.07,121.07,0,0,0,9.23-21.08,172.48,172.48,0,0,0,6.12-22.21,108.3,108.3,0,0,0-.28-45.28,102.64,102.64,0,0,0-7.6-21.33A98.58,98.58,0,0,0,519.6,72.66a120.06,120.06,0,0,0-16.06-16.14c-1.44-1.25-3-2.39-4.46-3.59s-3.07-2.28-4.6-3.42q-4.69-3.32-9.53-6.45c-1.61-1.05-3.24-2.1-4.87-3.13l-4.89-3-5-2.84c-1.68-.92-3.4-1.78-5.09-2.67a161.91,161.91,0,0,0-21.19-8.89,156.24,156.24,0,0,0-22.27-5.76c-3.78-.71-7.57-1.32-11.39-1.86-1.91-.2-3.82-.49-5.75-.62s-3.85-.23-5.78-.29a163.6,163.6,0,0,0-23.09,1.4,214.8,214.8,0,0,0-22.77,4.28c-7.52,1.81-14.94,4-22.3,6.38-3.68,1.19-7.34,2.45-11,3.74l-5.46,2c-1.84.62-3.57,1.51-5.58,1.67a22.19,22.19,0,0,1,5.32-2.37l5.47-2c3.65-1.29,7.31-2.55,11-3.74,7.37-2.4,14.81-4.59,22.35-6.41a218.45,218.45,0,0,1,22.85-4.31A170.14,170.14,0,0,1,422,15a157.15,157.15,0,0,1,22.73,5.21,175.11,175.11,0,0,1,42.26,19.75,179,179,0,0,1,19.23,13.42c3,2.47,6,5.06,8.83,7.81,1.39,1.4,2.82,2.76,4.11,4.25s2.69,2.89,3.89,4.46A102.8,102.8,0,0,1,536,89.7a93.75,93.75,0,0,1,4.51,11l1,2.8.79,2.87.79,2.86c.28,1,.43,1.93.65,2.89a98.76,98.76,0,0,1,2.24,23.55A119.59,119.59,0,0,1,542.88,159a175.39,175.39,0,0,1-6.94,22.35,139.88,139.88,0,0,1-10,21.15,153.42,153.42,0,0,1-13.17,19.26A195.33,195.33,0,0,1,497.1,239a210.59,210.59,0,0,1-36.75,28.46,222.85,222.85,0,0,1-41.84,20.21,201.55,201.55,0,0,1-22.32,6.55l-2.83.67-2.86.57c-1.9.36-3.8.76-5.71,1.1-3.83.58-7.66,1.24-11.52,1.62s-7.72.72-11.58,1c-3.87.14-7.75.4-11.62.35a225.16,225.16,0,0,1-23.23-1,286.69,286.69,0,0,1-45.69-8.26A228.64,228.64,0,0,1,259,283.4a126.62,126.62,0,0,1-21-10A86.79,86.79,0,0,1,219.86,259,80.21,80.21,0,0,1,206.52,240.08Z"/><path class="cls-1" d="M476,255.52c4.36-4.28,8.59-8.68,12.49-13.33,1.95-2.32,3.82-4.71,5.69-7.06s3.73-4.74,5.45-7.21a114.31,114.31,0,0,0,9.15-15.56l1.92-4.1,1.79-4.17c1.13-2.79,2.22-5.63,3.32-8.49,2.21-5.67,4.29-11.35,6-17.17a148.9,148.9,0,0,0,4.29-17.63c2.06-11.89,2-24.16,1.1-36.21a84.93,84.93,0,0,0-10.6-34.33A168.6,168.6,0,0,0,506.63,75c-3.53-5-7.18-9.83-11.06-14.5A124.52,124.52,0,0,0,468.93,35.9,105.35,105.35,0,0,0,453,27.08c-2.77-1.26-5.61-2.34-8.48-3.36s-5.77-2-8.69-2.83c3,.7,5.93,1.44,8.85,2.34s5.8,1.95,8.62,3.14a101.63,101.63,0,0,1,16.29,8.49,125.51,125.51,0,0,1,27.1,24.69c3.95,4.68,7.66,9.55,11.23,14.51A168.7,168.7,0,0,1,518.08,89.4a86.89,86.89,0,0,1,11.06,35c.31,3.06.47,6.13.57,9.19s.18,6.13.12,9.2a120.2,120.2,0,0,1-1.61,18.36,149.94,149.94,0,0,1-4.28,17.9c-1.69,5.9-3.76,11.69-6,17.38-1.1,2.83-2.19,5.69-3.34,8.54l-1.82,4.22-1.95,4.17a116.46,116.46,0,0,1-9.33,15.88,110.79,110.79,0,0,1-11.75,14.16c-2.12,2.22-4.42,4.25-6.7,6.28l-3.48,3C478.4,253.64,477.19,254.57,476,255.52Z"/><path class="cls-1" d="M289.38,42.54a23.89,23.89,0,0,1-2.83,1.6c-.95.51-1.91,1-2.85,1.54-1.89,1-3.75,2.17-5.56,3.35a54.23,54.23,0,0,0-5.2,3.86,50.15,50.15,0,0,0-4.68,4.4,4.91,4.91,0,0,0-1.3,2.56,4.36,4.36,0,0,0,.58,2.72,5.76,5.76,0,0,0,1.94,2.1,6.8,6.8,0,0,0,2.75,1,13.51,13.51,0,0,0,6.06-.75,30,30,0,0,0,5.86-2.41A33.68,33.68,0,0,0,289.37,59a30.69,30.69,0,0,0,2.32-2.08c.36-.38.68-.78,1-1.16a12.28,12.28,0,0,0,1-1.19,24.89,24.89,0,0,0,3.07-5.23l.5-1.42.26-.7.17-.72.36-1.44.2-1.47.1-.73V42.1l0-1.47c0-.49-.08-1-.11-1.48a12,12,0,0,0-.13-1.47,23.77,23.77,0,0,0-1.5-5.72,33.84,33.84,0,0,0-6.55-10.07,46.17,46.17,0,0,0-4.54-4.18,50.55,50.55,0,0,0-5.11-3.55c-.89-.53-1.78-1.07-2.72-1.53l-2.85-1.38c-.95-.44-1.87-1-2.84-1.38L269.1,8.71a97,97,0,0,0-24.79-5.88C227.23.92,209.8,2.64,192.8,5.7c-17,3.23-33.94,7.17-50.34,12.78A287.25,287.25,0,0,0,94.91,39.22,217.17,217.17,0,0,0,52.74,69.27a167.11,167.11,0,0,0-32.26,40.26,140.69,140.69,0,0,0-17,48.52c-1.17,8.54-2.14,17.15-1.62,25.7A90.74,90.74,0,0,0,7,208.84a96.73,96.73,0,0,0,5.08,11.79,122.36,122.36,0,0,0,6.49,11.11A107.24,107.24,0,0,0,35,251.42a128.63,128.63,0,0,0,20.54,15.5,114.54,114.54,0,0,0,11.27,6.25,117.68,117.68,0,0,0,11.85,5,161.42,161.42,0,0,0,24.93,6.71c4.25.83,8.46,1.66,12.73,2.28s8.56,1.12,12.87,1.44a243.11,243.11,0,0,0,51.76-2.37,308.46,308.46,0,0,0,50.5-12c8.25-2.66,16.35-5.74,24.36-9l6-2.54,5.91-2.68,3-1.35,2.92-1.43,2.92-1.43a16.55,16.55,0,0,1,3-1.29v0a15.94,15.94,0,0,1-2.85,1.59l-2.91,1.44L270.81,259l-2.95,1.36-5.92,2.71-6,2.56c-8,3.33-16.11,6.45-24.36,9.14A308.94,308.94,0,0,1,181,287q-12.87,2-25.89,2.71c-4.33.27-8.67.35-13,.4s-8.69-.11-13-.36a166.54,166.54,0,0,1-25.86-3.17,164.21,164.21,0,0,1-25.2-6.7,122.13,122.13,0,0,1-12-5.07,119,119,0,0,1-11.45-6.3,131.43,131.43,0,0,1-20.88-15.66,109,109,0,0,1-16.81-20A103.16,103.16,0,0,1,5.17,209.47a92.66,92.66,0,0,1-5-25.62c-.48-8.75.55-17.45,1.78-26a142.52,142.52,0,0,1,17.44-48.93A168.21,168.21,0,0,1,52.06,68.52a218.4,218.4,0,0,1,42.45-30A287.39,287.39,0,0,1,142.27,17.9c8.23-2.76,16.58-5.12,25-7.27s16.86-4.08,25.38-5.74,17.09-3.15,25.75-4A161.72,161.72,0,0,1,244.53.28a98.28,98.28,0,0,1,25.83,5l3.14,1.1c1,.4,2,.88,3,1.34l3,1.39c1,.47,2,1,3,1.58a58.17,58.17,0,0,1,5.61,3.74,51.4,51.4,0,0,1,5.08,4.5,40.27,40.27,0,0,1,4.34,5.3,30.25,30.25,0,0,1,3.2,6.16,25.52,25.52,0,0,1,1.39,13.81l-.35,1.73-.53,1.68-.26.83-.35.81-.71,1.6A27.81,27.81,0,0,1,296,56.52a34.23,34.23,0,0,1-10.88,8c-1,.42-2,.93-3.11,1.27l-1.57.58-1.61.48a16,16,0,0,1-6.92.82,8.48,8.48,0,0,1-3.54-1.28,7.72,7.72,0,0,1-2.57-2.87,6.16,6.16,0,0,1-.61-3.91,6.25,6.25,0,0,1,1.92-3.33,51.67,51.67,0,0,1,5.17-4.18c1.78-1.28,3.63-2.45,5.46-3.64s3.73-2.25,5.66-3.27c1-.51,1.92-1,2.9-1.49A9.58,9.58,0,0,1,289.38,42.54Z"/><path class="cls-1" d="M65.61,58.05A32.08,32.08,0,0,1,62,61.23c-1.26,1-2.53,2-3.75,3a38.67,38.67,0,0,0-3.49,3.28c-1.09,1.17-2,2.45-3.06,3.7A181.76,181.76,0,0,0,40.44,86.77,151.45,151.45,0,0,0,31,103.45a138.29,138.29,0,0,0-7.08,17.78,168.6,168.6,0,0,0-5.1,18.44,139.93,139.93,0,0,0-2.55,18.91,115.19,115.19,0,0,0,.32,19,121.26,121.26,0,0,0,3.33,18.73,95.5,95.5,0,0,0,6.42,17.83,128.69,128.69,0,0,0,9.51,16.45,126,126,0,0,0,25.83,27.73,164.34,164.34,0,0,0,15.59,11,133.19,133.19,0,0,0,16.91,8.84A134.76,134.76,0,0,0,131,288.39,89.84,89.84,0,0,1,111.83,286q-4.71-1.12-9.32-2.6T93.41,280a147.53,147.53,0,0,1-33.47-19.44,129.26,129.26,0,0,1-14.41-13.07A125.13,125.13,0,0,1,33.39,232.3a122.6,122.6,0,0,1-9.62-16.91A98,98,0,0,1,17.35,197a124.6,124.6,0,0,1-3.2-19.16A116.62,116.62,0,0,1,14,158.42a130.68,130.68,0,0,1,2.84-19.18,173.27,173.27,0,0,1,5.47-18.55A138.44,138.44,0,0,1,39.65,86.25a181.2,181.2,0,0,1,11.7-15.32c1-1.22,2-2.48,3.16-3.64a37.8,37.8,0,0,1,3.6-3.22c1.25-1,2.54-2,3.82-2.93A30.11,30.11,0,0,0,65.61,58.05Z"/></g></g></svg>