<svg xmlns="http://www.w3.org/2000/svg" viewBox="0 0 433.37 300.9"><defs><style>.cls-1{fill:#fff;}</style></defs><title>GG_white_simple1</title><g id="Layer_2" data-name="Layer 2"><g id="Simplified_1_white" data-name="Simplified 1 white"><path class="cls-1" d="M210.53,57.77a1.75,1.75,0,0,1-.12.37,2.36,2.36,0,0,1-.2.28l-.33.41c-.22.28-.45.55-.68.82-.47.54-1,1.06-1.48,1.55a25.38,25.38,0,0,1-3.3,2.72,26.37,26.37,0,0,1-7.74,3.68,33,33,0,0,1-25.12-3,34,34,0,0,1-6.95-5.22,38.36,38.36,0,0,1-5.46-6.78,15,15,0,0,1-1.84-4,17.82,17.82,0,0,1-.88-4.27h0l.33.19c-2.09.66-4.21,1.25-6.28,2l-6.23,2.16c-2.08.68-4.15,1.46-6.22,2.19S133.91,52.4,132,53.3a55.19,55.19,0,0,0-10.93,7,59.62,59.62,0,0,0-9,9.34,58.44,58.44,0,0,0-6.86,11,65.23,65.23,0,0,0-4.39,12.22c-.55,2.1-.92,4.24-1.26,6.39s-.5,4.31-.59,6.48a60.8,60.8,0,0,0,1,13,65.87,65.87,0,0,0,3.54,12.54c.39,1,.79,2,1.25,3s.89,2,1.39,2.94a64.6,64.6,0,0,0,3.29,5.63,73.58,73.58,0,0,0,17.84,18.9A72.35,72.35,0,0,0,150.63,173a77.52,77.52,0,0,0,25.9,2.65h.06a2.17,2.17,0,0,1,1.42.54l0,0,.15.14h0l.43,4.64v.19l-.16,0c-1.48.3-2.95.67-4.45.85s-3,.31-4.52.36c-3,.09-6,.25-9,.29a162.09,162.09,0,0,1-18-1.31,98.79,98.79,0,0,1-17.74-3.76A128.58,128.58,0,0,1,107.84,171a80.35,80.35,0,0,1-15.62-9.28,75,75,0,0,1-13.1-12.65,57.4,57.4,0,0,1-8.78-16,55.15,55.15,0,0,1-3.25-18,49.7,49.7,0,0,1,3.19-18,63.74,63.74,0,0,1,3.87-8.28A76.73,76.73,0,0,1,78.91,81,74.9,74.9,0,0,1,91.15,67.57c2.29-2,4.69-3.86,7.11-5.65s5-3.49,7.55-5.05a107.46,107.46,0,0,1,16.29-7.93c5.6-2.24,11.28-4.27,17.08-5.95,2.89-.84,5.85-1.55,8.77-2.18a55.16,55.16,0,0,0,8.54-2.74c2.76-1.15,5.48-2.39,8.1-3.79,1.32-.69,2.62-1.42,3.91-2.17L170.43,31l.95-.59.47-.3.24-.15.12-.07s.09-.08,0,0l.09-.08c1-.63,1.93-1.3,3-1.87a29.32,29.32,0,0,1,3.19-1.55,14.45,14.45,0,0,1,3.46-1,5.17,5.17,0,0,1,3.57.66l.44.32-.48.13a5.86,5.86,0,0,0-2.85,1.8,9,9,0,0,0-1.66,3,16.94,16.94,0,0,0-.61,6.91A25.48,25.48,0,0,0,185.57,51a31.49,31.49,0,0,0,4.75,5.15,16,16,0,0,0,6.21,3,19.91,19.91,0,0,0,7,.37,22.62,22.62,0,0,0,3.48-.61c.57-.15,1.13-.32,1.69-.51l.83-.31.41-.16.24-.1A.87.87,0,0,1,210.53,57.77Zm-.27.22a.22.22,0,0,0,0,.16l-.17.08-.41.19-.84.33c-.56.22-1.13.41-1.71.58a25,25,0,0,1-3.52.74,20.62,20.62,0,0,1-7.22-.21,17.12,17.12,0,0,1-6.61-3,31.88,31.88,0,0,1-5-5.22,24.69,24.69,0,0,1-5.61-13.34,16.11,16.11,0,0,1,1-7.32,10.6,10.6,0,0,1,2-3.16,6.42,6.42,0,0,1,3.24-1.8l0,.45a4.77,4.77,0,0,0-.83-.13,7.9,7.9,0,0,0-.8-.14,6.29,6.29,0,0,0-1.62.06,13.13,13.13,0,0,0-3.18,1,27.93,27.93,0,0,0-3,1.6c-1,.59-1.9,1.27-2.87,1.91l.09-.08a1.24,1.24,0,0,1-.21.16l-.12.08-.24.16-.48.31-1,.61-1.93,1.19c-1.3.78-2.61,1.53-3.95,2.25A54.9,54.9,0,0,1,156.83,39c-2.87,1-5.78,1.8-8.72,2.5s-5.83,1.41-8.7,2.29a178.72,178.72,0,0,0-16.91,6.14,105.32,105.32,0,0,0-16,8.06C96.45,64.38,87,72.15,80.31,82a71.94,71.94,0,0,0-4.58,7.65,64,64,0,0,0-3.68,8.1,49.5,49.5,0,0,0-2.93,17.34,53,53,0,0,0,3.06,17.36A55.56,55.56,0,0,0,80.59,148a73.47,73.47,0,0,0,12.72,12.38,78.74,78.74,0,0,0,15.26,9.15,127.64,127.64,0,0,0,16.62,6.64,101.56,101.56,0,0,0,17.44,3.8,162.63,162.63,0,0,0,17.87,1.57c3,0,6-.1,9-.15,1.5,0,3-.11,4.43-.28s2.91-.5,4.36-.77l-.6.82v0l-.44-4.63.81.75h0a9.85,9.85,0,0,0-1.43-.12h0a79.13,79.13,0,0,1-26.39-2.63,73.77,73.77,0,0,1-23.89-11.54,74.82,74.82,0,0,1-18.23-19.28c-1.21-1.86-2.34-3.79-3.37-5.77-.51-1-1-2-1.42-3s-.89-2-1.29-3.08a69.13,69.13,0,0,1-4.71-26.13c0-2.23.24-4.45.5-6.67s.67-4.41,1.2-6.58a61.63,61.63,0,0,1,11.4-24,54.52,54.52,0,0,1,9.46-9.5,56,56,0,0,1,11.45-6.92c2.06-.89,4.16-1.6,6.25-2.31s4.17-1.41,6.28-2l6.35-1.87c2.12-.62,4.27-1.11,6.4-1.67l.25-.07.09.26h0a38.81,38.81,0,0,0,9.2,13.59,33.47,33.47,0,0,0,6.55,4.81,33.28,33.28,0,0,0,7.43,3.26,28,28,0,0,0,8,1.26,30.49,30.49,0,0,0,8.12-1A25.39,25.39,0,0,0,203.77,63,23.91,23.91,0,0,0,207,60.47c.51-.45,1-.94,1.5-1.41.26-.23.53-.45.82-.67a3.7,3.7,0,0,1,.43-.32l.11-.07.06,0A.33.33,0,0,0,210.26,58Z"/><path class="cls-1" d="M182.92,73.34a28.81,28.81,0,0,0,9.43,1.87,29.8,29.8,0,0,0,9.47-1.37,33.5,33.5,0,0,0,8.58-4.25,40.21,40.21,0,0,0,7.28-6.33l.09.07a32.26,32.26,0,0,1-7,6.83,30.81,30.81,0,0,1-8.75,4.42,28.1,28.1,0,0,1-9.72,1.22,25.63,25.63,0,0,1-9.45-2.38Z"/><path class="cls-1" d="M176.9,67.63A25.09,25.09,0,0,0,180.73,69a27.54,27.54,0,0,0,9.2.77,33.35,33.35,0,0,0,8.84-1.54,22.1,22.1,0,0,0,7.32-3.55,20,20,0,0,0,4.18-4.39L216,58.92a17.7,17.7,0,0,1-2.09,3.83,19.48,19.48,0,0,1-5.3,4.88,29.16,29.16,0,0,1-8.91,4.11,28.2,28.2,0,0,1-8.92.76,23.45,23.45,0,0,1-9.54-2.09A20.49,20.49,0,0,1,176.9,67.63Z"/><path class="cls-1" d="M176.74,67.52a.62.62,0,0,1,.32,0,.83.83,0,0,1,.18.08l.26.11.53.21,1.06.4c.72.24,1.44.45,2.18.63a24.19,24.19,0,0,0,4.48.64,43.12,43.12,0,0,0,4.54-.1,33.79,33.79,0,0,0,4.49-.56,31.28,31.28,0,0,0,4.37-1.17A24.9,24.9,0,0,0,203.3,66,19,19,0,0,0,209.85,60h0l.11-.16.19,0,5.7-1.39h0l.94-.23-.36.9a18,18,0,0,1-3,5A20.35,20.35,0,0,1,209,67.83a28.76,28.76,0,0,1-10.51,4.52,34.74,34.74,0,0,1-11.42.1,20.33,20.33,0,0,1-5.5-1.61,19.71,19.71,0,0,1-2.52-1.36c-.41-.26-.8-.53-1.19-.82l-.57-.43-.27-.23a1,1,0,0,1-.18-.16A.66.66,0,0,1,176.74,67.52Zm.33.21a.14.14,0,0,0,.13-.09s.06,0,.1.06l.28.22.56.42q.57.41,1.17.78a20.08,20.08,0,0,0,7.88,2.8,34.48,34.48,0,0,0,11.2-.24,28.17,28.17,0,0,0,10.17-4.54,19.78,19.78,0,0,0,4.17-3.66,16.88,16.88,0,0,0,2.78-4.74l.58.67h0l-5.7,1.39.3-.2h0a19.94,19.94,0,0,1-7,6.13,25.65,25.65,0,0,1-4.31,1.72,32.61,32.61,0,0,1-4.48,1.12,33.88,33.88,0,0,1-4.59.49,39.21,39.21,0,0,1-4.6,0,24.2,24.2,0,0,1-4.56-.72,21.72,21.72,0,0,1-2.21-.69l-1.07-.41-.53-.23-.27-.12s-.11,0-.07,0A.14.14,0,0,0,177.07,67.73Z"/><path class="cls-1" d="M194.65,27.1a20.19,20.19,0,0,0-2.36,3.49,18.09,18.09,0,0,0-1.59,3.84,22.73,22.73,0,0,0-.66,8.23,20.37,20.37,0,0,0,2.07,8,21.49,21.49,0,0,0,5.15,6.56l0,0a18.24,18.24,0,0,1-5.8-6.23,18.67,18.67,0,0,1-2.39-8.25,27,27,0,0,1,0-4.31,17,17,0,0,1,.91-4.23,18.22,18.22,0,0,1,1.9-3.86A17,17,0,0,1,194.65,27.1Z"/><path class="cls-1" d="M158.06,49.74c-3.45-.87-6.68-.07-9.74.89s-6.12,2-9.06,3.19A71.23,71.23,0,0,0,130.64,58,49.17,49.17,0,0,0,123,63.55,55.51,55.51,0,0,0,111.36,78.3a75.26,75.26,0,0,0-4,8.53,62,62,0,0,0-2.74,9,60.24,60.24,0,0,0-1.29,9.28c-.18,3.12,0,6.3.09,9.55a70.16,70.16,0,0,0,.89,9.46,56.76,56.76,0,0,0,2.42,9.12,59.38,59.38,0,0,0,9.21,16.64,74.39,74.39,0,0,0,13.67,13.62v0a74.63,74.63,0,0,1-15-12.56,61.81,61.81,0,0,1-10.49-16.71,49.51,49.51,0,0,1-3-9.54,74.37,74.37,0,0,1-1.22-9.86c-.23-3.22-.49-6.53-.4-9.89a51.05,51.05,0,0,1,1.19-10A64.37,64.37,0,0,1,108,76.38,58.39,58.39,0,0,1,120.92,61.1a51.82,51.82,0,0,1,8.27-5.68,82.83,82.83,0,0,1,9-4.16c3.07-1.23,6.21-2.24,9.33-3.17s6.21-1.88,9.41-2.71Z"/><path class="cls-1" d="M128.19,160.56a68.63,68.63,0,0,1-9.44-10.62,65.61,65.61,0,0,1-7.14-12.34,54,54,0,0,1-3.88-13.77c-.35-2.36-.54-4.75-.7-7.11s-.27-4.76-.24-7.15a67.76,67.76,0,0,1,1.83-14.18A56.34,56.34,0,0,1,132.1,60.73a60.24,60.24,0,0,0-17.79,21.63,61.89,61.89,0,0,0-4.54,13.29,66.93,66.93,0,0,0-1.69,13.95c0,2.34,0,4.69.18,7s.31,4.7.63,7a57.65,57.65,0,0,0,3.63,13.55,65.89,65.89,0,0,0,6.74,12.36A74,74,0,0,0,128.19,160.56Z"/><path class="cls-1" d="M139.1,57.83a38.85,38.85,0,0,1,4.84-2.17c.83-.31,1.66-.61,2.51-.87s1.71-.46,2.57-.67c3.45-.8,6.92-1.45,10.41-2h0c-3.45.74-6.9,1.5-10.33,2.32A71.73,71.73,0,0,0,139.1,57.83Z"/><path class="cls-1" d="M247.72,122.08a44.77,44.77,0,0,1,5.23-2.73c.9-.39,1.8-.78,2.73-1.12s1.88-.61,2.83-.89c3.78-1.08,7.61-2,11.46-2.76h0q-5.72,1.45-11.37,3.07a47.27,47.27,0,0,0-5.53,2C251.27,120.41,249.48,121.21,247.72,122.08Z"/><path class="cls-1" d="M139.19,55.28c.11,0,0,0,0,0l-.1.07-.19.17-.37.37a10.28,10.28,0,0,0-.67.81c-.44.54-.85,1.11-1.25,1.68-.8,1.15-1.55,2.33-2.24,3.54a52.42,52.42,0,0,0-3.51,7.57c-.47,1.3-.89,2.62-1.26,4s-.67,2.68-1,4-.51,2.69-.71,4.07a33.86,33.86,0,0,0-.36,4.13,37.5,37.5,0,0,0,3.14,16.11,64.06,64.06,0,0,0,3.91,7.36,54.91,54.91,0,0,0,4.87,6.76c3.56,4.26,8,7.76,12.32,11.28,1.09.85,2.26,1.67,3.35,2.6s2.12,1.86,3.18,2.8a33.42,33.42,0,0,1,5.75,6.29,28.16,28.16,0,0,1,4.78,16.22,22.1,22.1,0,0,1-1.53,8.38,16.37,16.37,0,0,1-5.1,6.72l0,0L162,170a27.26,27.26,0,0,0,5.64-6,31.09,31.09,0,0,0,3.66-7.34,46.23,46.23,0,0,0,2.22-7.91,41.32,41.32,0,0,0,.63-8.17,46.74,46.74,0,0,0-11.62-30,39.45,39.45,0,0,0-2.78-3l-2.9-3c-1.94-2-3.82-4-5.72-6-3.8-4.05-7.62-8-11.1-12.41a30.07,30.07,0,0,1-2.3-3.53,41,41,0,0,1-1.9-3.74,21.34,21.34,0,0,1-1.79-8.21,25.66,25.66,0,0,1,1.37-8.24,26.48,26.48,0,0,1,1.65-3.83c.32-.61.67-1.22,1-1.81l.56-.88.28-.43.13-.22.06-.11S139.13,55.16,139.19,55.28Zm.12-.17c.09.09.1.13.18.21l.27.23a1.74,1.74,0,0,1,.4.43,1.13,1.13,0,0,1-.14.27l-.27.46c-.17.3-.35.58-.53.86-.34.58-.75,1.11-1.1,1.68a19.6,19.6,0,0,0-1.9,3.56,23.47,23.47,0,0,0-1.23,8c.06,5.4,2.81,10.44,6,14.78,3.42,4.25,7.33,8.23,11.15,12.2l5.73,6,2.87,3c.94,1,1.94,2,2.8,3.12A47.81,47.81,0,0,1,175,140.63a42.21,42.21,0,0,1-.74,8.32,44.81,44.81,0,0,1-2.38,8,31.51,31.51,0,0,1-3.87,7.38,28,28,0,0,1-5.83,5.93L162,170h0a17.56,17.56,0,0,0,4.22-6.89,24.15,24.15,0,0,0,1.06-8,28.25,28.25,0,0,0-4.69-15.23,34.41,34.41,0,0,0-5.38-6.08c-1-1-2-1.95-3-2.87s-2.12-1.76-3.22-2.67c-2.2-1.82-4.33-3.62-6.47-5.48a56.27,56.27,0,0,1-6.06-6,62,62,0,0,1-5.12-6.83,63.1,63.1,0,0,1-4.16-7.47,39.27,39.27,0,0,1-3.59-16.83,31.06,31.06,0,0,1,1.35-8.51c.38-1.38.75-2.76,1.17-4.12s.93-2.7,1.47-4a49.09,49.09,0,0,1,3.94-7.58A36.54,36.54,0,0,1,136,58a16.44,16.44,0,0,1,1.45-1.57c.26-.25.52-.5.8-.73a2.57,2.57,0,0,1,.49-.27.92.92,0,0,0,.24-.13l.12-.08C139.15,55.15,139.12,55.07,139.31,55.11Z"/><path class="cls-1" d="M145,57.17a25.81,25.81,0,0,0-3.67,10.13,30.28,30.28,0,0,0,0,5.39A25.25,25.25,0,0,0,142,78a25.52,25.52,0,0,0,1.91,5q1.19,2.46,2.57,4.81c1.86,3.15,3.85,6.21,5.93,9.23h0a91.28,91.28,0,0,1-6.47-8.89,36.79,36.79,0,0,1-4.81-9.95,26.6,26.6,0,0,1-.83-5.52,25.9,25.9,0,0,1,.13-5.56,19.63,19.63,0,0,1,1.64-5.33A20.89,20.89,0,0,1,145,57.17Z"/><path class="cls-1" d="M122.56,98.73A29.36,29.36,0,0,0,126.9,112a30.38,30.38,0,0,0,4.28,5.56,41,41,0,0,0,5.21,4.74c1.88,1.41,3.83,2.78,5.84,4s4.08,2.42,6.14,3.61c4.12,2.39,8.24,4.78,12.25,7.35L148,130.54c-2.1-1.13-4.21-2.23-6.26-3.45s-4-2.57-6-4a38.36,38.36,0,0,1-5.37-4.81,31.07,31.07,0,0,1-4.33-5.8,26,26,0,0,1-3.63-13.77Z"/><path class="cls-1" d="M176.39,121.39a26.13,26.13,0,0,1,4.11,6.39,29.73,29.73,0,0,1,2.18,7.31,38.17,38.17,0,0,1,.68,7.62,40.51,40.51,0,0,1-.87,7.6,36,36,0,0,1-2.31,7.3,40,40,0,0,1-3.84,6.62,36.21,36.21,0,0,1-5,5.78,25.37,25.37,0,0,1-3.09,2.28,19.46,19.46,0,0,1-3.4,1.74l-.08-.18a46.12,46.12,0,0,0,5.94-4.54,35.07,35.07,0,0,0,4.86-5.64,38.83,38.83,0,0,0,3.73-6.46,36.72,36.72,0,0,0,2.3-7.09,40.45,40.45,0,0,0,.46-14.92,28.81,28.81,0,0,0-5.66-13.81Z"/><path class="cls-1" d="M126.67,79.53c-.09,3.12,0,6.24,0,9.34,0,1.55.13,3.1.26,4.63.07.77.15,1.53.26,2.26s.29,1.52.43,2.27c.31,1.51.63,3,1,4.42a26.49,26.49,0,0,0,1.58,4.06,30.63,30.63,0,0,0,4.87,7.16c1,1.14,2,2.34,3,3.45s2.1,2.2,3.2,3.25c2.22,2.07,4.62,4,7,6l3.67,2.88,3.6,3c1.22,1,2.39,2,3.57,3.05l3.47,3.14-.06.08L155,133.18c-2.64-1.68-5.3-3.23-8-4.91-1.34-.85-2.65-1.69-4-2.6s-2.56-1.87-3.81-2.87a46.9,46.9,0,0,1-3.6-3.17c-1.15-1.13-2.18-2.24-3.26-3.45A30.16,30.16,0,0,1,127,107.9a31.29,31.29,0,0,1-2.16-9.53L124.63,96c-.06-.84-.08-1.64-.08-2.44,0-1.6.08-3.17.22-4.74.31-3.13.51-6.29,1.88-9.29Z"/><path class="cls-1" d="M146.07,91.72c-2.12-2.61-4.21-5.25-6.1-8a23.26,23.26,0,0,1-1.37-2.23,22.39,22.39,0,0,1-1.17-2.29,24.57,24.57,0,0,1-1.67-5,15.46,15.46,0,0,1-.23-5.31,19.47,19.47,0,0,1,1.35-5.15,14.61,14.61,0,0,1,3-4.39,23.23,23.23,0,0,1,4-3.16l0,.07c-1,1.38-2,2.74-2.85,4.1a10.79,10.79,0,0,0-1,2.07c-.25.73-.47,1.46-.65,2.19a33.54,33.54,0,0,0-.84,4.49,21.93,21.93,0,0,0-.1,4.67,21.31,21.31,0,0,0,.81,4.72c.22.79.48,1.57.75,2.36a16.22,16.22,0,0,0,1,2.2c1.59,2.92,3.27,5.83,5,8.69Z"/><path class="cls-1" d="M208.1,57.46a16.4,16.4,0,0,1-12.78,1.7,15.94,15.94,0,0,1-6-3.21A19.78,19.78,0,0,1,185,50.63a24.39,24.39,0,0,1-1.59-3c-.46-1-.84-2-1.23-3.09a20.29,20.29,0,0,1-1.44-6.91,8,8,0,0,1,.78-3.78,8.2,8.2,0,0,1,2.64-3,14.22,14.22,0,0,1,1.63-.79c.51-.24,1-.51,1.44-.76a6.12,6.12,0,0,0,2.3-1.93h0l.48.77h0c-.77,0-1.2-.14-1.75-.07a9.06,9.06,0,0,0-1.64.19,9.45,9.45,0,0,0-3.08,1.24,7.35,7.35,0,0,0-2.39,2.35A9.42,9.42,0,0,0,179.81,35h-.06A9.73,9.73,0,0,1,181,31.8a8.33,8.33,0,0,1,2.29-2.62,9.93,9.93,0,0,1,3.15-1.58,9.54,9.54,0,0,1,1.75-.36,12.82,12.82,0,0,1,1.69,0h0l.46.75h0a15.06,15.06,0,0,1-1,1.42c-.37.45-.77.87-1.15,1.29a13.68,13.68,0,0,0-1.08,1.24,7.48,7.48,0,0,0-.65,1.39,7.5,7.5,0,0,0-.57,2.22c-.1.73-.34,1.44-.42,2.27a15.66,15.66,0,0,0,.62,5.48c.27,1,.55,2,.85,3A21.47,21.47,0,0,0,188.09,49a19.9,19.9,0,0,0,3.11,5A13.68,13.68,0,0,0,196,57.29a16.93,16.93,0,0,0,5.94,1.28,16,16,0,0,0,6.2-1.14Z"/><path class="cls-1" d="M160.17,172.09c4.13-3.21,7.79-6.68,10.25-11a42.08,42.08,0,0,0,3.05-6.8c.22-.58.41-1.16.59-1.75s.4-1.17.58-1.76c.36-1.19.66-2.39.91-3.59a34.93,34.93,0,0,0,.12-14.72,35.74,35.74,0,0,0-2.19-7.22A41.72,41.72,0,0,0,170,118.4a33.42,33.42,0,0,1,4.78,6.21,36.28,36.28,0,0,1,3.21,7.26,33.44,33.44,0,0,1,1.49,7.89,34.49,34.49,0,0,1-.35,8.11,35.65,35.65,0,0,1-2.29,7.76,37.37,37.37,0,0,1-3.85,7.1,39.51,39.51,0,0,1-5.4,6.1,12.14,12.14,0,0,1-3.36,2.27,11,11,0,0,1-4,1Z"/><path class="cls-1" d="M93.61,163.64a112.93,112.93,0,0,0,19.44,10.82,96.66,96.66,0,0,0,21.13,6.32,150.75,150.75,0,0,0,22,2.46,113.72,113.72,0,0,0,22-1.34l.55,4.42c-3.77.47-7.56.79-11.35.91s-7.61.05-11.39-.23a158.14,158.14,0,0,1-22.4-3.19,77.86,77.86,0,0,1-21.41-7.53A96.24,96.24,0,0,1,93.61,163.64Z"/><path class="cls-1" d="M217.66,120.24c-.06.12,0,.12-.12.17l-.37.17-.73.35-1.45.73c-1,.49-1.91,1-2.84,1.55a57.73,57.73,0,0,0-5.38,3.58c-1.73,1.28-3.4,2.65-5,4.06s-3.25,2.84-4.78,4.36a64.34,64.34,0,0,0-14.09,21.38,50.46,50.46,0,0,0-3.42,25.1,58.63,58.63,0,0,0,2.65,12.48,56.77,56.77,0,0,0,5.54,11.45,60.37,60.37,0,0,0,7.79,10.06c1.47,1.53,3,3,4.6,4.47s3.18,2.88,4.82,4.27,3.32,2.72,5,4c.86.62,1.75,1.21,2.63,1.82l1.31.9,1.37.83a85.37,85.37,0,0,0,11.34,5.92,117.79,117.79,0,0,0,12,4.5c4.09,1.29,8.27,2.26,12.46,3.19a143.38,143.38,0,0,0,25.66,2.84,74,74,0,0,0,12.87-.8,91.22,91.22,0,0,0,12.64-2.73,98.48,98.48,0,0,0,23.56-10.55q2.76-1.69,5.41-3.56c1.78-1.23,3.52-2.5,5.19-3.86a67.11,67.11,0,0,0,9.19-9,71,71,0,0,0,7.35-10.59,57.49,57.49,0,0,0,5.36-11.68A35.66,35.66,0,0,0,359.66,183a29.14,29.14,0,0,0-3.79-12.06,24.33,24.33,0,0,0-3.93-4.94,42.72,42.72,0,0,0-5-4,39.8,39.8,0,0,0-11.32-5.89,36.31,36.31,0,0,0-12.6-1.77c-2.14.06-4.3.22-6.46.37a51.66,51.66,0,0,0-6.36.81A39.85,39.85,0,0,0,298.28,160c-1.89,1-3.75,2.13-5.72,3a36.3,36.3,0,0,0-5.67,3.19l-.07-.12a65.94,65.94,0,0,1,9.13-3.75,19.24,19.24,0,0,1,5-.85c1.68,0,3.31,0,4.95.1A32.1,32.1,0,0,1,324.53,168c1.32,1,2.54,2.1,3.77,3.23a18.88,18.88,0,0,1,3.24,3.88,19.35,19.35,0,0,1,2,4.66,40,40,0,0,1,1.1,4.85,49.14,49.14,0,0,1-.81,19.66,52.76,52.76,0,0,1-8.19,17.86,63.08,63.08,0,0,1-6.22,7.64,44.75,44.75,0,0,1-7.62,6.24,50.67,50.67,0,0,1-8.77,4.48,65.24,65.24,0,0,1-9.36,3.07,48.75,48.75,0,0,1-9.77,1.31,63.71,63.71,0,0,1-9.86-.35,65.48,65.48,0,0,1-9.69-1.86,88,88,0,0,1-9.36-3.16,93.54,93.54,0,0,1-9-4.22,54,54,0,0,1-8.32-5.46,50.66,50.66,0,0,1-7.12-7,96.4,96.4,0,0,1-6-7.92,90.61,90.61,0,0,1-9.1-17.67c-1.22-3-2.41-6.17-3.35-9.38a72.88,72.88,0,0,1-2.15-9.8,47.89,47.89,0,0,1-.4-10,72.43,72.43,0,0,1,1.33-9.91,76.8,76.8,0,0,1,2.63-9.56c.54-1.56,1.21-3.07,1.78-4.6a47.9,47.9,0,0,0,1.33-4.68,42.49,42.49,0,0,0,1.42-9.58c0-1.64.09-3.27,0-4.88,0-.81-.08-1.62-.18-2.42,0-.4-.1-.8-.16-1.2l-.1-.56A1.62,1.62,0,0,1,217.66,120.24Zm.43-.87a3.07,3.07,0,0,1,.46,1c0,.21,0,.26.08.38l.05.31c.06.41.12.83.17,1.25.09.83.14,1.66.16,2.49.08,1.67,0,3.31,0,5a45.49,45.49,0,0,1-1.23,9.86c-.37,1.61-.55,3.34-.95,5s-.86,3.09-1.21,4.66-.64,3.12-.88,4.69-.5,3.14-.65,4.72-.29,3.14-.34,4.72-.13,3.14-.12,4.7a73.24,73.24,0,0,0,.54,9.43,70.59,70.59,0,0,0,1.68,9.34c.77,3.08,1.78,6.09,2.88,9.16a87.56,87.56,0,0,0,8.13,17.43,94.34,94.34,0,0,0,5.53,7.91,48.69,48.69,0,0,0,6.57,7,52,52,0,0,0,7.84,5.58,90.47,90.47,0,0,0,8.68,4.39,67,67,0,0,0,18.63,5.38,64.36,64.36,0,0,0,9.72.38,44.9,44.9,0,0,0,9.6-1.29,65.59,65.59,0,0,0,9.2-3.13,45.34,45.34,0,0,0,8.52-4.51,43.42,43.42,0,0,0,7.3-6.22,66.29,66.29,0,0,0,6-7.54,56.45,56.45,0,0,0,4.73-8.36,51.35,51.35,0,0,0,3.11-9,47.73,47.73,0,0,0,.77-19,28.21,28.21,0,0,0-2.85-8.94,17.15,17.15,0,0,0-2.95-3.61c-1.15-1.08-2.4-2.19-3.63-3.17a27.26,27.26,0,0,0-8.37-4.52,33.66,33.66,0,0,0-9.47-1.75c-1.63-.08-3.27-.26-4.87-.29a23,23,0,0,0-4.81.46,47,47,0,0,0-4.71,1.29,44.41,44.41,0,0,0-4.52,1.88l-.06-.12,2.63-1.91c.87-.66,1.74-1.31,2.63-1.95a51.28,51.28,0,0,1,5.58-3.4,40.71,40.71,0,0,1,12.27-4.69,51.61,51.61,0,0,1,6.53-.84c2.17-.15,4.33-.31,6.53-.36a37.72,37.72,0,0,1,13,1.82,41.48,41.48,0,0,1,11.67,6.08,43.74,43.74,0,0,1,5.15,4.13,25.84,25.84,0,0,1,4.15,5.21,30.28,30.28,0,0,1,3.95,12.61A36.79,36.79,0,0,1,359.46,196a59.41,59.41,0,0,1-5.47,12,73.33,73.33,0,0,1-7.49,10.78,68.54,68.54,0,0,1-9.36,9.22c-1.7,1.38-3.47,2.67-5.26,3.92s-3.61,2.45-5.47,3.6c-14.89,9.12-32.2,14.55-49.76,14.56s-35-2.9-51.1-9.92A89.43,89.43,0,0,1,213.92,234l-1.4-.85-1.36-.94c-.9-.62-1.81-1.23-2.7-1.88-1.77-1.3-3.47-2.68-5.14-4.09s-3.31-2.85-4.9-4.35-3.18-3-4.69-4.6a63.17,63.17,0,0,1-8-10.49,59.65,59.65,0,0,1-5.64-12,60.42,60.42,0,0,1-2.63-12.94A52.17,52.17,0,0,1,181.35,156,65.61,65.61,0,0,1,196,134.28c1.57-1.53,3.23-3,4.9-4.37s3.39-2.76,5.16-4a61.45,61.45,0,0,1,5.53-3.58q1.44-.81,2.91-1.53L216,120l.74-.34.38-.17.13-.06.27-.08A1.48,1.48,0,0,1,218.09,119.37Z"/><path class="cls-1" d="M218,137.32c-1,1.87-2.08,3.62-3.06,5.42a28.2,28.2,0,0,0-1.39,2.67,27.57,27.57,0,0,0-1.06,2.84c-.6,1.93-1,3.93-1.45,6s-.8,4-1.07,6.06a55,55,0,0,0-.22,12.3,121.49,121.49,0,0,0,1.79,12.28h0a100.79,100.79,0,0,1-2.48-12.21,55.24,55.24,0,0,1-.4-12.53c.17-2.09.46-4.18.83-6.24a55.62,55.62,0,0,1,1.35-6.18c.3-1,.69-2,1.06-3,.1-.25.18-.5.27-.76a7.82,7.82,0,0,1,.36-.77,7.25,7.25,0,0,1,.87-1.39,22,22,0,0,1,2.16-2.36l1.18-1.07C217.16,138,217.56,137.63,218,137.32Z"/><path class="cls-1" d="M224.24,239.44a149,149,0,0,0,22.86,7.84,108.49,108.49,0,0,0,23.7,3.16,116.69,116.69,0,0,0,11.93-.5c4-.3,7.95-.66,11.77-1.3a76.28,76.28,0,0,0,11.27-2.87A123.51,123.51,0,0,0,327,235.57q2.49-1.56,4.88-3.28c1.62-1.17,3.2-2.36,4.72-3.58a69.31,69.31,0,0,0,15.51-17.41,98.29,98.29,0,0,0,5.46-10.37,51.52,51.52,0,0,0,2.11-5.5,38.21,38.21,0,0,0,1.23-5.74,40.58,40.58,0,0,0,.27-5.84,32.79,32.79,0,0,0-.77-5.88,21.72,21.72,0,0,0-5.33-10.54l0,0a22.35,22.35,0,0,1,6.62,10.22,34,34,0,0,1,1.8,12.32,37.12,37.12,0,0,1-.85,6.22,55.74,55.74,0,0,1-1.74,6,61.43,61.43,0,0,1-5.27,11.3,72.74,72.74,0,0,1-16.15,18.81c-1.6,1.33-3.24,2.57-4.88,3.79s-3.36,2.41-5.1,3.53a101.27,101.27,0,0,1-10.81,6,95.43,95.43,0,0,1-11.45,4.7,91.74,91.74,0,0,1-12.11,2.95,72.67,72.67,0,0,1-12.29,1.3,110.58,110.58,0,0,1-12.32-.3,104.8,104.8,0,0,1-24.06-5A136.87,136.87,0,0,1,224.24,239.44Z"/><path class="cls-1" d="M290.26,176.82a10.3,10.3,0,0,1,4.31-3.25,23.76,23.76,0,0,1,5.21-1.57,24.22,24.22,0,0,1,5.44-.26,41.07,41.07,0,0,1,5.4.5,36.11,36.11,0,0,1,10.29,3.31,26.06,26.06,0,0,1,8.51,6.56,29.09,29.09,0,0,0-8.77-6,39.8,39.8,0,0,0-10.17-3,46.56,46.56,0,0,0-5.3-.43,26.58,26.58,0,0,0-5.28.16,25.49,25.49,0,0,0-5.13,1.27,11.45,11.45,0,0,0-4.47,2.76Z"/><path class="cls-1" d="M333,186.75a19.51,19.51,0,0,0-2.63-6.47,20.51,20.51,0,0,0-4.57-5,30.91,30.91,0,0,0-5.8-3.52,34.26,34.26,0,0,0-6.34-2.4,34.84,34.84,0,0,0-13.2-.84c-1.07.12-2.17.31-3.31.54l-1.73.34c-.59.09-1.13.18-1.65.28a9.92,9.92,0,0,0-2.78,1l-.6.36a3.76,3.76,0,0,1-.68.3,3.4,3.4,0,0,1-1,.2,5,5,0,0,1-1.39-.08l-.06-.06a4.27,4.27,0,0,1-.3-1.5,2.78,2.78,0,0,1,.19-1.15,2.33,2.33,0,0,1,.64-.93,10.54,10.54,0,0,1,.88-.71,12.85,12.85,0,0,1,3.84-1.9c1.31-.4,2.4-.66,3.6-.93a30.68,30.68,0,0,1,3.74-.64,35,35,0,0,1,15,2,38.64,38.64,0,0,1,6.7,3.31c1,.64,2.06,1.3,3.07,2.06a21.69,21.69,0,0,1,2.8,2.53,21.13,21.13,0,0,1,4.14,6.15,18.13,18.13,0,0,1,1.44,7.1Z"/><path class="cls-1" d="M366.44,178.76a40.57,40.57,0,0,1,1.33,11.36A48,48,0,0,1,366,201.47a53.66,53.66,0,0,1-4.3,10.67,91.19,91.19,0,0,1-5.88,9.88,77.62,77.62,0,0,1-7.23,9,69.7,69.7,0,0,1-8.62,7.67,104.39,104.39,0,0,1-19.84,11.57,86.84,86.84,0,0,1-22,6.64,97.81,97.81,0,0,1-22.93,1,105.2,105.2,0,0,1-22.54-4.14,106.34,106.34,0,0,1-21.06-8.91l0,0a108.46,108.46,0,0,0,43.65,12.15c15.13.85,30.55-1.45,44.33-7.85a111.07,111.07,0,0,0,19.6-11.45,68.55,68.55,0,0,0,8.5-7.47,75.74,75.74,0,0,0,7.17-8.79,98.53,98.53,0,0,0,6-9.67,52.61,52.61,0,0,0,4.42-10.43,49.72,49.72,0,0,0,2-11.16,42.74,42.74,0,0,0-.93-11.33Z"/><path class="cls-1" d="M174,101.49a.61.61,0,0,0,.07-.15l.15-.11.33-.24.67-.47c.45-.31.91-.62,1.37-.91.92-.6,1.87-1.15,2.81-1.69a20.52,20.52,0,0,1,6.18-2.37c2.2-.4,4.36-.52,6.56-.7a21.86,21.86,0,0,1,6.64.52,22.68,22.68,0,0,1,11.4,6.63,31.5,31.5,0,0,1,7,11.2c2.87,8.4,2.91,17.53,1.1,26.11-.24,1.08-.45,2.13-.75,3.22l-.87,3.16L215,152a45.32,45.32,0,0,0-1.27,6.34,28.74,28.74,0,0,0-.15,3.21c0,1.07.15,2.14.21,3.21v0l-.78-.35c1.24-.92,2.52-1.78,3.72-2.75l3.59-2.89a60.57,60.57,0,0,0,6.72-6.29,66.46,66.46,0,0,0,10.44-15A58.4,58.4,0,0,0,241,129a35.61,35.61,0,0,0,1.73-8.88,29,29,0,0,0-1-8.91,30.14,30.14,0,0,0-3.85-8.08,29.26,29.26,0,0,0-6-6.61,36.68,36.68,0,0,0-7.79-4.63,42.87,42.87,0,0,0-17.6-4.36,41.62,41.62,0,0,0-9,.84,55.76,55.76,0,0,0-8.75,2.66,30.86,30.86,0,0,0-7.94,4.32,37,37,0,0,0-3.47,2.92c-.57.52-1.1,1.07-1.63,1.62l-.8.83C174.56,101,174.36,101.39,174,101.49Zm-.12.13a1.22,1.22,0,0,1,.14-.35l.17-.26.33-.48.69-.94c.47-.61,1-1.21,1.48-1.79a30.45,30.45,0,0,1,3.39-3.23A31.14,31.14,0,0,1,188.26,90a57.3,57.3,0,0,1,8.91-2.82,43,43,0,0,1,9.34-1,44.69,44.69,0,0,1,18.18,4.36,37.48,37.48,0,0,1,8.12,4.76,30.9,30.9,0,0,1,6.42,6.94,29.77,29.77,0,0,1,4,8.55,30.43,30.43,0,0,1,1,9.4c-.4,6.34-2.73,12.3-5.55,17.83a68.08,68.08,0,0,1-10.77,15.25,63.22,63.22,0,0,1-6.87,6.32l-3.66,2.89c-1.22,1-2.51,1.83-3.77,2.74l-.71.52-.07-.87v0c-.07-1.1-.22-2.21-.22-3.32a28.28,28.28,0,0,1,.16-3.32,45.44,45.44,0,0,1,1.29-6.49l1.69-6.33.87-3.16c.28-1,.51-2.1.73-3.15,1.78-8.45,1.73-17.41-1.06-25.58a30.77,30.77,0,0,0-6.78-10.84,22.48,22.48,0,0,0-17.27-7,63.16,63.16,0,0,0-6.47.52,19.9,19.9,0,0,0-6.05,2.15c-1,.49-1.94,1-2.88,1.52l-1.41.83-.69.43-.35.22-.18.12A1,1,0,0,1,173.92,101.62Z"/><path class="cls-1" d="M214.59,114.36a42,42,0,0,0-3.8-3.39,36,36,0,0,0-4.14-2.93,28.32,28.32,0,0,0-9.23-3.9,22.8,22.8,0,0,0-9.9,0A14.64,14.64,0,0,0,183,106a7,7,0,0,0-1.77,1.58,12,12,0,0,0-.73,1l-.33.52-.15.27c0,.1-.13.16-.56.06-.33-.3-.33-.42-.26-.51l.16-.29.33-.57a13.18,13.18,0,0,1,.75-1.09,8.66,8.66,0,0,1,2-1.86,14.74,14.74,0,0,1,4.87-2,23.37,23.37,0,0,1,10.36.16,28.22,28.22,0,0,1,9.35,4.29,39.3,39.3,0,0,1,7.64,6.8Z"/><path class="cls-1" d="M217.37,118.93A21.56,21.56,0,0,0,210.72,107a37.52,37.52,0,0,0-5.42-4.2,22.83,22.83,0,0,0-6.12-2.63,25.77,25.77,0,0,0-13.27.31c-1.09.29-2.18.66-3.24,1a7.83,7.83,0,0,0-2.71,1.62,15.1,15.1,0,0,0-1.71,1.92c-.16.26-.35.4-.45.57a12.75,12.75,0,0,0-2.21,1.29,1.79,1.79,0,0,1-1.12-.8,1.9,1.9,0,0,1-.29-1.2,5.12,5.12,0,0,1,.81-2.23,8.53,8.53,0,0,1,3.15-2.67,21.29,21.29,0,0,1,3.54-1.49c1.18-.36,2.34-.7,3.53-1,4.73-1.08,9.89-1.4,14.66.17a20.47,20.47,0,0,1,6.47,3.49c1,.75,1.86,1.56,2.73,2.38s1.7,1.67,2.52,2.55A22.26,22.26,0,0,1,217.37,118.93Z"/><path class="cls-1" d="M98,169.86l4.41,3c1.45,1,3,2,4.47,2.91a54.38,54.38,0,0,0,9.54,4.67,178.75,178.75,0,0,0,20.18,6.84,108.9,108.9,0,0,0,21,3.08A122.1,122.1,0,0,0,179,189.6l0,.3a112.93,112.93,0,0,1-21.35,1.15,103.3,103.3,0,0,1-21.2-3c-3.47-.9-6.86-2-10.24-3.15s-6.68-2.51-10-3.84a53.21,53.21,0,0,1-9.51-4.92c-1.51-1-3-2-4.38-3.07L98,169.86Z"/><path class="cls-1" d="M211.24,167.2c1.6-.79,3-1.49,4.37-2.28.69-.4,1.24-.73,1.92-1.21s1.29-.91,1.9-1.41a45.68,45.68,0,0,0,3.59-3.13c.59-.57,1.16-1.15,1.74-1.75l1.74-1.81a81,81,0,0,0,11.84-16,62.43,62.43,0,0,0,4.33-9.09,29,29,0,0,0,1.29-4.64,33.67,33.67,0,0,0,.54-4.83,22.77,22.77,0,0,0-.38-4.86c-.3-1.6-.77-3.25-1.2-4.91a30.7,30.7,0,0,0-4.08-9.28l0,0a25.53,25.53,0,0,1,3.39,4,28.81,28.81,0,0,1,2.52,4.67,41.49,41.49,0,0,1,1.95,4.91,25.91,25.91,0,0,1,1,5.4,23,23,0,0,1-.13,5.5,15,15,0,0,1-.68,2.72c-.29.88-.62,1.72-1,2.54-.75,1.62-1.46,3.22-2.21,4.79s-1.42,3.16-2.2,4.73a87.9,87.9,0,0,1-5.23,9.08,82.56,82.56,0,0,1-6.27,8.43,61.49,61.49,0,0,1-7.39,7.6,34.36,34.36,0,0,1-4.42,3.19c-1.55.92-3.17,1.72-4.66,2.47Z"/><path class="cls-1" d="M243.58,109c-.38-.22-.19-.24-.12-.29l.24-.16.5-.32,1-.62a22.49,22.49,0,0,1,2.06-1c1.23-.57,2.5-1.09,3.77-1.56,2.55-1,5.13-1.69,7.7-2.49l7.7-2.26c1.26-.38,2.52-.81,3.93-1.15s2.76-.5,4-.74a12.77,12.77,0,0,0,1.75-.5,13.14,13.14,0,0,0,1.69-.74c1.14-.58,2.28-1.27,3.41-2s2.26-1.4,3.35-2.14a36.48,36.48,0,0,1,3.48-2.14,39,39,0,0,1,7.52-3.22,33.07,33.07,0,0,1,8-1.29h0l.33,0-.29.15a18.9,18.9,0,0,0-5.84,4.74,12.55,12.55,0,0,0-2.43,6.88,26.06,26.06,0,0,0-.09,7.48,22.57,22.57,0,0,0,2.32,7.08,25.25,25.25,0,0,0,4.4,6.07,16.16,16.16,0,0,0,5.95,4.4,17,17,0,0,0,7.38.9,12.43,12.43,0,0,0,6.94-2.67h0l.9-.71-.65,1a36.05,36.05,0,0,1-13.45,11.56,28.19,28.19,0,0,1-4.23,1.63,23.86,23.86,0,0,1-4.47,1,22.19,22.19,0,0,1-9.15-.9,32.4,32.4,0,0,1-4.28-1.67,31,31,0,0,1-4-2.35A46.23,46.23,0,0,1,276,125a36.75,36.75,0,0,1-5.3-7.4c-.73-1.33-1.37-2.69-2-4.06a25.45,25.45,0,0,1-1.62-4.23l.08.18a2.33,2.33,0,0,1-.17-.26,1.67,1.67,0,0,0-.23-.23,1.79,1.79,0,0,0-.7-.31,3.91,3.91,0,0,0-1.86.46l-.07,0L262,110a16.66,16.66,0,0,1-2.28.65c-1.51.31-3,.78-4.49,1.21s-2.95,1-4.43,1.43c-.75.23-1.48.5-2.21.76l-1.1.38-.55.2a.72.72,0,0,0-.48.37s0,.05,0,.07l-.32.51-.32-.79C245,112.85,244.27,110.91,243.58,109Zm.94.34c.77,1.69,1.5,3.32,2.19,5l-.64-.28.05,0c1.48-.49,2.94-1,4.43-1.52s3-1,4.46-1.43,3-1,4.5-1.33a38.59,38.59,0,0,0,4.42-1.52l-.07,0a9.93,9.93,0,0,1,2.24-.76,3.18,3.18,0,0,1,1.39.14,2.91,2.91,0,0,1,1.22,1l0,0,.07.18c.49,1.36,1.12,2.65,1.72,3.94s1.24,2.57,1.94,3.81a37.58,37.58,0,0,0,5.07,7,44.36,44.36,0,0,0,6.64,5.65,28.26,28.26,0,0,0,7.69,3.84,21.56,21.56,0,0,0,8.36,1.07,22.67,22.67,0,0,0,4.22-.7,26.66,26.66,0,0,0,4.1-1.37,33,33,0,0,0,7.44-4.47,36,36,0,0,0,6.26-6.13l.25.24,0,0a13.06,13.06,0,0,1-7.09,3.11,22.26,22.26,0,0,1-3.92.12,14.93,14.93,0,0,1-3.88-.82,13.81,13.81,0,0,1-3.51-1.88,27.25,27.25,0,0,1-2.93-2.61,25,25,0,0,1-4.67-6.32,24,24,0,0,1-2.5-7.47,22.62,22.62,0,0,1-.26-3.94,29.59,29.59,0,0,1,.41-3.91,20,20,0,0,1,.87-3.86,10.15,10.15,0,0,1,2.09-3.43,16.27,16.27,0,0,1,6.48-4.28l0,.14h0A39.46,39.46,0,0,0,296,88.8a37.31,37.31,0,0,0-7,3.67c-1.12.75-2.17,1.42-3.25,2.24s-2.21,1.58-3.33,2.32-2.26,1.49-3.48,2.18a16,16,0,0,1-1.95,1,14.89,14.89,0,0,1-2.1.61c-1.41.28-2.67.45-3.92.75s-2.48.74-3.79,1.09c-2.62.71-5.21,1.35-7.79,2s-5.21,1.25-7.72,2.07c-1.27.4-2.51.85-3.74,1.34l-1.69.7C245.69,109,245.13,109.15,244.52,109.36Z"/><path class="cls-1" d="M246,115.44c1.62-.66,3.45-1.42,5.17-2s3.49-1.26,5.34-1.78,3.58-1,5.37-1.41,3.63-.9,5.47-1.24l.55,2.86c-1.78.34-3.49.79-5.28,1.25s-3.56.93-5.29,1.42-3.4,1.12-5.11,1.76-3.31,1.29-5.1,2Z"/><path class="cls-1" d="M294.73,136.58a19,19,0,0,0,9.26-.29,30.84,30.84,0,0,0,8.32-3.75,37.48,37.48,0,0,0,6.78-5.83c1.05-1.1,2.06-2.27,3.15-3.4a6.78,6.78,0,0,0,1.41-1.93l6.34.24a13.53,13.53,0,0,1-1.46,3.4,16.87,16.87,0,0,1-2.1,2.61c-.55.59-1.06,1.24-1.65,1.8s-1.22,1.11-1.85,1.66a29,29,0,0,1-8.78,5.16,33.66,33.66,0,0,1-9.8,2.19,19.23,19.23,0,0,1-9.65-1.77Z"/><path class="cls-1" d="M314.87,123.91a14,14,0,0,1-6.21-.79,16.51,16.51,0,0,1-5.43-3.52,22.29,22.29,0,0,1-4.11-5.13,27.5,27.5,0,0,1-2.72-6,27.14,27.14,0,0,1-.73-3.24,22.81,22.81,0,0,1-.31-3.45,17.16,17.16,0,0,1,1.28-7.06,16.16,16.16,0,0,1,1.8-3.31,7.42,7.42,0,0,1,3-2.3c.29-.12.58-.25.87-.36l.91-.25.44-.11a2.44,2.44,0,0,1,.39-.06l.78-.12a25.67,25.67,0,0,1,3.37-.2c-.66.86-1.37,1.68-2.11,2.48-.34.39-.79.84-1.07,1.17a7.75,7.75,0,0,0-.84,1.07A13.43,13.43,0,0,0,303,95c-.31.74-.64,1.42-.91,2.16a18.57,18.57,0,0,0-1.16,4.75,20.77,20.77,0,0,0,.3,5.39,24.62,24.62,0,0,0,4.2,10.34,14.33,14.33,0,0,0,4,3.92A21.33,21.33,0,0,0,314.87,123.91Z"/><path class="cls-1" d="M312.57,89.73a25.58,25.58,0,0,0-3,3.88,20.76,20.76,0,0,0-2.2,4.33,18.08,18.08,0,0,0-1,4.68,39.6,39.6,0,0,0,0,4.87,19.26,19.26,0,0,0,2.65,9.19,20.39,20.39,0,0,0,2.78,4,10.26,10.26,0,0,0,4.15,2.49,9.7,9.7,0,0,1-4.5-2.12,20,20,0,0,1-3.13-3.93,18.45,18.45,0,0,1-3-9.55,35.06,35.06,0,0,1,0-5,17,17,0,0,1,1.27-4.92,21,21,0,0,1,6-7.9Z"/><path class="cls-1" d="M298.47,139.42a32.7,32.7,0,0,0,18.51-2,36.39,36.39,0,0,0,14.67-11.51,27,27,0,0,1-6.15,7.29,30.86,30.86,0,0,1-8.21,5,30.44,30.44,0,0,1-9.34,2.19A27.51,27.51,0,0,1,298.47,139.42Z"/><path class="cls-1" d="M214.29,176a61.45,61.45,0,0,0,8-4.76c1.24-.92,2.39-1.94,3.54-3s2.21-2.17,3.32-3.25a44.12,44.12,0,0,0,6.06-7c1.73-2.56,3.32-5.24,5-7.85-1.45,2.75-2.93,5.48-4.57,8.14a31.37,31.37,0,0,1-2.83,3.74c-.52.59-1,1.16-1.58,1.73s-1.11,1.1-1.66,1.65a52.28,52.28,0,0,1-7,6.18,37,37,0,0,1-4,2.42c-1.39.72-2.82,1.33-4.22,2Z"/><path class="cls-1" d="M218.3,170.74a90.31,90.31,0,0,0,3.38,17.84c1.7,5.82,3.25,11.7,5.27,17.4a58.32,58.32,0,0,0,8.62,15.87c3.84,4.66,7.81,9.34,12.79,12.86h0c-5.09-3.37-9.23-7.93-13.15-12.58a51.05,51.05,0,0,1-5.09-7.59,65.78,65.78,0,0,1-3.78-8.34c-1.05-2.87-2-5.77-2.81-8.68l-2.45-8.79c-.43-1.46-.78-2.94-1.09-4.43s-.61-3-.87-4.49a70.8,70.8,0,0,1-.86-9.08Z"/><path class="cls-1" d="M137.89,184.8a98.22,98.22,0,0,0,13.48,36.26,123.21,123.21,0,0,0,11.37,15.77,137.18,137.18,0,0,0,13.63,13.86,139.2,139.2,0,0,0,32.34,21.38c11.69,5.64,24.31,9.1,37.07,11.28a176.64,176.64,0,0,0,76.94-4.78,217,217,0,0,0,36.22-13.93c2.91-1.42,5.77-2.92,8.58-4.53s5.59-3.26,8.3-5a146,146,0,0,0,15.57-11.49,116,116,0,0,0,13.49-13.75c1-1.23,2-2.51,3-3.78s1.92-2.6,2.86-3.91c1.87-2.62,3.65-5.28,5.31-8,6.59-10.92,11.26-23,12.42-35.6a74.74,74.74,0,0,0-5.76-37,96.93,96.93,0,0,0-9.08-16.71c-1.78-2.65-3.67-5.23-5.62-7.78s-4-5.13-6-7.54a120.3,120.3,0,0,0-29-24.93,183.58,183.58,0,0,0-17-9.11c-1.46-.69-2.91-1.42-4.4-2s-2.95-1.32-4.48-1.86c-3-1.19-6.1-2.16-9.2-3.09a209.21,209.21,0,0,0-38.11-7.39c-6.45-.67-12.92-1.07-19.4-1.26l-4.86-.09h-4.87l-4.86.07a16.71,16.71,0,0,1-4.88-.22,16.41,16.41,0,0,1,4.86-.53l4.88-.07h4.87l4.88.1q9.75.27,19.46,1.25A210.87,210.87,0,0,1,338,67.79c12.44,3.73,24.7,8.38,36,15a122.79,122.79,0,0,1,30.46,24.61,176.12,176.12,0,0,1,12.36,15.3,100.59,100.59,0,0,1,9.87,17.21A76.51,76.51,0,0,1,432.89,179a79.63,79.63,0,0,1-4.73,19.4A74.93,74.93,0,0,1,424,207.5,98.55,98.55,0,0,1,419,216c-1.81,2.76-3.75,5.42-5.76,8-1,1.3-2,2.57-3,3.84s-2.1,2.54-3.2,3.76a116.06,116.06,0,0,1-14.32,13.47,170.36,170.36,0,0,1-33.16,20.65A217.62,217.62,0,0,1,323,279.58,177.57,177.57,0,0,1,245.66,284c-12.8-2.24-25.46-5.78-37.17-11.5a139.59,139.59,0,0,1-46-35.54,123.74,123.74,0,0,1-11.33-15.85A98.56,98.56,0,0,1,137.89,184.8Z"/><path class="cls-1" d="M144,139.82c-.82,2.13-1.66,4.24-2.41,6.39s-1.4,4.33-2,6.54-1,4.43-1.41,6.67-.65,4.51-.94,6.77a49.86,49.86,0,0,1,.77-6.79q.57-3.37,1.42-6.69c.56-2.21,1.22-4.4,2-6.55A55.26,55.26,0,0,1,144,139.82Z"/><path class="cls-1" d="M252.78,118.29a85.15,85.15,0,0,1-3.64,7.94c-1.21,2.65-2.35,5.32-3.37,8s-1.87,5.48-2.63,8.29a51.64,51.64,0,0,0-1.73,8.48,41.87,41.87,0,0,0-.15,8.59,30.65,30.65,0,0,0,2.12,8.25,30.11,30.11,0,0,0,4.29,7.33,50.46,50.46,0,0,0,6,6.12c1.08,1,2.14,1.92,3.28,2.79s2.34,1.76,3.47,2.71c2.24,1.91,4.42,3.82,6.54,5.89a46.22,46.22,0,0,1,9.9,14.63,44.39,44.39,0,0,1,2.67,8.45c.28,1.43.55,2.88.7,4.36a25.45,25.45,0,0,1,.07,4.45,26.24,26.24,0,0,1-2.11,8.57,28.73,28.73,0,0,1-4.54,7.49,31,31,0,0,0,5.71-16.11,32.91,32.91,0,0,0-1-8.52,43.34,43.34,0,0,0-2.75-8.14,44,44,0,0,0-4.27-7.46,47,47,0,0,0-5.51-6.58c-2.06-2-4.28-3.92-6.47-5.77-1.11-.92-2.25-1.76-3.43-2.65s-2.32-1.88-3.39-2.87a52.42,52.42,0,0,1-6.17-6.37,30.47,30.47,0,0,1-4.4-7.77,31.64,31.64,0,0,1-2-8.68,42.16,42.16,0,0,1,.33-8.85A91.44,91.44,0,0,1,252.78,118.29Z"/><path class="cls-1" d="M250.17,124.14a6.29,6.29,0,0,1-.47,2.07,14.76,14.76,0,0,0-.52,1.92,38.49,38.49,0,0,0-.72,4,24.92,24.92,0,0,0,.56,8.1,31.81,31.81,0,0,0,2.7,7.69,39.88,39.88,0,0,0,4.56,6.81c3.48,4.23,7.83,7.77,12,11.54,1,.94,2.08,1.84,3.13,2.83s2,2,2.9,3.12c1.86,2.17,3.47,4.45,5.11,6.74a34.34,34.34,0,0,1,4.11,7.5,60.15,60.15,0,0,1,2.35,8.17,57.36,57.36,0,0,1,1.34,8.38,50.38,50.38,0,0,1-.09,8.51,67.22,67.22,0,0,1-1.34,8.37c-.66,2.73-1.24,5.46-2.16,8.14a26.71,26.71,0,0,1-3.75,7.63,18.18,18.18,0,0,1-6.53,5.27,20,20,0,0,0,3-2.85,16.41,16.41,0,0,0,2.29-3.26,26.63,26.63,0,0,0,2.44-7.52,7.25,7.25,0,0,1,.87-1.88c.32-.63.56-1.28.85-1.92a17.89,17.89,0,0,0,1.35-4,64.82,64.82,0,0,0,1.33-8.16,47.13,47.13,0,0,0,0-8.23,67.7,67.7,0,0,0-3.77-16,38.65,38.65,0,0,0-3.87-7.11,82,82,0,0,0-4.89-6.69c-.87-1.05-1.8-2.09-2.74-3s-2-1.89-3.05-2.84L261,161.83c-1-1-2-2-3-3s-1.92-2.08-2.8-3.19a41,41,0,0,1-4.62-7.12,37.29,37.29,0,0,1-2.76-8,26.54,26.54,0,0,1-.66-8.49,27.89,27.89,0,0,1,.78-4.19,10,10,0,0,1,.78-2A3.38,3.38,0,0,1,250.17,124.14Z"/><path class="cls-1" d="M257.1,119.47a20.64,20.64,0,0,0-2.27,4.89c-.16.38-.23.81-.41,1.18s-.4.72-.53,1.11l-.46,1.15c-.15.38-.24.79-.36,1.19a28.16,28.16,0,0,0-.86,10.11,36.63,36.63,0,0,0,.84,5.17,39.55,39.55,0,0,0,1.62,5,37.53,37.53,0,0,0,2.43,4.77c.89,1.55,1.79,3.09,2.64,4.72a18.59,18.59,0,0,1-3.71-4.06,52.33,52.33,0,0,1-2.76-4.77,35.54,35.54,0,0,1-3.78-10.5c-.16-.93-.28-1.87-.36-2.81a27.1,27.1,0,0,1,0-2.85c0-1,.16-1.91.26-2.86a19.21,19.21,0,0,1,.69-2.81c.15-.46.27-.92.46-1.37l.58-1.34a8.54,8.54,0,0,1,1.58-2.43A18.12,18.12,0,0,1,257.1,119.47Z"/><path class="cls-1" d="M260,120.36A31.62,31.62,0,0,0,257.6,126a30.49,30.49,0,0,0-1.23,6,38.24,38.24,0,0,0,.61,12.12,42.63,42.63,0,0,0,4.09,11.46c2,3.57,4.61,6.74,6.72,10.25-2.32-3.37-5-6.48-7.1-10a39.67,39.67,0,0,1-4.34-11.54,35.08,35.08,0,0,1-.77-6.13,34.45,34.45,0,0,1,.24-6.18,29.92,29.92,0,0,1,1.44-6A27.27,27.27,0,0,1,260,120.36Z"/><path class="cls-1" d="M239.7,159.54a35.07,35.07,0,0,0,2.73,10,36.82,36.82,0,0,0,5.47,8.59,46.84,46.84,0,0,0,7.33,7c1.31,1,2.78,1.88,4.29,3s2.87,2.23,4.22,3.42,2.64,2.44,3.88,3.75,2.39,2.69,3.51,4.11a42.25,42.25,0,0,1,5.54,9.32,36.81,36.81,0,0,1,2.87,10.39,27.17,27.17,0,0,1-.86,10.6,31.57,31.57,0,0,0-.55-10.37,38.3,38.3,0,0,0-1.48-4.93,44.72,44.72,0,0,0-2.1-4.69,45.86,45.86,0,0,0-5.67-8.49,70.28,70.28,0,0,0-7.24-7.3,47.5,47.5,0,0,0-4-3.17c-1.36-1-2.91-1.93-4.36-3.1a45.27,45.27,0,0,1-4-3.65,40.31,40.31,0,0,1-3.54-4.18,33.71,33.71,0,0,1-4.94-9.66A26.55,26.55,0,0,1,239.7,159.54Z"/><path class="cls-1" d="M239,170.91a34.19,34.19,0,0,0,4.85,10.8,31.74,31.74,0,0,0,3.82,4.51,29.24,29.24,0,0,0,4.67,3.61,26,26,0,0,0,2.56,1.47c.89.46,1.77.94,2.64,1.43,1.74,1,3.49,1.93,5.18,3a40.81,40.81,0,0,1,4.82,3.6,20,20,0,0,1,3.67,4.73,21.91,21.91,0,0,0-3.93-4.44,39.28,39.28,0,0,0-4.89-3.37c-1.68-1-3.44-2-5.18-2.93s-3.58-1.76-5.25-2.92a27.45,27.45,0,0,1-8.54-8.42A30.68,30.68,0,0,1,239,170.91Z"/><path class="cls-1" d="M283.3,185.83a38,38,0,0,1,4.14,6.67,34.23,34.23,0,0,1,2.67,7.51,33.3,33.3,0,0,1,.84,8,54.77,54.77,0,0,1-.63,7.93,44.57,44.57,0,0,1-2,7.76c-.43,1.26-.94,2.51-1.45,3.71s-1,2.43-1.67,3.62a33,33,0,0,1-4.56,6.65,18.53,18.53,0,0,1-3,2.78,20.24,20.24,0,0,1-3.51,2.05l-.79-1.58a18.42,18.42,0,0,0,3.08-2,17.65,17.65,0,0,0,2.56-2.62,29.89,29.89,0,0,0,3.93-6.35,54.28,54.28,0,0,0,4.27-14.48,55.71,55.71,0,0,0,.5-7.56,63.74,63.74,0,0,0-.24-7.45A48.54,48.54,0,0,0,283.3,185.83Z"/><path class="cls-1" d="M288.57,190.36a29.11,29.11,0,0,1,4,6.21,34.32,34.32,0,0,1,2.28,7.07,33.58,33.58,0,0,1,.71,7.42,52.65,52.65,0,0,1-.71,7.42,42.27,42.27,0,0,1-5.1,14,48.86,48.86,0,0,1-4.25,6.1,22.09,22.09,0,0,1-2.55,2.77,14.72,14.72,0,0,1-1.53,1.17c-.25.21-.45.53-.76.68s-.65.2-1.18-.34c0-.79.27-.93.51-1.06s.58-.09.86-.2a8.11,8.11,0,0,0,1.38-1.05,20.94,20.94,0,0,0,2.36-2.68,41.18,41.18,0,0,0,3.94-6.07,47.21,47.21,0,0,0,2.88-6.61,48,48,0,0,0,1.89-7,49.67,49.67,0,0,0,.91-7.17,37.63,37.63,0,0,0-.4-7.19A32.27,32.27,0,0,0,288.57,190.36Z"/><path class="cls-1" d="M354,266.71c4.07-2.85,8.16-5.69,12-8.78,1.9-1.6,3.74-3.24,5.58-4.87s3.74-3.16,5.57-4.79a113.16,113.16,0,0,0,10.25-10.52c3.22-3.76,6.44-7.51,9.37-11.44,1.47-2,2.89-4,4.29-6s2.76-4.08,4-6.17A88.76,88.76,0,0,0,411.62,201a128.15,128.15,0,0,0,4.66-14,69.73,69.73,0,0,0,2.48-14.44A63.77,63.77,0,0,0,418,158a108.73,108.73,0,0,0-3.58-14.3,92.3,92.3,0,0,0-13-26.35c-2.87-4-6.07-7.79-9.23-11.59A118.66,118.66,0,0,0,382,95a120.2,120.2,0,0,0-23.79-17.62c2.24,1.07,4.45,2.2,6.62,3.43s4.22,2.62,6.27,4a124.15,124.15,0,0,1,11.74,9.24,121.1,121.1,0,0,1,10.39,10.74c3.21,3.8,6.44,7.56,9.4,11.61a93.43,93.43,0,0,1,13.44,26.69,110,110,0,0,1,3.74,14.52,65.87,65.87,0,0,1,.91,15,71.71,71.71,0,0,1-2.44,14.86,128.17,128.17,0,0,1-4.66,14.25A90.64,90.64,0,0,1,407,215.29c-1.29,2.15-2.68,4.24-4.07,6.29s-2.84,4.11-4.34,6.11c-3,4-6.23,7.79-9.46,11.56A113.9,113.9,0,0,1,378.64,250a105.44,105.44,0,0,1-11.78,9.21c-2.09,1.39-4.23,2.66-6.38,3.91L357.25,265Z"/><path class="cls-1" d="M422.64,176.19a79.21,79.21,0,0,1-6,23.25,114,114,0,0,1-5.18,10.88c-1.93,3.53-4.05,7-6.29,10.29a147,147,0,0,1-15,18.83,125.67,125.67,0,0,1-18,15.91,145.36,145.36,0,0,0,17.47-16.44A163.32,163.32,0,0,0,404.28,220c2.2-3.32,4.24-6.75,6.15-10.24a115.67,115.67,0,0,0,5.29-10.71A96.78,96.78,0,0,0,422.64,176.19Z"/><path class="cls-1" d="M422.53,186.59a97.3,97.3,0,0,1-3.32,11.54,112.09,112.09,0,0,1-4.71,11.07,121.93,121.93,0,0,1-12.78,20.37,124.78,124.78,0,0,1-16.5,17.5,109.31,109.31,0,0,1-9.53,7.35,92.44,92.44,0,0,1-10.35,6.07,120.73,120.73,0,0,0,19.11-14.29,135.77,135.77,0,0,0,16.1-17.54,133.08,133.08,0,0,0,12.95-20,124.12,124.12,0,0,0,9-22.09Z"/><path class="cls-1" d="M425.4,181a55.6,55.6,0,0,1-3.66,17.85,92.58,92.58,0,0,1-8.22,16.34A128.73,128.73,0,0,1,402.81,230c-3.91,4.61-7.71,9.54-12.81,12.94a41.92,41.92,0,0,0,6.54-6.3c2-2.3,3.85-4.7,5.75-7.06a151.76,151.76,0,0,0,10.46-14.87A101.36,101.36,0,0,0,421,198.59,62.91,62.91,0,0,0,425.4,181Z"/><path class="cls-1" d="M421.15,155.41l-2.8-8.51c-.48-1.41-1-2.81-1.51-4.19s-1-2.79-1.57-4.16a99,99,0,0,0-8.14-15.74c-1.56-2.51-3.29-4.92-5.05-7.33s-3.45-4.87-5.24-7.23a98.64,98.64,0,0,0-12-13.19,81.55,81.55,0,0,1,12.66,12.67c1.88,2.33,3.66,4.73,5.46,7.11s3.57,4.8,5.19,7.33a79.34,79.34,0,0,1,8.28,15.94A100.9,100.9,0,0,1,421.15,155.41Z"/><path class="cls-1" d="M424.41,161.9c-.45-3.14-1-6.26-1.71-9.34a84.49,84.49,0,0,0-2.6-9.11c-1-3-2.18-5.91-3.51-8.77s-2.81-5.66-4.37-8.39a79.58,79.58,0,0,0-5.17-7.91c-1.89-2.53-3.87-5-5.87-7.45l-3-3.68-3.32-3.39L388.27,97c2.35,2.13,4.62,4.34,6.93,6.52l3.42,3.3,3.11,3.62A101.51,101.51,0,0,1,413,125.82a91.6,91.6,0,0,1,7.77,17.4,82.19,82.19,0,0,1,3.61,18.68Z"/><path class="cls-1" d="M425.3,158.64a62.22,62.22,0,0,0-1.15-8.42l-.48-2.07-.57-2c-.16-.68-.4-1.35-.6-2s-.42-1.35-.67-2a88.13,88.13,0,0,0-7.22-15.32c-1.43-2.44-3-4.83-4.58-7.15a74.66,74.66,0,0,0-5.16-6.74c-.91-1.1-1.87-2.14-2.83-3.18l-2.85-3.17c-2-2-4-4-6-6,2.08,1.94,4.19,3.85,6.25,5.81s4,4.07,5.87,6.21a88.92,88.92,0,0,1,10,13.84c1.47,2.45,2.84,5,4.07,7.54a64.35,64.35,0,0,1,3.22,7.94A47.81,47.81,0,0,1,425.3,158.64Z"/><path class="cls-1" d="M150.93,186.87c.78.17.86.29.83.41v.36l0,.73,0,1.45c0,1-.13,1.93-.19,2.9-.16,1.93-.38,3.86-.51,5.79s-.22,3.86-.34,5.8l-.31,5.8v-.17a3.27,3.27,0,0,1,0,.56c0,.21-.05.42-.08.61a4.31,4.31,0,0,1-.33,1.09,2.61,2.61,0,0,1-.91,1.07,2.52,2.52,0,0,1-1.7.39l-.41-.07a1.84,1.84,0,0,1-.48-.19,2.85,2.85,0,0,1-.76-.57,2.68,2.68,0,0,1-.71-1.2,1.88,1.88,0,0,1,0-1.1,1.65,1.65,0,0,1,.35-.54,2,2,0,0,1,1-.53c.76.06,1,.14,1.13.24a.39.39,0,0,1,.19.3.93.93,0,0,0,.11.56,1,1,0,0,0,.2.31s0,0,0,0,0,0,0,0,0,0,0,0,.06,0,.14-.11a1.86,1.86,0,0,0,.21-.3c0-.08.32,0,.29-.24V210c.18-1.93.37-3.86.53-5.79s.29-3.86.38-5.8.14-3.87.23-5.8c.06-1,.06-1.94.17-2.9l.14-1.45.07-.72,0-.36C150.09,187.06,150.17,186.94,150.93,186.87Z"/><path class="cls-1" d="M268.6,253.59c.65.16.73.3.72.43l0,.42c0,.27,0,.55,0,.82,0,.55,0,1.1-.08,1.65-.1,1.1-.13,2.2-.15,3.3l-.17,6.6-.27,13.2v-.13a6,6,0,0,1,0,1.11,4.43,4.43,0,0,1-.17,1.1,2.49,2.49,0,0,1-.72,1.27,2.09,2.09,0,0,1-1,.5,2.57,2.57,0,0,1-1.14,0,2.33,2.33,0,0,1-1-.51,3,3,0,0,1-.6-.67,2.45,2.45,0,0,1-.33-.61,2.5,2.5,0,0,1-.16-.56,1.82,1.82,0,0,1,.05-1.06,1.87,1.87,0,0,1,.35-.53,2.12,2.12,0,0,1,1-.54,2.24,2.24,0,0,1,1.12.27.49.49,0,0,1,.2.34,1.46,1.46,0,0,0,.1.67,1.86,1.86,0,0,0,.23.47c0,.05.06.07.06.05s-.12-.09-.1-.07-.29,0-.32,0,0,0,.12-.16a1.64,1.64,0,0,0,.21-.42c0-.13.32-.16.28-.44V280l.34-6.59.23-6.6.2-6.6c0-1.1.07-2.2,0-3.3,0-.55,0-1.1,0-1.65,0-.27,0-.55.08-.82l.06-.41C267.89,253.85,268,253.71,268.6,253.59Z"/><path class="cls-1" d="M141.15,185.9c.69.15.71.26.68.37v.32l0,.65-.05,1.3-.09,2.59-.33,5.18c-.22,3.45-.49,6.89-.68,10.35s-.36,6.9-.51,10.36c0,.44,0,.83,0,1.33a8.73,8.73,0,0,1-.16,1.53,11.23,11.23,0,0,1-.42,1.43c-.08.23-.17.46-.26.68a4.94,4.94,0,0,1-.47.81,3.23,3.23,0,0,1-2,1.31,3.81,3.81,0,0,1-2.15-.27,6.28,6.28,0,0,1-.67-.31c-.2-.1-.41-.19-.61-.3a1.11,1.11,0,0,1-.46-.58c-.13-.24-.2-.59.1-1.59a2.52,2.52,0,0,1,1.18-.87,1.91,1.91,0,0,1,.77-.13,1.72,1.72,0,0,1,.59.2,4.71,4.71,0,0,0,.5.23c.23.09.36.14.34.19s-.05.09,0,.12.09,0,.17,0a1.31,1.31,0,0,0,.29-.23,5.66,5.66,0,0,1,.4-.44,4.13,4.13,0,0,0,.93-2c0-.35.1-.84.12-1.25l.73-10.35c.27-3.44.4-6.9.6-10.35l.31-5.18.23-2.58.12-1.29.06-.65,0-.32C140.32,186.07,140.36,186,141.15,185.9Z"/><path class="cls-1" d="M259.3,251.47c.5.16.5.29.49.43v1.22l0,1.63-.06,3.26c-.05,2.17-.06,4.34-.14,6.51l-.46,13c-.16,4.34-.4,8.68-.45,13a18.52,18.52,0,0,0,.16,3.3,10.72,10.72,0,0,1-.34,3.58c-.07.29-.14.55-.23.86a5,5,0,0,1-.44,1.05,3.14,3.14,0,0,1-1.11,1.16,2.87,2.87,0,0,1-2,.32,4,4,0,0,1-1.32-.56l-.72-.48a1.27,1.27,0,0,1-.6-.63,2.29,2.29,0,0,1-.12-.57,2.12,2.12,0,0,1,.11-.49,4.78,4.78,0,0,1,.31-.74,2.49,2.49,0,0,1,1.52-.7,1.29,1.29,0,0,1,.83.15l.65.42c.11.06.18.09.13.08a.86.86,0,0,0-.46.14c-.14.11-.06.14,0,.06a1.28,1.28,0,0,0,.31-.38c.11-.19.25-.43.36-.65a10.57,10.57,0,0,0,1.11-2.76,18.78,18.78,0,0,0,.32-3.21c.17-4.34.34-8.68.46-13l.46-13,.29-6.51.2-3.26.1-1.62.05-.82,0-.4C258.71,251.72,258.72,251.59,259.3,251.47Z"/><polygon class="cls-1" points="145.68 126.58 143.22 170.77 141.38 170.66 144.23 126.5 145.68 126.58"/><polygon class="cls-1" points="150.56 173.76 151.77 152.66 152.78 131.55 154.29 131.63 152.24 173.85 150.56 173.76"/><path class="cls-1" d="M141.71,106.68a12.25,12.25,0,0,0,1.13,1.43,6.49,6.49,0,0,0,1.33,1.14,3.89,3.89,0,0,0,1.6.59,2.89,2.89,0,0,0,1.69-.43,2.34,2.34,0,0,1-1.69.81,3.39,3.39,0,0,1-1.85-.54,4.36,4.36,0,0,1-1.38-1.32A5.17,5.17,0,0,1,141.71,106.68Z"/><path class="cls-1" d="M145,106.81c-.34-.16-.28-.3-.3-.45a3.38,3.38,0,0,1,0-.45l0-.88.07-1.77.16-3.54.3-7.07c.21-4.72.17-9.44.39-14.16l.71-14.14q.33-7.08.79-14.14l1.27.06-1.28,28.29-.62,14.15-.32,7.07-.16,3.54-.08,1.77,0,.88a1.61,1.61,0,0,1-.06.44,1.59,1.59,0,0,1-.13.22s0,.07-.11.1a3.75,3.75,0,0,1-.46.09Z"/><path class="cls-1" d="M144.08,108a3.15,3.15,0,0,1-.94-1.36c-.09-.26-.16-.51-.23-.78a1.89,1.89,0,0,1-.08-.83.46.46,0,0,1,.32-.34,1.51,1.51,0,0,1,.41-.06l.79,0a3.09,3.09,0,0,1,1.56.47,3.39,3.39,0,0,1,1.08,1.21,3.29,3.29,0,0,1,.32.77,1.14,1.14,0,0,1-.1.87,1.24,1.24,0,0,1-.66.61,1.93,1.93,0,0,1-.92.06,3.14,3.14,0,0,1-.83-.2A2.85,2.85,0,0,1,144.08,108Zm.8-1c.2.15.33.3.49.43s.36.3.53.44a.9.9,0,0,0,.55.22.52.52,0,0,0,.46-.32c.24-.38-.09-.77-.43-1.09a9.6,9.6,0,0,0-1.09-.84,12.89,12.89,0,0,0-1.16-.75,3,3,0,0,0-.69-.25c-.23-.06-.48,0-.49.19,0,.41.41.81.75,1.13S144.51,106.77,144.88,107.07Z"/><path class="cls-1" d="M153.3,115.42c-.66-.21-.57-.38-.57-.55v-.52l0-1q0-1,.09-2.07l.27-4.13.5-8.26.76-16.53,1.51-33.06,1.23,0-1.43,33.07-.51,16.54-.34,8.27q-.1,2.07-.09,4.14c0,.69-.05,1.38-.09,2.06,0,.35-.07.69-.14,1l-.09.52C154.33,115.12,154.47,115.3,153.3,115.42Z"/><path class="cls-1" d="M151.6,114.2c-.09.08,0,.58.15.85a2.22,2.22,0,0,0,.76.8,5,5,0,0,0,1,.57,1,1,0,0,0,1,0,1,1,0,0,0,.1-1,1.54,1.54,0,0,0-.4-.46l-.25-.19-.13-.09,0,0-.11.12c-.05.06,0,0,0,0s0-.07,0-.13,0-.21-.05-.22l-.14-.08-.29-.13a2.1,2.1,0,0,0-.61-.15,3.11,3.11,0,0,0-.61,0C151.78,114.08,151.61,114.15,151.6,114.2Zm-.47-.45a1.06,1.06,0,0,1,.85-.22,3.34,3.34,0,0,1,.7.14,4.6,4.6,0,0,1,.65.25l.31.16.15.09s.11,0,.21,0c.29.42.69.62.92,1.09a1.35,1.35,0,0,1-.08,1.43,1.1,1.1,0,0,1-.7.41,2.44,2.44,0,0,1-.76,0,3,3,0,0,1-1.41-.48,2.67,2.67,0,0,1-1-1.2,2.47,2.47,0,0,1-.16-.79A1.17,1.17,0,0,1,151.13,113.75Z"/><path class="cls-1" d="M147.41,41l.45-19.72v-.11a3.87,3.87,0,0,1,.56-1.63,2.88,2.88,0,0,1,.58-.7,3,3,0,0,1,.82-.47,7.63,7.63,0,0,1,1.5-.55l.74-.12c.25,0,.52.61.73,1.09l0,.24,0,.15-.07.29a1.32,1.32,0,0,1-.14.31,1.17,1.17,0,0,1-.25.28,2.82,2.82,0,0,1-.5.19c-.31.08-.63.07-.87.14a1.21,1.21,0,0,0-.6.32,1.41,1.41,0,0,0-.45.77v-.09l-.66,9.83c-.24,3.28-.43,6.56-.6,9.84Z"/><path class="cls-1" d="M157.18,36.71a12.41,12.41,0,0,1-.35-4.28V28.14l.53-8.57c.11-1.42.3-2.85.42-4.28a34.84,34.84,0,0,1,.57-4.32,9,9,0,0,1,.73-2.16,5.39,5.39,0,0,1,1.43-2.16A2.93,2.93,0,0,1,162.05,6a2.66,2.66,0,0,1,1.8.46A2.88,2.88,0,0,1,165,7.74a1.81,1.81,0,0,1,.09.73.67.67,0,0,1-.23.4l-.25.22-.42.24-.06,0-.67,0H163a1.09,1.09,0,0,1-.47-.06,1.18,1.18,0,0,1-.31-.2c-.07-.06-.05-.14,0-.21a.75.75,0,0,1,0-.16.32.32,0,0,0-.07-.3.56.56,0,0,0-.56-.14.78.78,0,0,0-.58.52c-.05.14-.11.27-.17.4l-.23.41a8.63,8.63,0,0,0-.86,1.75,13.42,13.42,0,0,0-.53,2c-.11.7-.17,1.41-.26,2.11-.16,1.4-.33,2.81-.45,4.22l-.58,8.51-.17,4.26A11.87,11.87,0,0,1,157.18,36.71Z"/><path class="cls-1" d="M270.36,99.75A15.38,15.38,0,0,1,270,95l0-4.76.59-9.53c.12-1.58.33-3.16.47-4.75a35,35,0,0,1,.65-4.79,9.33,9.33,0,0,1,.82-2.38,6,6,0,0,1,1.58-2.35,3.29,3.29,0,0,1,1.64-.68,3.07,3.07,0,0,1,1.92.5,3.15,3.15,0,0,1,1.18,1.36,2,2,0,0,1,.1.79.72.72,0,0,1-.2.43,2.16,2.16,0,0,1-.68.49l-.06,0c-.51,0-.88,0-1.1,0a1.09,1.09,0,0,1-.47-.1,1.14,1.14,0,0,1-.34-.26.38.38,0,0,1-.07-.25v-.2a.48.48,0,0,0-.18-.34.75.75,0,0,0-.68-.1,1,1,0,0,0-.67.6c-.06.16-.13.3-.2.45l-.27.46a9.84,9.84,0,0,0-.94,2,16.89,16.89,0,0,0-.59,2.2c-.12.77-.19,1.56-.28,2.34-.17,1.57-.37,3.13-.5,4.7l-.63,9.46L270.93,95A14.63,14.63,0,0,1,270.36,99.75Z"/><path class="cls-1" d="M157.33,116.83a3.7,3.7,0,0,1-1.45,1.26,4.39,4.39,0,0,1-1.91.45,3.44,3.44,0,0,1-3.31-1.77,6.16,6.16,0,0,0,1.57,1A4.58,4.58,0,0,0,154,118a5.78,5.78,0,0,0,1.76-.27A5.44,5.44,0,0,0,157.33,116.83Z"/><path class="cls-1" d="M257.19,174.6a.45.45,0,0,1,.55.12l.39.28a7.47,7.47,0,0,0,.8.49,3.18,3.18,0,0,0,1.8.4,5,5,0,0,0,1.81-.49,1.49,1.49,0,0,0,.73-.44,1.39,1.39,0,0,0,.18-.9,1.21,1.21,0,0,1,.11,1,1.68,1.68,0,0,1-.79.77,4.65,4.65,0,0,1-2,.63,4.42,4.42,0,0,1-2.1-.42,4.13,4.13,0,0,1-.9-.56,4.4,4.4,0,0,1-.39-.35C257.25,175,257.08,175,257.19,174.6Z"/><path class="cls-1" d="M266.61,182.09c.5-.32.52-.17.65-.09l.33.23a3.33,3.33,0,0,0,.72.38,4.27,4.27,0,0,0,1.54.36,2.57,2.57,0,0,0,1.48-.51,5.05,5.05,0,0,0,1.33-1.12,2.18,2.18,0,0,1-.94,1.63,3.39,3.39,0,0,1-1.8.87,3,3,0,0,1-1,0,5.53,5.53,0,0,1-1-.28,4.31,4.31,0,0,1-.87-.48l-.4-.29c-.12-.11-.32-.15-.15-.56Z"/><path class="cls-1" d="M259.35,172.15a5.55,5.55,0,0,0-1.08,0,2.14,2.14,0,0,0-.48.1c-.13.06-.13.12-.17.24-.1.52.41.91,1,1.22a2.72,2.72,0,0,0,1.87.37.38.38,0,0,0,.25-.15.81.81,0,0,0,.09-.37,1.52,1.52,0,0,0-.05-.38,1.61,1.61,0,0,1-.14-.53c.56-.15.83.52.75.92a1.69,1.69,0,0,1-.19.63.91.91,0,0,1-.57.4,3.49,3.49,0,0,1-2.28-.34,4.7,4.7,0,0,1-1-.63,1.32,1.32,0,0,1-.5-1.41,1,1,0,0,1,.28-.42.93.93,0,0,1,.47-.23,1.83,1.83,0,0,1,.67,0,2.2,2.2,0,0,1,1.08.53Z"/><path class="cls-1" d="M259.62,173.75c-1-1.32-.34-2.56-.37-3.84s.14-2.54.19-3.81l.29-7.63.58-15.25,1.16-30.51,1,0L262,128c-.17,5.08-.32,10.17-.56,15.25l-.67,15.25-.33,7.63c0,1.27-.12,2.54-.13,3.81a10.31,10.31,0,0,0,.11,1.92,5,5,0,0,1,0,.95,1.05,1.05,0,0,1-.11.48C260.2,173.45,260.26,173.61,259.62,173.75Z"/><path class="cls-1" d="M270.54,180a20.92,20.92,0,0,0-2.48-1.2,1.67,1.67,0,0,0-1.23.06.48.48,0,0,0-.18.15c0,.05,0,0,0,.06a1,1,0,0,0,.13.4A3.37,3.37,0,0,0,268.6,181a1.25,1.25,0,0,0,.52.13,1.18,1.18,0,0,0,.52-.09.39.39,0,0,0,.2-.16s0,0,.09-.08l.05-.06s.08,0,.64,0c.33.09.37.19.35.26a1.89,1.89,0,0,1-.05.23,1.18,1.18,0,0,1-.22.45,1.39,1.39,0,0,1-.88.48,3.79,3.79,0,0,1-.83,0,2.77,2.77,0,0,1-.78-.27A5.22,5.22,0,0,1,267,181a4.93,4.93,0,0,1-.86-1.24,1.33,1.33,0,0,1-.18-.85.73.73,0,0,1,.31-.47,1.32,1.32,0,0,1,.41-.18,2.64,2.64,0,0,1,1.53.12,5.67,5.67,0,0,1,1.27.67l.58.39A1.27,1.27,0,0,1,270.54,180Z"/><path class="cls-1" d="M268.8,180.29a1.05,1.05,0,0,1-.53-1c0-.34.08-.67.09-1l.07-2,.11-4,.21-8.07.46-16.14c.05-2.69,0-5.38.05-8.07l.13-8.08c.09-5.38.17-10.76.38-16.14h1l-.13,16.17L270.48,148l-.57,16.15-.28,8.08-.14,4c-.06.67.05,1.35,0,2a8.57,8.57,0,0,1-.07,1C269.33,179.64,269.38,180,268.8,180.29Z"/><polygon class="cls-1" points="260.57 192.15 259.8 239.99 258.51 239.97 259.57 192.12 260.57 192.15"/><polygon class="cls-1" points="270.12 199.51 269.3 242.96 268.01 242.93 269.12 199.49 270.12 199.51"/><path class="cls-1" d="M261.34,102.5l.23-14,0-1.75a16,16,0,0,0,0-1.68,12.1,12.1,0,0,1,0-1.91,4.62,4.62,0,0,1,.21-1.06,3.4,3.4,0,0,1,.57-1,3.57,3.57,0,0,1,1.94-1.29,3,3,0,0,1,1.2-.08,3.17,3.17,0,0,1,1.31.38,2.12,2.12,0,0,1,.73.61,1.72,1.72,0,0,1,.26.59c.05.2.06.38.11.53.08.3.3.59.38.9a.72.72,0,0,1-.17.74,1.86,1.86,0,0,1-1.13.66l-.62.12-.29,0a.68.68,0,0,1-.36,0l-.68-.61a3.92,3.92,0,0,1-.55-.64c-.06-.1,0-.09,0-.13a1.08,1.08,0,0,1,.11-.18.89.89,0,0,1,.3-.24,2.26,2.26,0,0,0,.63-.39.47.47,0,0,0,.11-.45s0,.12.08.22.09,0,.05,0a1.37,1.37,0,0,0-1-.17,2,2,0,0,0-1.12.59c-.57.58-.55,1.63-.72,2.77a15.72,15.72,0,0,1,0,1.82l-.05,1.74-.21,7c-.08,2.34-.09,4.67-.13,7Z"/><path class="cls-1" d="M244.85,61.61a13.81,13.81,0,0,1-2.44.53l-2.44.43c-1.63.3-3.25.65-4.86,1h0a31.5,31.5,0,0,0-4.65,1.66A49.2,49.2,0,0,0,226,67.43,3.75,3.75,0,0,0,224.52,69a3.1,3.1,0,0,0-.15,2,4.16,4.16,0,0,0,2.84,3,17.31,17.31,0,0,0,9.41.76,27,27,0,0,0,4.61-1.33,22.7,22.7,0,0,0,4.17-2.24,26.93,26.93,0,0,0,6.73-6.47,21.63,21.63,0,0,0,2.26-4,21.63,21.63,0,0,0,1.52-4.26A23,23,0,0,0,256.6,52a24,24,0,0,0-.1-4.56,34.12,34.12,0,0,0-.9-4.59,27.67,27.67,0,0,0-1.55-4.34c-2.64-5.6-7-10.56-11.9-14.76A76.87,76.87,0,0,0,225.61,13.3c-1.47-.74-3-1.37-4.51-2.05S218,10,216.47,9.46s-3.12-1.12-4.71-1.61-3.16-1-4.76-1.45a132,132,0,0,0-19.5-4.12A179,179,0,0,0,167.6.62c-6.65-.13-13.32,0-20,.51a213.63,213.63,0,0,0-39.32,6.68c-6.43,1.73-12.77,3.76-19,6a178.43,178.43,0,0,0-18.41,7.65,157.09,157.09,0,0,0-17.35,9.77,146.7,146.7,0,0,0-16,11.87A103,103,0,0,0,23.72,57.27a110.55,110.55,0,0,0-10.79,16.6c-1.55,2.92-2.95,5.92-4.32,8.95A84.47,84.47,0,0,0,5.06,92,68.42,68.42,0,0,0,2,111.39a79.32,79.32,0,0,0,2.19,19.52,83.44,83.44,0,0,0,6.61,18.54A93.45,93.45,0,0,0,21.51,166a95.89,95.89,0,0,0,13.74,14.17,115.87,115.87,0,0,0,16.31,11.22,149.78,149.78,0,0,0,17.6,9.25,167.57,167.57,0,0,0,18.78,6.68q4.78,1.41,9.66,2.5c3.24.77,6.5,1.42,9.78,2a233.14,233.14,0,0,0,39.73,3.7c6.66.06,13.32-.2,20-.66l5-.4c1.66-.15,3.31-.35,5-.52s3.31-.36,5-.6l2.48-.34a9.9,9.9,0,0,1,2.5-.18v0a9.45,9.45,0,0,1-2.45.5l-2.48.35c-1.65.25-3.31.45-5,.62s-3.31.39-5,.55l-5,.42c-6.65.49-13.33.78-20,.75a235.68,235.68,0,0,1-39.86-3.53,188.67,188.67,0,0,1-38.49-10.93c-3.08-1.29-6.17-2.59-9.17-4.07s-6-3.06-8.85-4.73a118.18,118.18,0,0,1-16.59-11.32,97.47,97.47,0,0,1-14.06-14.37,94.85,94.85,0,0,1-11-16.83,85,85,0,0,1-6.85-18.92,75.78,75.78,0,0,1-2.2-20A70.16,70.16,0,0,1,3.36,91.49a86.12,86.12,0,0,1,3.69-9.38c1.4-3,2.84-6.06,4.44-9A110.43,110.43,0,0,1,22.56,56.34,104.14,104.14,0,0,1,36.68,42.06,148.52,148.52,0,0,1,52.86,30.2a157,157,0,0,1,17.55-9.71A223.26,223.26,0,0,1,108.1,7,213.88,213.88,0,0,1,147.59.48c6.67-.47,13.35-.57,20-.41a196.59,196.59,0,0,1,20,1.49c13.23,1.81,26.38,4.73,38.86,9.82a77.61,77.61,0,0,1,17.7,9.89,57.92,57.92,0,0,1,7.61,6.92,37.14,37.14,0,0,1,6,8.61,31,31,0,0,1,1.92,5,36.42,36.42,0,0,1,1.14,5.16,28.32,28.32,0,0,1,.27,5.37,25.92,25.92,0,0,1-2.87,10.39,25.17,25.17,0,0,1-3,4.45,28.38,28.38,0,0,1-8.26,6.6,31.72,31.72,0,0,1-4.84,2.1,29.24,29.24,0,0,1-5.13,1.07,22.4,22.4,0,0,1-10.49-1.05,7.1,7.1,0,0,1-2.51-1.62,5.39,5.39,0,0,1-1.45-2.84,4.88,4.88,0,0,1,.5-3.2,5.06,5.06,0,0,1,2.28-2.07A62.57,62.57,0,0,1,235,62.89H235c1.63-.35,3.27-.65,4.91-.95.81-.15,1.64-.24,2.47-.36A6.12,6.12,0,0,1,244.85,61.61Z"/><path class="cls-1" d="M78.45,17.94l-6.2,3.86c-2.07,1.28-4.15,2.55-6.16,3.92a132.47,132.47,0,0,0-11.72,8.64A107.17,107.17,0,0,0,34.54,55.45,122,122,0,0,0,26.6,67.58a106.53,106.53,0,0,0-6.2,13,91.91,91.91,0,0,0-6.14,28.05A72.76,72.76,0,0,0,14.72,123a97.85,97.85,0,0,0,3,14.06,96.72,96.72,0,0,0,11.9,26.07,110.64,110.64,0,0,0,18.5,22.1,108,108,0,0,0,23.85,16.41c-9.3-3.08-17.74-8.52-25.18-14.91a112.9,112.9,0,0,1-19.52-22,97.35,97.35,0,0,1-7.29-12.9,95.43,95.43,0,0,1-5.13-13.91,91.88,91.88,0,0,1-2.92-14.53,75.13,75.13,0,0,1-.28-14.84,93.89,93.89,0,0,1,6.69-28.71,97.88,97.88,0,0,1,6.55-13.22,125.54,125.54,0,0,1,8.33-12.12A105.11,105.11,0,0,1,53.76,33.59a132.17,132.17,0,0,1,12.05-8.31C67.87,24,70,22.75,72.1,21.56Z"/><path class="cls-1" d="M9.12,117.63q.42,4.61,1.18,9.15c.53,3,1.19,6,2,9A96.26,96.26,0,0,0,18.64,153a93.71,93.71,0,0,0,22.22,29.09,86.71,86.71,0,0,1-13-13.13,89,89,0,0,1-5.39-7.54c-1.64-2.61-3.17-5.31-4.55-8.08A84.45,84.45,0,0,1,11.51,136a76.05,76.05,0,0,1-1.74-9.1A73.17,73.17,0,0,1,9.12,117.63Z"/><path class="cls-1" d="M6.9,120.55c.4,3.29.87,6.56,1.56,9.78S10,136.75,11,139.88a90.71,90.71,0,0,0,3.55,9.21c.66,1.5,1.39,3,2.11,4.45s1.5,2.92,2.35,4.33a89.81,89.81,0,0,0,5.37,8.26,91.12,91.12,0,0,0,6.15,7.71,88.4,88.4,0,0,0,7,7c2.46,2.2,5,4.35,7.63,6.32A86.21,86.21,0,0,1,18,158.44a84,84,0,0,1-7.89-18.29c-.47-1.6-.91-3.2-1.3-4.81s-.67-3.26-1-4.9A66.94,66.94,0,0,1,6.9,120.55Z"/><path class="cls-1" d="M3.85,110.79a99.82,99.82,0,0,0,1.29,15.45,95.14,95.14,0,0,0,3.8,15,87.67,87.67,0,0,0,6.28,14.11,139.09,139.09,0,0,0,8.22,13.13,59.49,59.49,0,0,1-4.91-6.05,63.82,63.82,0,0,1-4.18-6.6,86.94,86.94,0,0,1-6.26-14.3,85.23,85.23,0,0,1-3.54-15.19A84.17,84.17,0,0,1,3.85,110.79Z"/><path class="cls-1" d="M11.31,93.17a111.68,111.68,0,0,1,15-31.53A112.79,112.79,0,0,1,37.3,48,120.06,120.06,0,0,1,50.17,36.2,140.67,140.67,0,0,0,37.8,48.49,137.65,137.65,0,0,0,27.12,62.23c-1.66,2.37-3.2,4.83-4.69,7.32s-2.92,5-4.23,7.61A133.33,133.33,0,0,0,11.31,93.17Z"/><path class="cls-1" d="M7,101.49a125.77,125.77,0,0,1,4.13-14.23,122.15,122.15,0,0,1,5.94-13.58,117.83,117.83,0,0,1,7.57-12.75c1.4-2,2.84-4.06,4.38-6,.77-1,1.51-2,2.3-2.91l2.43-2.81c.8-.95,1.66-1.84,2.52-2.72S38,44.71,38.9,43.83c1.81-1.68,3.56-3.44,5.47-5a115.68,115.68,0,0,1,11.76-9,123.89,123.89,0,0,1,12.75-7.56,127.49,127.49,0,0,1,13.59-5.88,129.41,129.41,0,0,0-13.32,6.41,126.73,126.73,0,0,0-12.51,7.78c-1,.7-2,1.4-3,2.16s-2,1.46-2.94,2.22c-1.91,1.54-3.83,3.07-5.64,4.72s-3.59,3.34-5.36,5c-.86.88-1.69,1.78-2.54,2.66S35.49,49.09,34.71,50l-2.43,2.76c-.79.94-1.53,1.91-2.3,2.87-1.56,1.89-3,3.87-4.41,5.88A132.79,132.79,0,0,0,17.91,74.1a124.56,124.56,0,0,0-6.18,13.37A126.69,126.69,0,0,0,7,101.49Z"/><path class="cls-1" d="M8.72,85.65a104.57,104.57,0,0,1,8.63-17.86c1.72-2.83,3.55-5.6,5.51-8.28s4.06-5.24,6.24-7.74A113.48,113.48,0,0,1,43.44,38,112.19,112.19,0,0,1,59.93,27a123.39,123.39,0,0,0-42,41.12A136.38,136.38,0,0,0,8.72,85.65Z"/><path class="cls-1" d="M225.83,73.29A16.48,16.48,0,0,0,242.62,69a21.42,21.42,0,0,0,2.84-3.47,17.53,17.53,0,0,0,2.06-3.93A24.3,24.3,0,0,0,249,52.84a38.76,38.76,0,0,0-.31-4.54c-.09-.77-.22-1.49-.33-2.24s-.29-1.48-.5-2.2a32,32,0,0,0-3.53-8.31,46.43,46.43,0,0,0-5.52-7.27,40.1,40.1,0,0,0-6.84-6c-1.24-.88-2.54-1.72-3.85-2.54s-2.61-1.65-3.94-2.42a73.92,73.92,0,0,0-8.26-4.12c-2.83-1.22-5.74-2.27-8.68-3.27S201.33,8,198.35,7.1A170,170,0,0,0,180.2,3c-6.12-1-12.3-1.76-18.5-2.4a144.86,144.86,0,0,1,37,5.2c3,.84,6,1.76,9,2.74s5.92,2,8.81,3.22a76.94,76.94,0,0,1,8.47,4.12c2.73,1.56,5.37,3.2,8,5A41.86,41.86,0,0,1,240,27.16a48.07,48.07,0,0,1,5.73,7.53,33.83,33.83,0,0,1,3.72,8.73c.22.76.35,1.55.53,2.32s.26,1.58.35,2.36a41.13,41.13,0,0,1,.33,4.73A25.22,25.22,0,0,1,249,62.22a18.65,18.65,0,0,1-2.28,4.24,20.87,20.87,0,0,1-3.17,3.6,17.78,17.78,0,0,1-8.44,4.43,9.93,9.93,0,0,1-1.2.18c-.4,0-.79.09-1.2.1a13.52,13.52,0,0,1-2.39-.16A17.73,17.73,0,0,1,225.83,73.29Z"/><path class="cls-1" d="M254.58,47.86a18.13,18.13,0,0,1,.89,6.91,19,19,0,0,1-1.76,6.81,22.22,22.22,0,0,1-4,5.78,22.55,22.55,0,0,1-5.38,4.41,31.33,31.33,0,0,0,4.85-4.85,27.44,27.44,0,0,0,3.62-5.74,23,23,0,0,0,1.79-6.49A26.94,26.94,0,0,0,254.58,47.86Z"/><path class="cls-1" d="M252.44,45.28a23.42,23.42,0,0,1,.11,13.44A26.32,26.32,0,0,1,251,63a21.85,21.85,0,0,1-5.31,7.35,16.38,16.38,0,0,1-8.05,4,17.1,17.1,0,0,0,4.09-1.77,16.3,16.3,0,0,0,3.52-2.66,23.24,23.24,0,0,0,5-7.23,29.85,29.85,0,0,0,2.46-8.47A29.11,29.11,0,0,0,252.44,45.28Z"/><path class="cls-1" d="M251.45,46.55A21.54,21.54,0,0,1,252.1,52a24,24,0,0,1-.65,5.53,20.16,20.16,0,0,1-5.4,9.6,30.1,30.1,0,0,0,4.54-9.81,31.75,31.75,0,0,0,.83-5.34A39.92,39.92,0,0,0,251.45,46.55Z"/><path class="cls-1" d="M252.56,38.55a41.28,41.28,0,0,0-5.71-9.22A51.85,51.85,0,0,0,239,21.86,63.28,63.28,0,0,0,229.85,16a107.32,107.32,0,0,0-9.84-4.6A149.43,149.43,0,0,0,177.8,1.27a141.62,141.62,0,0,1,21.58,3.17,133.62,133.62,0,0,1,20.85,6.43c6.72,2.79,13.35,6,19.08,10.59a47.85,47.85,0,0,1,7.81,7.64A37.27,37.27,0,0,1,252.56,38.55Z"/><path class="cls-1" d="M248.12,33a75.36,75.36,0,0,0-10.29-10.46,65.69,65.69,0,0,0-12.24-8c-2.18-1.1-4.42-2.1-6.68-3.06s-4.51-1.9-6.82-2.73A111.24,111.24,0,0,0,198,4.62a99.19,99.19,0,0,1,14.25,3.72q3.49,1.19,6.89,2.63c2.26.95,4.52,1.94,6.72,3a65.57,65.57,0,0,1,6.42,3.66A60.59,60.59,0,0,1,248.12,33Z"/><path class="cls-1" d="M247.1,34.51a56.69,56.69,0,0,0-11.52-12.13,76.11,76.11,0,0,0-6.88-4.79c-2.36-1.49-4.8-2.87-7.3-4.12a115.39,115.39,0,0,0-15.6-6.2A137.45,137.45,0,0,0,189.54,3a121.61,121.61,0,0,1,16.39,3.89c2.68.85,5.35,1.72,8,2.72s5.22,2.11,7.74,3.36a77.67,77.67,0,0,1,14.28,9A49.39,49.39,0,0,1,247.1,34.51Z"/></g></g></svg>