<svg xmlns="http://www.w3.org/2000/svg" viewBox="0 0 446.01 470.22"><defs><style>.cls-1{fill:#fff;}</style></defs><title>GG_white_simple3</title><g id="Layer_2" data-name="Layer 2"><g id="Simp3_wht_thick_line_copy" data-name="Simp3_wht thick line copy"><path class="cls-1" d="M141.78,139.82c.11,0,0,0,0,0l-.1.07-.19.17-.37.37c-.24.26-.46.53-.67.8-.44.55-.85,1.12-1.26,1.69-.79,1.15-1.49,2.37-2.16,3.59a50.75,50.75,0,0,0-3.29,7.63,55.7,55.7,0,0,0-2,8c-.24,1.35-.47,2.65-.59,4a26.48,26.48,0,0,0-.19,4.07,34.9,34.9,0,0,0,3.93,15.37c.61,1.18,1.28,2.33,2,3.47s1.47,2.34,2.21,3.42a70.2,70.2,0,0,0,4.93,6.25,52.2,52.2,0,0,0,5.72,5.49c1,.86,2.06,1.78,3.14,2.66s2.09,1.82,3.07,2.74l1.55,1.38c.55.48,1.13,1,1.67,1.53,1.08,1.07,2,2.08,3,3.14s2,2.12,2.95,3.27a28.46,28.46,0,0,1,2.63,3.7,29.36,29.36,0,0,1,4.48,17,16.23,16.23,0,0,1-.69,4.31,35.07,35.07,0,0,1-1.64,4.08,18.07,18.07,0,0,1-5.12,6.71v0l-.18-.23A28.58,28.58,0,0,0,173,240.89a48.53,48.53,0,0,0,1.77-7.8,43.27,43.27,0,0,0,.26-7.89A46.35,46.35,0,0,0,171.53,210a44.27,44.27,0,0,0-3.61-6.89,54.11,54.11,0,0,0-4.69-6.27l-.66-.77c-.2-.23-.38-.43-.6-.65l-1.41-1.44L157.64,191c-2-1.95-3.86-4-5.78-6A131.37,131.37,0,0,1,141,172a27.84,27.84,0,0,1-2.23-3.87,39.45,39.45,0,0,1-1.76-4,23.1,23.1,0,0,1-1.47-8.81,25.94,25.94,0,0,1,1.85-8.45,24.64,24.64,0,0,1,1.95-3.79c.37-.6.77-1.17,1.19-1.74l.63-.83.32-.41.15-.21.06-.11S141.72,139.7,141.78,139.82Zm.12-.17c.09.09.1.13.18.21l.27.23a1.58,1.58,0,0,1,.4.43,1.36,1.36,0,0,1-.14.27l-.27.46c-.17.3-.35.58-.53.86-.34.57-.75,1.11-1.1,1.68a19.6,19.6,0,0,0-1.9,3.56,23.45,23.45,0,0,0-1.23,8c.06,5.41,2.81,10.45,6,14.79,3.42,4.24,7.33,8.23,11.15,12.2l5.73,6,2.87,3c.94,1,1.94,2,2.79,3.13a47.75,47.75,0,0,1,11.51,30.76,42.21,42.21,0,0,1-.74,8.32,45.06,45.06,0,0,1-2.38,8,31.89,31.89,0,0,1-3.87,7.38,28,28,0,0,1-5.83,5.93l-.18-.23h0a17.68,17.68,0,0,0,4.22-6.89,24.74,24.74,0,0,0,1.06-8,28.22,28.22,0,0,0-4.7-15.22,34.34,34.34,0,0,0-5.37-6.08c-1-1-2-1.95-3-2.87s-2.12-1.76-3.22-2.67c-2.2-1.82-4.33-3.62-6.47-5.49a56.17,56.17,0,0,1-6.06-6,64.37,64.37,0,0,1-9.29-14.3,39.41,39.41,0,0,1-3.58-16.83,30.63,30.63,0,0,1,1.35-8.51c.38-1.38.75-2.76,1.17-4.12s.92-2.7,1.47-4a49.09,49.09,0,0,1,3.94-7.58,38.32,38.32,0,0,1,2.46-3.48,15.51,15.51,0,0,1,1.46-1.57c.26-.25.52-.5.8-.73a2.57,2.57,0,0,1,.49-.27,1.36,1.36,0,0,0,.24-.13l.12-.09C141.74,139.69,141.7,139.61,141.9,139.65Z"/><path class="cls-1" d="M73.62,123.67c2.74-1.75,5.49-3.51,8.29-5.18s5.69-3.2,8.64-4.64,6-2.63,9.08-3.72,6.23-2,9.41-2.87c.79-.22,1.59-.39,2.39-.59s1.6-.38,2.4-.56c1.62-.32,3.25-.7,4.89-1a36.26,36.26,0,0,1,10.26-.54,17.7,17.7,0,0,1,5.51,1.16,8.35,8.35,0,0,1,2.66,1.87,8.59,8.59,0,0,1,1.08,1.44,6.8,6.8,0,0,1,.42.8c.1.24.2.5.29.76a7,7,0,0,1,.31,3.76,4.69,4.69,0,0,1-1.11,2.11,4.18,4.18,0,0,1-1.88,1.11,7.38,7.38,0,0,1-3,.12,9.35,9.35,0,0,1-1.39-.22l-.71-.2-.39-.15-.28-.14c-.05-.05-.13,0-.17-.23s0-.17.06-.29.22-.26.35-.28h0c.1.15.36.12.55.13s.4,0,.6,0a9.3,9.3,0,0,0,1.17-.23,6.86,6.86,0,0,0,2.13-.81,1.4,1.4,0,0,0,.66-1.34,4.6,4.6,0,0,0-.61-1.71,4.68,4.68,0,0,0-1.2-1.45,11.23,11.23,0,0,0-1.64-1.14,16,16,0,0,0-4.1-1.82,30.75,30.75,0,0,0-9.42-.62,60.81,60.81,0,0,0-9.55,1.42A96.92,96.92,0,0,0,91,114.94q-4.47,1.91-8.79,4.16c-1.45.74-2.86,1.55-4.29,2.32l-4.33,2.27Z"/><path class="cls-1" d="M87.9,117a49.15,49.15,0,0,1,5.45-2.68c1.86-.79,3.72-1.6,5.65-2.25a58.44,58.44,0,0,1,11.94-2.66,51.15,51.15,0,0,1,12.3.14c1,.15,2.05.34,3.06.58.5.12,1,.25,1.51.39a8.77,8.77,0,0,1,1.55.56,6.56,6.56,0,0,1,1.41.88A4.58,4.58,0,0,1,132,113.3a2.63,2.63,0,0,1,.33.93,1.39,1.39,0,0,1,0,.57,1.46,1.46,0,0,1-.24.47,2.69,2.69,0,0,1-1.27,1,1.58,1.58,0,0,0,.4-.62,5.14,5.14,0,0,0,.25-.68c.08-.24-.07-.25-.17-.37a1.72,1.72,0,0,0-.43-.32,16.71,16.71,0,0,0-2.32-1.14,25.21,25.21,0,0,0-2.69-.84c-.94-.24-1.9-.44-2.86-.6a49.54,49.54,0,0,0-11.81-.36,57.55,57.55,0,0,0-11.77,1.9A96.53,96.53,0,0,0,87.9,117Z"/><path class="cls-1" d="M86.28,85.72c1.9-.59,3.63-1.35,5.28-1.94.82-.27,1.73-.67,2.59-1s1.71-.76,2.53-1.19a26.44,26.44,0,0,0,4.59-3.07c1.4-1.18,2.84-2.47,4.12-3.75a19.93,19.93,0,0,0,1.76-2,6.2,6.2,0,0,0,.62-1,2.26,2.26,0,0,0,.17-.48c.06-.21.12-.42.16-.61a2.16,2.16,0,0,0-.14-1.72,2.36,2.36,0,0,0-1-.78c-.26-.1-.53-.17-.86-.27a4.81,4.81,0,0,0-.87-.11,4.61,4.61,0,0,0-1.77.21,3.53,3.53,0,0,0-1.49,1.15,5.94,5.94,0,0,0-1,2.15v0l-.91-.52a6.05,6.05,0,0,0,1.31-1.07,4.07,4.07,0,0,1,.4-.43,1.6,1.6,0,0,1,.94-.36,2.34,2.34,0,0,1,1.47.47,2.53,2.53,0,0,1,.51.42,3.15,3.15,0,0,1,.42.56,3.27,3.27,0,0,1,.4,1.25,4,4,0,0,1-.43,2.4,13.57,13.57,0,0,1-2.82,3.11c-.5.45-1,.88-1.54,1.3l-.8.62-.42.29-.21.15-.11.07-.06,0s-.07.06,0,0l-.1.08C97,80.88,94.88,82,92.75,83c-1.07.51-2.16,1-3.24,1.46l-1.64.7-.82.34-.41.17C86.47,85.76,86.46,85.71,86.28,85.72Zm-.17.06a1.45,1.45,0,0,1,.44-.32l.39-.2.78-.42L89.28,84l3.09-1.74c2-1.14,4.08-2.35,6-3.66l-.11.09.47-.36.37-.3.73-.62c.48-.43,1-.88,1.4-1.33a12.83,12.83,0,0,0,2.32-2.81,2.3,2.3,0,0,0,.16-1.37,1.74,1.74,0,0,0-.22-.57,1.62,1.62,0,0,0-.17-.19,1.14,1.14,0,0,0-.23-.2,1,1,0,0,0-.29-.16h0s.07,0,.06,0a1.64,1.64,0,0,0-.3.24,4.5,4.5,0,0,1-2,1l-.72.16-.18-.67v0a6.26,6.26,0,0,1,0-3.3,5.68,5.68,0,0,1,2-3,7,7,0,0,1,3.46-1.41,7.42,7.42,0,0,1,1.94,0,7.91,7.91,0,0,1,1.9.48,6.13,6.13,0,0,1,3.43,3.26,5.92,5.92,0,0,1,.45,2.51,7.23,7.23,0,0,1-.37,2.1,8.13,8.13,0,0,1-.31.81,6.73,6.73,0,0,1-.51,1,10.33,10.33,0,0,1-1.21,1.54,21.39,21.39,0,0,1-2.4,2.17A54.62,54.62,0,0,1,103.15,81a26.39,26.39,0,0,1-5.52,2.58c-1,.32-1.92.58-2.86.82l-1.41.33-.71.15-.84.14c-1.1.18-2.24.27-3.21.34A12.32,12.32,0,0,0,86.11,85.78Z"/><path class="cls-1" d="M5.73,151.39l3.18-7.1a36.38,36.38,0,0,1,1.77-3.46l1.88-3.41c1.25-2.28,2.49-4.57,3.77-6.83s2.64-4.48,3.87-6.76c2.48-4.56,4.78-9.2,6.94-13.92s4.42-9.38,6.08-14.23c.86-2.45,1.73-4.87,2.36-7.3A40.9,40.9,0,0,0,36.72,81a37.52,37.52,0,0,0-.09-7.42,20.1,20.1,0,0,0-.8-3.57,20.78,20.78,0,0,0-1.48-3.38A6.82,6.82,0,0,0,32,64.17a7.69,7.69,0,0,0-3.31-1.06,13.71,13.71,0,0,0-7.13,1.63A9.72,9.72,0,0,0,18.66,67a7.33,7.33,0,0,0-1,1.51A7.79,7.79,0,0,0,17,70.22a3.34,3.34,0,0,0,.85,3.26,4.15,4.15,0,0,0,3.31,1.26v.47a4.21,4.21,0,0,1-3-1.69,3.57,3.57,0,0,1-.47-3.63,4.48,4.48,0,0,1,1.26-1.55c.24-.21.49-.39.72-.56s.53-.36.81-.52a8,8,0,0,1,3.86-1.06,7.58,7.58,0,0,1,4.07,1.16A8.4,8.4,0,0,1,30,68.62c.24.23.43.42.66.67a10.16,10.16,0,0,1,.65.82,17.58,17.58,0,0,1,2.78,7,25.8,25.8,0,0,1,.31,7.12A47.4,47.4,0,0,1,33.06,91a96.23,96.23,0,0,1-4.52,12.64q-2.53,6.15-5.49,12.1c-.94,2-1.87,4-2.89,6l-2.92,5.94c-1.91,4-4.21,7.76-6.12,11.73S7.42,147.37,5.73,151.39Zm0,0c.78-2.11,1.64-4.1,2.5-6.15s1.71-4.07,2.62-6.08c1.79-4,3.9-7.94,5.74-11.93s3.84-7.91,5.55-12,3.37-8.12,4.82-12.27a102.64,102.64,0,0,0,3.69-12.58A44.22,44.22,0,0,0,31.56,84a24.58,24.58,0,0,0-.48-6.35A15,15,0,0,0,28.74,72a12.58,12.58,0,0,0-1-1.14,9.44,9.44,0,0,0-1.13-1A5.87,5.87,0,0,0,24,68.78a6.52,6.52,0,0,0-2.87.26,8.83,8.83,0,0,0-1.37.63,2.48,2.48,0,0,0-1,3.48,2.87,2.87,0,0,0,1,1.14,2.91,2.91,0,0,0,1.48.45l2.21.08-2.21.39a4.8,4.8,0,0,1-3.94-1.13,4.48,4.48,0,0,1-1.29-1.83A4.76,4.76,0,0,1,15.7,70a10.44,10.44,0,0,1,.58-2.1,8.88,8.88,0,0,1,1-2,11.83,11.83,0,0,1,3.17-3.1,16.31,16.31,0,0,1,8.4-2.93,10.57,10.57,0,0,1,5,1.09,10.45,10.45,0,0,1,4,3.5,20.24,20.24,0,0,1,1.2,2l.49,1c.15.31.29.59.44,1a16.37,16.37,0,0,1,1.16,4.37,33,33,0,0,1-.36,8.52,44.59,44.59,0,0,1-1.7,8.09c-.84,2.61-1.88,5-2.88,7.44a157.06,157.06,0,0,1-7,14.11c-2.46,4.61-5.06,9.15-7.83,13.57l-4.23,6.56c-1.39,2.19-2.71,4.41-4.06,6.63L11,141a35.25,35.25,0,0,0-1.92,3.41C7.88,146.77,6.78,149.11,5.71,151.43Z"/><path class="cls-1" d="M52.72,166.61a8.64,8.64,0,0,1,2.72-1.34,8.4,8.4,0,0,1,3.12-.24,4.59,4.59,0,0,1,3.16,1.44,13.59,13.59,0,0,0,.87,1.13,5.84,5.84,0,0,0,1,.74,5.36,5.36,0,0,0,4.67.38,3.65,3.65,0,0,0,2-1.09,4.43,4.43,0,0,0,1-2.14v0l-.27-1.53,1.4,1a4.37,4.37,0,0,1,1.7,2.16,8,8,0,0,1,.36,2.61,20.46,20.46,0,0,1-.15,2.57,10.77,10.77,0,0,1-.67,2.47,9.69,9.69,0,0,1-4,5.42,12.41,12.41,0,0,1-1.15.66,8.27,8.27,0,0,1-2.82.83,7.61,7.61,0,0,1-3.13-.31,5.32,5.32,0,0,1-1.59-.81,6.44,6.44,0,0,1-1-1,7.22,7.22,0,0,0-1.33-1.37,8.94,8.94,0,0,0-1.71-1.06,11.78,11.78,0,0,0-8.48-.6,12.46,12.46,0,0,1,9.17-1.5,12.14,12.14,0,0,1,2.37.83,9.77,9.77,0,0,1,2.19,1.41c.66.53.77.52,1.23.57a4.67,4.67,0,0,0,1.47-.12,6.79,6.79,0,0,0,1.61-.6c.27-.14.57-.31.85-.49A5.4,5.4,0,0,0,68,176a9.63,9.63,0,0,0,2.38-3,14.28,14.28,0,0,0,1.37-3.69,7.5,7.5,0,0,0,.29-1.76,2.62,2.62,0,0,0-.52-1.55l1.13-.55s0,0,0,0a4.73,4.73,0,0,1-.49,3.6,5.72,5.72,0,0,1-3,2.44,9.71,9.71,0,0,1-1.69.49,7.22,7.22,0,0,1-3.85-.39,8.35,8.35,0,0,1-1.64-1,7.11,7.11,0,0,1-1.38-1.31,6.59,6.59,0,0,1-.54-.84c-.15-.28-.21-.42-.25-.51a2.7,2.7,0,0,0-1.54-1.1A10.12,10.12,0,0,0,52.72,166.61Z"/><path class="cls-1" d="M176.63,186a.29.29,0,0,0,.06-.17s.08-.1.12-.14l.29-.3.59-.6c.41-.38.83-.75,1.25-1.12.86-.73,1.76-1.39,2.66-2.05a23.93,23.93,0,0,1,3-1.81,19.06,19.06,0,0,1,3.37-1.23,25.81,25.81,0,0,1,3.42-.63c1.09-.14,2.17-.29,3.32-.4a23.18,23.18,0,0,1,7.17.51,25.74,25.74,0,0,1,6.68,2.68,24,24,0,0,1,5.62,4.51,35.27,35.27,0,0,1,4.29,5.52,31.29,31.29,0,0,1,3.07,6.35,42,42,0,0,1,1.69,6.71,47.27,47.27,0,0,1,.55,6.82,56.45,56.45,0,0,1-1.52,13.45c-.27,1.12-.5,2.12-.84,3.29l-.95,3.13-1.95,6.23A43.45,43.45,0,0,0,217,243a29.9,29.9,0,0,0-.32,3.13c-.06,1.06,0,2.12,0,3.18v0l-1.23-.55c1.22-.93,2.49-1.8,3.67-2.78l3.55-2.93a61.66,61.66,0,0,0,6.61-6.32,66.29,66.29,0,0,0,10.29-15c.69-1.35,1.3-2.73,1.9-4.14a41.19,41.19,0,0,0,1.56-4.22,34.68,34.68,0,0,0,1.66-8.73,28.19,28.19,0,0,0-1-8.69,29.66,29.66,0,0,0-3.78-7.86,28.5,28.5,0,0,0-5.92-6.43,37.29,37.29,0,0,0-7.63-4.55,44.69,44.69,0,0,0-8.46-3.09,41,41,0,0,0-8.86-1.23,40.36,40.36,0,0,0-8.9.82,58.63,58.63,0,0,0-8.65,2.6,30.33,30.33,0,0,0-7.86,4.1c-1.21.86-2.35,1.81-3.53,2.76-.59.48-1.15,1-1.72,1.51l-.87.77C177.22,185.6,177,185.94,176.63,186Zm-.12.13a1.65,1.65,0,0,1,.13-.34l.17-.26.32-.49.66-1c.47-.63,1-1.24,1.46-1.84a29.83,29.83,0,0,1,3.33-3.32,32.08,32.08,0,0,1,8.09-4.9,57.91,57.91,0,0,1,8.93-3.15,42.26,42.26,0,0,1,9.52-1.17,44.75,44.75,0,0,1,9.6,1.05,45.29,45.29,0,0,1,9.1,3.13,35.67,35.67,0,0,1,8.42,4.91,32.08,32.08,0,0,1,6.61,7.3,30.66,30.66,0,0,1,4.08,8.95,31.17,31.17,0,0,1,.88,9.75,37.89,37.89,0,0,1-2,9.44A45.28,45.28,0,0,1,244,218.7c-.64,1.42-1.33,2.86-2.08,4.25a68.94,68.94,0,0,1-11.06,15.25,63,63,0,0,1-7,6.27l-3.71,2.86c-1.23.95-2.54,1.8-3.81,2.7l-1.12.79-.12-1.34v0c-.08-1.12-.24-2.23-.26-3.36a27.12,27.12,0,0,1,.12-3.37,44.27,44.27,0,0,1,1.22-6.55l1.61-6.36c.27-1.06.57-2.12.86-3.16s.5-2.09.72-3.12a53.27,53.27,0,0,0,1.17-12.76,43.18,43.18,0,0,0-2.21-12.53,30,30,0,0,0-6.67-10.64A21.05,21.05,0,0,0,201,181.43a21.49,21.49,0,0,0-6.2-.65c-2.14.09-4.37.2-6.42.45a19.33,19.33,0,0,0-6,1.94c-1,.46-2,.91-2.94,1.42l-1.43.77-.72.4-.35.2-.2.11A.72.72,0,0,1,176.51,186.15Z"/><path class="cls-1" d="M244.92,193.69c0,.77,1.05.62.64.61h.05s0,0,0,.05a1.47,1.47,0,0,1,.07.17.31.31,0,0,1,0,.22l0,.35a1.3,1.3,0,0,1-.25.53l-.1.12,0,.05,0,0-.1.07a.67.67,0,0,1-.17.1c-3.73-4.67-1-1.32-1.85-2.37l.05-.08a3.6,3.6,0,0,1,.44-.49,8.16,8.16,0,0,1,.7-.55,7.37,7.37,0,0,1,1.87-1.09c1.32-.56,2.64-1.11,4-1.64,2.72-1.09,5.44-2,8.14-2.88l4.08-1.31,4.13-1.16c2.75-.77,5.53-1.41,8.31-2,.67-.15,1.45-.32,2.12-.45s1.29-.26,1.81-.42c.26-.09.51-.18.73-.28l.33-.17.44-.26,1.85-1.08c2.46-1.5,4.92-2.81,7.44-4.19a43.88,43.88,0,0,1,8-3.45,40.28,40.28,0,0,1,8.53-1.45l1.95-.14-1.75.9h0a18.76,18.76,0,0,0-5.68,4.67,12.32,12.32,0,0,0-2.32,6.68,25.2,25.2,0,0,0,.06,7.36,24,24,0,0,0,2.24,7,26.8,26.8,0,0,0,4.19,6.07,16.13,16.13,0,0,0,5.86,4.2,16.68,16.68,0,0,0,7.2.89,12.18,12.18,0,0,0,6.73-2.58h0l2.86-2.2-2.07,2.94a36.6,36.6,0,0,1-9.39,9.14,33.21,33.21,0,0,1-5.85,3.14,28.75,28.75,0,0,1-6.45,1.76,25.43,25.43,0,0,1-13.31-1.85,33.17,33.17,0,0,1-5.94-3.24,40.24,40.24,0,0,1-5.12-4.36c-3.18-3.18-5.29-7.22-7.19-11.17l-.68-1.52-.65-1.53c-.2-.52-.4-1-.59-1.57a3.63,3.63,0,0,0-.58-1.13,1.34,1.34,0,0,0-.76-.48,2.87,2.87,0,0,0-1.26,0c-.95.2-1.89.75-3,1.1-2.06.64-4.12,1.32-6.19,1.93s-4.15,1.22-6.24,1.78l-1.56.42-.39.11-.26.11-.7.36-1.47.74a4.59,4.59,0,0,1-.75.48,2.56,2.56,0,0,1-.53.13,1.24,1.24,0,0,1-.51,0,.93.93,0,0,1-.26-.1l-.09-.06-.15-.12a2.66,2.66,0,0,1-.63-.94,6.1,6.1,0,0,1-.29-.85c-.14-.56-.23-1.1-.34-1.62l-.08-.38a1.5,1.5,0,0,1-.06-.61,4.88,4.88,0,0,1,.24-.9Zm1,.26c-.14.61-.29,1.08-.39,1.6a2.92,2.92,0,0,0-.08.65c0,.11,0-.16.07.1l.15.41c.19.52.37,1,.57,1.46a4.3,4.3,0,0,0,.32.61c.1.16.25.31.24.26l0,0,0,0a1.17,1.17,0,0,0-.26-.1c-.2,0-.23,0-.23,0l.17-.09.63-.31,1.4-.71.75-.38a3.75,3.75,0,0,1,.58-.23l.4-.11,1.55-.42c2.07-.56,4.12-1.18,6.19-1.77s4.09-1.29,6.13-1.93c.9-.26,1.87-.84,3.08-1.12a5.12,5.12,0,0,1,2.07-.15,3.35,3.35,0,0,1,2,1.21,5.28,5.28,0,0,1,.91,1.8c.16.49.34,1,.52,1.46.37,1,.84,1.87,1.28,2.8a41.3,41.3,0,0,0,7.29,10.21,35.58,35.58,0,0,0,10.22,7.21,23.31,23.31,0,0,0,12,2.06,27.16,27.16,0,0,0,6-1.43,32.31,32.31,0,0,0,5.63-2.77,34.91,34.91,0,0,0,9.38-8.43l.79.74h0a13,13,0,0,1-7.25,3.52c-.68.1-1.33.16-2,.21a14.12,14.12,0,0,1-2.06,0,15.39,15.39,0,0,1-4.11-.78,18.52,18.52,0,0,1-7-4.52,27.3,27.3,0,0,1-4.79-6.61,25.8,25.8,0,0,1-2.6-7.8,27,27,0,0,1-.36-4.12,26.13,26.13,0,0,1,.36-4.09,19.18,19.18,0,0,1,1-4.05,10.76,10.76,0,0,1,2.4-3.68,12.17,12.17,0,0,1,1.6-1.38,12.94,12.94,0,0,1,1.72-1.11,14.09,14.09,0,0,1,3.76-1.48h0l.2.76a33.64,33.64,0,0,0-8,2.22,42.45,42.45,0,0,0-7.24,4.08c-2.33,1.55-4.67,3.22-7,4.75l-1.76,1.16-.45.3c-.18.12-.37.23-.56.34a10.7,10.7,0,0,1-1.15.52,13.53,13.53,0,0,1-2.22.62l-2,.46c-5.47,1.34-11,2.64-16.41,4.12-2.72.75-5.45,1.47-8.09,2.42-1.33.46-2.66,1-4,1.45l-2,.76a2,2,0,0,0-.38.18l-.12.09h0l-.59-.74,0,0h0l.1-.08c.14-.1.27-.22.41-.33l.21-.18.12-.09.08-.05.07,0,.07,0C244.82,193.32,245.93,193.18,245.89,194Z"/><path class="cls-1" d="M169.65,85.68l4.32.4,2.16.19,2.15.29,8.6,1.15c1.43.22,2.86.45,4.29.72s2.83.54,4.26.76A61.68,61.68,0,0,1,204,91l-.29,1a61.12,61.12,0,0,0-8.38-2c-1.43-.26-2.85-.58-4.25-.89s-2.83-.58-4.25-.84l-8.55-1.39-2.14-.35L174,86.2Z"/><path class="cls-1" d="M191.38,127.24a29.42,29.42,0,0,0,4.31-6.26,60.68,60.68,0,0,0,2.94-7q1.27-3.59,2.23-7.26c.32-1.22.62-2.46.89-3.69l.39-1.85.18-.93.08-.46,0-.23,0-.12a.09.09,0,0,0,0,.07v-.18a60.73,60.73,0,0,0,.91-10.8,58.14,58.14,0,0,0-1.14-10.67c-.35-1.76-.74-3.5-1.24-5.22-.27-.87-.51-1.69-.81-2.52s-.61-1.69-.93-2.52a84.92,84.92,0,0,0-4.47-9.72c-.85-1.58-1.73-3-2.71-4.53s-2-3.19-3-4.81-1.86-3.19-2.8-4.9a29.17,29.17,0,0,1-1.36-2.8c-.41-1-.77-1.92-1.09-2.92a30.24,30.24,0,0,1-1.31-6l-.1-1.48c0-.52,0-1.06,0-1.62a12.33,12.33,0,0,1,.7-3.7,8.37,8.37,0,0,1,.86-1.75,8.15,8.15,0,0,1,1.28-1.61,6.8,6.8,0,0,1,1.9-1.38,4.91,4.91,0,0,1,.63-.26,5.11,5.11,0,0,1,.53-.13,5.68,5.68,0,0,1,1.09-.11,4.89,4.89,0,0,1,2.21.42,3.38,3.38,0,0,1,.93.6,7.29,7.29,0,0,1,.6.73,2.89,2.89,0,0,1,.61,1.78,3.76,3.76,0,0,1-.4,1.5h-.06a2.78,2.78,0,0,0-.18-1.32,1.69,1.69,0,0,0-.85-.84,4.37,4.37,0,0,0-.58-.21,1.6,1.6,0,0,0-.52-.06,2.11,2.11,0,0,0-1,.3A2.58,2.58,0,0,0,189,24.21a10.34,10.34,0,0,0-.56,2.14,11.53,11.53,0,0,0-.07,2.3l.24,2.59a41.25,41.25,0,0,0,.75,5.17,26.64,26.64,0,0,0,1.65,5c.73,1.64,1.51,3.32,2.3,5s1.61,3.28,2.46,4.89,1.71,3.33,2.43,5a83.8,83.8,0,0,1,6,21.3,60.92,60.92,0,0,1-.68,22v0c-.52,2.56-1.17,5-1.9,7.44s-1.57,4.86-2.51,7.23a61.53,61.53,0,0,1-3.21,7A29.32,29.32,0,0,1,191.38,127.24Z"/><path class="cls-1" d="M194.55,27.15a9.73,9.73,0,0,1-1.3-2.47,21.48,21.48,0,0,1-.86-2.68,23.26,23.26,0,0,1-.85-5.79,15.89,15.89,0,0,1,1-6.09A13.94,13.94,0,0,1,194,7.26a14.19,14.19,0,0,1,2-2.51,13.76,13.76,0,0,1,2.52-2.06,15.32,15.32,0,0,1,2.86-1.51,13.31,13.31,0,0,1,1.54-.53A16.32,16.32,0,0,1,207.65,0a10,10,0,0,1,3.45.75,12.14,12.14,0,0,1,1.43.81,7.59,7.59,0,0,1,1.39,1.12A5.08,5.08,0,0,1,215.34,6a4.55,4.55,0,0,1-1,2.93h0l-.2.24V8.86a2.12,2.12,0,0,0-1-1.93A4.51,4.51,0,0,0,211,6.3a5.5,5.5,0,0,0-1.14.07,7.6,7.6,0,0,0-1.15.21,5.1,5.1,0,0,0-1.88.93,4.78,4.78,0,0,0-1.68,3.63,11.87,11.87,0,0,0,0,2.06,4,4,0,0,0,.18,1,2.62,2.62,0,0,0,.19.46.81.81,0,0,1,.06.65l0,0-.77.08a2.17,2.17,0,0,1,1.52-1.13,2.78,2.78,0,0,1,1.82.41A3.2,3.2,0,0,1,209.35,16a5.19,5.19,0,0,1,.56,1.57,5,5,0,0,1-.49,3.17,5.78,5.78,0,0,1-2.06,2.21,14.21,14.21,0,0,0,.68-2.77,5.06,5.06,0,0,0-.21-2.16,3.83,3.83,0,0,0-.38-.91,2.24,2.24,0,0,0-.41-.6l-.52-.43a.74.74,0,0,0-.76,0l-.64.27-.41-.16h0a4.44,4.44,0,0,1-1.35-.92,7.15,7.15,0,0,1-1.17-1.33,4.42,4.42,0,0,1-.8-3.28,9.24,9.24,0,0,1,1.14-3.19A7,7,0,0,1,205,4.92a6.9,6.9,0,0,1,3.26-1,8.93,8.93,0,0,1,1.49,0,7.67,7.67,0,0,1,1.52.29A5.3,5.3,0,0,1,213.93,6a2.83,2.83,0,0,1,.67,1.48,2.68,2.68,0,0,1-.26,1.43l-.18,0h0a4.89,4.89,0,0,0-.06-2.55,3.55,3.55,0,0,0-1.46-1.91,7.21,7.21,0,0,0-2.31-1,6.79,6.79,0,0,0-2.46-.15,14.08,14.08,0,0,0-2.5.52,14.65,14.65,0,0,0-2.4.9,16.28,16.28,0,0,0-4.16,3,17.05,17.05,0,0,0-4.73,9,21.36,21.36,0,0,0-.35,5.25,28.87,28.87,0,0,0,.87,5.26Z"/><path class="cls-1" d="M205.06,26.46a8.18,8.18,0,0,1,4.59-7,9.3,9.3,0,0,1,4.74-1,9.14,9.14,0,0,1,5,1.59,9.85,9.85,0,0,1,1.09.86,8.82,8.82,0,0,1,.93.92,6.85,6.85,0,0,1,1.56,3,6.93,6.93,0,0,1-.19,3.78A8.38,8.38,0,0,1,221,31.54a5.14,5.14,0,0,1-3,1.56,6.6,6.6,0,0,1-2.69-.25L214,32.56a1.17,1.17,0,0,1-.37-.14s0-.08,0-.09a1.22,1.22,0,0,0-.84.38A7.56,7.56,0,0,0,211.66,34c-.35.52-.68,1-1,1.54a10.22,10.22,0,0,0-1.16,3.18,33.41,33.41,0,0,0-.66,7.19c0,2.45.26,5,.47,7.49s.6,5,.77,7.61a107.86,107.86,0,0,1-.06,15.36c-.2,2.56-.49,5.09-.86,7.62s-.76,5-1.28,7.54a76.69,76.69,0,0,1-4.5,14.61c-1,2.34-2,4.65-3.18,6.93l-1.67,3.43c-.58,1.12-1.23,2.22-1.85,3.33.57-1.14,1.18-2.25,1.72-3.4l1.53-3.49c1-2.31,2-4.67,2.9-7a70.44,70.44,0,0,0,3.84-14.6c.37-2.49.61-5,.83-7.53s.36-5,.42-7.53a110.17,110.17,0,0,0-.8-15c-.15-1.23-.35-2.42-.57-3.67s-.4-2.54-.58-3.82c-.32-2.56-.65-5.07-.8-7.76a24.29,24.29,0,0,1,.73-8.13,14.46,14.46,0,0,1,1.78-4c.39-.6.79-1.12,1.17-1.64a13.27,13.27,0,0,1,1.38-1.71,5.1,5.1,0,0,1,2.33-1.41,3.6,3.6,0,0,1,.82-.14H214a2.52,2.52,0,0,0,.71-.07,5.24,5.24,0,0,0,2.59-1.08,2.48,2.48,0,0,0,1-2.11,2.71,2.71,0,0,0-.46-1.23,6.44,6.44,0,0,0-.5-.67,5,5,0,0,0-.54-.58,6.32,6.32,0,0,0-2.93-1.48,7.38,7.38,0,0,0-3.43.07,8,8,0,0,0-5.31,4.68Z"/><path class="cls-1" d="M116.68,286.31a32.52,32.52,0,0,0-11.89-13.4,34.64,34.64,0,0,0-8.08-3.84A26.83,26.83,0,0,0,87.78,268a40.16,40.16,0,0,0-9,1.09,33.9,33.9,0,0,0-8.32,3.21,31,31,0,0,0-7.12,5.24,33.08,33.08,0,0,0-5.52,6.9,32.61,32.61,0,0,0-4.76,16.82A33.09,33.09,0,0,0,58.21,318a39.7,39.7,0,0,0,12.53,12.64,57.39,57.39,0,0,0,16.61,7.11,87.19,87.19,0,0,0,18,3.08c3.07.25,6.1.45,9.15.46a81.65,81.65,0,0,0,9.11-.49c6-.62,12-2.33,17.93-3.81a119.06,119.06,0,0,0,17.43-5.68,138.18,138.18,0,0,0,16.38-8.29c5.29-3.09,10.38-6.55,15.42-10.06l15.13-10.58c5-3.52,10.07-7.08,15.2-10.48h0c-4.77,3.91-9.72,7.57-14.61,11.3s-9.78,7.48-14.73,11.15-10,7.31-15.25,10.62A140,140,0,0,1,160,333.75a121.61,121.61,0,0,1-17.7,6.15c-3,.81-5.94,1.64-9,2.41a75.78,75.78,0,0,1-9.33,1.82,83.61,83.61,0,0,1-9.49.69c-3.17.05-6.35-.1-9.42-.31a91.5,91.5,0,0,1-18.73-3,61.73,61.73,0,0,1-17.77-7.41A46,46,0,0,1,60.8,328a43.9,43.9,0,0,1-6.2-7.69,37,37,0,0,1-6-19,30.19,30.19,0,0,1,.36-5.12,27.81,27.81,0,0,1,1.19-4.88,34.39,34.39,0,0,1,4.39-8.91,37.93,37.93,0,0,1,6.5-7.33,33.38,33.38,0,0,1,8.17-5.25A38.53,38.53,0,0,1,78.38,267a41.92,41.92,0,0,1,9.41-.6,43.25,43.25,0,0,1,9.31,1.3,27.37,27.37,0,0,1,19.65,18.61Z"/><path class="cls-1" d="M85.9,268.1a27.33,27.33,0,0,0-5.6,1.56,26.62,26.62,0,0,0-5.11,2.58,25.63,25.63,0,0,0-4.37,3.59,40,40,0,0,0-3.61,4.38,31.35,31.35,0,0,0-4.9,10,34.35,34.35,0,0,0-1.22,10.88c.06,1.82.3,3.7.54,5.64a36.16,36.16,0,0,0,1,5.4,27.79,27.79,0,0,0,2,5.07A35.38,35.38,0,0,0,67.43,322,37.78,37.78,0,0,0,71,326.31c1.3,1.34,2.77,2.59,4.25,3.86s2.92,2.52,4.5,3.63,3.27,2.05,4.94,3.1a40.34,40.34,0,0,1-10.53-5.29c-1.6-1.11-3.24-2.21-4.79-3.51a31,31,0,0,1-4.26-4.31,38.47,38.47,0,0,1-3.44-5,30.85,30.85,0,0,1-2.55-5.61,29.58,29.58,0,0,1-1.3-6c-.25-1.93-.53-3.91-.62-6a31.59,31.59,0,0,1,.4-6.15,30.31,30.31,0,0,1,1.53-5.94,30.9,30.9,0,0,1,2.63-5.54,37.21,37.21,0,0,1,3.52-4.94A30.49,30.49,0,0,1,74.45,271,28.05,28.05,0,0,1,80,268.85,26.51,26.51,0,0,1,85.9,268.1Z"/><path class="cls-1" d="M75.33,292.27c-1.12-.16-2.25-.26-3.37-.46a33.89,33.89,0,0,1-3.31-.79l-6.55-1.74.28-1,6.42,2.22c1.06.39,2.13.74,3.22,1S74.22,292,75.33,292.27Z"/><path class="cls-1" d="M145.11,224.49a74.8,74.8,0,0,0-4.68,17.71c-.45,3-.91,6.07-1.16,9.11a79.56,79.56,0,0,0-.27,9.13,95.21,95.21,0,0,0,2.39,18.1c.67,3,1.5,5.9,2.44,8.8.46,1.46,1,2.89,1.5,4.32q.4,1.08.84,2.13l.43,1.06.22.53c0,.21.41.23-.31.77-.88.18-.62-.15-.78-.29l-.23-.53-.47-1.06c-.31-.71-.61-1.42-.9-2.14-.57-1.43-1.12-2.88-1.63-4.34a89,89,0,0,1-2.56-8.92,91.91,91.91,0,0,1-2.23-18.4,90,90,0,0,1,1.85-18.41,73.08,73.08,0,0,1,2.17-9A68.85,68.85,0,0,1,145.11,224.49Z"/><path class="cls-1" d="M53.88,285.85l-5-2.44a49.35,49.35,0,0,0-5.18-2.05c-3.53-1.23-7.1-2.38-10.66-3.51a39.59,39.59,0,0,0-5.34-1.39,44.08,44.08,0,0,0-5.47-.64c-.92,0-1.83-.05-2.74,0s-1.85.05-2.74.14a15.79,15.79,0,0,0-2.59.48,21.88,21.88,0,0,0-2.5.9,12.14,12.14,0,0,0-4.16,3,7.57,7.57,0,0,0-2.13,4.35,6.57,6.57,0,0,0,1.06,4.55,6.27,6.27,0,0,0,3.8,2.61A7.73,7.73,0,0,0,15,291.5a8.39,8.39,0,0,0,1.09-.57,9.29,9.29,0,0,1,1.47-.68c.51-.18.92-.32,1.44-.46a8.33,8.33,0,0,1,1.61-.29,12.1,12.1,0,0,1,1.6,0,6.63,6.63,0,0,1,1.68.35,4.89,4.89,0,0,1,2.75,2.29,4.08,4.08,0,0,1,.29,3.45,4.21,4.21,0,0,1-2.05,2.32h0l-.09-.11c.1.07.09,0,.13,0l.09-.07.18-.16.33-.33a4.21,4.21,0,0,0,.58-.74,5.09,5.09,0,0,0,.75-1.65c.29-1.17-.3-2.19-.88-3.25a3.09,3.09,0,0,0-1-1.06,2,2,0,0,0-1.12-.27c-.47,0-1.09,0-1.71,0a7.3,7.3,0,0,0-.86.07,8.27,8.27,0,0,1-.95.08,6,6,0,0,1-1.53-.25,5,5,0,0,1-1.24-.48,4.85,4.85,0,0,1-2.35-2.56,4.61,4.61,0,0,1,.33-3.62,6.84,6.84,0,0,1,1.57-2,13.6,13.6,0,0,1,1.75-1.32,10.82,10.82,0,0,1,2-1,18.11,18.11,0,0,1,4-1,35.51,35.51,0,0,1,15.27,1.21c1.22.35,2.43.73,3.62,1.17s2.34,1,3.48,1.51a48.31,48.31,0,0,1,6.57,3.73v0c-2.3-1-4.58-2.05-6.92-2.9-1.17-.41-2.35-.8-3.54-1.13s-2.37-.72-3.57-1a32,32,0,0,0-14.48-.6,10.23,10.23,0,0,0-3.17,1.3,8.53,8.53,0,0,0-1.3,1,11,11,0,0,0-1.15,1.23A7.53,7.53,0,0,0,18.8,285a1.23,1.23,0,0,0-.15.84,1.4,1.4,0,0,0,.65.75,4.63,4.63,0,0,0,1.24.62,16.21,16.21,0,0,1,1.89.38,19.7,19.7,0,0,1,1.9.54,3.69,3.69,0,0,1,1.75,1.23,4.51,4.51,0,0,1,.83,1.83c.15.62.27,1.24.36,1.87a4.16,4.16,0,0,1-.21,1.85,9.27,9.27,0,0,1-2.26,3l-.44.42.35-.52v0a5.5,5.5,0,0,0,.89-2.46,3.24,3.24,0,0,0-.64-2.16,3.53,3.53,0,0,0-1.77-1.26,5.14,5.14,0,0,0-1.18-.23,9.56,9.56,0,0,0-1.28-.08,9.7,9.7,0,0,0-2.57.52,5.47,5.47,0,0,0-1.19.51,14,14,0,0,1-1.31.73,14.21,14.21,0,0,1-2.92.93,12.15,12.15,0,0,1-3.19.08,9.2,9.2,0,0,1-3.28-1,9.62,9.62,0,0,1-2.93-2.18,10.6,10.6,0,0,1-2-3.26,11.22,11.22,0,0,1-.7-4,10.85,10.85,0,0,1,.19-2,11.64,11.64,0,0,1,2.65-5.45,13.75,13.75,0,0,1,1.2-1.35A15.78,15.78,0,0,1,6.13,274a15.65,15.65,0,0,1,3.27-1.85c.57-.23,1.14-.43,1.67-.6s1.06-.32,1.65-.47a21,21,0,0,1,3.55-.53c1.14-.07,2.18-.06,3.13,0a25.28,25.28,0,0,1,3.13.19,47.67,47.67,0,0,1,6.06,1.12c.48.13,1,.25,1.52.41a15.3,15.3,0,0,1,1.49.5c1,.36,1.86.74,2.74,1.12,3.53,1.49,6.89,3.11,10.31,4.87.84.47,1.69.94,2.53,1.43a19.93,19.93,0,0,1,2.46,1.6L52,283.46l2.24,1.82Z"/><path class="cls-1" d="M149.3,303.31c.6-.11.78,0,.84.1l.21.38.42.77.83,1.55c.6,1,1.18,2,1.74,3,.29.51.55,1,.84,1.53l.93,1.47c.31.49.64,1,1,1.44s.9.75.6,1.78l0,0c-1.07.13-1.21-.55-1.66-1s-.77-.92-1.14-1.39a20.66,20.66,0,0,1-2-3c-.6-1-1.19-2.09-1.73-3.15l-.73-1.64-.37-.82-.18-.41C148.78,303.88,148.82,303.69,149.3,303.31Z"/><path class="cls-1" d="M340.33,153.93a.87.87,0,0,1-.64,0l-.59-.18-1.19-.36-2.38-.72-4.81-1.27c-1.6-.41-3.19-.87-4.81-1.24l-4.86-1-4.86-1c-1.62-.32-3.27-.51-4.91-.77-3.28-.45-6.54-1-9.84-1.35-6.58-.77-13.18-1.38-19.8-1.55-3.3-.07-6.61-.3-9.92-.13l-5,.12-2.49.08-1.24,0c-.42,0-.83.12-1.26-.23.4-.39.82-.29,1.23-.33l1.25-.06,2.48-.11,5-.19c3.32-.21,6.64-.08,10,0a188.51,188.51,0,0,1,19.86,1.62c3.31.34,6.58,1,9.86,1.45,1.64.28,3.29.48,4.91.82l4.87,1.09,4.86,1.09c1.61.39,3.2.87,4.81,1.3a79.22,79.22,0,0,1,9.51,2.95Z"/><path class="cls-1" d="M232.15,128.87c4.1-2.26,8.13-4.65,12.28-6.82a88.28,88.28,0,0,1,13-5.46,117,117,0,0,1,13.71-3.6,80.56,80.56,0,0,1,14.19-1.47c2.34,0,4.69-.13,7.13-.06a42,42,0,0,1,7.32,1,48.54,48.54,0,0,1,13.62,5.36,27.38,27.38,0,0,1,6.07,4.6,20.56,20.56,0,0,1,2.48,3,14.45,14.45,0,0,1,1,1.82,9.59,9.59,0,0,1,.4,1c.06.18.12.37.17.55l.11.48a10.18,10.18,0,0,1,.12,4.34,8.31,8.31,0,0,1-2.05,4,7.42,7.42,0,0,1-1.78,1.42,7.82,7.82,0,0,1-2.11.78,6.73,6.73,0,0,1-2.19.1,6.56,6.56,0,0,1-1.07-.22l-.51-.18-.25-.09c-.09,0-.13-.24.09-1.22s.45-1.13.51-1.12h.53a5.25,5.25,0,0,0,.68-.08,7.06,7.06,0,0,0,1.29-.37,4.34,4.34,0,0,0,1.12-.63,5.34,5.34,0,0,0,.94-.84,5.45,5.45,0,0,0,1-5,11,11,0,0,0-3.2-5.08,23.19,23.19,0,0,0-5.26-3.92,68,68,0,0,0-6.1-3A45.64,45.64,0,0,0,299,116a40.15,40.15,0,0,0-6.72-1.14c-2.28-.19-4.61-.25-7-.32a89.86,89.86,0,0,0-27.58,3,71.54,71.54,0,0,0-13.09,4.86C240.4,124.44,236.3,126.69,232.15,128.87Z"/><path class="cls-1" d="M238.72,125.46c3.3-1.71,6.64-3.35,10.09-4.75a47,47,0,0,1,5.32-1.69,53.71,53.71,0,0,1,5.5-1c3.68-.47,7.36-1,11.09-1.32a104.88,104.88,0,0,1,11.22-.27q2.81.09,5.63.37c1.85.17,3.72.4,5.6.75a48.92,48.92,0,0,1,5.56,1.35,44.14,44.14,0,0,1,5.34,2.09,33.09,33.09,0,0,1,9.56,6.43c.34.35.66.71,1,1.11a8,8,0,0,1,.87,1.27,17.3,17.3,0,0,0,1.57,2.15,4.12,4.12,0,0,1,.74,1.53,3.07,3.07,0,0,1-.07,1.68,3.62,3.62,0,0,1-.78,1.38,4.45,4.45,0,0,1-1.19.86l0,0a4.18,4.18,0,0,0,1-2.37,2.63,2.63,0,0,0-.83-2.11,13.93,13.93,0,0,1-1.9-2.15,6.69,6.69,0,0,0-.81-1c-.3-.31-.63-.62-1-.92a24.13,24.13,0,0,0-4.44-3,50.27,50.27,0,0,0-4.85-2.48,52.93,52.93,0,0,0-5.07-2,47.07,47.07,0,0,0-5.23-1.45c-1.78-.39-3.59-.67-5.42-.95s-3.63-.49-5.47-.65a95.28,95.28,0,0,0-22.06.47,53.76,53.76,0,0,0-5.42.92,46.18,46.18,0,0,0-5.26,1.6Z"/><path class="cls-1" d="M227.58,158.52a2.94,2.94,0,0,1,1.49-.8,4.57,4.57,0,0,1,1.73-.19,16.88,16.88,0,0,0,3.31.14,23.69,23.69,0,0,0,3.25-.54,16.61,16.61,0,0,0,3-1.14,14.64,14.64,0,0,0,4.78-4,24.77,24.77,0,0,0,3.09-5.42,22.91,22.91,0,0,0,1.67-5.86c.14-1,.23-2.12.3-3.2a28,28,0,0,0,.13-3.16,30.27,30.27,0,0,0-.7-6.27c-.25-1-.48-2.1-.8-3.14s-.68-2.07-1-3.11l1.25-.67a30.89,30.89,0,0,1,3.84,13.08,32.7,32.7,0,0,1,0,3.43c-.07,1.14-.13,2.26-.28,3.42a21.41,21.41,0,0,1-2,6.63,26.23,26.23,0,0,1-1.73,3,18.72,18.72,0,0,1-2.15,2.75,16.21,16.21,0,0,1-9.13,4.89,22.07,22.07,0,0,1-3.45.25,14.46,14.46,0,0,1-3.4-.5,5,5,0,0,0-1.59,0A2.81,2.81,0,0,0,227.58,158.52Z"/><path class="cls-1" d="M202,138.46l5-5.15,5.29-4.9a101.87,101.87,0,0,1,11.27-9,135.29,135.29,0,0,1,25.44-13.56c4.46-1.79,8.94-3.55,13.52-5s9.19-2.83,13.87-4c9.36-2.19,19-3.59,28.66-3a69.77,69.77,0,0,1,27.83,7.25A63.73,63.73,0,0,1,345.07,109a45.62,45.62,0,0,1,9.77,10.89,33.6,33.6,0,0,1,4.89,14.1,25.18,25.18,0,0,1-.38,7.61,26.58,26.58,0,0,1-2.66,7.19,29.16,29.16,0,0,1-4.52,6,32.65,32.65,0,0,1-5.73,4.75,51.77,51.77,0,0,1-13,6.39,65.38,65.38,0,0,0,11.88-8,33,33,0,0,0,4.92-4.9,28.54,28.54,0,0,0,3.7-5.75,28.88,28.88,0,0,0,2.43-13.13A30,30,0,0,0,352.94,121a39,39,0,0,0-8.67-11.06,57.71,57.71,0,0,0-11.73-8.08,67.27,67.27,0,0,0-27.48-7.33c-9.56-.55-19.15.81-28.46,3-4.65,1.14-9.26,2.48-13.81,4s-9,3.26-13.46,5.06-8.8,3.8-13.05,6a131.32,131.32,0,0,0-12.41,7.25,102.55,102.55,0,0,0-11.35,8.81l-5.37,4.8Z"/><path class="cls-1" d="M298.64,157.84c1,.74,2,1.52,2.95,2.33s2,1.49,3,2.14,2.13,1.28,3.21,1.84a26.46,26.46,0,0,0,3.39,1.43,31.5,31.5,0,0,0,14.61.88,24.24,24.24,0,0,0,7.05-2,25.44,25.44,0,0,0,6.09-4,31.85,31.85,0,0,0,4.89-5.48,46.64,46.64,0,0,0,3.68-6.42,35.15,35.15,0,0,0,3.35-14.25,26.65,26.65,0,0,0-.83-7.28,32.94,32.94,0,0,0-2.68-6.88,72.69,72.69,0,0,0-4-6.32,34.24,34.24,0,0,0-4.72-5.75,70.88,70.88,0,0,0-12.1-8.82c2.17,1.25,4.4,2.43,6.5,3.8a38.74,38.74,0,0,1,6,4.56,34.78,34.78,0,0,1,5,5.74,74.21,74.21,0,0,1,4.19,6.31,33.9,33.9,0,0,1,2.95,7,27.83,27.83,0,0,1,1.05,7.6,36,36,0,0,1-3.5,14.82,48.41,48.41,0,0,1-3.8,6.62,32.56,32.56,0,0,1-5.17,5.64,26.22,26.22,0,0,1-6.43,4.15,25.47,25.47,0,0,1-7.38,2,32.61,32.61,0,0,1-15.07-1,29.74,29.74,0,0,1-6.82-3.39,22.64,22.64,0,0,1-3-2.36A28.15,28.15,0,0,1,298.64,157.84Z"/><path class="cls-1" d="M236.67,106.16A45,45,0,0,1,248.54,120l-1.34.7a43.87,43.87,0,0,0-11.33-13.57Z"/><path class="cls-1" d="M191.26,101.41a23,23,0,0,0,.45-6.29,42.16,42.16,0,0,0-1-6.14l1.35-.34a31.54,31.54,0,0,1,.37,3.24,26.75,26.75,0,0,1,.06,3.23A23.11,23.11,0,0,1,191.26,101.41Z"/><path class="cls-1" d="M191.09,86.35a.3.3,0,0,0-.17.22h0l0-.22-.07-.44-.15-.87c-.11-.58-.24-1.15-.38-1.73A23.07,23.07,0,0,0,189.2,80a29.43,29.43,0,0,0-3.44-6.17A25.25,25.25,0,0,0,181,68.56a14.68,14.68,0,0,0-6.21-2.91,13.16,13.16,0,0,0-3.37-.38,9.91,9.91,0,0,0-3.23.67,12,12,0,0,0-2.86,1.64A6.31,6.31,0,0,0,162.74,73a3.58,3.58,0,0,0,.23,1.4,2.68,2.68,0,0,0,.78,1.09,4.49,4.49,0,0,0,1.31.75,4.16,4.16,0,0,0,1.54.27,9.46,9.46,0,0,0,1.68-.22A6.57,6.57,0,0,0,170,75.7h0v0c.1.28,0,.19,0,.22l-.08,0-.15,0a1.5,1.5,0,0,1-.3,0,3.71,3.71,0,0,1-.58-.11,2.72,2.72,0,0,1-1.29-.47,2.3,2.3,0,0,1-1-1.34,2.19,2.19,0,0,1,.31-1.67,5.11,5.11,0,0,1,.89-1.13,4.55,4.55,0,0,1,1.19-.86,8.16,8.16,0,0,1,2.47-.79,13.76,13.76,0,0,1,9.05,2.31A17.14,17.14,0,0,1,184,74.88a19,19,0,0,1,1.41,1.73c.44.61.85,1.23,1.23,1.87.76,1.27,1.51,2.53,2.18,3.84s1.25,2.65,1.84,4h0l-.39-.33A2.31,2.31,0,0,1,191.09,86.35Zm.7.71a7.31,7.31,0,0,1-1.67-.07l-.3-.06-.09-.27v0c-.23-.67-.38-1.38-.66-2s-.57-1.31-.88-2A18.91,18.91,0,0,0,186,79,31.88,31.88,0,0,0,183,75.87a15.74,15.74,0,0,0-3.36-2.49,12.65,12.65,0,0,0-7.9-1.7,6.3,6.3,0,0,0-1.84.59,2.55,2.55,0,0,0-.69.5,2.82,2.82,0,0,0-.54.69,1.14,1.14,0,0,0,0,1.21c.07.25.42.39,1.24,1v0h0a4.59,4.59,0,0,1-1.14,2,8.64,8.64,0,0,1-.81.78,5.16,5.16,0,0,1-1.12.66,6.07,6.07,0,0,1-2.78.48,6.32,6.32,0,0,1-2.89-.81,6.66,6.66,0,0,1-2.51-2.54,8.09,8.09,0,0,1-.91-3.18l0-.58c0-.28,0-.53,0-.77a10.64,10.64,0,0,1,.19-1.41,10.79,10.79,0,0,1,.88-2.64,9.8,9.8,0,0,1,1.53-2.37,11.63,11.63,0,0,1,2-1.78l.47-.33.46-.29a8.69,8.69,0,0,1,1.07-.61,16.19,16.19,0,0,1,2.28-.87,13.1,13.1,0,0,1,4.78-.47,14.27,14.27,0,0,1,4.28,1.06,19.3,19.3,0,0,1,7,4.5,28.56,28.56,0,0,1,2.5,3,31.57,31.57,0,0,1,2.12,3.15,32.17,32.17,0,0,1,3.18,6.73,29,29,0,0,1,.9,3.59c.11.59.22,1.2.31,1.8l.12.91,0,.45,0,.23s0,0,0,.22A.85.85,0,0,1,191.79,87.06Z"/><path class="cls-1" d="M213.89,115c1-1.78,2-3.61,3.08-5.38l3.54-5.1c1.19-1.68,2.39-3.37,3.54-5.06a39.17,39.17,0,0,0,3-5.28A52.18,52.18,0,0,0,231,82.77a59.3,59.3,0,0,0,1.47-11.88c0-2,0-3.94-.13-6a40.64,40.64,0,0,0-.68-5.78,41.3,41.3,0,0,0-1.55-5.53A21.2,21.2,0,0,0,228.92,51c-.49-.86-.95-1.76-1.47-2.49a9.51,9.51,0,0,0-10.13-3.68,8.94,8.94,0,0,0-2.7,1.19,7.27,7.27,0,0,0-2.13,2,4.8,4.8,0,0,0-.61,1.34,4.27,4.27,0,0,0-.23,1.45,3.33,3.33,0,0,0,1.43,2.5,3.16,3.16,0,0,1-2.17-2.45,5.34,5.34,0,0,1,0-1.78,6.91,6.91,0,0,1,.46-1.77,7.62,7.62,0,0,1,.94-1.61c.18-.24.37-.48.55-.69s.42-.45.64-.65a10.69,10.69,0,0,1,3.12-2A11.36,11.36,0,0,1,224,42a12.7,12.7,0,0,1,6.37,3.94c.41.48.78,1,1.11,1.43s.59.87.9,1.39a23.23,23.23,0,0,1,1.56,3.06,31,31,0,0,1,1.93,6.4,36.56,36.56,0,0,1,.51,6.51,59.07,59.07,0,0,1-.24,6.37,56.92,56.92,0,0,1-2.62,12.39,61.55,61.55,0,0,1-5.07,11.47C224.33,102.31,217.83,107.69,213.89,115Z"/><path class="cls-1" d="M220.62,104.26c.3-.66.58-1.34.9-2s.71-1.3,1.06-1.92a27.79,27.79,0,0,0,1.57-4,40.75,40.75,0,0,0,2.15-8.25c.47-2.8.84-5.73,1.18-8.53.15-1.41.25-2.81.28-4.23s.11-2.85.07-4.25-.13-2.81-.28-4.21-.31-2.85-.53-4.22a22.81,22.81,0,0,0-2.69-7.84,16.48,16.48,0,0,0-2.56-3.28,8.13,8.13,0,0,0-3.33-2.24,5.48,5.48,0,0,0-2,0,6.76,6.76,0,0,0-1.9.68,2.52,2.52,0,0,0-1.3,1.33,4.39,4.39,0,0,0-.18,2,2.49,2.49,0,0,1-.81-2.36,3.87,3.87,0,0,1,1.56-2.27c.17-.13.35-.25.51-.36a5.11,5.11,0,0,1,.54-.33,7,7,0,0,1,1.25-.48,6.56,6.56,0,0,1,2.69-.1,7.58,7.58,0,0,1,2.47,1.09,14.33,14.33,0,0,1,1.89,1.5,18.8,18.8,0,0,1,3,3.59,23.47,23.47,0,0,1,3.22,8.57,51.61,51.61,0,0,1,.83,8.86,60.32,60.32,0,0,1-.64,8.81c-.47,2.91-1,5.75-1.68,8.61A41.87,41.87,0,0,1,225,96.74a23.21,23.21,0,0,1-2,3.89A37.86,37.86,0,0,0,220.62,104.26Z"/><path class="cls-1" d="M207.88,89.28c1.44.3,3,.58,4.43,1s2.93.81,4.37,1.28,2.88,1,4.3,1.53,2.8,1.17,4.21,1.76l-.62,1.35c-1.37-.58-2.74-1.19-4.12-1.74s-2.8-1-4.22-1.52-2.84-.88-4.29-1.27-2.87-.71-4.37-1.06Z"/><path class="cls-1" d="M207.51,92.1c1.37.5,2.76.94,4.11,1.48s2.72,1,4.07,1.59,2.69,1.11,4,1.7l4,1.76-.52,1.16-4-1.8c-1.31-.61-2.64-1.15-4-1.73s-2.67-1.09-4-1.63-2.7-1-4-1.5Z"/><path class="cls-1" d="M80.05,104.12a204.17,204.17,0,0,0-21.51,15.5,117.27,117.27,0,0,0-9.83,8.71,93.15,93.15,0,0,0-8.51,9.9c-2.65,3.5-5,7.11-7.36,10.81-1.16,1.85-2.25,3.74-3.33,5.65s-2.09,3.8-3,5.75a90.84,90.84,0,0,0-4.75,12A80.2,80.2,0,0,0,18.86,185c-.16,1.06-.29,2.13-.43,3.2s-.28,2.17-.4,3.24c-.23,2.14-.38,4.27-.44,6.41a72.13,72.13,0,0,0,.8,12.8,91.89,91.89,0,0,0,7.24,24.78,94.31,94.31,0,0,0,6.15,11.47,113.07,113.07,0,0,0,7.69,10.61c2.78,3.38,5.81,6.59,8.9,9.71a98.32,98.32,0,0,0,9.92,8.65l.08.07.06.07a1.56,1.56,0,0,1,0,2.06,1.89,1.89,0,0,1-2.15.39h0l.42.18a16.89,16.89,0,0,1-5.38-2.46c-1.6-1.07-3-2.26-4.54-3.33a103.13,103.13,0,0,1-9.06-6.65c-2.83-2.45-5.61-5-8.26-7.61s-5.13-5.46-7.5-8.36A100.23,100.23,0,0,1,9.21,231.6,76.92,76.92,0,0,1,1.53,210a82.2,82.2,0,0,1-1.3-11.42c-.11-1.88-.22-3.8-.23-5.75s.1-3.91.28-5.88a63.2,63.2,0,0,1,6.64-22.43c.85-1.71,1.63-3.38,2.58-5.1s1.92-3.34,2.93-5Q15.49,149.59,19,145A118.57,118.57,0,0,1,34.76,128.6,126.28,126.28,0,0,1,53,115.27a145.33,145.33,0,0,1,19.67-10.86c6.82-3.06,13.78-5.83,20.85-8.24s14.28-4.44,21.54-6.2a201.05,201.05,0,0,1,22-4.08,188,188,0,0,1,22.37-1.62,201.87,201.87,0,0,1,22.4,1A207.66,207.66,0,0,1,204,88.73L203.76,90a209.66,209.66,0,0,0-22-3.75,190.84,190.84,0,0,0-22.29-1.16,186.52,186.52,0,0,0-22.28,1.51,202.64,202.64,0,0,0-22,4c-3.63.84-7.23,1.81-10.79,2.88S97.29,95.71,93.78,97a198.4,198.4,0,0,0-20.63,8.52,144.33,144.33,0,0,0-19.23,11.21A123.9,123.9,0,0,0,36.4,130.34a112.91,112.91,0,0,0-25.82,35.87,74.69,74.69,0,0,0-4,10.33,61.46,61.46,0,0,0-2.2,10.84A82.1,82.1,0,0,0,4,198.48a97.9,97.9,0,0,0,.65,11.12,74.51,74.51,0,0,0,6.13,21.3,75.47,75.47,0,0,0,5.27,9.78,99,99,0,0,0,6.61,9,108.08,108.08,0,0,0,15.75,15.68,93.65,93.65,0,0,0,9.14,6.31c1.61,1,3.13,2.12,4.67,3a13.9,13.9,0,0,0,4.87,1.85l.41.18h0a.55.55,0,0,0-.34.23c-.09.12-.07.2,0,.24l.14.14a103,103,0,0,1-10.35-8.53c-3.23-3.08-6.38-6.23-9.32-9.62a117.77,117.77,0,0,1-8.25-10.59,93.81,93.81,0,0,1-6.75-11.65,91.75,91.75,0,0,1-8.09-25.64,76,76,0,0,1-.95-13.48c0-2.26.18-4.51.4-6.75s.5-4.45.88-6.68a89.32,89.32,0,0,1,8.43-25.53c2-4,4.34-7.83,6.75-11.6a116.65,116.65,0,0,1,7.9-10.83,96.3,96.3,0,0,1,9.14-9.8,109.62,109.62,0,0,1,10.38-8.44A181.38,181.38,0,0,1,80,104Z"/><path class="cls-1" d="M219.26,118.45c2.22-1.74,4.36-3.61,6.69-5.2s4.62-3.27,6.85-5c.57-.42,1.08-.85,1.69-1.3s1.22-.79,1.84-1.16c1.25-.72,2.56-1.34,3.85-1.93,2.59-1.17,5.18-2.27,7.8-3.42,1.31-.56,2.6-1.17,4-1.67s2.73-1,4-1.44,2.6-1,3.85-1.53c.64-.27,1.21-.54,1.78-.84s1.34-.7,2-1,1.35-.58,2-.85,1.12-.53,1.67-.81,1.12-.48,1.66-.74a14.29,14.29,0,0,0,1.56-.83c.21-.13.37-.26.53-.37a1.44,1.44,0,0,0,.42-.43,1.34,1.34,0,0,0,.17-.64.68.68,0,0,0-.07-.44c-.09-.27-1-.34-1.63-.39a7.05,7.05,0,0,0-2.08.19,6.89,6.89,0,0,1,2-.92c.37-.1.69-.19,1.08-.26a2.3,2.3,0,0,1,1.39.12,2.21,2.21,0,0,1,1.07,1.17,3.21,3.21,0,0,1,.25,1.38,5.22,5.22,0,0,1-1.09,2.51,10.25,10.25,0,0,1-1.69,1.67,8.91,8.91,0,0,1-1.94,1.25,21.3,21.3,0,0,1-2.1.89c-.66.24-1.31.47-1.94.72s-1.19.5-1.86.82-1.39.6-2.06.85c-1.36.5-2.7,1-4.08,1.4s-2.72.76-4,1.19-2.63.93-3.93,1.41c-2.61,1-5.24,2-7.9,2.86a26.84,26.84,0,0,0-7.42,3.6c-2.4,1.54-4.82,3-7.23,4.44S221.62,116.88,219.26,118.45Z"/><path class="cls-1" d="M219,118.56A125.43,125.43,0,0,0,230.25,108a76.12,76.12,0,0,0,9.3-12.17,45.76,45.76,0,0,0,5.84-14,17,17,0,0,0,.41-3.66,5,5,0,0,0-.93-3.16,8.31,8.31,0,0,0-2.7-2.18,1.3,1.3,0,0,0-1.29,0c-.11.07-.12.08-.16.16a.64.64,0,0,0-.05.28.53.53,0,0,0,.29.45l.94.5-1.14.4a4,4,0,0,1-2.58.13,3.82,3.82,0,0,1-2-1.74,5,5,0,0,1-.45-1.16,5.62,5.62,0,0,1-.18-1.22,6.39,6.39,0,0,1,.08-1.17,10.82,10.82,0,0,1,.17-1.12,8.5,8.5,0,0,1,2-4A9.42,9.42,0,0,1,250.17,63a8.86,8.86,0,0,1,3,3.39,5.66,5.66,0,0,1,.36,4.37,10.27,10.27,0,0,0-1.89-3.55,9.8,9.8,0,0,0-2.69-2.41,7.83,7.83,0,0,0-3.26-1,8.27,8.27,0,0,0-3.29.47A7.08,7.08,0,0,0,239.67,66a4.9,4.9,0,0,0-.89,1.26,7.61,7.61,0,0,0-.54,1.47,2.24,2.24,0,0,1-.1.37l-.09.44a4.77,4.77,0,0,0-.18.75,6,6,0,0,0-.06.75,4.47,4.47,0,0,0,.13.84,2.67,2.67,0,0,0,.91,1.34,1.82,1.82,0,0,0,1.68.4l-.19.88a2.47,2.47,0,0,1-.9-1.17,2,2,0,0,1-.11-.86,1.69,1.69,0,0,1,.47-.93,2.63,2.63,0,0,1,1.62-.85,4.82,4.82,0,0,1,1.53,0,7.32,7.32,0,0,1,4.28,2.36c.15.19.29.34.46.59a3.71,3.71,0,0,1,.4.7,7.5,7.5,0,0,1,.53,1.31,10.8,10.8,0,0,1,.39,2.48,18.9,18.9,0,0,1-.45,4.41,39.17,39.17,0,0,1-7,14.53,106.33,106.33,0,0,1-10.62,11.56C227.17,112.25,223.09,115.41,219,118.56Z"/><path class="cls-1" d="M236.07,101.28a30.74,30.74,0,0,0-4.15-2.7,25.75,25.75,0,0,0-4.63-1.81l.32-1.09a28.24,28.24,0,0,1,4.9,1.72,32.11,32.11,0,0,1,4.47,2.69Z"/><path class="cls-1" d="M232.77,105.51l-2-1.43c-.65-.51-1.23-1-1.85-1.46l-2-1.3a9.32,9.32,0,0,0-2-1.07l.31-.85a11,11,0,0,1,2.26,1l2.09,1.19c.72.44,1.36,1,2,1.39l2,1.27Z"/><path class="cls-1" d="M251.64,64.52a7.59,7.59,0,0,1,1.64-.94,10,10,0,0,1,1.8-.6,5.49,5.49,0,0,1,4.33.79,6.39,6.39,0,0,1,1.66,1.57,5.59,5.59,0,0,1,.9,2,4.88,4.88,0,0,1,.17,1.06,6.19,6.19,0,0,1,0,1.05,14.2,14.2,0,0,1-.14,2,18,18,0,0,1-2.49,6.93,28.24,28.24,0,0,1-2.06,2.92c-.74.93-1.61,1.74-2.39,2.6a40.49,40.49,0,0,0,3.06-6.2,17.57,17.57,0,0,0,1.17-6.35,11.7,11.7,0,0,0-.11-1.48c0-.24,0-.48-.07-.71s-.07-.48-.13-.71a5.5,5.5,0,0,0-1.25-2.59C256.55,64.31,253.92,64.39,251.64,64.52Z"/><path class="cls-1" d="M267.39,89a13,13,0,0,0,3.82-3c.49-.61.9-1.25,1.36-2a10,10,0,0,0,1-2A7.81,7.81,0,0,0,274,77.8a8.25,8.25,0,0,0-2.13-3.87h0l.75-.58.58,1.62a12,12,0,0,1,.43,1.67,3.87,3.87,0,0,1-.13,2,4.8,4.8,0,0,1-1,1.72,5,5,0,0,1-1.59,1.2,5.66,5.66,0,0,1-1.95.57,4.44,4.44,0,0,1-2.17-.35A5.21,5.21,0,0,1,265,80.51a8.61,8.61,0,0,1-1.2-1.65c-.2-.33-.37-.72-.4-.72s0,.11.05.13a0,0,0,0,0,0,0c.06-.07-.26-.21-.65-.21a4.12,4.12,0,0,0-.62,0,2.69,2.69,0,0,0-.54.14,7.09,7.09,0,0,0-1.22.74c-.43.32-.86.65-1.27,1-.83.7-1.66,1.44-2.46,2.23a31.49,31.49,0,0,1,1.88-2.73A14.84,14.84,0,0,1,260.93,77a4.73,4.73,0,0,1,1.65-.74,3.13,3.13,0,0,1,2,.1,4.11,4.11,0,0,1,.54.29,3.15,3.15,0,0,1,.54.49,3.17,3.17,0,0,0,.61.64c.31.29.46.73.74,1a2.24,2.24,0,0,0,1.82,1,3.18,3.18,0,0,0,1.17-.24,3,3,0,0,0,1.06-.59,2.68,2.68,0,0,0,1-2.13,12.62,12.62,0,0,0-.15-1.56c-.1-.52-.18-1-.26-1.58l-.14-1,.9.42h0a6.8,6.8,0,0,1,3.62,4.13,7.22,7.22,0,0,1,.3,2.88,9,9,0,0,1-2.23,5.06,11.54,11.54,0,0,1-1.89,1.87,10,10,0,0,1-2.31,1.35A8.66,8.66,0,0,1,267.39,89Z"/><path class="cls-1" d="M197,75.31a41.35,41.35,0,0,0-3.16-10.26,49.65,49.65,0,0,0-5.59-9.13A56.3,56.3,0,0,0,181.07,48a51.66,51.66,0,0,0-4.17-3.34,33.53,33.53,0,0,0-4.48-2.85,27.51,27.51,0,0,0-4.92-1.94,23.81,23.81,0,0,0-5.13-1,20.79,20.79,0,0,0-5.16.33,15.88,15.88,0,0,0-4.83,1.54,16.94,16.94,0,0,0-2.09,1.35,14.3,14.3,0,0,0-1.85,1.7A11.24,11.24,0,0,0,146,48.06a10.14,10.14,0,0,0-.47,4.86,5.7,5.7,0,0,0,.38,1.17,4.24,4.24,0,0,0,.63,1A15.31,15.31,0,0,0,148.45,57a7.47,7.47,0,0,1-3-.76,6,6,0,0,1-.74-.46,4.74,4.74,0,0,1-.7-.63,7.86,7.86,0,0,1-1.13-1.4,8.39,8.39,0,0,1-1.11-3.44,10.12,10.12,0,0,1-.06-1.73c0-.28,0-.55.05-.79l.13-.86A13.47,13.47,0,0,1,145,40.74a16.94,16.94,0,0,1,2.41-2.26,14.19,14.19,0,0,1,2.89-1.79,18.05,18.05,0,0,1,6.25-1.63l.72-.05.78,0c.52,0,1.05,0,1.56,0a22.76,22.76,0,0,1,3.09.29,27.32,27.32,0,0,1,5.79,1.6c.92.37,1.73.73,2.63,1.15s1.75.87,2.59,1.37a34.89,34.89,0,0,1,4.65,3.35,53.63,53.63,0,0,1,4.12,3.75,56.93,56.93,0,0,1,6.95,8.59c1,1.54,2,3.09,2.83,4.7a40,40,0,0,1,2.3,5A41.85,41.85,0,0,1,197,75.31Z"/><path class="cls-1" d="M196.82,75.06a26.83,26.83,0,0,0-3.49-8.44c-1.69-2.54-3.36-5.13-5.23-7.51a43.29,43.29,0,0,0-6.43-6.41,37.72,37.72,0,0,0-7.6-4.86,40.26,40.26,0,0,0-4.16-1.69,31.93,31.93,0,0,0-4.33-1.1,19.93,19.93,0,0,0-8.46-.13,11.13,11.13,0,0,0-3.69,1.28,11.69,11.69,0,0,0-1.62,1.08,15.91,15.91,0,0,0-1.42,1.26A10.59,10.59,0,0,0,149.28,50a8.28,8.28,0,0,0-.45.83,5.93,5.93,0,0,0-.28.87,10.14,10.14,0,0,0-.28,2c0,.36,0,.72,0,1.09s.13.67-.74,1.27c-1.08-.15-1.07-.6-1.16-1s-.16-.79-.21-1.2a12.1,12.1,0,0,1-.14-2.5,8.68,8.68,0,0,1,2-4.84,12,12,0,0,1,1.83-1.8,13.74,13.74,0,0,1,2.1-1.41,14.21,14.21,0,0,1,4.78-1.46,20.63,20.63,0,0,1,4.85-.16,23.93,23.93,0,0,1,4.69,1,39.68,39.68,0,0,1,8.65,3.65A44.35,44.35,0,0,1,188.7,58.65c1.79,2.53,3.32,5.17,4.9,7.81A27.21,27.21,0,0,1,196.82,75.06Z"/><path class="cls-1" d="M281.77,86.9a55.39,55.39,0,0,1,6-2.16c2-.6,4.11-1,6.19-1.47s4.2-.72,6.29-1,4.19-.62,6.28-1a73.89,73.89,0,0,0,12.29-2.86,31.42,31.42,0,0,0,5.66-2.56,16,16,0,0,0,4.53-4,21.72,21.72,0,0,0,2.88-5.1,17.33,17.33,0,0,0,.87-2.7,12.83,12.83,0,0,0,.29-2.74,6.8,6.8,0,0,0-1.88-4.87A8.81,8.81,0,0,0,326.06,54a6.86,6.86,0,0,0-3,.07,5.57,5.57,0,0,0-2.56,1.45A10.2,10.2,0,0,0,318.92,58a9.29,9.29,0,0,1-1,1.44,6.47,6.47,0,0,1-1.44,1.27A7.73,7.73,0,0,1,312.94,62a6.38,6.38,0,0,1-3.82-.87A4.19,4.19,0,0,1,307,57.71a3.62,3.62,0,0,1,.44-1.89,4.07,4.07,0,0,1,.5-.77,3,3,0,0,1,.29-.33c.09-.11.22-.2.54-.12.16.3.13.42.07.53s-.08.23-.11.35a3.4,3.4,0,0,0-.11.7,3.08,3.08,0,0,0,.2,1.24,3,3,0,0,0,1.47,1.6,5.25,5.25,0,0,0,4.89-.41,6,6,0,0,0,1.88-2,11.78,11.78,0,0,1,2.28-2.7,11,11,0,0,1,6.88-2.22,13.47,13.47,0,0,1,7.46,2,10.31,10.31,0,0,1,3.21,3.11A11,11,0,0,1,338.49,61a13.07,13.07,0,0,1-1.32,8.11,12.49,12.49,0,0,1-5.82,5,67.4,67.4,0,0,0-6.22,3,32.55,32.55,0,0,1-6,2.45A74.11,74.11,0,0,1,306.61,82c-2.11.26-4.21.52-6.33.73s-4.21.38-6.3.74A54.6,54.6,0,0,0,281.77,86.9Z"/><path class="cls-1" d="M297.28,82.74c1.17-.32,2.3-.8,3.48-1.12s2.37-.57,3.55-.85l7.07-1.67a26.21,26.21,0,0,0,12.2-6.44,14.88,14.88,0,0,0,3.66-5.49,12.62,12.62,0,0,0,.54-6.38,4,4,0,0,0-.48-1.22,4,4,0,0,0-.81-1,6.27,6.27,0,0,0-2.58-1.29,9.25,9.25,0,0,0-1.6-.32,5.52,5.52,0,0,0-1.51,0c-.92.07-1.87,1-3,1.64.35-.51.65-1,1-1.52a4,4,0,0,1,1.5-1.26,6,6,0,0,1,1.93-.42,12.21,12.21,0,0,1,1.91,0,7.53,7.53,0,0,1,3.66,1.5A5.71,5.71,0,0,1,330,60.37a14.7,14.7,0,0,1-.77,7.55,16.76,16.76,0,0,1-4.29,6.18,24.66,24.66,0,0,1-6.2,4.08,28.49,28.49,0,0,1-3.46,1.35,35.26,35.26,0,0,1-3.6.82C306.87,81.33,302,81.57,297.28,82.74Z"/><path class="cls-1" d="M95.15,298.41a9.46,9.46,0,0,0-6.43,3.89,11.92,11.92,0,0,0-1.49,3.4,10.64,10.64,0,0,0-.4,3.62,9.38,9.38,0,0,0,.83,3.37,11.2,11.2,0,0,0,2.1,2.81,25.3,25.3,0,0,0,6.08,4.34,40.71,40.71,0,0,0,7.08,2.73,74.93,74.93,0,0,0,7.53,1.8A81.93,81.93,0,0,0,126,325.54a96.17,96.17,0,0,0,15.72-1.88,118.76,118.76,0,0,0,15.36-4.49A221.94,221.94,0,0,0,186.33,306c-2.23,1.51-4.61,2.74-7,4s-4.75,2.49-7.16,3.68c-4.82,2.38-9.71,4.62-14.68,6.68s-10,4-15.23,5.59a97,97,0,0,1-16,3.43,69.77,69.77,0,0,1-16.65-.17,79.14,79.14,0,0,1-8.31-1.5A37.13,37.13,0,0,1,93,324.83a27.09,27.09,0,0,1-3.89-2.42,23.22,23.22,0,0,1-3.48-3.15,14.57,14.57,0,0,1-2.87-4.49A12.56,12.56,0,0,1,82,312a14.55,14.55,0,0,1-.12-2.71,13.79,13.79,0,0,1,1.3-5,12.94,12.94,0,0,1,3-4.06,9.25,9.25,0,0,1,2.12-1.42,8.78,8.78,0,0,1,2.32-.81A7.78,7.78,0,0,1,95.15,298.41Z"/><path class="cls-1" d="M173.62,312a67.73,67.73,0,0,1-10.94,4.48c-3.78,1.12-7.58,2.12-11.4,3.12l-5.73,1.5c-1,.23-1.9.54-2.88.71s-1.95.36-2.93.52a102.11,102.11,0,0,1-11.83,1.17,72.91,72.91,0,0,1-12-.38,55.84,55.84,0,0,1-11.85-2.54,29.92,29.92,0,0,1-10.75-6.21,18,18,0,0,1-3.95-4.91,12,12,0,0,1-1.5-6.1,55.71,55.71,0,0,0,7.46,8.78,27,27,0,0,0,4.6,3.32,39.63,39.63,0,0,0,5.13,2.57,59.21,59.21,0,0,0,22.81,4,99.73,99.73,0,0,0,11.72-.8c1-.13,1.94-.27,2.91-.43s1.92-.42,2.88-.62l5.74-1.32c3.83-.88,7.67-1.76,11.47-2.76A67.24,67.24,0,0,0,173.62,312Z"/><path class="cls-1" d="M161.14,320.88c.8-.23.77.11,1,.29l.52.58,1.06,1.17c.33.41.69.78,1,1.18l.54.59c.19.18.37.36.23,1a.77.77,0,0,1-1-.1l-.67-.5a14.69,14.69,0,0,1-1.24-1.13,10.86,10.86,0,0,1-1-1.3l-.46-.7C161,321.66,160.63,321.56,161.14,320.88Z"/><path class="cls-1" d="M169.87,330.44c.46-.22.42,0,.55,0l.31.24a5.49,5.49,0,0,0,.6.48,5.63,5.63,0,0,1,.58.5l.28.27c.07.11.25.08,0,.63-.42.37-.46.17-.58.11l-.34-.23c-.23-.16-.43-.35-.65-.52a3.26,3.26,0,0,1-.55-.62l-.24-.34C169.8,330.86,169.58,330.86,169.87,330.44Z"/><path class="cls-1" d="M255.37,202.83c-.51,1.38-1.15,2.69-1.72,4l-1.88,3.93c-1.15,2.67-2.35,5.32-3.32,8.05-.48,1.37-.95,2.74-1.35,4.13s-.7,2.8-1,4.22a42.11,42.11,0,0,0-1.18,8.49c0,1.4,0,2.88.09,4.26a28.15,28.15,0,0,0,.59,4.06,29,29,0,0,0,2.83,7.44c.64,1.15,1.32,2.26,2,3.31s1.55,2,2.38,3,1.78,1.82,2.76,2.73,2,1.84,3.09,2.79,2,1.8,3,2.59,2.42,1.81,3.54,2.85a83,83,0,0,1,6.48,6.39,35,35,0,0,1,2.95,3.73,41.84,41.84,0,0,1,2.5,4,47.47,47.47,0,0,1,3.77,8.48,50.57,50.57,0,0,1,2.13,8.9,36.84,36.84,0,0,1,.34,9,28,28,0,0,1-2.46,8.6,32.33,32.33,0,0,1-4.7,7.43,33.57,33.57,0,0,0,4-7.69A27.51,27.51,0,0,0,282,309.1a33.77,33.77,0,0,0-1-8.52,42.76,42.76,0,0,0-2.76-8.15A44.08,44.08,0,0,0,274,285a48.18,48.18,0,0,0-5.51-6.57c-2.06-2-4.28-3.92-6.47-5.77-1.11-.93-2.25-1.77-3.44-2.65a42.73,42.73,0,0,1-3.38-2.88,53.08,53.08,0,0,1-6.16-6.37,31.26,31.26,0,0,1-4.4-7.77,30.8,30.8,0,0,1-2.05-8.67,42.16,42.16,0,0,1,.33-8.85A91.44,91.44,0,0,1,255.37,202.83Z"/><path class="cls-1" d="M252.76,208.68a5.94,5.94,0,0,1-.48,2.06,16.17,16.17,0,0,0-.52,1.93,36,36,0,0,0-.74,4,25,25,0,0,0,.53,8.12,32,32,0,0,0,2.67,7.72,39.18,39.18,0,0,0,4.55,6.85c3.46,4.27,7.81,7.83,11.92,11.61,1,.95,2.07,1.86,3.11,2.84s2,2,2.87,3.12c1.84,2.17,3.44,4.46,5.09,6.73a33.85,33.85,0,0,1,4.11,7.43,57.93,57.93,0,0,1,2.37,8.13,57,57,0,0,1,1.37,8.35,50,50,0,0,1-.05,8.48,64.94,64.94,0,0,1-1.32,8.36c-.64,2.73-1.21,5.47-2.11,8.16a26.52,26.52,0,0,1-3.73,7.63,18.08,18.08,0,0,1-6.51,5.28,17.51,17.51,0,0,0,3.09-2.78,15.36,15.36,0,0,0,2.34-3.26,25.69,25.69,0,0,0,2.49-7.55,11.72,11.72,0,0,1,.69-1.93c.24-.65.43-1.31.64-2a30.12,30.12,0,0,0,1-4,64.41,64.41,0,0,0,.91-8.13,43.7,43.7,0,0,0-.38-8,60.71,60.71,0,0,0-1.74-7.83c-.37-1.27-.79-2.63-1.2-3.89a37.76,37.76,0,0,0-1.39-3.59,33.68,33.68,0,0,0-3.88-6.52L276,262.74c-.82-1.07-1.63-2.09-2.48-3.07-.43-.49-.87-1-1.31-1.44s-.94-1-1.33-1.33l-3-2.72-6.22-5.66c-.51-.49-1-1-1.59-1.57l-1.49-1.58c-1-1.08-2-2.23-2.91-3.42-.46-.6-.92-1.21-1.33-1.83s-.8-1.21-1.2-1.85a33.86,33.86,0,0,1-3.78-8.35,15.62,15.62,0,0,1-.72-4.5,28.71,28.71,0,0,1,.39-4.51c.26-1.5.53-2.94.84-4.34s.52-2.8.81-4.17a7.51,7.51,0,0,1,.68-2.07A3.33,3.33,0,0,1,252.76,208.68Z"/><path class="cls-1" d="M230.05,365c.39-.38.66-.39.91-.3l.74.21,1.48.44c1,.31,2,.57,3,.83,2,.55,4,1,6,1.48,4,.89,8.06,1.68,12.13,2.24s8.17,1,12.27,1.27,8.22.37,12.33.29a128.62,128.62,0,0,0,24.48-2.86,244,244,0,0,0,24-6c3.93-1.23,7.85-2.53,11.71-4s7.67-3,11.43-4.69,7.48-3.45,11.13-5.36,7.24-3.93,10.74-6.07a160.37,160.37,0,0,0,20.07-14.25q4.73-3.93,9-8.29a112.82,112.82,0,0,0,8.19-9,108.83,108.83,0,0,0,13.1-20.34c.9-1.8,1.69-3.65,2.47-5.5s1.46-3.75,2.09-5.65a78.54,78.54,0,0,0,3-11.63c2.91-15.8-.13-32.29-7.1-46.85a104.11,104.11,0,0,0-13-20.48,111.36,111.36,0,0,0-8.22-9c-1.42-1.47-2.95-2.83-4.43-4.23s-3.06-2.71-4.66-4A166.33,166.33,0,0,0,372.72,169c-3.51-2.14-7.11-4.14-10.74-6.09-1.82-.95-3.64-1.92-5.49-2.83l-2.77-1.38-1.39-.67-.69-.34c-.22-.15-.54-.07-.48-.81.52-.53.68-.24.93-.17l.71.31,1.43.61,2.84,1.24c1.9.83,3.78,1.71,5.66,2.58,3.74,1.79,7.47,3.62,11.12,5.61A172.16,172.16,0,0,1,395,180.48c1.7,1.22,3.33,2.55,5,3.85s3.25,2.68,4.79,4.12a113.41,113.41,0,0,1,9,8.94,101.18,101.18,0,0,1,14.59,21A86.62,86.62,0,0,1,437,242.78a74.75,74.75,0,0,1,.21,26.18A87.23,87.23,0,0,1,414,314.61,126.38,126.38,0,0,1,394.58,331c-3.45,2.4-7,4.62-10.54,6.8s-7.22,4.16-10.85,6.16c-7.34,3.88-14.73,7.62-22.38,10.79a242.86,242.86,0,0,1-23.24,8.67,239.11,239.11,0,0,1-24,6.21,130.06,130.06,0,0,1-24.65,3c-4.15.1-8.3,0-12.43-.25s-8.26-.7-12.36-1.31-8.18-1.38-12.22-2.29c-2-.47-4-.95-6-1.51-1-.26-2-.53-3-.84l-1.49-.44-.75-.22C230.38,365.67,230.16,365.52,230.05,365Z"/><path class="cls-1" d="M356.55,351.25c4.06-2.85,8.16-5.69,12-8.78,1.91-1.59,3.76-3.22,5.6-4.85s3.71-3.21,5.5-4.88a111.66,111.66,0,0,0,10-10.72c3.13-3.82,6.26-7.63,9.09-11.6s5.6-8.09,8-12.25a93.42,93.42,0,0,0,6.36-13q1.33-3.37,2.45-6.86c.72-2.32,1.49-4.69,2.13-7a68.81,68.81,0,0,0,2.51-14.18,66,66,0,0,0-.64-14.38,107.42,107.42,0,0,0-3.37-14.22,92,92,0,0,0-12.53-26.35c-2.79-4-5.94-7.86-9.05-11.7a118.35,118.35,0,0,0-10-10.86A123.19,123.19,0,0,0,373.32,170a97.22,97.22,0,0,0-12.49-8c2.24,1.06,4.45,2.2,6.61,3.43s4.23,2.62,6.28,4a124.26,124.26,0,0,1,11.73,9.23,122.72,122.72,0,0,1,10.4,10.75c3.21,3.8,6.44,7.56,9.4,11.6a93.62,93.62,0,0,1,13.44,26.7,110,110,0,0,1,3.74,14.52,66.44,66.44,0,0,1,.91,15,72.38,72.38,0,0,1-2.44,14.86,128.17,128.17,0,0,1-4.66,14.25,90.64,90.64,0,0,1-6.68,13.46c-1.29,2.15-2.68,4.24-4.08,6.29s-2.83,4.11-4.33,6.1c-3,4-6.23,7.8-9.46,11.57a113.9,113.9,0,0,1-10.46,10.73,105.44,105.44,0,0,1-11.78,9.21c-2.09,1.39-4.23,2.65-6.38,3.91l-3.23,1.85Z"/><path class="cls-1" d="M225.69,323.22a36.7,36.7,0,0,0-4.23,11.06,55.13,55.13,0,0,0-.63,5.93c-.15,2-.23,4-.23,6a69.3,69.3,0,0,0,1.06,11.87,43.09,43.09,0,0,0,1.43,5.72,51.41,51.41,0,0,0,2.12,5.51,25.54,25.54,0,0,0,3,5,28.4,28.4,0,0,0,3.87,4.27,18.17,18.17,0,0,0,4.62,2.91,14.29,14.29,0,0,0,5,1.38,9.13,9.13,0,0,0,2.29-.21,7.25,7.25,0,0,0,2.15-.82,5.06,5.06,0,0,0,2.45-3.35,7.63,7.63,0,0,0,.17-1.22c0-.44.07-1,.08-1.4a7.11,7.11,0,0,0-.3-2.44,4.41,4.41,0,0,0-1.47-2,6.57,6.57,0,0,0-2.66-1.15,5.91,5.91,0,0,1,3.11.18,5.18,5.18,0,0,1,2.67,2,7.94,7.94,0,0,1,1.22,3.14c.1.55.18,1,.24,1.58a10.68,10.68,0,0,1,0,1.7,8.19,8.19,0,0,1-3.45,6.2,10.85,10.85,0,0,1-3.23,1.5,11.74,11.74,0,0,1-3.58.46,17,17,0,0,1-6.61-1.75,19.12,19.12,0,0,1-5.61-3.78,28.14,28.14,0,0,1-2.24-2.43c-.68-.86-1.26-1.65-1.9-2.56a29.61,29.61,0,0,1-3.12-5.71c-.42-1-.78-2-1.11-3s-.64-2-.92-3a37.91,37.91,0,0,1-1.23-6.21c-.24-2.1-.34-4.13-.42-6.2s0-4.14.15-6.19.38-4.1.67-6.1a60.28,60.28,0,0,1,1.09-6A27.61,27.61,0,0,1,225.69,323.22Z"/><path class="cls-1" d="M225.7,323.56a38,38,0,0,0-2.24,8.5,37.26,37.26,0,0,0-.29,4.36,42.24,42.24,0,0,0,.13,4.36,65.2,65.2,0,0,0,3.58,17c.5,1.35,1.06,2.67,1.67,4s1.21,2.64,1.88,3.86a25.73,25.73,0,0,0,5.13,6.43,13.27,13.27,0,0,0,3.25,2.17,7.28,7.28,0,0,0,3.58.77,4.56,4.56,0,0,0,3.15-1.28,1.83,1.83,0,0,0,.64-1.39,2.42,2.42,0,0,0-.19-.93,2.8,2.8,0,0,0-.64-.85,2.42,2.42,0,0,1,2,1.46,3,3,0,0,1,.27,1.44,3.67,3.67,0,0,1-.46,1.4,5.14,5.14,0,0,1-.8,1.08,5.45,5.45,0,0,1-1.08.89,6.6,6.6,0,0,1-2.53.85,11.67,11.67,0,0,1-9.12-3.33,25.54,25.54,0,0,1-5.59-7.39c-.71-1.36-1.29-2.76-1.86-4.12s-1.14-2.79-1.62-4.22a54.79,54.79,0,0,1-2.15-8.75c-.23-1.49-.39-3-.5-4.47s-.23-3-.26-4.47a38,38,0,0,1,.81-9A29.49,29.49,0,0,1,225.7,323.56Z"/><path class="cls-1" d="M243.72,286.69c-4.82,5.69-10.45,10.62-15,16.45a88.62,88.62,0,0,0-11,19.15c-2.81,6.81-5.16,13.92-5.68,21.26a54,54,0,0,0,.23,11,65.51,65.51,0,0,0,2.11,10.84,100,100,0,0,0,3.69,10.47c.35.85.71,1.7,1.1,2.54s.82,1.66,1.24,2.48c.85,1.65,1.74,3.27,2.65,4.89S225,389,226,390.49s2.15,3,3.27,4.51c2.29,3,4.47,6.09,6.59,9.21,1.07,1.57,2.11,3.16,3.14,4.79s1.94,3.35,2.83,5.13a54.24,54.24,0,0,1,2.26,5.58c.34,1.14.55,2.07.77,3.1s.39,2,.5,3a35.48,35.48,0,0,1,.13,6.1,22.21,22.21,0,0,1-1.31,6.65,13.36,13.36,0,0,1-1.85,3.29,8.26,8.26,0,0,1-3.07,2.52,6.82,6.82,0,0,1-2.09.59,3.7,3.7,0,0,1-1.09,0,7,7,0,0,1-1.1-.18,4.67,4.67,0,0,1-1.14-.52,3.47,3.47,0,0,1-.88-.87,2.89,2.89,0,0,1-.43-1,1.16,1.16,0,0,1,.18-1,2.54,2.54,0,0,1,1,.05,1.12,1.12,0,0,0,.53-.05c.3-.11.43-.37.6-.5a1.88,1.88,0,0,1,.33-.22,2.62,2.62,0,0,0,.35-.21c.2-.14.43-.27.69-.43a8.21,8.21,0,0,0,.77-.56,5.31,5.31,0,0,0,.7-.78,7.45,7.45,0,0,0,1-2,16,16,0,0,0,.55-4.84,44.46,44.46,0,0,0-.36-5.28,37.57,37.57,0,0,0-.91-5.13,50.92,50.92,0,0,0-1.58-5.1,105.14,105.14,0,0,0-4.5-10c-1.67-3.3-3.37-6.58-5.2-9.79-.91-1.6-1.86-3.22-2.76-4.89s-1.71-3.35-2.52-5c-1.67-3.33-3.28-6.74-4.64-10.24-.69-1.74-1.32-3.52-1.93-5.28s-1.22-3.54-1.74-5.35a65.2,65.2,0,0,1-2.19-11.06,56,56,0,0,1,1.79-22.4c.52-1.81,1.11-3.59,1.74-5.35s1.29-3.53,2-5.25c1.51-3.45,3.21-6.76,5-10a75.1,75.1,0,0,1,6.28-9.34A98.27,98.27,0,0,1,243.72,286.69Z"/><path class="cls-1" d="M216.91,318.59a70.22,70.22,0,0,0-7.86,29.57c-.1,2.55,0,5.12-.07,7.67l.41,7.66c.27,2.54.5,5.07.84,7.59l.67,3.75c.22,1.25.35,2.51.65,3.74l1.74,7.43c.61,2.49,1.27,4.94,2,7.41,1.45,5,2.71,10,3.79,15.21.25,1.29.46,2.66.59,4s.2,2.7.23,4.05a48.62,48.62,0,0,1-.46,8.06,24.36,24.36,0,0,1-1,4.08,19.61,19.61,0,0,1-1.73,3.92,8.69,8.69,0,0,1-1.49,1.81,8.33,8.33,0,0,1-1,.7,6.33,6.33,0,0,1-1.05.5,4.5,4.5,0,0,1-4.37-.45,6.51,6.51,0,0,0,5.63-3.84,19.46,19.46,0,0,0,1.79-7.09,52.9,52.9,0,0,0-.08-7.55,42.62,42.62,0,0,0-1.18-7.39c-1.15-4.95-2.63-9.9-4-14.85-.71-2.49-1.4-5-2-7.56l-1.55-7.72c-.45-2.58-.7-5.21-1-7.82-.12-1.31-.12-2.63-.18-3.94s-.12-2.62-.12-3.93c.07-2.62.11-5.23.2-7.84.24-2.61.39-5.22.7-7.81.46-2.58.82-5.17,1.34-7.71a67.21,67.21,0,0,1,2-7.55A66.36,66.36,0,0,1,216.91,318.59Z"/><path class="cls-1" d="M209.65,433.93a5.07,5.07,0,0,1-.3,2.63l-.2,1.14a6.71,6.71,0,0,0-.05,1,3.23,3.23,0,0,0,.59,1.7c.18.27.46.62.71.93a6.44,6.44,0,0,0,.76.8,6.16,6.16,0,0,0,1.85,1.15,5.42,5.42,0,0,0,2,.53,4.23,4.23,0,0,0,2-.44,5.46,5.46,0,0,0,1-.6c.31-.26.55-.47,1.47-.31a1.57,1.57,0,0,1-.34,1.54,8,8,0,0,1-1,1.11,6,6,0,0,1-3,1.45,7.35,7.35,0,0,1-3.38-.21c-.27-.08-.46-.12-.73-.22a7.75,7.75,0,0,1-.79-.33,7.62,7.62,0,0,1-1.47-.9,10.24,10.24,0,0,1-1.23-1.12c-.33-.38-.62-.68-1-1.18a6,6,0,0,1-.91-1.79,5.51,5.51,0,0,1-.19-2,4.75,4.75,0,0,1,.56-1.81,6.63,6.63,0,0,1,.39-.67c.13-.22.3-.46.46-.68C207.51,434.75,208.09,433.8,209.65,433.93Z"/><path class="cls-1" d="M224,436.53a11.26,11.26,0,0,1-1.88,5.22,30.27,30.27,0,0,0-2.7,4.48,4.83,4.83,0,0,0-.29,2.14,2.45,2.45,0,0,0,.22.87,1.17,1.17,0,0,0,.19.27l.23.2,2.09,1.59a6.84,6.84,0,0,1,2.19,2.88,6.74,6.74,0,0,1,.41,3.56,9.39,9.39,0,0,1-1.09,3.21,11.55,11.55,0,0,1-4.43,4.4,13.37,13.37,0,0,1-5.63,1.72,4.75,4.75,0,0,1-4.68-3,4.4,4.4,0,0,0,4.56,2.05,12,12,0,0,0,4.71-2.31,9.29,9.29,0,0,0,3-4A4.31,4.31,0,0,0,219.3,454l-.51-.36-.54-.44a10.27,10.27,0,0,1-1.15-1,4.76,4.76,0,0,1-.67-.92,5.07,5.07,0,0,1-.41-1,5.73,5.73,0,0,1-.12-2,7,7,0,0,1,1.17-3.21,12.15,12.15,0,0,1,2.06-2.24c.7-.62,1.34-1.24,2-1.87A10.56,10.56,0,0,0,224,436.53Z"/><path class="cls-1" d="M231.35,435.27a39.59,39.59,0,0,1,1.85,6.58,28.45,28.45,0,0,1,.44,3.46,29.46,29.46,0,0,1,.07,3.52,30.16,30.16,0,0,1-1.05,7.08c-.16.58-.34,1.16-.53,1.72s-.36,1.09-.58,1.64a20.94,20.94,0,0,1-1.65,3.42,18.47,18.47,0,0,1-1.08,1.54,18.11,18.11,0,0,1-1.29,1.49,14.41,14.41,0,0,1-3.2,2.4,16.18,16.18,0,0,1-3.69,1.45,23.43,23.43,0,0,1-3.7.62,11,11,0,0,1-4-.46c-.34-.1-.59-.19-.89-.29s-.6-.22-.92-.36a7.34,7.34,0,0,1-1.81-1.12,6.09,6.09,0,0,1-2-3.51,6.74,6.74,0,0,1,0-1.95c.11-.59,0-1.21.77-1.68.56.64.4,1.15.49,1.69a3,3,0,0,0,.14.72,4,4,0,0,0,.3.67,4.5,4.5,0,0,0,1.87,1.94,6.91,6.91,0,0,0,2.72.6,12.33,12.33,0,0,0,2.84-.22,14.16,14.16,0,0,0,9.85-6.06,16,16,0,0,0,1.54-2.63c.48-1,1-2,1.37-3a33.13,33.13,0,0,0,1.86-6.1,28.16,28.16,0,0,0,.46-3.19,25.09,25.09,0,0,0,.16-3.25C231.63,439.82,231.53,437.56,231.35,435.27Z"/><path class="cls-1" d="M213.87,359.89c.72-.33,1,.07,1.47.19s.87.31,1.3.47.85.35,1.29.47l.65.24.32.12c.12,0,.21.11.23.55-.21.37-.34.39-.46.35l-.35-.08-.71-.15a7.45,7.45,0,0,1-1.38-.46,8.24,8.24,0,0,1-1.31-.62C214.54,360.67,214,360.64,213.87,359.89Z"/><path class="cls-1" d="M240.7,284.18c-2.49,1.88-5.06,3.57-7.58,5.35s-5.08,3.48-7.49,5.39-4.76,3.88-7,6-4.31,4.36-6.36,6.68A150.64,150.64,0,0,0,200.77,322a111.76,111.76,0,0,0-9.32,15.86,58.37,58.37,0,0,0-3.09,8.53c-.83,2.94-1.58,5.89-2.16,8.88s-1,6-1.38,9-.51,6-.54,9a55.67,55.67,0,0,0,2.56,17.55,26.57,26.57,0,0,0,4,7.78,11.33,11.33,0,0,0,7.4,4.52c-3.13.49-6.45-1-8.82-3.18a25,25,0,0,1-5.5-7.94,40.51,40.51,0,0,1-2.76-9.21,50.87,50.87,0,0,1-.81-9.52,81,81,0,0,1,.66-9.48,76.34,76.34,0,0,1,1.83-9.27c.77-3,1.65-6.06,2.72-9a61.78,61.78,0,0,1,3.8-8.66,124.66,124.66,0,0,1,10.21-15.67,173.51,173.51,0,0,1,11.79-14.42c2.06-2.31,4.19-4.59,6.46-6.71a90.77,90.77,0,0,1,7.14-6A100.81,100.81,0,0,1,240.7,284.18Z"/><path class="cls-1" d="M203.25,396.4c.58.19.74.44.8.66a2.68,2.68,0,0,1,0,.69,4,4,0,0,1-.3,1.32,10.81,10.81,0,0,1-1.37,2.32,11.44,11.44,0,0,1-4.16,3.13,15.4,15.4,0,0,1-5,1.3,13.7,13.7,0,0,1-2.64,0l-1.27-.16-1.26-.26a18,18,0,0,1-9-5.25,26,26,0,0,1-5.3-8.8,55,55,0,0,1-3.11-19.49,64.44,64.44,0,0,1,3.24-19.38,61.56,61.56,0,0,1,3.81-9.09c1.58-2.93,3.4-5.6,5.15-8.2s3.71-5.22,5.72-7.69,4.06-4.89,6.2-7.23,4.33-4.63,6.53-6.86,4.41-4.48,6.69-6.66a134,134,0,0,1,14.4-12.13,131.84,131.84,0,0,0-13.68,12.83c-2.12,2.28-4.18,4.64-6.24,7s-4.09,4.73-6,7.18A144.29,144.29,0,0,0,185.83,337c-1.6,2.7-3.19,5.37-4.5,8.15a62.84,62.84,0,0,0-3.26,8.64A70.82,70.82,0,0,0,175.14,372a54.88,54.88,0,0,0,2.3,18.17,23.24,23.24,0,0,0,4.21,7.83,14.63,14.63,0,0,0,7.22,4.66l1.06.26,1.09.19a10.69,10.69,0,0,0,2.12.1,13,13,0,0,0,4.19-.9,9.23,9.23,0,0,0,3.38-2.32,6.11,6.11,0,0,0,1-1.67c.06-.15.17-.28.22-.44a1.82,1.82,0,0,1,.21-.45C202.43,397.06,202.06,396.77,203.25,396.4Z"/><path class="cls-1" d="M188.13,345.5a.64.64,0,0,1,.72.19l.53.41c.35.27.72.53,1.08.78.73.51,1.48,1,2.24,1.47,1.48,1,3.05,1.87,4.57,2.8l2.3,1.37c.77.46,1.58.83,2.36,1.25s1.58.84,2.38,1.23c.38.2.81.39,1.22.62a6,6,0,0,0,.56.29,1.72,1.72,0,0,0,.26.1s.09,0,.12.05a1.26,1.26,0,0,1,.11.41c-.06.24-.15.35-.23.38a.71.71,0,0,1-.21,0l-.37-.11c-.23-.09-.45-.19-.65-.29-.4-.19-.79-.34-1.22-.53a26.21,26.21,0,0,1-2.45-1.18c-.79-.42-1.61-.81-2.39-1.28L196.75,352c-1.55-.93-3.17-1.75-4.67-2.74-.76-.5-1.53-1-2.25-1.55-.36-.28-.71-.57-1.06-.87l-.52-.45C188.09,346.24,187.82,346.19,188.13,345.5Z"/><path class="cls-1" d="M187.59,323.11a66.9,66.9,0,0,1-6.82,6.2c-2.46,1.86-5,3.52-7.6,5.22s-5.13,3.37-7.73,5c-1.31.82-2.61,1.63-4,2.39a37.14,37.14,0,0,1-4.29,1.93,82.66,82.66,0,0,1-8.86,2.91c-1.5.39-2.9.77-4.3,1.27s-2.8,1-4.14,1.67a22.05,22.05,0,0,0-3.73,2.17,14,14,0,0,0-2.95,2.85,6.26,6.26,0,0,0-1.47,3.19,2.67,2.67,0,0,0,0,.35,2.14,2.14,0,0,0,.12.38,1.05,1.05,0,0,0,.23.33.56.56,0,0,0,.28.24,6.12,6.12,0,0,0,1.25.28,2.21,2.21,0,0,1-.86,1,1.92,1.92,0,0,1-1.56.18,2.32,2.32,0,0,1-1.27-1,3.91,3.91,0,0,1-.33-.64,4.12,4.12,0,0,1-.21-.73,5.68,5.68,0,0,1,.26-2.87,10.81,10.81,0,0,1,1.19-2.32,15.77,15.77,0,0,1,3.54-3.61,25.19,25.19,0,0,1,4.2-2.53c1.44-.71,2.91-1.32,4.4-1.88a41.43,41.43,0,0,1,4.56-1.38c1.46-.37,2.86-.81,4.3-1.25s2.86-.88,4.27-1.37,2.8-1,4-1.6,2.65-1.36,4-2.1l8-4.43c2.69-1.46,5.42-2.89,8-4.48A84,84,0,0,0,187.59,323.11Z"/><path class="cls-1" d="M140.4,354.94l-3.12,3.21c-1,1.08-2,2.07-3,3.06-.48.51-.95,1-1.4,1.54s-.92,1.1-1.32,1.65a20.72,20.72,0,0,0-2,3.45,10.78,10.78,0,0,0-1.1,3.7,14.89,14.89,0,0,0,.09,3.88,10.48,10.48,0,0,0,1.37,3.79,8.23,8.23,0,0,0,1.3,1.64,3,3,0,0,0,.82.57,1.52,1.52,0,0,0,1,0,1.59,1.59,0,0,1-1.13.59,3,3,0,0,1-1.35-.24,7.71,7.71,0,0,1-2.12-1.32,9.09,9.09,0,0,1-2.7-4.2,12.62,12.62,0,0,1-.46-5,14,14,0,0,1,1.39-4.7,16.6,16.6,0,0,1,2.58-4c.51-.6,1-1.15,1.55-1.69a18.06,18.06,0,0,1,1.7-1.57,32.33,32.33,0,0,1,3.88-2.41A35.64,35.64,0,0,1,140.4,354.94Z"/><path class="cls-1" d="M148.43,365.78a9.39,9.39,0,0,1-1.26,3.44,6.16,6.16,0,0,1-1.12,1.47c-.44.41-.9.78-1.33,1.17a25.73,25.73,0,0,1-2.75,2.41,3.7,3.7,0,0,1-1.11.49,7.65,7.65,0,0,1-1.14.14,8.86,8.86,0,0,1-2-.1c-.38-.07-.66-.17-.77-.17a4.89,4.89,0,0,0-.53,0,3.33,3.33,0,0,0-1.15.33,5.47,5.47,0,0,0-1,.71,9.18,9.18,0,0,1-.7.6l-.55.44a1.25,1.25,0,0,0-.25.28s0,0-.05.07a1.41,1.41,0,0,0-.06.22c-.05.24,0,1-.07,1.26a3.17,3.17,0,0,0,.07.63c-.06,0,.09.26.24.46a2.05,2.05,0,0,1,.68,1.81,1.81,1.81,0,0,1-2-.38,3,3,0,0,1-.87-.86,3.86,3.86,0,0,1-.59-1,5.52,5.52,0,0,1-.27-1.09,4.66,4.66,0,0,1,0-1.74,3.15,3.15,0,0,1,.25-.75,4.15,4.15,0,0,1,.79-1.1,8.65,8.65,0,0,1,.76-.69c.25-.2.27-.22.62-.53a6.36,6.36,0,0,1,1.9-1.12,6.17,6.17,0,0,1,2.23-.41,4.67,4.67,0,0,1,1.2.16,5.2,5.2,0,0,1,.89.35,5.41,5.41,0,0,0,1.38.41,1.74,1.74,0,0,0,.6,0,1.91,1.91,0,0,0,.46-.23,20.7,20.7,0,0,0,2.57-2.06c.43-.39.82-.81,1.21-1.21s.77-.73,1.2-1.11C146.66,367.38,147.49,366.59,148.43,365.78Z"/><path class="cls-1" d="M146.16,367.8c-.4,1.07-.79,2.12-1.16,3.18s-.66,2.13-.95,3.19a25,25,0,0,0-.68,3.17,17.89,17.89,0,0,0-.23,3.11,7.71,7.71,0,0,0,.63,2.76,5.54,5.54,0,0,0,.66,1.17,6.22,6.22,0,0,0,.88,1,5.35,5.35,0,0,0,2.23,1.24,6.8,6.8,0,0,0,2.43.24l-.16.07.15-.06H150l.09,0,.19,0a2.62,2.62,0,0,0,.4-.11,6.5,6.5,0,0,0,.8-.3,4.61,4.61,0,0,0,.71-.4.92.92,0,0,0,.31-.86,1.28,1.28,0,0,1,.93,1.19,3.35,3.35,0,0,1-.33,1.57,4.45,4.45,0,0,1-.81,1.23,3.57,3.57,0,0,1-.53.5l-.29.23-.17.11-.09.05,0,0h0l.18-.07-.23.09a5.39,5.39,0,0,1-2.38.64,6.44,6.44,0,0,1-1.18-.08l-.53-.1-.52-.14a9.17,9.17,0,0,1-3.85-2.28,9.92,9.92,0,0,1-1.35-1.69,9,9,0,0,1-.51-1,10.15,10.15,0,0,1-.39-1,10.93,10.93,0,0,1-.53-4.09,14.72,14.72,0,0,1,.33-1.92c.14-.57.29-1.14.47-1.74a21,21,0,0,1,1.44-3.3A25.29,25.29,0,0,1,146.16,367.8Z"/><path class="cls-1" d="M186.88,324.07c-1,1-1.89,2.07-2.78,3.15l-2.59,3.31c-1.68,2.24-3.42,4.44-5,6.74s-3.26,4.55-4.84,6.87-3.12,4.61-4.5,7a53.13,53.13,0,0,0-3.63,7.43c-.5,1.28-.95,2.58-1.33,3.89s-.68,2.66-1,4a39.44,39.44,0,0,0-.81,4,10.77,10.77,0,0,0,.28,3.75,13.37,13.37,0,0,0,.6,1.85,11,11,0,0,0,.72,1.16c.26.36.36.61.88.75.18.05.34.25.49-.17a6.19,6.19,0,0,0,.34-1,3.85,3.85,0,0,1,.23,1.08,1.42,1.42,0,0,1-.06.68,1.39,1.39,0,0,1-.53.63,3,3,0,0,1-.66.34,2.58,2.58,0,0,1-.8.13,3.67,3.67,0,0,1-1.55-.36,5.3,5.3,0,0,1-2.17-2.1,10.64,10.64,0,0,1-.57-1.1c-.15-.33-.31-.68-.44-1.06a15.13,15.13,0,0,1-.64-2.49c-.14-.82-.27-1.69-.37-2.62a19,19,0,0,1-.17-2.51,7.81,7.81,0,0,1,.42-2.16c.43-1.33.86-2.72,1.4-4.17s1.14-2.81,1.79-4.17a57.36,57.36,0,0,1,4.51-7.65c.83-1.19,1.64-2.34,2.54-3.52s1.82-2.22,2.73-3.3c1.81-2.15,3.68-4.28,5.55-6.41s3.82-4.17,5.77-6.2l3-3C184.7,325.88,185.79,325,186.88,324.07Z"/><path class="cls-1" d="M177.44,336.88a.51.51,0,0,1,.6.07l.39.3.78.59c.27.18.5.4.76.6l.38.31.18.16c.07,0,.11.13,0,.42-.3.31-.4.3-.47.26l-.22-.13-.45-.24a5.52,5.52,0,0,1-.82-.62l-.72-.7-.35-.36C177.4,337.42,177.3,337.27,177.44,336.88Z"/><path class="cls-1" d="M119.15,354a40.14,40.14,0,0,1-13.21,4.7,63.49,63.49,0,0,1-7,.82c-2.32.2-4.71.27-7,.3s-4.65.3-7,.57a51.64,51.64,0,0,0-6.79,1.36,58.05,58.05,0,0,0-6.56,2.2,46.55,46.55,0,0,0-6.22,2.9c-3.89,2.27-7.47,5.23-9.51,9.07a20.77,20.77,0,0,0-1.31,3,4.34,4.34,0,0,0,0,2.76,6.44,6.44,0,0,0,1.57,2.52,8.72,8.72,0,0,0,2.68,1.7,6.28,6.28,0,0,0,3,.66,6.15,6.15,0,0,0,3-1,5,5,0,0,0,2-2.33,3.34,3.34,0,0,0,.22-1.51,6.31,6.31,0,0,1,.32-1.94,5.34,5.34,0,0,1,.93-1.82,5,5,0,0,1,1.67-1.3,6.06,6.06,0,0,1,4-.32,3.52,3.52,0,0,1,1.79,1.15,5,5,0,0,1,.84,1.84,4.7,4.7,0,0,1,.24,1.9,2.09,2.09,0,0,1-.88,1.72c-.21-.66-.29-1.21-.42-1.74a8.52,8.52,0,0,0-.57-1.46,2.85,2.85,0,0,0-.58-1.06,1.75,1.75,0,0,0-.89-.45,4.76,4.76,0,0,0-2.58.26,3,3,0,0,0-1,.74,6.18,6.18,0,0,0-.76,1.18,5.78,5.78,0,0,0-.6,1.43c-.06.27-.13.6-.22.93a9.23,9.23,0,0,1-2.59,4.13A9,9,0,0,1,62,388.78a10.25,10.25,0,0,1-4.38-.09,11,11,0,0,1-4.15-1.62,11.1,11.1,0,0,1-1.87-1.64,9.63,9.63,0,0,1-1.52-2.2,9.16,9.16,0,0,1-.83-2.78,9.82,9.82,0,0,1,.11-3,20.6,20.6,0,0,1,.64-2.26l.32-.9c.13-.34.27-.68.42-1a19,19,0,0,1,5.3-6.78,24.06,24.06,0,0,1,6.94-4,34.45,34.45,0,0,1,7.37-1.85c2.45-.43,4.89-.71,7.3-.95s4.8-.34,7.16-.48,4.7-.25,7.07-.19,4.67,0,7-.13,4.66-.36,6.95-.72a55,55,0,0,0,6.81-1.57A40.7,40.7,0,0,0,119.15,354Z"/><path class="cls-1" d="M66.35,384.09a2.68,2.68,0,0,1-.32,1,3.77,3.77,0,0,1-.59.88,4.78,4.78,0,0,1-1.75,1.4,3.8,3.8,0,0,1-2.73.12,4.72,4.72,0,0,1-2.23-1.61,7.21,7.21,0,0,1-.67-1,5.61,5.61,0,0,1-.5-1.21,6.81,6.81,0,0,1-.24-2.45,11.75,11.75,0,0,1,1-4.21,24.66,24.66,0,0,1,11-11.08,33.34,33.34,0,0,1,3.51-1.53c1.17-.44,2.34-.89,3.53-1.29,2.37-.81,4.8-1.45,7.2-2.05A46.91,46.91,0,0,1,91,359.68c2.5-.28,5-.1,7.44-.31-2.45.4-5,.42-7.36.88a46,46,0,0,0-7.1,1.93c-2.35.78-4.67,1.59-6.91,2.56-1.12.48-2.23,1-3.34,1.53A31.63,31.63,0,0,0,70.51,368a22.16,22.16,0,0,0-8.68,10.53,8.82,8.82,0,0,0-.53,3,3.62,3.62,0,0,0,.16,1.18,3.32,3.32,0,0,0,.2.47c.12.25.21.39.29.55a7.36,7.36,0,0,0,.41.62.93.93,0,0,0,.65.38,4.35,4.35,0,0,0,1.49-.07A7.38,7.38,0,0,0,66.35,384.09Z"/><path class="cls-1" d="M291.13,383.86l7.37-2.38a58.87,58.87,0,0,1,7.59-2.07c1.3-.25,2.61-.44,3.93-.59l4-.36a22.23,22.23,0,0,1,4.38.05c.78.11,1.39.2,2.15.36a9.8,9.8,0,0,1,2.42.83,8.83,8.83,0,0,1,2.3,1.65,8.93,8.93,0,0,1,1.68,2.25,10,10,0,0,1,1,2.45l.25,1.05a10.36,10.36,0,0,1,.21,1.28,9.41,9.41,0,0,1-.22,3,8.09,8.09,0,0,1-1.27,2.72,7.68,7.68,0,0,1-2,2,7.47,7.47,0,0,1-2.53,1.17,8.12,8.12,0,0,1-2.54.24,8.7,8.7,0,0,1-2.4-.43,8.91,8.91,0,0,1-3.73-2.45,18.86,18.86,0,0,1-1.31-1.55c-.2-.27-.39-.55-.59-.77a1.1,1.1,0,0,0-.72-.37,2.83,2.83,0,0,0-1.66.27,6.56,6.56,0,0,0-.7.36c-.22.16-.35.3-1,.15a.89.89,0,0,1,.37-1.16,2.88,2.88,0,0,1,1-.47,3.85,3.85,0,0,1,2.18.19,2.73,2.73,0,0,1,.95.6c.25.25.45.47.69.68a18,18,0,0,0,1.49,1.15,6.09,6.09,0,0,0,3.32,1.16,6.66,6.66,0,0,0,3.27-.76,5.2,5.2,0,0,0,2.12-2.24,4.68,4.68,0,0,0,.46-2.87c-.35-2.37-1.05-4.46-2.8-5.75-3.86-2.74-9.43-2.58-14.44-2.29a58.28,58.28,0,0,0-7.6,1.2C296.14,382.66,293.64,383.29,291.13,383.86Z"/><path class="cls-1" d="M290.89,384c1.59-.53,3.19-1,4.81-1.38s3.23-.87,4.95-1.14,3.38-.19,5.05-.25a40.34,40.34,0,0,1,5.12.15,10.23,10.23,0,0,1,2.77.69,10.86,10.86,0,0,1,2.53,1.39,9.33,9.33,0,0,1,3.19,4.92,6.17,6.17,0,0,1,.25,1.66,3.35,3.35,0,0,1-.19,1.14,4.5,4.5,0,0,1-.49.89,4.22,4.22,0,0,1-1.45,1.21,3.48,3.48,0,0,1-1.79.37,5.48,5.48,0,0,1-.73-.07,4,4,0,0,1-.76-.17,5,5,0,0,1-1.33-.65,2.75,2.75,0,0,1-.52-.43l-.46-.37a9.85,9.85,0,0,0-1.07-.68,4.42,4.42,0,0,1,1.31,0,9.56,9.56,0,0,1,1.25.27,5.14,5.14,0,0,0,2.14,0,1.78,1.78,0,0,0,.72-.33,1.74,1.74,0,0,0,.48-.57,1.21,1.21,0,0,0,.11-.3,1,1,0,0,0,0-.22,3.49,3.49,0,0,0-.2-.88l-.38-1.05a7,7,0,0,0-.47-.95,5.43,5.43,0,0,0-1.32-1.53,8,8,0,0,0-1.88-1.08,7.56,7.56,0,0,0-2.09-.64c-1.53-.25-3.19-.33-4.82-.47s-3.31-.27-4.9-.28c-.78,0-1.61.15-2.42.21l-2.46.19C294.2,383.71,292.55,383.89,290.89,384Z"/><path class="cls-1" d="M404.39,173.74c-1.79-1.36-3.54-2.78-5.3-4.2s-3.49-2.86-5.2-4.36-3.41-3-5.05-4.57l-2.44-2.4-1.23-1.2c-.42-.39-.87-.81-1.29-1.24a17.78,17.78,0,0,1-2.45-2.93,10.75,10.75,0,0,1-1.58-3.87,8.78,8.78,0,0,1,.32-4.52,8,8,0,0,1,2.9-3.93,7.65,7.65,0,0,1,4.52-1.43,9.46,9.46,0,0,1,4.09.94,7.42,7.42,0,0,1,3.17,2.67,3.49,3.49,0,0,1,.46,2.07,4.43,4.43,0,0,1-.51,1.79,4.06,4.06,0,0,0-1-3,6.17,6.17,0,0,0-2.85-1.22c-2.05-.43-4.26-.18-5.61,1.06a5.92,5.92,0,0,0-1.63,5.14,9.62,9.62,0,0,0,.79,2.86,15.46,15.46,0,0,0,1.54,2.73,111.7,111.7,0,0,0,8.62,10.21q2.32,2.43,4.77,4.76C401.08,170.68,402.71,172.24,404.39,173.74Z"/><path class="cls-1" d="M394.8,146.56a2.06,2.06,0,0,0-3,.23,3,3,0,0,0-.65,1.31,6.68,6.68,0,0,0-.33,1.66,6,6,0,0,0,0,.85l.07.89a13.07,13.07,0,0,0,.37,1.82,32.19,32.19,0,0,0,1.2,3.71,20,20,0,0,0,1.82,3.41c.36.56.73,1.15,1.12,1.7s.79,1.1,1.18,1.66c.78,1.1,1.53,2.25,2.29,3.38l2.32,3.4A51.91,51.91,0,0,1,395,165a38.88,38.88,0,0,1-2.8-3.08,18.22,18.22,0,0,1-2.4-3.7,22.81,22.81,0,0,1-1.52-4.09,16.46,16.46,0,0,1-.51-2.24,4.77,4.77,0,0,1-.06-.63l0-.57a7.79,7.79,0,0,1,.07-1.26,7,7,0,0,1,.83-2.4A4.67,4.67,0,0,1,390.5,145a3.53,3.53,0,0,1,1.35-.4,3.14,3.14,0,0,1,1.39.1A2.08,2.08,0,0,1,394.8,146.56Z"/><path class="cls-1" d="M343.22,366.54c2.78-.71,5.56-1.41,8.29-2.27a84.3,84.3,0,0,0,8.12-2.76c5.32-2.14,10.59-4.45,15.86-6.73s10.54-4.59,15.87-6.8c2.66-1.09,5.32-2.22,8.14-3.16s5.57-1.79,8.44-2.51a67.64,67.64,0,0,1,8.81-1.58,28.93,28.93,0,0,1,9.55.26,24.7,24.7,0,0,1,9,4.11,19.6,19.6,0,0,1,3.84,3.51,15.85,15.85,0,0,1,1.56,2.31l.29.56.27.55c.18.39.37.81.54,1.26a10.11,10.11,0,0,1,.25,6.53,10.43,10.43,0,0,1-3.82,5.12,10.83,10.83,0,0,1-5.62,2.21,8,8,0,0,1-3.37-.53,9.42,9.42,0,0,1-2.5-1.5l-.88-.73c-.3-.26-.63-.55-.94-.85a13.21,13.21,0,0,1-1.32-1.51.91.91,0,0,0-.39-.31,3,3,0,0,0-.63-.29,3.53,3.53,0,0,0-1.31-.19,3.11,3.11,0,0,0-1.34.46,2.49,2.49,0,0,0-1,1,2.34,2.34,0,0,0-.26,1.43,19.66,19.66,0,0,1,.07,2.13,2,2,0,0,1-1.32-.46,2.33,2.33,0,0,1-.76-1.09,4.67,4.67,0,0,1-.07-2.77,5.13,5.13,0,0,1,1.47-2.36,6.4,6.4,0,0,1,2.34-1.38,6,6,0,0,1,2.74-.21,7.45,7.45,0,0,1,1.32.31,5.88,5.88,0,0,1,1.32.64c.92.68,1.21,1.09,1.74,1.46.24.19.5.36.78.55l.85.59a4,4,0,0,0,2.92.91,6,6,0,0,0,3-1.46,5.19,5.19,0,0,0,1.8-2.62,5.7,5.7,0,0,0-.09-3.21,14.93,14.93,0,0,0-.66-1.86,11.46,11.46,0,0,0-.87-1.71,12,12,0,0,0-2.72-2.95,20.51,20.51,0,0,0-7.25-3.77,26,26,0,0,0-8.26-.6,65.08,65.08,0,0,0-8.44,1.05c-2.79.54-5.57,1.21-8.31,2s-5.43,1.75-8.13,2.7c-5.41,1.93-10.77,4-16.14,6l-16.11,6.11A97.87,97.87,0,0,1,343.22,366.54Z"/><path class="cls-1" d="M423.42,357.59a6.59,6.59,0,0,0,2.42.14l.54-.11a2.28,2.28,0,0,0,.46-.14,1.92,1.92,0,0,0,.59-.41,2.38,2.38,0,0,0,.36-.58,2.75,2.75,0,0,0,.24-.75,1.84,1.84,0,0,0-.28-1.3c-1.32-2.21-4.34-3.43-7.44-4.09a62,62,0,0,0-9.81-1.08,65.2,65.2,0,0,0-10,.53,89.63,89.63,0,0,0-9.86,1.86c-3.25.79-6.43,1.86-9.61,3-6.37,2.2-12.69,4.52-19.09,6.64,6.34-2.3,12.59-4.81,18.86-7.25,3.14-1.22,6.31-2.42,9.58-3.34a90.48,90.48,0,0,1,9.91-2.25,93,93,0,0,1,10.15-1.14c1.72-.09,3.43-.14,5.14-.13a35.51,35.51,0,0,1,5.21.34,18.7,18.7,0,0,1,5.27,1.42,11.48,11.48,0,0,1,2.51,1.56,8.84,8.84,0,0,1,2,2.39,5,5,0,0,1,.67,2.69,3.2,3.2,0,0,1-.06.51c0,.15-.07.3-.11.44a5.54,5.54,0,0,1-.75,1.6,4.16,4.16,0,0,1-1.41,1.25,3.55,3.55,0,0,1-1.8.44,4.12,4.12,0,0,1-.82-.09c-.22-.07-.47-.13-.72-.22A3.91,3.91,0,0,1,423.42,357.59Z"/><path class="cls-1" d="M433.57,210.94c-2-3.85-4.07-7.7-6-11.6s-3.74-7.92-5.29-12a124.87,124.87,0,0,1-4.08-12.59c-.58-2.15-1.09-4.27-1.61-6.4a56.47,56.47,0,0,1-1.34-6.71A33.65,33.65,0,0,1,415,158c0-1.11.06-2.3.17-3.5a26.62,26.62,0,0,1,1.72-7.16q.35-.87.75-1.71c.25-.53.51-1,.81-1.6a24.24,24.24,0,0,1,2.1-3.11,21.12,21.12,0,0,1,5.69-4.88,19,19,0,0,1,7.1-2.59,14.91,14.91,0,0,1,7.55.85,11.42,11.42,0,0,1,1.73.91c.29.19.51.35.76.53s.51.39.76.62a5.9,5.9,0,0,1,1.38,1.74,4.47,4.47,0,0,1,.47,2.26,4.67,4.67,0,0,1-.61,2.07A4.62,4.62,0,0,1,444,144a4.57,4.57,0,0,1-1.87.74,3.16,3.16,0,0,1-1.06,0,1.89,1.89,0,0,1-.52-.18c-.15-.13-.27-.34-.15-.77.37-.31.49-.4.58-.4a2.34,2.34,0,0,0,.26,0,2,2,0,0,0,.58-.07,3,3,0,0,0,1.85-1.66,2.87,2.87,0,0,0,.19-1.22,2.55,2.55,0,0,0-1.28-1.92,12.7,12.7,0,0,0-1.27-.7,9.06,9.06,0,0,0-1.35-.49,12.18,12.18,0,0,0-5.82-.09,15.33,15.33,0,0,0-5.42,2.45A22.25,22.25,0,0,0,421,149a21.63,21.63,0,0,0-1.77,6c-.15,1-.25,2.11-.32,3.18a30.87,30.87,0,0,0-.05,3.19,61.3,61.3,0,0,0,.76,6.4c.33,2.15.72,4.28,1.14,6.41a124.2,124.2,0,0,0,3.18,12.6c1.26,4.15,2.78,8.22,4.43,12.24S431.82,207,433.57,210.94Z"/><path class="cls-1" d="M430.58,203.79l-1.75-4.69-1.64-4.72-.82-2.37-.65-2.41-1.3-4.85a96.94,96.94,0,0,1-1.8-9.88c-.48-3.35-.81-6.62-1-10a34.09,34.09,0,0,1,1-10.25,28.69,28.69,0,0,1,4.37-9.39,18.22,18.22,0,0,1,3.59-3.94,12.53,12.53,0,0,1,4.82-2.38,10.23,10.23,0,0,1,5.33.24,3.83,3.83,0,0,1,2.16,1.65,1.71,1.71,0,0,1,.24,1.37,1.82,1.82,0,0,1-.82,1,1.56,1.56,0,0,0,.43-1.07,1.14,1.14,0,0,0-.42-.88,2.8,2.8,0,0,0-1.92-.79A9.38,9.38,0,0,0,436,141a12.4,12.4,0,0,0-3.63,2.44,16.37,16.37,0,0,0-2.69,3.56,37.14,37.14,0,0,0-4,8.47,32.66,32.66,0,0,0-1.66,9.31c-.06,3.23.1,6.61.36,9.86a96.34,96.34,0,0,0,1.17,9.84l1,4.86.5,2.44.66,2.4,1.35,4.81Z"/><path class="cls-1" d="M388.69,305A86.34,86.34,0,0,0,398,287.42a83.11,83.11,0,0,0,5.15-19.09,75.72,75.72,0,0,0,.79-9.84,70.35,70.35,0,0,0-.58-9.84,79.57,79.57,0,0,0-5-19,73.78,73.78,0,0,0-9.83-16.84,56.4,56.4,0,0,0-6.7-7.23,71.67,71.67,0,0,0-7.6-6.18,23.52,23.52,0,0,0-4.07-2.26,25.72,25.72,0,0,0-4.47-1.39,24,24,0,0,0-4.63-.55,30.51,30.51,0,0,0-4.7.28,8.63,8.63,0,0,0-3.91,1.4,5.22,5.22,0,0,0-2.3,3,3.29,3.29,0,0,0,.94,3.33,2.31,2.31,0,0,0,.84.47,6.62,6.62,0,0,0,1.12.15c.84,0,1.68.14,2.52.21l-2.41,1a5.87,5.87,0,0,1-1.45.41,4.25,4.25,0,0,1-1.76-.19,5.44,5.44,0,0,1-1.62-.84A5.9,5.9,0,0,1,347,203a6.85,6.85,0,0,1-.81-1.79,8.87,8.87,0,0,1-.22-.93,7,7,0,0,1-.09-1,7.58,7.58,0,0,1,1-3.82,8.54,8.54,0,0,1,1.09-1.46,12.29,12.29,0,0,1,1.27-1.2,11.53,11.53,0,0,1,3.19-1.77,17.23,17.23,0,0,1,3.06-.82,37.66,37.66,0,0,1,5.63-.6,29.06,29.06,0,0,1,5.8.43,31.68,31.68,0,0,1,5.62,1.56,27.3,27.3,0,0,1,5.33,2.79,56.85,56.85,0,0,1,8.13,6.88,55,55,0,0,1,6.74,8,79.5,79.5,0,0,1,9.65,18.8,89.19,89.19,0,0,1,2.69,10,77.07,77.07,0,0,1,1.43,10.22,73.19,73.19,0,0,1,0,10.26,79,79,0,0,1-1.42,10.09,80,80,0,0,1-2.59,9.78c-1.05,3.2-2.35,6.3-3.7,9.35A94.93,94.93,0,0,1,388.69,305Z"/><path class="cls-1" d="M373.48,208.14a14.43,14.43,0,0,0-5-2.86,22.2,22.2,0,0,0-5.66-1.06,20.21,20.21,0,0,0-10.79,1.9,12.05,12.05,0,0,0-1.1.69,10.19,10.19,0,0,0-1,.78,3.69,3.69,0,0,0-1.1,1.66,12.85,12.85,0,0,1-.55,1.5,9.8,9.8,0,0,1-.86,1.51,6.89,6.89,0,0,1-1.38,1.49,6.13,6.13,0,0,1-1.76,1,5.63,5.63,0,0,1-5.71-.84c-.44-.35-.78-.65-1.2-1a6,6,0,0,1-2-2.86,3.12,3.12,0,0,1,.71-3.21,4.84,4.84,0,0,0,.82,2.51,4.32,4.32,0,0,0,1.79,1.58,10.47,10.47,0,0,0,2.3,1.13,3.21,3.21,0,0,0,2-.26,3.27,3.27,0,0,0,.89-.61,3.81,3.81,0,0,0,.63-.87,11.87,11.87,0,0,0,.54-1.14c.14-.34.17-.65.4-1.32a6.77,6.77,0,0,1,2.27-3.06,12.47,12.47,0,0,1,1.39-.93,14.89,14.89,0,0,1,1.5-.74,16.47,16.47,0,0,1,6.3-1.26,26.48,26.48,0,0,1,6.13.68,24.79,24.79,0,0,1,5.74,2A15.08,15.08,0,0,1,373.48,208.14Z"/><path class="cls-1" d="M365.44,220.8a18,18,0,0,0-5.08,2.1,12,12,0,0,0-3.89,3.48,7.83,7.83,0,0,0-1.64,4.65,8.26,8.26,0,0,0,.37,2.44,9.94,9.94,0,0,0,.94,2.35,7.07,7.07,0,0,0,3.53,3.06,8.29,8.29,0,0,0,4.71.71,7.2,7.2,0,0,0,2.11-.71,14.53,14.53,0,0,0,1.94-1.34c.33-.27.57-.5.78-.67a3.76,3.76,0,0,0,.65-.5,9.2,9.2,0,0,1,.7-.66l.49-.38c.13-.16.35-.26,1.61-.32,1.31.42,1.32.76,1.3,1a2.36,2.36,0,0,1-.13.87,4.86,4.86,0,0,1-.95,1.48c-.36.45-.72.91-1.08,1.4a13.78,13.78,0,0,1-1.05,1.38A8.15,8.15,0,0,1,368,243a11.42,11.42,0,0,1-3.42.94,10.13,10.13,0,0,1-3.56-.21,14,14,0,0,1-1.62-.51c-.44-.18-.95-.39-1.48-.65a11.58,11.58,0,0,1-3-2.1,10.77,10.77,0,0,1-2.06-3,12.2,12.2,0,0,1-1-3.18,11.77,11.77,0,0,1-.18-3.42,10.38,10.38,0,0,1,.91-3.3,7.31,7.31,0,0,1,1.92-2.65A18.44,18.44,0,0,1,365.44,220.8Z"/><path class="cls-1" d="M337.68,204.48c.56,1.59-.11,1.62-.34,2.2l-.23.35a2.59,2.59,0,0,1-.17.38,4.22,4.22,0,0,0-.32.76,7.91,7.91,0,0,0-.49,3.26,12.35,12.35,0,0,0,2.63,6.56,15.16,15.16,0,0,0,5.72,4.66,15.64,15.64,0,0,0,1.7.6,10.42,10.42,0,0,0,1.74.25,8.59,8.59,0,0,0,3.2-.45,11.35,11.35,0,0,0,2.8-1.35,6,6,0,0,0,2-1.93,4,4,0,0,0,.2-2.84,21.83,21.83,0,0,1-1.07-4.06,4.53,4.53,0,0,1,2.18-4.28,8.09,8.09,0,0,1,4.2-1,21.28,21.28,0,0,1,7.82,1.79,20.07,20.07,0,0,0-7.77-1.09,7.39,7.39,0,0,0-3.62,1.2,3.22,3.22,0,0,0-1.31,3.17,19.35,19.35,0,0,0,1.38,3.62,7.46,7.46,0,0,1,.31,4.28,9,9,0,0,1-2.07,4.22,11.23,11.23,0,0,1-4,2.67,12.74,12.74,0,0,1-2.44.7,10.9,10.9,0,0,1-2.66.18,13.44,13.44,0,0,1-2.53-.38,15.56,15.56,0,0,1-2.34-.86,13,13,0,0,1-3.87-2.72,14.19,14.19,0,0,1-1.47-1.78,20.88,20.88,0,0,1-1.27-2,28.91,28.91,0,0,1-1.91-4.26,15.78,15.78,0,0,1-.83-4.61,9.61,9.61,0,0,1,1.12-4.64,6,6,0,0,1,.65-1,4.63,4.63,0,0,1,.77-.88,5,5,0,0,1,.86-.74,1.72,1.72,0,0,1,1.49,0Z"/><path class="cls-1" d="M153.52,267c.78.18.86.33.83.47v.42l0,.86,0,1.7c0,1.14-.13,2.27-.19,3.41-.16,2.27-.38,4.54-.51,6.81s-.23,4.54-.34,6.81l-.31,6.82v-.14a6.17,6.17,0,0,1,0,1.19,4.48,4.48,0,0,1-.27,1.15,2.61,2.61,0,0,1-.85,1.24,2.48,2.48,0,0,1-2,.44,2,2,0,0,1-.49-.15,3.22,3.22,0,0,1-.52-.3A3.28,3.28,0,0,1,148,297a2.94,2.94,0,0,1-.56-1.26,2.07,2.07,0,0,1,0-1.13,2.47,2.47,0,0,1,.36-.55,2,2,0,0,1,1-.56c.74.09,1,.2,1.12.32a.51.51,0,0,1,.2.35,1.33,1.33,0,0,0,.11.7,1.76,1.76,0,0,0,.24.48c0,.05.06.05.06,0l0,0h-.15a.91.91,0,0,0,.17-.18,1.57,1.57,0,0,0,.24-.43c0-.13.33-.14.3-.43v-.16l.52-6.8c.13-2.27.3-4.54.39-6.81s.14-4.55.23-6.83c.06-1.13.06-2.27.17-3.4l.14-1.7.07-.85,0-.43C152.68,267.22,152.76,267.08,153.52,267Z"/><path class="cls-1" d="M270.92,334.41c.65.17.73.33.72.49l0,.47c0,.31,0,.63,0,.94,0,.62,0,1.25-.09,1.87-.1,1.25-.14,2.5-.16,3.76l-.2,7.5-.32,15v-.13a7.21,7.21,0,0,1,0,1.22,5.28,5.28,0,0,1-.22,1.21,2.76,2.76,0,0,1-.79,1.35,2.19,2.19,0,0,1-1,.52,2.8,2.8,0,0,1-1.19,0,2.48,2.48,0,0,1-1.05-.55,3.39,3.39,0,0,1-.64-.71,3.26,3.26,0,0,1-.35-.66,2.87,2.87,0,0,1-.17-.62,2.21,2.21,0,0,1,0-1.17,2.56,2.56,0,0,1,.35-.58,2.05,2.05,0,0,1,1-.6l.47.07.31.08a.85.85,0,0,1,.34.18.63.63,0,0,1,.21.4,1.69,1.69,0,0,0,.13.78,2.34,2.34,0,0,0,.27.57.3.3,0,0,0,.09.1s-.09-.07,0-.05-.21,0-.22,0a.8.8,0,0,0,.2-.24,1.92,1.92,0,0,0,.25-.53c0-.16.33-.24.29-.55l0-.07v-.07l.36-7.5.25-7.51.23-7.5c0-1.25.08-2.51.05-3.76,0-.62,0-1.25,0-1.88l.1-.93.05-.47C270.21,334.7,270.3,334.55,270.92,334.41Z"/><path class="cls-1" d="M143.74,265.49c.71.16.7.28.68.4v.36l0,.73,0,1.45-.09,2.9-.32,5.8c-.22,3.86-.49,7.72-.67,11.59s-.36,7.73-.51,11.6c0,.48,0,1,0,1.45a10.1,10.1,0,0,1,0,1.63,12.08,12.08,0,0,1-.86,3.18,3.54,3.54,0,0,1-1.63,1.81,3.28,3.28,0,0,1-1.5.32,3.43,3.43,0,0,1-1.22-.26,4.51,4.51,0,0,1-.49-.21l-.35-.18-.66-.35a1.16,1.16,0,0,1-.53-.61,1.37,1.37,0,0,1-.13-.53,4.09,4.09,0,0,1,.27-1.16,2.5,2.5,0,0,1,1.3-.81,1.67,1.67,0,0,1,.82,0,3.73,3.73,0,0,1,.64.3l.3.15.17.07c.22.08.16.09,0,.19s.17.08.37-.17.53-.69.77-1a4.42,4.42,0,0,0,.53-1.15,4.15,4.15,0,0,0,.24-1.26c.05-.48.1-1,.12-1.44l.72-11.59c.26-3.86.39-7.73.59-11.6l.3-5.8.24-2.89.11-1.45.06-.72,0-.36C142.92,265.69,142.93,265.56,143.74,265.49Z"/><path class="cls-1" d="M261.5,333.9c.51.16.51.3.49.44v1.27l0,1.7-.06,3.38c-.05,2.26-.06,4.52-.14,6.78L261.28,361c-.15,4.51-.4,9-.44,13.54A18.83,18.83,0,0,0,261,378a11.19,11.19,0,0,1-.3,3.7l-.21.89a6.58,6.58,0,0,1-.39,1.05,3.38,3.38,0,0,1-1,1.21,2.79,2.79,0,0,1-2.07.53,3.83,3.83,0,0,1-1.46-.58l-.76-.52a1.47,1.47,0,0,1-.62-.66,2.37,2.37,0,0,1-.12-.58,1.42,1.42,0,0,1,.11-.49,4.47,4.47,0,0,1,.32-.75,2.55,2.55,0,0,1,1.57-.67,1.33,1.33,0,0,1,.85.2l.64.43c.11.06.17.08.06.06a.78.78,0,0,0-.52.2c-.09.09,0,.07.12,0a1.9,1.9,0,0,0,.34-.47l.35-.71a10.65,10.65,0,0,0,1.08-2.91,19.72,19.72,0,0,0,.32-3.36c.17-4.51.33-9,.45-13.54l.46-13.54.28-6.77.2-3.38.1-1.7.05-.84,0-.42C260.91,334.16,260.92,334,261.5,333.9Z"/><polygon class="cls-1" points="148.45 205.17 145.63 255.31 143.79 255.2 147 205.08 148.45 205.17"/><polygon class="cls-1" points="153.05 258.3 154.36 235.07 155.47 211.82 156.98 211.9 154.72 258.38 153.05 258.3"/><path class="cls-1" d="M147.54,191.35c-.35-.17-.28-.32-.31-.48s0-.31,0-.47l0-.93.08-1.87.16-3.74.3-7.48c.21-5,.17-10,.39-15l.71-15q.33-7.48.79-15l1.27.06-1.28,29.92-.62,15-.32,7.48-.16,3.74-.08,1.87,0,.94a1.82,1.82,0,0,1-.06.46,1.71,1.71,0,0,1-.13.23s0,.08-.12.11a3.09,3.09,0,0,1-.45.1Z"/><path class="cls-1" d="M155.89,200c-.49-.2-.46-.38-.49-.57l-.08-.56a8.08,8.08,0,0,1,0-1.1c0-.74,0-1.47.1-2.21.13-1.47.3-2.93.34-4.4l.41-8.83.76-17.65,1.51-35.3,1.23.06-1.43,35.3-.51,17.66c-.15,2.94-.36,5.88-.55,8.82-.15,1.46-.1,2.94-.12,4.41l0,2.21a4.49,4.49,0,0,1-.06,1.1,4.92,4.92,0,0,1-.14.55C156.75,199.62,156.81,199.81,155.89,200Z"/><path class="cls-1" d="M150,125.52l.45-19.72v-.11a3.87,3.87,0,0,1,.56-1.63,2.67,2.67,0,0,1,.58-.7,2.75,2.75,0,0,1,.82-.47,8.39,8.39,0,0,1,1.5-.56l.74-.11c.25,0,.52.61.73,1.09l0,.24,0,.15-.07.29a1.32,1.32,0,0,1-.14.31,1.44,1.44,0,0,1-.25.28,2.82,2.82,0,0,1-.5.19c-.31.08-.63.07-.87.14a1.39,1.39,0,0,0-.29.1,1.31,1.31,0,0,0-.32.22,1.45,1.45,0,0,0-.44.77v-.1l-.66,9.84c-.24,3.28-.43,6.56-.6,9.84Z"/><path class="cls-1" d="M159.77,122.32a13.24,13.24,0,0,1-.35-4.42v-4.43c.15-3,.34-5.9.52-8.84.11-1.47.3-2.94.42-4.42a38.6,38.6,0,0,1,.55-4.45,9.39,9.39,0,0,1,.7-2.24A6,6,0,0,1,163,91.26a2.9,2.9,0,0,1,1.55-.71,2.76,2.76,0,0,1,1.88.47,2.9,2.9,0,0,1,1.11,1.31,1.75,1.75,0,0,1,.08.75.73.73,0,0,1-.22.4,2.35,2.35,0,0,1-.68.47h-.06a10.37,10.37,0,0,1-1.1,0,1.06,1.06,0,0,1-.47-.08,1.15,1.15,0,0,1-.32-.23.25.25,0,0,1,0-.22,1.57,1.57,0,0,1,0-.16.26.26,0,0,0-.05-.3.55.55,0,0,0-.58-.11.86.86,0,0,0-.59.57,3.69,3.69,0,0,1-.4.86,9.33,9.33,0,0,0-.84,1.84,16.47,16.47,0,0,0-.53,2l-.25,2.18c-.15,1.45-.33,2.9-.44,4.36l-.58,8.79-.17,4.4A12.88,12.88,0,0,1,159.77,122.32Z"/><path class="cls-1" d="M273,184.28a15.3,15.3,0,0,1-.35-4.76l0-4.77.59-9.52c.12-1.58.33-3.17.46-4.75a36.71,36.71,0,0,1,.66-4.79,9.5,9.5,0,0,1,.81-2.39,6.18,6.18,0,0,1,1.59-2.34,3.17,3.17,0,0,1,1.64-.68,3.09,3.09,0,0,1,1.92.5,3.12,3.12,0,0,1,1.17,1.36,1.81,1.81,0,0,1,.11.79.73.73,0,0,1-.2.42,2.32,2.32,0,0,1-.68.5l-.06,0a9.06,9.06,0,0,1-1.1,0,1,1,0,0,1-.47-.09,1.14,1.14,0,0,1-.34-.26.35.35,0,0,1-.07-.25v-.2a.46.46,0,0,0-.17-.34.75.75,0,0,0-.68-.1,1,1,0,0,0-.67.6,4.48,4.48,0,0,1-.2.44l-.27.47a9.84,9.84,0,0,0-.94,2,14.22,14.22,0,0,0-.59,2.2c-.12.77-.19,1.56-.28,2.34-.18,1.57-.37,3.13-.5,4.7l-.63,9.46-.19,4.75A14.81,14.81,0,0,1,273,184.28Z"/><path class="cls-1" d="M262.16,258.29c-1-1.38-.34-2.68-.36-4s.14-2.65.19-4l.3-8,.61-16,1.22-31.92,1,0-.54,16c-.18,5.32-.34,10.64-.59,16l-.7,16-.34,8c-.06,1.33-.13,2.66-.14,4a11.3,11.3,0,0,0,.11,2,5.55,5.55,0,0,1,0,1,1.24,1.24,0,0,1-.11.49C262.74,258,262.8,258.14,262.16,258.29Z"/><path class="cls-1" d="M271.39,264.83a1,1,0,0,1-.53-1c0-.34.07-.67.09-1l.07-2,.11-4,.21-8.07.46-16.14c.05-2.69,0-5.39.05-8.08l.13-8.07c.09-5.38.16-10.76.37-16.15h1l-.13,16.16-.15,16.17-.57,16.15-.28,8.08-.15,4c-.05.68.06,1.36,0,2a8.72,8.72,0,0,1-.07,1C271.92,264.18,272,264.52,271.39,264.83Z"/><polygon class="cls-1" points="263.21 270.62 262.3 324.53 261.01 324.5 262.21 270.6 263.21 270.62"/><polygon class="cls-1" points="272.76 278.42 271.8 327.5 270.51 327.47 271.76 278.39 272.76 278.42"/><path class="cls-1" d="M263.93,187l.23-14,0-1.76a15.83,15.83,0,0,0,0-1.67,11,11,0,0,1,0-1.91,4.62,4.62,0,0,1,.21-1.06,3.36,3.36,0,0,1,.57-1.05,3.6,3.6,0,0,1,1.94-1.29,3.46,3.46,0,0,1,1.2-.08,3.24,3.24,0,0,1,1.31.39,2,2,0,0,1,.73.61,1.64,1.64,0,0,1,.26.59c.05.2.06.37.11.53s.3.59.38.9a.71.71,0,0,1-.17.73,1.83,1.83,0,0,1-1.13.67c-.21,0-.42.08-.62.11l-.29.05a.68.68,0,0,1-.36,0l-.68-.61a4.42,4.42,0,0,1-.55-.64c-.06-.1,0-.09,0-.13a1.13,1.13,0,0,1,.12-.18,1.05,1.05,0,0,1,.3-.25,2.24,2.24,0,0,0,.63-.38.47.47,0,0,0,.11-.45s0,.12.08.22.09.05.05,0a1.32,1.32,0,0,0-1-.17,1.89,1.89,0,0,0-1.12.59c-.57.58-.55,1.62-.72,2.77a15.55,15.55,0,0,1,0,1.81l0,1.75-.21,7c-.08,2.34-.09,4.67-.13,7Z"/><path class="cls-1" d="M213.24,142.21a1.13,1.13,0,0,1-.12.5.71.71,0,0,1-.15.21l-.09.1-.35.4-.72.79c-.5.51-1,1-1.5,1.53a26.06,26.06,0,0,1-3.3,2.72,26.37,26.37,0,0,1-7.74,3.68,32.92,32.92,0,0,1-25.12-3,34,34,0,0,1-7-5.22,36.42,36.42,0,0,1-5.44-6.8,24.53,24.53,0,0,1-2-3.9,26.34,26.34,0,0,1-1.32-4.15h0l1,.57c-2.11.59-4.24,1.1-6.34,1.75l-6.28,2c-2.09.66-4.17,1.42-6.24,2.14s-4.14,1.46-6.1,2.34a52.74,52.74,0,0,0-19.82,16.39,61.31,61.31,0,0,0-3.53,5.42,43,43,0,0,0-2.84,5.78,64.74,64.74,0,0,0-3.65,12.27c-.43,2.08-.65,4.19-.93,6.29s-.33,4.22-.39,6.31a66.63,66.63,0,0,0,1,12.59,63.75,63.75,0,0,0,3.4,12.21c.37,1,.77,2,1.21,2.93s.86,1.94,1.34,2.86c1,1.86,2,3.72,3.14,5.5a73.78,73.78,0,0,0,7.77,10.11,77.76,77.76,0,0,0,9.44,8.6,71.26,71.26,0,0,0,22.78,11.6,77.13,77.13,0,0,0,25.62,3.1h.09a1.33,1.33,0,0,1,.71.23,1.69,1.69,0,0,1,.36.27,2.21,2.21,0,0,1,.35.46l0,0,.16.15c.25,1.54.53,3.07.8,4.6v0l.09.49-.52.11c-1.49.32-3,.72-4.49.92s-3,.35-4.55.42c-3,.13-6,.33-9.07.41a164,164,0,0,1-18.14-1.08A100.27,100.27,0,0,1,127,263.23a130.19,130.19,0,0,1-17.08-6.53,77.88,77.88,0,0,1-16-9.3c-2.47-1.92-4.76-3.86-7-6a62.63,62.63,0,0,1-6.34-6.87,58.85,58.85,0,0,1-9-16.4,56.44,56.44,0,0,1-3.4-18.49,51.52,51.52,0,0,1,3.24-18.58,66.55,66.55,0,0,1,3.94-8.5,69.09,69.09,0,0,1,4.85-7.94A76.83,76.83,0,0,1,92.73,151c2.34-2,4.79-3.88,7.24-5.66s5.06-3.51,7.7-5.07a109,109,0,0,1,16.54-7.92,181.15,181.15,0,0,1,17.24-5.86c2.9-.83,6-1.53,8.85-2.13a69.8,69.8,0,0,0,8.47-2.53,66.44,66.44,0,0,0,8.1-3.55q1.95-1,3.87-2.18l1.9-1.16,1-.6.46-.3.24-.15.11-.07.06,0a.83.83,0,0,0-.16.14l.21-.17c1-.63,1.92-1.32,3-1.94a30,30,0,0,1,3.25-1.65,14.65,14.65,0,0,1,3.67-1.1,7.66,7.66,0,0,1,2.09,0,8.09,8.09,0,0,1,2,.58l4.74,1.67-4.92.82a4.88,4.88,0,0,0-2.55,1.28A8.33,8.33,0,0,0,184,116a14.69,14.69,0,0,0-1.07,6.75,19.44,19.44,0,0,0,1.69,6.77,30,30,0,0,0,3.56,6,31,31,0,0,0,4.75,5.14,16.26,16.26,0,0,0,6.21,3,19.79,19.79,0,0,0,7,.33,22.45,22.45,0,0,0,3.46-.65c.56-.15,1.12-.32,1.67-.52l.82-.32.41-.17.1,0,.05,0,.12,0A.9.9,0,0,1,213.24,142.21Zm-.4.32a.22.22,0,0,0,0,.19s-.11.07-.15.1l-.39.23-.81.44c-.54.28-1.1.52-1.67.75a25.8,25.8,0,0,1-3.54,1.08,21,21,0,0,1-7.59.28,16.88,16.88,0,0,1-7.32-2.94,22.2,22.2,0,0,1-3-2.58c-.89-.91-1.69-1.74-2.56-2.74a21.67,21.67,0,0,1-2.29-3.15c-.34-.57-.66-1.14-1-1.72s-.52-1.21-.75-1.83a18.52,18.52,0,0,1-1-3.81,23.42,23.42,0,0,1-.31-3.91,17,17,0,0,1,1.64-7.61,10.76,10.76,0,0,1,2.36-3.13,6.49,6.49,0,0,1,3.43-1.63l0,.45a2.35,2.35,0,0,0-.84-.13c-.26-.05-.53-.11-.79-.14a5.87,5.87,0,0,0-1.62,0,13.36,13.36,0,0,0-3.2,1,30,30,0,0,0-3,1.59c-1,.58-1.9,1.25-2.87,1.91l.09-.07c-.15.12-.18.12-.21.15l-.12.08-.24.16-.47.31-1,.62-1.93,1.2c-1.29.79-2.59,1.55-3.93,2.28a69.63,69.63,0,0,1-8.28,3.81,77,77,0,0,1-8.68,2.79c-3,.71-5.79,1.47-8.65,2.38-5.68,1.81-11.26,4-16.75,6.33a106,106,0,0,0-15.76,8.19q-3.73,2.39-7.22,5.1c-2.35,1.84-4.65,3.69-6.82,5.66a72,72,0,0,0-11.46,13.16,78.91,78.91,0,0,0-4.47,7.5,59.89,59.89,0,0,0-3.59,7.9A45.28,45.28,0,0,0,74,191.1a52.83,52.83,0,0,0-.68,8.52,53.38,53.38,0,0,0,11,32,57.76,57.76,0,0,0,5.8,6.43c2.09,2,4.37,4,6.63,5.77A81.51,81.51,0,0,0,111.65,253c1.33.64,2.68,1.27,4,1.91s2.69,1.22,4.06,1.79c2.72,1.14,5.49,2.18,8.3,3.1a101.06,101.06,0,0,0,17.26,4,161.59,161.59,0,0,0,17.79,1.87c3,.06,6,0,9,0,1.5,0,3,0,4.43-.17s2.91-.43,4.37-.66l-.6.82v0l-.44-4.64.81.76h0a2.87,2.87,0,0,1-.72.23,3.51,3.51,0,0,1-.71.08h.08a79.68,79.68,0,0,1-26.66-2.22A74,74,0,0,1,109.3,229.1a62.15,62.15,0,0,1-3.52-5.88c-.54-1-1-2.07-1.49-3.11S103.37,218,103,217a69.11,69.11,0,0,1-3.78-13.15,59.52,59.52,0,0,1,1-27.23,64.91,64.91,0,0,1,12.43-24,62.25,62.25,0,0,1,9.6-9.53,57,57,0,0,1,11.55-7c2.09-.9,4.19-1.61,6.29-2.32s4.16-1.42,6.28-2.06l6.33-2c2.1-.67,4.25-1.21,6.38-1.83l1-.28.32,1h0A31.47,31.47,0,0,0,169,142.13a36.58,36.58,0,0,0,13.85,7.9,28.82,28.82,0,0,0,7.94,1.26,30.05,30.05,0,0,0,4-.19,31.48,31.48,0,0,0,4-.73,26.2,26.2,0,0,0,10.68-5.53c.51-.44,1-.93,1.52-1.37.27-.22.55-.43.85-.63a4.32,4.32,0,0,1,.48-.27l.13-.07.06.05A.31.31,0,0,0,212.84,142.53Z"/><path class="cls-1" d="M373.64,235.78a2.37,2.37,0,0,1-3.22,1.52,5.91,5.91,0,0,1-1.73-1,3.17,3.17,0,0,1-1-2.14,4.94,4.94,0,0,1,.4-2.4,8.39,8.39,0,0,1,.41-1,6.5,6.5,0,0,1,.46-.86,6.22,6.22,0,0,1,1.3-1.54,10.14,10.14,0,0,1,9.52-2,15.16,15.16,0,0,1,3.63,1.16,17.42,17.42,0,0,1,3.16,2c.48.36.9.7,1.35,1.07s.9.78,1.33,1.2a24,24,0,0,1,2.38,2.67,32.42,32.42,0,0,1,2,2.87c.58.93,1.16,2,1.68,3a42,42,0,0,1,4,13c.29,2.26.38,4.49.46,6.67s.09,4.43,0,6.64a75.59,75.59,0,0,1-1.59,13.15,101.69,101.69,0,0,1-3.57,12.67c-.73,2.06-1.48,4.12-2.4,6.11a52.39,52.39,0,0,1-3.19,5.73,51.18,51.18,0,0,0,2.8-5.89c.77-2,1.43-4.1,2-6.19a100.78,100.78,0,0,0,2.84-12.7,88.69,88.69,0,0,0,1-12.91c0-2.16-.07-4.32-.23-6.48s-.31-4.32-.66-6.42a36.76,36.76,0,0,0-4.27-12,30,30,0,0,0-3.64-5.14,15.62,15.62,0,0,0-2.24-2.07c-.4-.32-.81-.61-1.23-.89s-.89-.58-1.32-.84A12,12,0,0,0,378.9,231a10.47,10.47,0,0,0-4.95.35,9.92,9.92,0,0,0-2.16,1.3,4.75,4.75,0,0,0-1.37,1.36,1.31,1.31,0,0,0,.18.61,4.19,4.19,0,0,0,.67,1.08,1.46,1.46,0,0,0,.94.56A2.31,2.31,0,0,0,373.64,235.78Z"/><path class="cls-1" d="M254.5,118.21a18.75,18.75,0,0,0-2.56-3.68c-1-1.15-2.11-2.36-3.21-3.48s-2.21-2.29-3.32-3.4A40.18,40.18,0,0,1,242,104.2l.87-.76a40.54,40.54,0,0,0,3.61,3.08c1.23,1,2.42,2.12,3.64,3.19s2.36,2.13,3.55,3.29a20.85,20.85,0,0,1,3.2,4Z"/><path class="cls-1" d="M220.25,204.78c-.07.12,0,.13-.11.19l-.36.2-.7.39-1.41.81c-.92.55-1.84,1.12-2.74,1.69a56.06,56.06,0,0,0-5.17,3.78c-1.67,1.35-3.24,2.77-4.82,4.25s-3.13,2.9-4.59,4.44a58.36,58.36,0,0,0-4.1,4.8c-.65.83-1.26,1.68-1.86,2.54l-1.68,2.66-.83,1.32-.72,1.39L189.73,236a61.18,61.18,0,0,0-2.35,5.77,58,58,0,0,0-3,24.42,61.47,61.47,0,0,0,2.39,12.09,60.52,60.52,0,0,0,5,11.26,24.34,24.34,0,0,0,1.61,2.63c.58.86,1.12,1.74,1.72,2.58a58.33,58.33,0,0,0,3.94,4.82c1.4,1.54,2.88,3,4.42,4.55s3.07,2.95,4.66,4.37a89.1,89.1,0,0,0,21.12,14.12,105.78,105.78,0,0,0,24.25,8.24,109.06,109.06,0,0,0,25.63,2.34c2.16,0,4.3-.23,6.46-.37s4.27-.53,6.41-.79,4.24-.78,6.36-1.16,4.2-1,6.26-1.61A88.63,88.63,0,0,0,328,318.55,84.09,84.09,0,0,0,347,301.62a71.72,71.72,0,0,0,7.35-10.32,56,56,0,0,0,5-11.46,38.62,38.62,0,0,0,1.3-6,29.88,29.88,0,0,0,.21-6.12,24.87,24.87,0,0,0-3.58-11.44,31.06,31.06,0,0,0-8.34-8.88,40.87,40.87,0,0,0-11-5.59,46.46,46.46,0,0,0-24.82-1,57.6,57.6,0,0,0-12,4.17c-1.92.91-3.77,1.95-5.74,2.83-.49.22-1,.47-1.46.69s-1,.45-1.48.69c-1,.47-1.93,1-2.88,1.52h0l-.07-.11a35.33,35.33,0,0,1,19.1-4.49,37.31,37.31,0,0,1,18.78,6.36,24.36,24.36,0,0,1,7,7.32,26.54,26.54,0,0,1,3.25,9.55,52.16,52.16,0,0,1-.86,19.84,52.18,52.18,0,0,1-22.35,31.92,56.33,56.33,0,0,1-18.27,7.78,51.51,51.51,0,0,1-9.9,1.27,63.69,63.69,0,0,1-9.95-.37,66.8,66.8,0,0,1-9.8-1.91,90.13,90.13,0,0,1-9.43-3.19c-1.54-.63-3.07-1.3-4.57-2-.75-.35-1.48-.77-2.23-1.15s-1.49-.77-2.2-1.21a62.41,62.41,0,0,1-8.31-5.66A73.23,73.23,0,0,1,226,300a80.37,80.37,0,0,1-9.61-17.72,94.6,94.6,0,0,1-3.11-9.62,90.72,90.72,0,0,1-1.93-10A59.55,59.55,0,0,1,213,242.6a78.78,78.78,0,0,1,3-9.52c.61-1.53,1.31-3,1.9-4.56a57.87,57.87,0,0,0,2.73-14.26c0-1.63.09-3.26,0-4.88,0-.8-.07-1.61-.17-2.41,0-.4-.1-.8-.17-1.2l-.09-.56A1.62,1.62,0,0,1,220.25,204.78Zm.71-1.46a3.3,3.3,0,0,1,.76,1.39,2.47,2.47,0,0,1,.08.46l0,.32c0,.43.1.85.13,1.28.06.85.09,1.7.08,2.55,0,1.69-.09,3.33-.16,5a47.28,47.28,0,0,1-1.5,9.86c-.42,1.6-.58,3.32-.95,5s-.84,3.1-1.21,4.66-.67,3.11-.88,4.69-.46,3.13-.65,4.7a112.64,112.64,0,0,0-.06,18.91,88.36,88.36,0,0,0,1.5,9.4,87.14,87.14,0,0,0,2.62,9.18,74.78,74.78,0,0,0,21,31.66,60.79,60.79,0,0,0,7.71,5.75,68.84,68.84,0,0,0,8.58,4.43,88.45,88.45,0,0,0,9.11,3.32,50.76,50.76,0,0,0,9.44,2,62.2,62.2,0,0,0,9.65.33,44.66,44.66,0,0,0,9.5-1.32,51.37,51.37,0,0,0,38-38.35,50.94,50.94,0,0,0,.9-18.61,25.11,25.11,0,0,0-2.73-8.53,21.39,21.39,0,0,0-6-6.62,34.82,34.82,0,0,0-17.36-6.42,41.53,41.53,0,0,0-18.9,2.46l-.5.2.43-.31h0c1.6-1.47,3.25-2.93,5-4.25a40.24,40.24,0,0,1,5.62-3.44,60.42,60.42,0,0,1,12.33-4.84,49.81,49.81,0,0,1,26.62.05,44.72,44.72,0,0,1,6.4,2.37,42.08,42.08,0,0,1,6,3.44,35.42,35.42,0,0,1,9.67,10,31.38,31.38,0,0,1,1.72,3.12,32.86,32.86,0,0,1,1.31,3.33,31.72,31.72,0,0,1,1.33,7,34.35,34.35,0,0,1-.2,7,43.19,43.19,0,0,1-1.41,6.8c-2.56,8.88-7.74,16.61-13.73,23.17a88,88,0,0,1-20.89,16.35A113.85,113.85,0,0,1,305,330.75l-6.36,1.63c-2.14.42-4.28.89-6.43,1.27s-4.32.74-6.5,1l-3.27.35c-1.09.14-2.18.27-3.27.32a120.42,120.42,0,0,1-26.41-.82c-1.1-.17-2.2-.31-3.3-.49l-3.26-.71c-1.08-.25-2.18-.44-3.25-.75l-3.22-.89c-2.16-.54-4.25-1.33-6.37-2s-4.17-1.63-6.23-2.48A97.29,97.29,0,0,1,204.29,313c-1.72-1.41-3.41-2.87-5-4.38s-3.29-3-4.84-4.68a64.2,64.2,0,0,1-4.45-5.27c-.68-.92-1.31-1.9-2-2.85a27.79,27.79,0,0,1-1.85-2.93l-1.7-3c-.5-1-1-2.1-1.46-3.14-.24-.53-.49-1.05-.71-1.58l-.6-1.63c-.38-1.08-.81-2.15-1.15-3.26a61.78,61.78,0,0,1-1.65-6.7,58.39,58.39,0,0,1-.94-6.83,62.3,62.3,0,0,1,4.24-26.92A67.06,67.06,0,0,1,185,233.6c.55-1,1.16-2,1.75-2.94l.88-1.45,1-1.39,2-2.75c.71-.88,1.43-1.75,2.18-2.6a63.28,63.28,0,0,1,4.72-4.83A90.56,90.56,0,0,1,208,209.43a61.33,61.33,0,0,1,5.75-3.42c1-.52,2-1,3-1.44l1.53-.65.77-.31.38-.15.16-.07a2.12,2.12,0,0,1,.45-.12A2.2,2.2,0,0,1,221,203.32Z"/><path class="cls-1" d="M150.63,379c.74,1.54,1.31,2.94,1.91,4.43a7.77,7.77,0,0,0,.92,1.85,3.45,3.45,0,0,0,1.46,1.06A16.72,16.72,0,0,0,157,387a9.3,9.3,0,0,0,2.1.21,10.17,10.17,0,0,0,4-.95,8.32,8.32,0,0,0,1.7-1.12,6.94,6.94,0,0,0,1.3-1.42,6,6,0,0,0,1-3.6c-.06-.79-.12-1.31-.17-1.85a2.62,2.62,0,0,0-.88-1.6,2.5,2.5,0,0,0-.89-.55,1.53,1.53,0,0,0-.92-.11c-.23.06-.45.44-.56.79a2.93,2.93,0,0,0-.09,1.18,3,3,0,0,1-.35-1.24,1.76,1.76,0,0,1,.53-1.49,2.57,2.57,0,0,1,1.62-.41,4.67,4.67,0,0,1,1.45.29,4.6,4.6,0,0,1,2.46,1.91,6,6,0,0,1,.75,2.85,8.9,8.9,0,0,1-1.5,5.45,9.26,9.26,0,0,1-1.93,2.06,11.67,11.67,0,0,1-2.32,1.43,10.93,10.93,0,0,1-5.29.94,11.52,11.52,0,0,1-2.62-.47,17,17,0,0,1-2.42-.93,5.45,5.45,0,0,1-2.18-1.89,7.21,7.21,0,0,1-1-2.49,13.17,13.17,0,0,1-.39-4.93Z"/><path class="cls-1" d="M53.49,165.78c.62-.19,1.22-.38,1.8-.61s1.12-.51,1.65-.79a8.49,8.49,0,0,0,2.6-2,2.79,2.79,0,0,0,.39-1.24,2,2,0,0,0-.21-1.12,3.21,3.21,0,0,0-2.22-1.26,10.81,10.81,0,0,0-3.28-.34,14.71,14.71,0,0,0-3.33.64,20.77,20.77,0,0,0-6.31,3.16,22.16,22.16,0,0,0-2.7,2.32,20.35,20.35,0,0,0-2.21,2.77,57.51,57.51,0,0,0-3.7,6.41,60,60,0,0,0-5.4,13.82,57.58,57.58,0,0,0-1.68,14.73,51.07,51.07,0,0,0,.71,7.4c.41,2.44,1,4.9,1.54,7.35a120.46,120.46,0,0,0,4.43,14.38c.89,2.35,1.79,4.72,2.82,7A62.47,62.47,0,0,0,41.9,245a60.24,60.24,0,0,0,4.29,6.22c.78,1,1.57,2,2.4,2.91.42.48.84.94,1.27,1.4a10.21,10.21,0,0,0,1.33,1.25c-.08-.14-.3.2-.23.22v0l-.06-.08-.15-.18-.31-.36-.62-.72q-.62-.72-1.2-1.47c-.79-1-1.55-2-2.26-3.06a52.91,52.91,0,0,1-4-6.54,56.63,56.63,0,0,1-3.11-7c-.89-2.41-1.6-4.86-2.28-7.33A79.28,79.28,0,0,1,34.38,215c-.08-1.3-.12-2.59-.14-3.9s0-2.68.14-4a42.41,42.41,0,0,1,1.41-8c.2-.67.4-1.33.66-2a15.71,15.71,0,0,1,.85-2,15.12,15.12,0,0,1,2.7-3.7,16.2,16.2,0,0,1,3.7-2.72,13.17,13.17,0,0,1,4.62-1.52,15.57,15.57,0,0,1,4.9.15c.71.13,1.35.28,1.79.4s.66.15.64.18.18.26.58-.31a7.2,7.2,0,0,0,.93-2.56,12.67,12.67,0,0,0,.2-1.55,14,14,0,0,0,0-1.59,6.18,6.18,0,0,0-.79-2.74,4,4,0,0,0-1-1L54.12,177a9.25,9.25,0,0,0-1.52-.93,2.14,2.14,0,0,0-1.68-.2l-.08-.09a2.46,2.46,0,0,1,2-.84,8.13,8.13,0,0,1,2.11.2,18.1,18.1,0,0,1,2,.49A6.86,6.86,0,0,1,59,176.85a9.24,9.24,0,0,1,2.57,4.09,11.92,11.92,0,0,1,.53,2.18,16.32,16.32,0,0,1,.17,2.27,11.1,11.1,0,0,1-.88,4.78,7.07,7.07,0,0,1-1.83,2.54,6.57,6.57,0,0,1-1.51,1,6.07,6.07,0,0,1-1.84.52,5.45,5.45,0,0,1-3-.48,5,5,0,0,1-.94-.57,7.43,7.43,0,0,1-.74-.6A4.63,4.63,0,0,0,48.68,191c-2.2,0-4.14,1.71-5.24,3.6a19.38,19.38,0,0,0-1.29,3c-.35,1-.77,2.14-1.18,3.22a37.55,37.55,0,0,0-1.67,6.88c-.18,1.18-.33,2.37-.41,3.56s-.15,2.45-.17,3.68a77.22,77.22,0,0,0,.85,14.79,63.18,63.18,0,0,0,3.81,14.46,50.14,50.14,0,0,0,3.47,6.66c.68,1.06,1.39,2.09,2.14,3.1.38.51.76,1,1.15,1.5l.59.74.3.37.15.19.08.11a.19.19,0,0,1,0,.08c.1.07-.15.42-.27.25a24.94,24.94,0,0,1-2.7-2.75c-.84-.95-1.64-1.93-2.43-2.92-1.61-2-3-4-4.52-6.12A95.55,95.55,0,0,1,34,232a108.3,108.3,0,0,1-5.59-14.33c-.72-2.46-1.46-4.88-2.06-7.45a53.31,53.31,0,0,1-1.22-7.86,58.94,58.94,0,0,1,5.74-31.23,54.89,54.89,0,0,1,3.86-7.18,26.52,26.52,0,0,1,2.8-3.61,24.18,24.18,0,0,1,3.42-3A20.57,20.57,0,0,1,44.9,155a20,20,0,0,1,2.17-.79,20.75,20.75,0,0,1,2.13-.52,16.8,16.8,0,0,1,4.78-.3,15.52,15.52,0,0,1,2.44.4c.4.11.8.22,1.18.36l.58.21.49.22A10.6,10.6,0,0,1,61,155.91a5.67,5.67,0,0,1,2,2.6A5.2,5.2,0,0,1,63,161.6a5.88,5.88,0,0,1-.53,1.27,4.88,4.88,0,0,1-.86,1.14,5.43,5.43,0,0,1-2.11,1.25,16.36,16.36,0,0,1-2,.55,10.76,10.76,0,0,1-4,0Z"/><path class="cls-1" d="M65.84,282a168.73,168.73,0,0,0,29.71,10.38,233.91,233.91,0,0,0,31,5.77,218.6,218.6,0,0,0,31.43,1.48c5.25-.13,10.5-.46,15.72-1s10.44-1.14,15.69-1.63a116,116,0,0,1-15.6,2.51q-7.87.78-15.78,1a210.82,210.82,0,0,1-31.57-1.48,222.73,222.73,0,0,1-31-6c-5.09-1.35-10.14-2.88-15.11-4.63-2.49-.87-5-1.8-7.4-2.82q-1.81-.75-3.63-1.56a27.15,27.15,0,0,1-3.52-1.8Z"/><path class="cls-1" d="M240.36,158.73a24.67,24.67,0,0,0,3-1c1-.37,2-.77,2.93-1.23s1.88-1,2.77-1.5a15,15,0,0,0,2.42-1.89c.75-.7,1.47-1.46,2.18-2.24l.52-.59a1.91,1.91,0,0,0,.17-.22l.19-.3c.26-.43.52-.88.77-1.34.5-.92,1-1.86,1.45-2.8a20.82,20.82,0,0,0,1.14-2.78,23.48,23.48,0,0,0,1.11-5.81,31.31,31.31,0,0,0-.29-5.93,36.36,36.36,0,0,0-1.41-5.88,44,44,0,0,0-2.23-5.68l1.79-.93a2.31,2.31,0,0,1,.5-.14.39.39,0,0,1,.24,0c.07,0,.08.11.12.16l.22.36c.15.23.28.47.41.71.28.48.54,1,.79,1.46a30.16,30.16,0,0,1,1.32,3,37.81,37.81,0,0,1,1.74,6.43,23.55,23.55,0,0,1,.25,6.77,21.73,21.73,0,0,1-1.87,6.54,25.79,25.79,0,0,1-1.61,3c-.58.91-1.17,1.82-1.8,2.71-.31.45-.63.89-1,1.34l-.28.35a4,4,0,0,1-.35.36l-.6.55c-.81.73-1.64,1.44-2.52,2.1a16.14,16.14,0,0,1-2.83,1.76,25.56,25.56,0,0,1-3,1.22c-1,.34-2.08.61-3.12.85A28.52,28.52,0,0,1,240.36,158.73Z"/><path class="cls-1" d="M249.76,145.55c-2,.21-4,.52-6,.78a30.44,30.44,0,0,0-5.87,1.31l-1.41.51c-.24.09-.46.19-.74.28l-.7.24c-.93.35-1.84.75-2.77,1.16l-2.76,1.26a5.5,5.5,0,0,0-2.19,1.53,3.22,3.22,0,0,0-.67,2.28A2.32,2.32,0,0,0,227,156a8.69,8.69,0,0,0,.91,1,8.07,8.07,0,0,0,5,2.23c3.86.4,7.89-.57,11.75-1.53a24.47,24.47,0,0,0,10.19-5.77,22,22,0,0,0,3.63-4.63,26.79,26.79,0,0,0,2.51-5.38,24.45,24.45,0,0,0,.72-11.75A33.41,33.41,0,0,0,257.57,119l.85-.52A34.68,34.68,0,0,1,263,130a28.77,28.77,0,0,1,.51,6.22,24.14,24.14,0,0,1-1.08,6.19,27.64,27.64,0,0,1-2.6,5.69,23,23,0,0,1-8.87,8.76,27,27,0,0,1-5.8,2.41c-2,.54-4,1-6.06,1.31a23.63,23.63,0,0,1-6.3.26,11,11,0,0,1-3.17-.81,9.21,9.21,0,0,1-2.75-1.86,11.28,11.28,0,0,1-1.1-1.26,3.84,3.84,0,0,1-.69-1.75,4.55,4.55,0,0,1,1-3.42,6.92,6.92,0,0,1,2.78-1.92l2.81-1.22a28.31,28.31,0,0,1,2.92-1.1l.75-.22c.2,0,.46-.14.7-.22.49-.16,1-.31,1.48-.45a26.61,26.61,0,0,1,3-.67c1-.15,2.07-.22,3.07-.32,2-.19,4-.41,6.11-.5Z"/><path class="cls-1" d="M258.91,258.48c.35-.13.42,0,.55.12l.39.27c.26.18.53.35.8.5a3.26,3.26,0,0,0,1.8.4,5.54,5.54,0,0,0,1.81-.49,1.5,1.5,0,0,0,.73-.45,1.44,1.44,0,0,0,.18-.9,1.24,1.24,0,0,1,.37,1.17,2.22,2.22,0,0,1-.85,1,4.35,4.35,0,0,1-2.17.89,4.26,4.26,0,0,1-2.4-.54,3.46,3.46,0,0,1-.92-.72,5.19,5.19,0,0,1-.36-.46C258.75,259.16,258.53,259.1,258.91,258.48Z"/><path class="cls-1" d="M268.5,265.66c.5-.32.53-.17.65-.1l.34.23a5.56,5.56,0,0,0,.73.37,4.12,4.12,0,0,0,1.52.33,3.09,3.09,0,0,0,1.47-.49,2.7,2.7,0,0,0,1.34-1.09,2.85,2.85,0,0,1-2.71,2.87,3.87,3.87,0,0,1-1.13-.06,4.29,4.29,0,0,1-1-.34,3.25,3.25,0,0,1-.87-.56l-.39-.35c-.11-.12-.33-.16,0-.7Z"/><path class="cls-1" d="M144.38,190.44a10.52,10.52,0,0,0,1.13,1.42,5.3,5.3,0,0,0,1.33,1.14,3.6,3.6,0,0,0,1.6.6,2.91,2.91,0,0,0,1.69-.43,2.07,2.07,0,0,1-1.7,1.69,2.88,2.88,0,0,1-1.34,0,4.13,4.13,0,0,1-1.09-.43,3.45,3.45,0,0,1-1.49-1.72A3,3,0,0,1,144.38,190.44Z"/><path class="cls-1" d="M160,200.59a2.88,2.88,0,0,1-1.22,1.83,3.9,3.9,0,0,1-2.11.69,3.31,3.31,0,0,1-2.25-.59,2.59,2.59,0,0,1-1.09-2,6.1,6.1,0,0,0,1.56.95,4.61,4.61,0,0,0,1.73.27,5.55,5.55,0,0,0,1.77-.27A5.44,5.44,0,0,0,160,200.59Z"/></g></g></svg>